<?xml version="1.0" encoding="utf-8" standalone="no"?>
<!DOCTYPE svg PUBLIC "-//W3C//DTD SVG 1.1//EN"
  "http://www.w3.org/Graphics/SVG/1.1/DTD/svg11.dtd">
<svg xmlns:xlink="http://www.w3.org/1999/xlink" width="612pt" height="345.6pt" viewBox="0 0 612 345.6" xmlns="http://www.w3.org/2000/svg" version="1.1">
 <metadata>
  <rdf:RDF xmlns:dc="http://purl.org/dc/elements/1.1/" xmlns:cc="http://creativecommons.org/ns#" xmlns:rdf="http://www.w3.org/1999/02/22-rdf-syntax-ns#">
   <cc:Work>
    <dc:type rdf:resource="http://purl.org/dc/dcmitype/StillImage"/>
    <dc:date>2024-03-19T17:26:55.564547</dc:date>
    <dc:format>image/svg+xml</dc:format>
    <dc:creator>
     <cc:Agent>
      <dc:title>Matplotlib v3.5.1, https://matplotlib.org/</dc:title>
     </cc:Agent>
    </dc:creator>
   </cc:Work>
  </rdf:RDF>
 </metadata>
 <defs>
  <style type="text/css">*{stroke-linejoin: round; stroke-linecap: butt}</style>
 </defs>
 <g id="figure_1">
  <g id="patch_1">
   <path d="M 0 345.6 
L 612 345.6 
L 612 0 
L 0 0 
z
" style="fill: #ffffff"/>
  </g>
  <g id="axes_1">
   <g id="patch_2">
    <path d="M 418.0212 171.936 
C 418.0212 150.469492 411.398526 129.516852 399.060925 111.949991 
C 386.723325 94.38313 369.261477 81.043085 349.068821 73.758332 
C 328.876165 66.473579 306.919451 65.592885 286.208214 71.236964 
C 265.496976 76.881044 247.022794 88.779679 233.317862 105.301962 
L 313.65 171.936 
L 418.0212 171.936 
z
" style="fill: #1f77b4"/>
   </g>
   <g id="patch_3">
    <path d="M 233.317862 105.301962 
C 218.55028 123.105346 210.111992 145.322651 209.337345 168.44065 
C 208.562698 191.55865 215.494796 214.290991 229.037465 233.043007 
L 313.65 171.936 
L 233.317862 105.301962 
z
" style="fill: #ff7f0e"/>
   </g>
   <g id="patch_4">
    <path d="M 229.037465 233.043007 
C 235.546109 242.055277 243.453026 249.970068 252.458814 256.487678 
C 261.464602 263.005287 271.454135 268.042398 282.049149 271.408276 
L 313.65 171.936 
L 229.037465 233.043007 
z
" style="fill: #2ca02c"/>
   </g>
   <g id="patch_5">
    <path d="M 282.049149 271.408276 
C 289.196515 273.678887 296.567835 275.172561 304.035315 275.863404 
C 311.502795 276.554246 319.023031 276.438241 326.46565 275.5174 
L 313.65 171.936 
L 282.049149 271.408276 
z
" style="fill: #d62728"/>
   </g>
   <g id="patch_6">
    <path d="M 326.46565 275.5174 
C 328.077532 275.31797 329.684539 275.080941 331.285359 274.806508 
C 332.886178 274.532076 334.480374 274.220314 336.066643 273.871477 
L 313.65 171.936 
L 326.46565 275.5174 
z
" style="fill: #9467bd"/>
   </g>
   <g id="patch_7">
    <path d="M 336.066643 273.871477 
C 344.952815 271.917318 353.545431 268.80955 361.625746 264.62729 
C 369.70606 260.445029 377.204918 255.22407 383.931416 249.097324 
L 313.65 171.936 
L 336.066643 273.871477 
z
" style="fill: #8c564b"/>
   </g>
   <g id="patch_8">
    <path d="M 383.931416 249.097324 
C 394.669879 239.316331 403.249215 227.400497 409.119107 214.114159 
C 414.988998 200.82782 418.021196 186.461266 418.0212 171.936032 
L 313.65 171.936 
L 383.931416 249.097324 
z
" style="fill: #e377c2"/>
   </g>
   <g id="matplotlib.axis_1"/>
   <g id="matplotlib.axis_2"/>
   <g id="text_1">
    <!-- forest -->
    <g transform="translate(352.610703 66.69994)scale(0.1 -0.1)">
     <defs>
      <path id="DejaVuSans-66" d="M 2375 4863 
L 2375 4384 
L 1825 4384 
Q 1516 4384 1395 4259 
Q 1275 4134 1275 3809 
L 1275 3500 
L 2222 3500 
L 2222 3053 
L 1275 3053 
L 1275 0 
L 697 0 
L 697 3053 
L 147 3053 
L 147 3500 
L 697 3500 
L 697 3744 
Q 697 4328 969 4595 
Q 1241 4863 1831 4863 
L 2375 4863 
z
" transform="scale(0.015625)"/>
      <path id="DejaVuSans-6f" d="M 1959 3097 
Q 1497 3097 1228 2736 
Q 959 2375 959 1747 
Q 959 1119 1226 758 
Q 1494 397 1959 397 
Q 2419 397 2687 759 
Q 2956 1122 2956 1747 
Q 2956 2369 2687 2733 
Q 2419 3097 1959 3097 
z
M 1959 3584 
Q 2709 3584 3137 3096 
Q 3566 2609 3566 1747 
Q 3566 888 3137 398 
Q 2709 -91 1959 -91 
Q 1206 -91 779 398 
Q 353 888 353 1747 
Q 353 2609 779 3096 
Q 1206 3584 1959 3584 
z
" transform="scale(0.015625)"/>
      <path id="DejaVuSans-72" d="M 2631 2963 
Q 2534 3019 2420 3045 
Q 2306 3072 2169 3072 
Q 1681 3072 1420 2755 
Q 1159 2438 1159 1844 
L 1159 0 
L 581 0 
L 581 3500 
L 1159 3500 
L 1159 2956 
Q 1341 3275 1631 3429 
Q 1922 3584 2338 3584 
Q 2397 3584 2469 3576 
Q 2541 3569 2628 3553 
L 2631 2963 
z
" transform="scale(0.015625)"/>
      <path id="DejaVuSans-65" d="M 3597 1894 
L 3597 1613 
L 953 1613 
Q 991 1019 1311 708 
Q 1631 397 2203 397 
Q 2534 397 2845 478 
Q 3156 559 3463 722 
L 3463 178 
Q 3153 47 2828 -22 
Q 2503 -91 2169 -91 
Q 1331 -91 842 396 
Q 353 884 353 1716 
Q 353 2575 817 3079 
Q 1281 3584 2069 3584 
Q 2775 3584 3186 3129 
Q 3597 2675 3597 1894 
z
M 3022 2063 
Q 3016 2534 2758 2815 
Q 2500 3097 2075 3097 
Q 1594 3097 1305 2825 
Q 1016 2553 972 2059 
L 3022 2063 
z
" transform="scale(0.015625)"/>
      <path id="DejaVuSans-73" d="M 2834 3397 
L 2834 2853 
Q 2591 2978 2328 3040 
Q 2066 3103 1784 3103 
Q 1356 3103 1142 2972 
Q 928 2841 928 2578 
Q 928 2378 1081 2264 
Q 1234 2150 1697 2047 
L 1894 2003 
Q 2506 1872 2764 1633 
Q 3022 1394 3022 966 
Q 3022 478 2636 193 
Q 2250 -91 1575 -91 
Q 1294 -91 989 -36 
Q 684 19 347 128 
L 347 722 
Q 666 556 975 473 
Q 1284 391 1588 391 
Q 1994 391 2212 530 
Q 2431 669 2431 922 
Q 2431 1156 2273 1281 
Q 2116 1406 1581 1522 
L 1381 1569 
Q 847 1681 609 1914 
Q 372 2147 372 2553 
Q 372 3047 722 3315 
Q 1072 3584 1716 3584 
Q 2034 3584 2315 3537 
Q 2597 3491 2834 3397 
z
" transform="scale(0.015625)"/>
      <path id="DejaVuSans-74" d="M 1172 4494 
L 1172 3500 
L 2356 3500 
L 2356 3053 
L 1172 3053 
L 1172 1153 
Q 1172 725 1289 603 
Q 1406 481 1766 481 
L 2356 481 
L 2356 0 
L 1766 0 
Q 1100 0 847 248 
Q 594 497 594 1153 
L 594 3053 
L 172 3053 
L 172 3500 
L 594 3500 
L 594 4494 
L 1172 4494 
z
" transform="scale(0.015625)"/>
     </defs>
     <use xlink:href="#DejaVuSans-66"/>
     <use xlink:href="#DejaVuSans-6f" x="35.205078"/>
     <use xlink:href="#DejaVuSans-72" x="96.386719"/>
     <use xlink:href="#DejaVuSans-65" x="135.25"/>
     <use xlink:href="#DejaVuSans-73" x="196.773438"/>
     <use xlink:href="#DejaVuSans-74" x="248.873047"/>
    </g>
   </g>
   <g id="text_2">
    <!-- farmland -->
    <g transform="translate(153.988892 170.85049)scale(0.1 -0.1)">
     <defs>
      <path id="DejaVuSans-61" d="M 2194 1759 
Q 1497 1759 1228 1600 
Q 959 1441 959 1056 
Q 959 750 1161 570 
Q 1363 391 1709 391 
Q 2188 391 2477 730 
Q 2766 1069 2766 1631 
L 2766 1759 
L 2194 1759 
z
M 3341 1997 
L 3341 0 
L 2766 0 
L 2766 531 
Q 2569 213 2275 61 
Q 1981 -91 1556 -91 
Q 1019 -91 701 211 
Q 384 513 384 1019 
Q 384 1609 779 1909 
Q 1175 2209 1959 2209 
L 2766 2209 
L 2766 2266 
Q 2766 2663 2505 2880 
Q 2244 3097 1772 3097 
Q 1472 3097 1187 3025 
Q 903 2953 641 2809 
L 641 3341 
Q 956 3463 1253 3523 
Q 1550 3584 1831 3584 
Q 2591 3584 2966 3190 
Q 3341 2797 3341 1997 
z
" transform="scale(0.015625)"/>
      <path id="DejaVuSans-6d" d="M 3328 2828 
Q 3544 3216 3844 3400 
Q 4144 3584 4550 3584 
Q 5097 3584 5394 3201 
Q 5691 2819 5691 2113 
L 5691 0 
L 5113 0 
L 5113 2094 
Q 5113 2597 4934 2840 
Q 4756 3084 4391 3084 
Q 3944 3084 3684 2787 
Q 3425 2491 3425 1978 
L 3425 0 
L 2847 0 
L 2847 2094 
Q 2847 2600 2669 2842 
Q 2491 3084 2119 3084 
Q 1678 3084 1418 2786 
Q 1159 2488 1159 1978 
L 1159 0 
L 581 0 
L 581 3500 
L 1159 3500 
L 1159 2956 
Q 1356 3278 1631 3431 
Q 1906 3584 2284 3584 
Q 2666 3584 2933 3390 
Q 3200 3197 3328 2828 
z
" transform="scale(0.015625)"/>
      <path id="DejaVuSans-6c" d="M 603 4863 
L 1178 4863 
L 1178 0 
L 603 0 
L 603 4863 
z
" transform="scale(0.015625)"/>
      <path id="DejaVuSans-6e" d="M 3513 2113 
L 3513 0 
L 2938 0 
L 2938 2094 
Q 2938 2591 2744 2837 
Q 2550 3084 2163 3084 
Q 1697 3084 1428 2787 
Q 1159 2491 1159 1978 
L 1159 0 
L 581 0 
L 581 3500 
L 1159 3500 
L 1159 2956 
Q 1366 3272 1645 3428 
Q 1925 3584 2291 3584 
Q 2894 3584 3203 3211 
Q 3513 2838 3513 2113 
z
" transform="scale(0.015625)"/>
      <path id="DejaVuSans-64" d="M 2906 2969 
L 2906 4863 
L 3481 4863 
L 3481 0 
L 2906 0 
L 2906 525 
Q 2725 213 2448 61 
Q 2172 -91 1784 -91 
Q 1150 -91 751 415 
Q 353 922 353 1747 
Q 353 2572 751 3078 
Q 1150 3584 1784 3584 
Q 2172 3584 2448 3432 
Q 2725 3281 2906 2969 
z
M 947 1747 
Q 947 1113 1208 752 
Q 1469 391 1925 391 
Q 2381 391 2643 752 
Q 2906 1113 2906 1747 
Q 2906 2381 2643 2742 
Q 2381 3103 1925 3103 
Q 1469 3103 1208 2742 
Q 947 2381 947 1747 
z
" transform="scale(0.015625)"/>
     </defs>
     <use xlink:href="#DejaVuSans-66"/>
     <use xlink:href="#DejaVuSans-61" x="35.205078"/>
     <use xlink:href="#DejaVuSans-72" x="96.484375"/>
     <use xlink:href="#DejaVuSans-6d" x="135.847656"/>
     <use xlink:href="#DejaVuSans-6c" x="233.259766"/>
     <use xlink:href="#DejaVuSans-61" x="261.042969"/>
     <use xlink:href="#DejaVuSans-6e" x="322.322266"/>
     <use xlink:href="#DejaVuSans-64" x="385.701172"/>
    </g>
   </g>
   <g id="text_3">
    <!-- meadow -->
    <g transform="translate(203.672508 267.70222)scale(0.1 -0.1)">
     <defs>
      <path id="DejaVuSans-77" d="M 269 3500 
L 844 3500 
L 1563 769 
L 2278 3500 
L 2956 3500 
L 3675 769 
L 4391 3500 
L 4966 3500 
L 4050 0 
L 3372 0 
L 2619 2869 
L 1863 0 
L 1184 0 
L 269 3500 
z
" transform="scale(0.015625)"/>
     </defs>
     <use xlink:href="#DejaVuSans-6d"/>
     <use xlink:href="#DejaVuSans-65" x="97.412109"/>
     <use xlink:href="#DejaVuSans-61" x="158.935547"/>
     <use xlink:href="#DejaVuSans-64" x="220.214844"/>
     <use xlink:href="#DejaVuSans-6f" x="283.691406"/>
     <use xlink:href="#DejaVuSans-77" x="344.873047"/>
    </g>
   </g>
   <g id="text_4">
    <!-- residential -->
    <g transform="translate(250.603534 289.015519)scale(0.1 -0.1)">
     <defs>
      <path id="DejaVuSans-69" d="M 603 3500 
L 1178 3500 
L 1178 0 
L 603 0 
L 603 3500 
z
M 603 4863 
L 1178 4863 
L 1178 4134 
L 603 4134 
L 603 4863 
z
" transform="scale(0.015625)"/>
     </defs>
     <use xlink:href="#DejaVuSans-72"/>
     <use xlink:href="#DejaVuSans-65" x="38.863281"/>
     <use xlink:href="#DejaVuSans-73" x="100.386719"/>
     <use xlink:href="#DejaVuSans-69" x="152.486328"/>
     <use xlink:href="#DejaVuSans-64" x="180.269531"/>
     <use xlink:href="#DejaVuSans-65" x="243.746094"/>
     <use xlink:href="#DejaVuSans-6e" x="305.269531"/>
     <use xlink:href="#DejaVuSans-74" x="368.648438"/>
     <use xlink:href="#DejaVuSans-69" x="407.857422"/>
     <use xlink:href="#DejaVuSans-61" x="435.640625"/>
     <use xlink:href="#DejaVuSans-6c" x="496.919922"/>
    </g>
   </g>
   <g id="text_5">
    <!-- orchard -->
    <g transform="translate(333.048895 287.852934)scale(0.1 -0.1)">
     <defs>
      <path id="DejaVuSans-63" d="M 3122 3366 
L 3122 2828 
Q 2878 2963 2633 3030 
Q 2388 3097 2138 3097 
Q 1578 3097 1268 2742 
Q 959 2388 959 1747 
Q 959 1106 1268 751 
Q 1578 397 2138 397 
Q 2388 397 2633 464 
Q 2878 531 3122 666 
L 3122 134 
Q 2881 22 2623 -34 
Q 2366 -91 2075 -91 
Q 1284 -91 818 406 
Q 353 903 353 1747 
Q 353 2603 823 3093 
Q 1294 3584 2113 3584 
Q 2378 3584 2631 3529 
Q 2884 3475 3122 3366 
z
" transform="scale(0.015625)"/>
      <path id="DejaVuSans-68" d="M 3513 2113 
L 3513 0 
L 2938 0 
L 2938 2094 
Q 2938 2591 2744 2837 
Q 2550 3084 2163 3084 
Q 1697 3084 1428 2787 
Q 1159 2491 1159 1978 
L 1159 0 
L 581 0 
L 581 4863 
L 1159 4863 
L 1159 2956 
Q 1366 3272 1645 3428 
Q 1925 3584 2291 3584 
Q 2894 3584 3203 3211 
Q 3513 2838 3513 2113 
z
" transform="scale(0.015625)"/>
     </defs>
     <use xlink:href="#DejaVuSans-6f"/>
     <use xlink:href="#DejaVuSans-72" x="61.181641"/>
     <use xlink:href="#DejaVuSans-63" x="100.044922"/>
     <use xlink:href="#DejaVuSans-68" x="155.025391"/>
     <use xlink:href="#DejaVuSans-61" x="218.404297"/>
     <use xlink:href="#DejaVuSans-72" x="279.683594"/>
     <use xlink:href="#DejaVuSans-64" x="319.046875"/>
    </g>
   </g>
   <g id="text_6">
    <!-- andere -->
    <g transform="translate(366.42332 276.655794)scale(0.1 -0.1)">
     <use xlink:href="#DejaVuSans-61"/>
     <use xlink:href="#DejaVuSans-6e" x="61.279297"/>
     <use xlink:href="#DejaVuSans-64" x="124.658203"/>
     <use xlink:href="#DejaVuSans-65" x="188.134766"/>
     <use xlink:href="#DejaVuSans-72" x="249.658203"/>
     <use xlink:href="#DejaVuSans-65" x="288.521484"/>
    </g>
   </g>
   <g id="text_7">
    <!-- nicht erfasst -->
    <g transform="translate(418.666017 221.091349)scale(0.1 -0.1)">
     <defs>
      <path id="DejaVuSans-20" transform="scale(0.015625)"/>
     </defs>
     <use xlink:href="#DejaVuSans-6e"/>
     <use xlink:href="#DejaVuSans-69" x="63.378906"/>
     <use xlink:href="#DejaVuSans-63" x="91.162109"/>
     <use xlink:href="#DejaVuSans-68" x="146.142578"/>
     <use xlink:href="#DejaVuSans-74" x="209.521484"/>
     <use xlink:href="#DejaVuSans-20" x="248.730469"/>
     <use xlink:href="#DejaVuSans-65" x="280.517578"/>
     <use xlink:href="#DejaVuSans-72" x="342.041016"/>
     <use xlink:href="#DejaVuSans-66" x="383.154297"/>
     <use xlink:href="#DejaVuSans-61" x="418.359375"/>
     <use xlink:href="#DejaVuSans-73" x="479.638672"/>
     <use xlink:href="#DejaVuSans-73" x="531.738281"/>
     <use xlink:href="#DejaVuSans-74" x="583.837891"/>
    </g>
   </g>
   <g id="text_8">
    <!-- Featureklassen ohne Überlappung (km²) -->
    <g transform="translate(192.58875 35.472)scale(0.12 -0.12)">
     <defs>
      <path id="DejaVuSans-46" d="M 628 4666 
L 3309 4666 
L 3309 4134 
L 1259 4134 
L 1259 2759 
L 3109 2759 
L 3109 2228 
L 1259 2228 
L 1259 0 
L 628 0 
L 628 4666 
z
" transform="scale(0.015625)"/>
      <path id="DejaVuSans-75" d="M 544 1381 
L 544 3500 
L 1119 3500 
L 1119 1403 
Q 1119 906 1312 657 
Q 1506 409 1894 409 
Q 2359 409 2629 706 
Q 2900 1003 2900 1516 
L 2900 3500 
L 3475 3500 
L 3475 0 
L 2900 0 
L 2900 538 
Q 2691 219 2414 64 
Q 2138 -91 1772 -91 
Q 1169 -91 856 284 
Q 544 659 544 1381 
z
M 1991 3584 
L 1991 3584 
z
" transform="scale(0.015625)"/>
      <path id="DejaVuSans-6b" d="M 581 4863 
L 1159 4863 
L 1159 1991 
L 2875 3500 
L 3609 3500 
L 1753 1863 
L 3688 0 
L 2938 0 
L 1159 1709 
L 1159 0 
L 581 0 
L 581 4863 
z
" transform="scale(0.015625)"/>
      <path id="DejaVuSans-dc" d="M 556 4666 
L 1191 4666 
L 1191 1831 
Q 1191 1081 1462 751 
Q 1734 422 2344 422 
Q 2950 422 3222 751 
Q 3494 1081 3494 1831 
L 3494 4666 
L 4128 4666 
L 4128 1753 
Q 4128 841 3676 375 
Q 3225 -91 2344 -91 
Q 1459 -91 1007 375 
Q 556 841 556 1753 
L 556 4666 
z
M 2638 5844 
L 3272 5844 
L 3272 5210 
L 2638 5210 
L 2638 5844 
z
M 1416 5844 
L 2050 5844 
L 2050 5210 
L 1416 5210 
L 1416 5844 
z
" transform="scale(0.015625)"/>
      <path id="DejaVuSans-62" d="M 3116 1747 
Q 3116 2381 2855 2742 
Q 2594 3103 2138 3103 
Q 1681 3103 1420 2742 
Q 1159 2381 1159 1747 
Q 1159 1113 1420 752 
Q 1681 391 2138 391 
Q 2594 391 2855 752 
Q 3116 1113 3116 1747 
z
M 1159 2969 
Q 1341 3281 1617 3432 
Q 1894 3584 2278 3584 
Q 2916 3584 3314 3078 
Q 3713 2572 3713 1747 
Q 3713 922 3314 415 
Q 2916 -91 2278 -91 
Q 1894 -91 1617 61 
Q 1341 213 1159 525 
L 1159 0 
L 581 0 
L 581 4863 
L 1159 4863 
L 1159 2969 
z
" transform="scale(0.015625)"/>
      <path id="DejaVuSans-70" d="M 1159 525 
L 1159 -1331 
L 581 -1331 
L 581 3500 
L 1159 3500 
L 1159 2969 
Q 1341 3281 1617 3432 
Q 1894 3584 2278 3584 
Q 2916 3584 3314 3078 
Q 3713 2572 3713 1747 
Q 3713 922 3314 415 
Q 2916 -91 2278 -91 
Q 1894 -91 1617 61 
Q 1341 213 1159 525 
z
M 3116 1747 
Q 3116 2381 2855 2742 
Q 2594 3103 2138 3103 
Q 1681 3103 1420 2742 
Q 1159 2381 1159 1747 
Q 1159 1113 1420 752 
Q 1681 391 2138 391 
Q 2594 391 2855 752 
Q 3116 1113 3116 1747 
z
" transform="scale(0.015625)"/>
      <path id="DejaVuSans-67" d="M 2906 1791 
Q 2906 2416 2648 2759 
Q 2391 3103 1925 3103 
Q 1463 3103 1205 2759 
Q 947 2416 947 1791 
Q 947 1169 1205 825 
Q 1463 481 1925 481 
Q 2391 481 2648 825 
Q 2906 1169 2906 1791 
z
M 3481 434 
Q 3481 -459 3084 -895 
Q 2688 -1331 1869 -1331 
Q 1566 -1331 1297 -1286 
Q 1028 -1241 775 -1147 
L 775 -588 
Q 1028 -725 1275 -790 
Q 1522 -856 1778 -856 
Q 2344 -856 2625 -561 
Q 2906 -266 2906 331 
L 2906 616 
Q 2728 306 2450 153 
Q 2172 0 1784 0 
Q 1141 0 747 490 
Q 353 981 353 1791 
Q 353 2603 747 3093 
Q 1141 3584 1784 3584 
Q 2172 3584 2450 3431 
Q 2728 3278 2906 2969 
L 2906 3500 
L 3481 3500 
L 3481 434 
z
" transform="scale(0.015625)"/>
      <path id="DejaVuSans-28" d="M 1984 4856 
Q 1566 4138 1362 3434 
Q 1159 2731 1159 2009 
Q 1159 1288 1364 580 
Q 1569 -128 1984 -844 
L 1484 -844 
Q 1016 -109 783 600 
Q 550 1309 550 2009 
Q 550 2706 781 3412 
Q 1013 4119 1484 4856 
L 1984 4856 
z
" transform="scale(0.015625)"/>
      <path id="DejaVuSans-b2" d="M 838 2444 
L 2163 2444 
L 2163 2088 
L 294 2088 
L 294 2431 
Q 400 2528 597 2703 
Q 1672 3656 1672 3950 
Q 1672 4156 1509 4282 
Q 1347 4409 1081 4409 
Q 919 4409 728 4354 
Q 538 4300 313 4191 
L 313 4575 
Q 553 4663 761 4706 
Q 969 4750 1147 4750 
Q 1600 4750 1872 4544 
Q 2144 4338 2144 4000 
Q 2144 3566 1109 2678 
Q 934 2528 838 2444 
z
" transform="scale(0.015625)"/>
      <path id="DejaVuSans-29" d="M 513 4856 
L 1013 4856 
Q 1481 4119 1714 3412 
Q 1947 2706 1947 2009 
Q 1947 1309 1714 600 
Q 1481 -109 1013 -844 
L 513 -844 
Q 928 -128 1133 580 
Q 1338 1288 1338 2009 
Q 1338 2731 1133 3434 
Q 928 4138 513 4856 
z
" transform="scale(0.015625)"/>
     </defs>
     <use xlink:href="#DejaVuSans-46"/>
     <use xlink:href="#DejaVuSans-65" x="52.019531"/>
     <use xlink:href="#DejaVuSans-61" x="113.542969"/>
     <use xlink:href="#DejaVuSans-74" x="174.822266"/>
     <use xlink:href="#DejaVuSans-75" x="214.03125"/>
     <use xlink:href="#DejaVuSans-72" x="277.410156"/>
     <use xlink:href="#DejaVuSans-65" x="316.273438"/>
     <use xlink:href="#DejaVuSans-6b" x="377.796875"/>
     <use xlink:href="#DejaVuSans-6c" x="435.707031"/>
     <use xlink:href="#DejaVuSans-61" x="463.490234"/>
     <use xlink:href="#DejaVuSans-73" x="524.769531"/>
     <use xlink:href="#DejaVuSans-73" x="576.869141"/>
     <use xlink:href="#DejaVuSans-65" x="628.96875"/>
     <use xlink:href="#DejaVuSans-6e" x="690.492188"/>
     <use xlink:href="#DejaVuSans-20" x="753.871094"/>
     <use xlink:href="#DejaVuSans-6f" x="785.658203"/>
     <use xlink:href="#DejaVuSans-68" x="846.839844"/>
     <use xlink:href="#DejaVuSans-6e" x="910.21875"/>
     <use xlink:href="#DejaVuSans-65" x="973.597656"/>
     <use xlink:href="#DejaVuSans-20" x="1035.121094"/>
     <use xlink:href="#DejaVuSans-dc" x="1066.908203"/>
     <use xlink:href="#DejaVuSans-62" x="1140.101562"/>
     <use xlink:href="#DejaVuSans-65" x="1203.578125"/>
     <use xlink:href="#DejaVuSans-72" x="1265.101562"/>
     <use xlink:href="#DejaVuSans-6c" x="1306.214844"/>
     <use xlink:href="#DejaVuSans-61" x="1333.998047"/>
     <use xlink:href="#DejaVuSans-70" x="1395.277344"/>
     <use xlink:href="#DejaVuSans-70" x="1458.753906"/>
     <use xlink:href="#DejaVuSans-75" x="1522.230469"/>
     <use xlink:href="#DejaVuSans-6e" x="1585.609375"/>
     <use xlink:href="#DejaVuSans-67" x="1648.988281"/>
     <use xlink:href="#DejaVuSans-20" x="1712.464844"/>
     <use xlink:href="#DejaVuSans-28" x="1744.251953"/>
     <use xlink:href="#DejaVuSans-6b" x="1783.265625"/>
     <use xlink:href="#DejaVuSans-6d" x="1841.175781"/>
     <use xlink:href="#DejaVuSans-b2" x="1938.587891"/>
     <use xlink:href="#DejaVuSans-29" x="1978.675781"/>
    </g>
   </g>
  </g>
 </g>
</svg>
