<?xml version="1.0" encoding="utf-8" standalone="no"?>
<!DOCTYPE svg PUBLIC "-//W3C//DTD SVG 1.1//EN"
  "http://www.w3.org/Graphics/SVG/1.1/DTD/svg11.dtd">
<svg xmlns:xlink="http://www.w3.org/1999/xlink" width="612pt" height="345.6pt" viewBox="0 0 612 345.6" xmlns="http://www.w3.org/2000/svg" version="1.1">
 <metadata>
  <rdf:RDF xmlns:dc="http://purl.org/dc/elements/1.1/" xmlns:cc="http://creativecommons.org/ns#" xmlns:rdf="http://www.w3.org/1999/02/22-rdf-syntax-ns#">
   <cc:Work>
    <dc:type rdf:resource="http://purl.org/dc/dcmitype/StillImage"/>
    <dc:date>2024-07-08T09:22:24.297073</dc:date>
    <dc:format>image/svg+xml</dc:format>
    <dc:creator>
     <cc:Agent>
      <dc:title>Matplotlib v3.7.5, https://matplotlib.org/</dc:title>
     </cc:Agent>
    </dc:creator>
   </cc:Work>
  </rdf:RDF>
 </metadata>
 <defs>
  <style type="text/css">*{stroke-linejoin: round; stroke-linecap: butt}</style>
 </defs>
 <g id="figure_1">
  <g id="patch_1">
   <path d="M 0 345.6 
L 612 345.6 
L 612 0 
L 0 0 
z
" style="fill: #ffffff"/>
  </g>
  <g id="axes_1">
   <g id="patch_2">
    <path d="M 76.5 276.48 
L 550.8 276.48 
L 550.8 41.472 
L 76.5 41.472 
z
" style="fill: #ffffff"/>
   </g>
   <g id="patch_3">
    <path d="M 76.5 276.48 
L 82.42875 276.48 
L 82.42875 52.662857 
L 76.5 52.662857 
z
" clip-path="url(#p371fb25a19)" style="fill: #1f77b4"/>
   </g>
   <g id="patch_4">
    <path d="M 82.42875 276.48 
L 88.3575 276.48 
L 88.3575 237.72396 
L 82.42875 237.72396 
z
" clip-path="url(#p371fb25a19)" style="fill: #1f77b4"/>
   </g>
   <g id="patch_5">
    <path d="M 88.3575 276.48 
L 94.28625 276.48 
L 94.28625 254.861496 
L 88.3575 254.861496 
z
" clip-path="url(#p371fb25a19)" style="fill: #1f77b4"/>
   </g>
   <g id="patch_6">
    <path d="M 94.28625 276.48 
L 100.215 276.48 
L 100.215 263.649976 
L 94.28625 263.649976 
z
" clip-path="url(#p371fb25a19)" style="fill: #1f77b4"/>
   </g>
   <g id="patch_7">
    <path d="M 100.215 276.48 
L 106.14375 276.48 
L 106.14375 266.986129 
L 100.215 266.986129 
z
" clip-path="url(#p371fb25a19)" style="fill: #1f77b4"/>
   </g>
   <g id="patch_8">
    <path d="M 106.14375 276.48 
L 112.0725 276.48 
L 112.0725 268.605059 
L 106.14375 268.605059 
z
" clip-path="url(#p371fb25a19)" style="fill: #1f77b4"/>
   </g>
   <g id="patch_9">
    <path d="M 112.0725 276.48 
L 118.00125 276.48 
L 118.00125 270.027406 
L 112.0725 270.027406 
z
" clip-path="url(#p371fb25a19)" style="fill: #1f77b4"/>
   </g>
   <g id="patch_10">
    <path d="M 118.00125 276.48 
L 123.93 276.48 
L 123.93 271.663682 
L 118.00125 271.663682 
z
" clip-path="url(#p371fb25a19)" style="fill: #1f77b4"/>
   </g>
   <g id="patch_11">
    <path d="M 123.93 276.48 
L 129.85875 276.48 
L 129.85875 270.767488 
L 123.93 270.767488 
z
" clip-path="url(#p371fb25a19)" style="fill: #1f77b4"/>
   </g>
   <g id="patch_12">
    <path d="M 129.85875 276.48 
L 135.7875 276.48 
L 135.7875 273.172756 
L 129.85875 273.172756 
z
" clip-path="url(#p371fb25a19)" style="fill: #1f77b4"/>
   </g>
   <g id="patch_13">
    <path d="M 135.7875 276.48 
L 141.71625 276.48 
L 141.71625 272.473147 
L 135.7875 272.473147 
z
" clip-path="url(#p371fb25a19)" style="fill: #1f77b4"/>
   </g>
   <g id="patch_14">
    <path d="M 141.71625 276.48 
L 147.645 276.48 
L 147.645 273.022427 
L 141.71625 273.022427 
z
" clip-path="url(#p371fb25a19)" style="fill: #1f77b4"/>
   </g>
   <g id="patch_15">
    <path d="M 147.645 276.48 
L 153.57375 276.48 
L 153.57375 273.51967 
L 147.645 273.51967 
z
" clip-path="url(#p371fb25a19)" style="fill: #1f77b4"/>
   </g>
   <g id="patch_16">
    <path d="M 153.57375 276.48 
L 159.5025 276.48 
L 159.5025 272.964608 
L 153.57375 272.964608 
z
" clip-path="url(#p371fb25a19)" style="fill: #1f77b4"/>
   </g>
   <g id="patch_17">
    <path d="M 159.5025 276.48 
L 165.43125 276.48 
L 165.43125 273.85502 
L 159.5025 273.85502 
z
" clip-path="url(#p371fb25a19)" style="fill: #1f77b4"/>
   </g>
   <g id="patch_18">
    <path d="M 165.43125 276.48 
L 171.36 276.48 
L 171.36 274.392736 
L 165.43125 274.392736 
z
" clip-path="url(#p371fb25a19)" style="fill: #1f77b4"/>
   </g>
   <g id="patch_19">
    <path d="M 171.36 276.48 
L 177.28875 276.48 
L 177.28875 273.247921 
L 171.36 273.247921 
z
" clip-path="url(#p371fb25a19)" style="fill: #1f77b4"/>
   </g>
   <g id="patch_20">
    <path d="M 177.28875 276.48 
L 183.2175 276.48 
L 183.2175 273.918621 
L 177.28875 273.918621 
z
" clip-path="url(#p371fb25a19)" style="fill: #1f77b4"/>
   </g>
   <g id="patch_21">
    <path d="M 183.2175 276.48 
L 189.14625 276.48 
L 189.14625 273.774073 
L 183.2175 273.774073 
z
" clip-path="url(#p371fb25a19)" style="fill: #1f77b4"/>
   </g>
   <g id="patch_22">
    <path d="M 189.14625 276.48 
L 195.075 276.48 
L 195.075 274.49681 
L 189.14625 274.49681 
z
" clip-path="url(#p371fb25a19)" style="fill: #1f77b4"/>
   </g>
   <g id="patch_23">
    <path d="M 195.075 276.48 
L 201.00375 276.48 
L 201.00375 273.340431 
L 195.075 273.340431 
z
" clip-path="url(#p371fb25a19)" style="fill: #1f77b4"/>
   </g>
   <g id="patch_24">
    <path d="M 201.00375 276.48 
L 206.9325 276.48 
L 206.9325 274.381172 
L 201.00375 274.381172 
z
" clip-path="url(#p371fb25a19)" style="fill: #1f77b4"/>
   </g>
   <g id="patch_25">
    <path d="M 206.9325 276.48 
L 212.86125 276.48 
L 212.86125 274.271316 
L 206.9325 274.271316 
z
" clip-path="url(#p371fb25a19)" style="fill: #1f77b4"/>
   </g>
   <g id="patch_26">
    <path d="M 212.86125 276.48 
L 218.79 276.48 
L 218.79 274.664485 
L 212.86125 274.664485 
z
" clip-path="url(#p371fb25a19)" style="fill: #1f77b4"/>
   </g>
   <g id="patch_27">
    <path d="M 218.79 276.48 
L 224.71875 276.48 
L 224.71875 274.277098 
L 218.79 274.277098 
z
" clip-path="url(#p371fb25a19)" style="fill: #1f77b4"/>
   </g>
   <g id="patch_28">
    <path d="M 224.71875 276.48 
L 230.6475 276.48 
L 230.6475 274.438991 
L 224.71875 274.438991 
z
" clip-path="url(#p371fb25a19)" style="fill: #1f77b4"/>
   </g>
   <g id="patch_29">
    <path d="M 230.6475 276.48 
L 236.57625 276.48 
L 236.57625 273.282612 
L 230.6475 273.282612 
z
" clip-path="url(#p371fb25a19)" style="fill: #1f77b4"/>
   </g>
   <g id="patch_30">
    <path d="M 236.57625 276.48 
L 242.505 276.48 
L 242.505 274.600884 
L 236.57625 274.600884 
z
" clip-path="url(#p371fb25a19)" style="fill: #1f77b4"/>
   </g>
   <g id="patch_31">
    <path d="M 242.505 276.48 
L 248.43375 276.48 
L 248.43375 274.595102 
L 242.505 274.595102 
z
" clip-path="url(#p371fb25a19)" style="fill: #1f77b4"/>
   </g>
   <g id="patch_32">
    <path d="M 248.43375 276.48 
L 254.3625 276.48 
L 254.3625 274.768559 
L 248.43375 274.768559 
z
" clip-path="url(#p371fb25a19)" style="fill: #1f77b4"/>
   </g>
   <g id="patch_33">
    <path d="M 254.3625 276.48 
L 260.29125 276.48 
L 260.29125 274.780123 
L 254.3625 274.780123 
z
" clip-path="url(#p371fb25a19)" style="fill: #1f77b4"/>
   </g>
   <g id="patch_34">
    <path d="M 260.29125 276.48 
L 266.22 276.48 
L 266.22 274.826378 
L 260.29125 274.826378 
z
" clip-path="url(#p371fb25a19)" style="fill: #1f77b4"/>
   </g>
   <g id="patch_35">
    <path d="M 266.22 276.48 
L 272.14875 276.48 
L 272.14875 274.323353 
L 266.22 274.323353 
z
" clip-path="url(#p371fb25a19)" style="fill: #1f77b4"/>
   </g>
   <g id="patch_36">
    <path d="M 272.14875 276.48 
L 278.0775 276.48 
L 278.0775 274.930452 
L 272.14875 274.930452 
z
" clip-path="url(#p371fb25a19)" style="fill: #1f77b4"/>
   </g>
   <g id="patch_37">
    <path d="M 278.0775 276.48 
L 284.00625 276.48 
L 284.00625 274.878415 
L 278.0775 274.878415 
z
" clip-path="url(#p371fb25a19)" style="fill: #1f77b4"/>
   </g>
   <g id="patch_38">
    <path d="M 284.00625 276.48 
L 289.935 276.48 
L 289.935 275.092345 
L 284.00625 275.092345 
z
" clip-path="url(#p371fb25a19)" style="fill: #1f77b4"/>
   </g>
   <g id="patch_39">
    <path d="M 289.935 276.48 
L 295.86375 276.48 
L 295.86375 275.069218 
L 289.935 275.069218 
z
" clip-path="url(#p371fb25a19)" style="fill: #1f77b4"/>
   </g>
   <g id="patch_40">
    <path d="M 295.86375 276.48 
L 301.7925 276.48 
L 301.7925 275.346749 
L 295.86375 275.346749 
z
" clip-path="url(#p371fb25a19)" style="fill: #1f77b4"/>
   </g>
   <g id="patch_41">
    <path d="M 301.7925 276.48 
L 307.72125 276.48 
L 307.72125 275.254238 
L 301.7925 275.254238 
z
" clip-path="url(#p371fb25a19)" style="fill: #1f77b4"/>
   </g>
   <g id="patch_42">
    <path d="M 307.72125 276.48 
L 313.65 276.48 
L 313.65 275.589588 
L 307.72125 275.589588 
z
" clip-path="url(#p371fb25a19)" style="fill: #1f77b4"/>
   </g>
   <g id="patch_43">
    <path d="M 313.65 276.48 
L 319.57875 276.48 
L 319.57875 273.785637 
L 313.65 273.785637 
z
" clip-path="url(#p371fb25a19)" style="fill: #1f77b4"/>
   </g>
   <g id="patch_44">
    <path d="M 319.57875 276.48 
L 325.5075 276.48 
L 325.5075 275.618498 
L 319.57875 275.618498 
z
" clip-path="url(#p371fb25a19)" style="fill: #1f77b4"/>
   </g>
   <g id="patch_45">
    <path d="M 325.5075 276.48 
L 331.43625 276.48 
L 331.43625 275.601152 
L 325.5075 275.601152 
z
" clip-path="url(#p371fb25a19)" style="fill: #1f77b4"/>
   </g>
   <g id="patch_46">
    <path d="M 331.43625 276.48 
L 337.365 276.48 
L 337.365 275.693662 
L 331.43625 275.693662 
z
" clip-path="url(#p371fb25a19)" style="fill: #1f77b4"/>
   </g>
   <g id="patch_47">
    <path d="M 337.365 276.48 
L 343.29375 276.48 
L 343.29375 275.699444 
L 337.365 275.699444 
z
" clip-path="url(#p371fb25a19)" style="fill: #1f77b4"/>
   </g>
   <g id="patch_48">
    <path d="M 343.29375 276.48 
L 349.2225 276.48 
L 349.2225 275.676317 
L 343.29375 275.676317 
z
" clip-path="url(#p371fb25a19)" style="fill: #1f77b4"/>
   </g>
   <g id="patch_49">
    <path d="M 349.2225 276.48 
L 355.15125 276.48 
L 355.15125 275.93072 
L 349.2225 275.93072 
z
" clip-path="url(#p371fb25a19)" style="fill: #1f77b4"/>
   </g>
   <g id="patch_50">
    <path d="M 355.15125 276.48 
L 361.08 276.48 
L 361.08 276.034794 
L 355.15125 276.034794 
z
" clip-path="url(#p371fb25a19)" style="fill: #1f77b4"/>
   </g>
   <g id="patch_51">
    <path d="M 361.08 276.48 
L 367.00875 276.48 
L 367.00875 275.797736 
L 361.08 275.797736 
z
" clip-path="url(#p371fb25a19)" style="fill: #1f77b4"/>
   </g>
   <g id="patch_52">
    <path d="M 367.00875 276.48 
L 372.9375 276.48 
L 372.9375 276.138868 
L 367.00875 276.138868 
z
" clip-path="url(#p371fb25a19)" style="fill: #1f77b4"/>
   </g>
   <g id="patch_53">
    <path d="M 372.9375 276.48 
L 378.86625 276.48 
L 378.86625 275.982757 
L 372.9375 275.982757 
z
" clip-path="url(#p371fb25a19)" style="fill: #1f77b4"/>
   </g>
   <g id="patch_54">
    <path d="M 378.86625 276.48 
L 384.795 276.48 
L 384.795 276.115741 
L 378.86625 276.115741 
z
" clip-path="url(#p371fb25a19)" style="fill: #1f77b4"/>
   </g>
   <g id="patch_55">
    <path d="M 384.795 276.48 
L 390.72375 276.48 
L 390.72375 276.069485 
L 384.795 276.069485 
z
" clip-path="url(#p371fb25a19)" style="fill: #1f77b4"/>
   </g>
   <g id="patch_56">
    <path d="M 390.72375 276.48 
L 396.6525 276.48 
L 396.6525 275.745699 
L 390.72375 275.745699 
z
" clip-path="url(#p371fb25a19)" style="fill: #1f77b4"/>
   </g>
   <g id="patch_57">
    <path d="M 396.6525 276.48 
L 402.58125 276.48 
L 402.58125 276.202469 
L 396.6525 276.202469 
z
" clip-path="url(#p371fb25a19)" style="fill: #1f77b4"/>
   </g>
   <g id="patch_58">
    <path d="M 402.58125 276.48 
L 408.51 276.48 
L 408.51 276.219815 
L 402.58125 276.219815 
z
" clip-path="url(#p371fb25a19)" style="fill: #1f77b4"/>
   </g>
   <g id="patch_59">
    <path d="M 408.51 276.48 
L 414.43875 276.48 
L 414.43875 276.161996 
L 408.51 276.161996 
z
" clip-path="url(#p371fb25a19)" style="fill: #1f77b4"/>
   </g>
   <g id="patch_60">
    <path d="M 414.43875 276.48 
L 420.3675 276.48 
L 420.3675 276.185123 
L 414.43875 276.185123 
z
" clip-path="url(#p371fb25a19)" style="fill: #1f77b4"/>
   </g>
   <g id="patch_61">
    <path d="M 420.3675 276.48 
L 426.29625 276.48 
L 426.29625 276.26607 
L 420.3675 276.26607 
z
" clip-path="url(#p371fb25a19)" style="fill: #1f77b4"/>
   </g>
   <g id="patch_62">
    <path d="M 426.29625 276.48 
L 432.225 276.48 
L 432.225 276.289197 
L 426.29625 276.289197 
z
" clip-path="url(#p371fb25a19)" style="fill: #1f77b4"/>
   </g>
   <g id="patch_63">
    <path d="M 432.225 276.48 
L 438.15375 276.48 
L 438.15375 276.098395 
L 432.225 276.098395 
z
" clip-path="url(#p371fb25a19)" style="fill: #1f77b4"/>
   </g>
   <g id="patch_64">
    <path d="M 438.15375 276.48 
L 444.0825 276.48 
L 444.0825 276.35858 
L 438.15375 276.35858 
z
" clip-path="url(#p371fb25a19)" style="fill: #1f77b4"/>
   </g>
   <g id="patch_65">
    <path d="M 444.0825 276.48 
L 450.01125 276.48 
L 450.01125 276.260288 
L 444.0825 276.260288 
z
" clip-path="url(#p371fb25a19)" style="fill: #1f77b4"/>
   </g>
   <g id="patch_66">
    <path d="M 450.01125 276.48 
L 455.94 276.48 
L 455.94 276.370144 
L 450.01125 276.370144 
z
" clip-path="url(#p371fb25a19)" style="fill: #1f77b4"/>
   </g>
   <g id="patch_67">
    <path d="M 455.94 276.48 
L 461.86875 276.48 
L 461.86875 276.26607 
L 455.94 276.26607 
z
" clip-path="url(#p371fb25a19)" style="fill: #1f77b4"/>
   </g>
   <g id="patch_68">
    <path d="M 461.86875 276.48 
L 467.7975 276.48 
L 467.7975 276.399053 
L 461.86875 276.399053 
z
" clip-path="url(#p371fb25a19)" style="fill: #1f77b4"/>
   </g>
   <g id="patch_69">
    <path d="M 467.7975 276.48 
L 473.72625 276.48 
L 473.72625 276.329671 
L 467.7975 276.329671 
z
" clip-path="url(#p371fb25a19)" style="fill: #1f77b4"/>
   </g>
   <g id="patch_70">
    <path d="M 473.72625 276.48 
L 479.655 276.48 
L 479.655 276.433745 
L 473.72625 276.433745 
z
" clip-path="url(#p371fb25a19)" style="fill: #1f77b4"/>
   </g>
   <g id="patch_71">
    <path d="M 479.655 276.48 
L 485.58375 276.48 
L 485.58375 276.370144 
L 479.655 276.370144 
z
" clip-path="url(#p371fb25a19)" style="fill: #1f77b4"/>
   </g>
   <g id="patch_72">
    <path d="M 485.58375 276.48 
L 491.5125 276.48 
L 491.5125 276.427963 
L 485.58375 276.427963 
z
" clip-path="url(#p371fb25a19)" style="fill: #1f77b4"/>
   </g>
   <g id="patch_73">
    <path d="M 491.5125 276.48 
L 497.44125 276.48 
L 497.44125 276.364362 
L 491.5125 276.364362 
z
" clip-path="url(#p371fb25a19)" style="fill: #1f77b4"/>
   </g>
   <g id="patch_74">
    <path d="M 497.44125 276.48 
L 503.37 276.48 
L 503.37 276.427963 
L 497.44125 276.427963 
z
" clip-path="url(#p371fb25a19)" style="fill: #1f77b4"/>
   </g>
   <g id="patch_75">
    <path d="M 503.37 276.48 
L 509.29875 276.48 
L 509.29875 276.404835 
L 503.37 276.404835 
z
" clip-path="url(#p371fb25a19)" style="fill: #1f77b4"/>
   </g>
   <g id="patch_76">
    <path d="M 509.29875 276.48 
L 515.2275 276.48 
L 515.2275 276.433745 
L 509.29875 276.433745 
z
" clip-path="url(#p371fb25a19)" style="fill: #1f77b4"/>
   </g>
   <g id="patch_77">
    <path d="M 515.2275 276.48 
L 521.15625 276.48 
L 521.15625 276.445309 
L 515.2275 276.445309 
z
" clip-path="url(#p371fb25a19)" style="fill: #1f77b4"/>
   </g>
   <g id="patch_78">
    <path d="M 521.15625 276.48 
L 527.085 276.48 
L 527.085 276.468436 
L 521.15625 276.468436 
z
" clip-path="url(#p371fb25a19)" style="fill: #1f77b4"/>
   </g>
   <g id="patch_79">
    <path d="M 527.085 276.48 
L 533.01375 276.48 
L 533.01375 276.474218 
L 527.085 276.474218 
z
" clip-path="url(#p371fb25a19)" style="fill: #1f77b4"/>
   </g>
   <g id="patch_80">
    <path d="M 533.01375 276.48 
L 538.9425 276.48 
L 538.9425 276.474218 
L 533.01375 276.474218 
z
" clip-path="url(#p371fb25a19)" style="fill: #1f77b4"/>
   </g>
   <g id="patch_81">
    <path d="M 538.9425 276.48 
L 544.87125 276.48 
L 544.87125 276.48 
L 538.9425 276.48 
z
" clip-path="url(#p371fb25a19)" style="fill: #1f77b4"/>
   </g>
   <g id="patch_82">
    <path d="M 544.87125 276.48 
L 550.8 276.48 
L 550.8 273.687345 
L 544.87125 273.687345 
z
" clip-path="url(#p371fb25a19)" style="fill: #1f77b4"/>
   </g>
   <g id="matplotlib.axis_1">
    <g id="xtick_1">
     <g id="line2d_1">
      <defs>
       <path id="md73e869056" d="M 0 0 
L 0 3.5 
" style="stroke: #000000; stroke-width: 0.8"/>
      </defs>
      <g>
       <use xlink:href="#md73e869056" x="76.5" y="276.48" style="stroke: #000000; stroke-width: 0.8"/>
      </g>
     </g>
     <g id="text_1">
      <!-- 0 -->
      <g transform="translate(70.77375 297.157187) scale(0.18 -0.18)">
       <defs>
        <path id="DejaVuSans-30" d="M 2034 4250 
Q 1547 4250 1301 3770 
Q 1056 3291 1056 2328 
Q 1056 1369 1301 889 
Q 1547 409 2034 409 
Q 2525 409 2770 889 
Q 3016 1369 3016 2328 
Q 3016 3291 2770 3770 
Q 2525 4250 2034 4250 
z
M 2034 4750 
Q 2819 4750 3233 4129 
Q 3647 3509 3647 2328 
Q 3647 1150 3233 529 
Q 2819 -91 2034 -91 
Q 1250 -91 836 529 
Q 422 1150 422 2328 
Q 422 3509 836 4129 
Q 1250 4750 2034 4750 
z
" transform="scale(0.015625)"/>
       </defs>
       <use xlink:href="#DejaVuSans-30"/>
      </g>
     </g>
    </g>
    <g id="xtick_2">
     <g id="line2d_2">
      <g>
       <use xlink:href="#md73e869056" x="171.36" y="276.48" style="stroke: #000000; stroke-width: 0.8"/>
      </g>
     </g>
     <g id="text_2">
      <!-- 20 -->
      <g transform="translate(159.9075 297.157187) scale(0.18 -0.18)">
       <defs>
        <path id="DejaVuSans-32" d="M 1228 531 
L 3431 531 
L 3431 0 
L 469 0 
L 469 531 
Q 828 903 1448 1529 
Q 2069 2156 2228 2338 
Q 2531 2678 2651 2914 
Q 2772 3150 2772 3378 
Q 2772 3750 2511 3984 
Q 2250 4219 1831 4219 
Q 1534 4219 1204 4116 
Q 875 4013 500 3803 
L 500 4441 
Q 881 4594 1212 4672 
Q 1544 4750 1819 4750 
Q 2544 4750 2975 4387 
Q 3406 4025 3406 3419 
Q 3406 3131 3298 2873 
Q 3191 2616 2906 2266 
Q 2828 2175 2409 1742 
Q 1991 1309 1228 531 
z
" transform="scale(0.015625)"/>
       </defs>
       <use xlink:href="#DejaVuSans-32"/>
       <use xlink:href="#DejaVuSans-30" x="63.623047"/>
      </g>
     </g>
    </g>
    <g id="xtick_3">
     <g id="line2d_3">
      <g>
       <use xlink:href="#md73e869056" x="266.22" y="276.48" style="stroke: #000000; stroke-width: 0.8"/>
      </g>
     </g>
     <g id="text_3">
      <!-- 40 -->
      <g transform="translate(254.7675 297.157187) scale(0.18 -0.18)">
       <defs>
        <path id="DejaVuSans-34" d="M 2419 4116 
L 825 1625 
L 2419 1625 
L 2419 4116 
z
M 2253 4666 
L 3047 4666 
L 3047 1625 
L 3713 1625 
L 3713 1100 
L 3047 1100 
L 3047 0 
L 2419 0 
L 2419 1100 
L 313 1100 
L 313 1709 
L 2253 4666 
z
" transform="scale(0.015625)"/>
       </defs>
       <use xlink:href="#DejaVuSans-34"/>
       <use xlink:href="#DejaVuSans-30" x="63.623047"/>
      </g>
     </g>
    </g>
    <g id="xtick_4">
     <g id="line2d_4">
      <g>
       <use xlink:href="#md73e869056" x="361.08" y="276.48" style="stroke: #000000; stroke-width: 0.8"/>
      </g>
     </g>
     <g id="text_4">
      <!-- 60 -->
      <g transform="translate(349.6275 297.157187) scale(0.18 -0.18)">
       <defs>
        <path id="DejaVuSans-36" d="M 2113 2584 
Q 1688 2584 1439 2293 
Q 1191 2003 1191 1497 
Q 1191 994 1439 701 
Q 1688 409 2113 409 
Q 2538 409 2786 701 
Q 3034 994 3034 1497 
Q 3034 2003 2786 2293 
Q 2538 2584 2113 2584 
z
M 3366 4563 
L 3366 3988 
Q 3128 4100 2886 4159 
Q 2644 4219 2406 4219 
Q 1781 4219 1451 3797 
Q 1122 3375 1075 2522 
Q 1259 2794 1537 2939 
Q 1816 3084 2150 3084 
Q 2853 3084 3261 2657 
Q 3669 2231 3669 1497 
Q 3669 778 3244 343 
Q 2819 -91 2113 -91 
Q 1303 -91 875 529 
Q 447 1150 447 2328 
Q 447 3434 972 4092 
Q 1497 4750 2381 4750 
Q 2619 4750 2861 4703 
Q 3103 4656 3366 4563 
z
" transform="scale(0.015625)"/>
       </defs>
       <use xlink:href="#DejaVuSans-36"/>
       <use xlink:href="#DejaVuSans-30" x="63.623047"/>
      </g>
     </g>
    </g>
    <g id="xtick_5">
     <g id="line2d_5">
      <g>
       <use xlink:href="#md73e869056" x="455.94" y="276.48" style="stroke: #000000; stroke-width: 0.8"/>
      </g>
     </g>
     <g id="text_5">
      <!-- 80 -->
      <g transform="translate(444.4875 297.157187) scale(0.18 -0.18)">
       <defs>
        <path id="DejaVuSans-38" d="M 2034 2216 
Q 1584 2216 1326 1975 
Q 1069 1734 1069 1313 
Q 1069 891 1326 650 
Q 1584 409 2034 409 
Q 2484 409 2743 651 
Q 3003 894 3003 1313 
Q 3003 1734 2745 1975 
Q 2488 2216 2034 2216 
z
M 1403 2484 
Q 997 2584 770 2862 
Q 544 3141 544 3541 
Q 544 4100 942 4425 
Q 1341 4750 2034 4750 
Q 2731 4750 3128 4425 
Q 3525 4100 3525 3541 
Q 3525 3141 3298 2862 
Q 3072 2584 2669 2484 
Q 3125 2378 3379 2068 
Q 3634 1759 3634 1313 
Q 3634 634 3220 271 
Q 2806 -91 2034 -91 
Q 1263 -91 848 271 
Q 434 634 434 1313 
Q 434 1759 690 2068 
Q 947 2378 1403 2484 
z
M 1172 3481 
Q 1172 3119 1398 2916 
Q 1625 2713 2034 2713 
Q 2441 2713 2670 2916 
Q 2900 3119 2900 3481 
Q 2900 3844 2670 4047 
Q 2441 4250 2034 4250 
Q 1625 4250 1398 4047 
Q 1172 3844 1172 3481 
z
" transform="scale(0.015625)"/>
       </defs>
       <use xlink:href="#DejaVuSans-38"/>
       <use xlink:href="#DejaVuSans-30" x="63.623047"/>
      </g>
     </g>
    </g>
    <g id="xtick_6">
     <g id="line2d_6">
      <g>
       <use xlink:href="#md73e869056" x="550.8" y="276.48" style="stroke: #000000; stroke-width: 0.8"/>
      </g>
     </g>
     <g id="text_6">
      <!-- 100 -->
      <g transform="translate(533.62125 297.157187) scale(0.18 -0.18)">
       <defs>
        <path id="DejaVuSans-31" d="M 794 531 
L 1825 531 
L 1825 4091 
L 703 3866 
L 703 4441 
L 1819 4666 
L 2450 4666 
L 2450 531 
L 3481 531 
L 3481 0 
L 794 0 
L 794 531 
z
" transform="scale(0.015625)"/>
       </defs>
       <use xlink:href="#DejaVuSans-31"/>
       <use xlink:href="#DejaVuSans-30" x="63.623047"/>
       <use xlink:href="#DejaVuSans-30" x="127.246094"/>
      </g>
     </g>
    </g>
    <g id="text_7">
     <!-- unnecessary multipolygons per landuse polygon [%] -->
     <g transform="translate(76.774219 318.577812) scale(0.18 -0.18)">
      <defs>
       <path id="DejaVuSans-75" d="M 544 1381 
L 544 3500 
L 1119 3500 
L 1119 1403 
Q 1119 906 1312 657 
Q 1506 409 1894 409 
Q 2359 409 2629 706 
Q 2900 1003 2900 1516 
L 2900 3500 
L 3475 3500 
L 3475 0 
L 2900 0 
L 2900 538 
Q 2691 219 2414 64 
Q 2138 -91 1772 -91 
Q 1169 -91 856 284 
Q 544 659 544 1381 
z
M 1991 3584 
L 1991 3584 
z
" transform="scale(0.015625)"/>
       <path id="DejaVuSans-6e" d="M 3513 2113 
L 3513 0 
L 2938 0 
L 2938 2094 
Q 2938 2591 2744 2837 
Q 2550 3084 2163 3084 
Q 1697 3084 1428 2787 
Q 1159 2491 1159 1978 
L 1159 0 
L 581 0 
L 581 3500 
L 1159 3500 
L 1159 2956 
Q 1366 3272 1645 3428 
Q 1925 3584 2291 3584 
Q 2894 3584 3203 3211 
Q 3513 2838 3513 2113 
z
" transform="scale(0.015625)"/>
       <path id="DejaVuSans-65" d="M 3597 1894 
L 3597 1613 
L 953 1613 
Q 991 1019 1311 708 
Q 1631 397 2203 397 
Q 2534 397 2845 478 
Q 3156 559 3463 722 
L 3463 178 
Q 3153 47 2828 -22 
Q 2503 -91 2169 -91 
Q 1331 -91 842 396 
Q 353 884 353 1716 
Q 353 2575 817 3079 
Q 1281 3584 2069 3584 
Q 2775 3584 3186 3129 
Q 3597 2675 3597 1894 
z
M 3022 2063 
Q 3016 2534 2758 2815 
Q 2500 3097 2075 3097 
Q 1594 3097 1305 2825 
Q 1016 2553 972 2059 
L 3022 2063 
z
" transform="scale(0.015625)"/>
       <path id="DejaVuSans-63" d="M 3122 3366 
L 3122 2828 
Q 2878 2963 2633 3030 
Q 2388 3097 2138 3097 
Q 1578 3097 1268 2742 
Q 959 2388 959 1747 
Q 959 1106 1268 751 
Q 1578 397 2138 397 
Q 2388 397 2633 464 
Q 2878 531 3122 666 
L 3122 134 
Q 2881 22 2623 -34 
Q 2366 -91 2075 -91 
Q 1284 -91 818 406 
Q 353 903 353 1747 
Q 353 2603 823 3093 
Q 1294 3584 2113 3584 
Q 2378 3584 2631 3529 
Q 2884 3475 3122 3366 
z
" transform="scale(0.015625)"/>
       <path id="DejaVuSans-73" d="M 2834 3397 
L 2834 2853 
Q 2591 2978 2328 3040 
Q 2066 3103 1784 3103 
Q 1356 3103 1142 2972 
Q 928 2841 928 2578 
Q 928 2378 1081 2264 
Q 1234 2150 1697 2047 
L 1894 2003 
Q 2506 1872 2764 1633 
Q 3022 1394 3022 966 
Q 3022 478 2636 193 
Q 2250 -91 1575 -91 
Q 1294 -91 989 -36 
Q 684 19 347 128 
L 347 722 
Q 666 556 975 473 
Q 1284 391 1588 391 
Q 1994 391 2212 530 
Q 2431 669 2431 922 
Q 2431 1156 2273 1281 
Q 2116 1406 1581 1522 
L 1381 1569 
Q 847 1681 609 1914 
Q 372 2147 372 2553 
Q 372 3047 722 3315 
Q 1072 3584 1716 3584 
Q 2034 3584 2315 3537 
Q 2597 3491 2834 3397 
z
" transform="scale(0.015625)"/>
       <path id="DejaVuSans-61" d="M 2194 1759 
Q 1497 1759 1228 1600 
Q 959 1441 959 1056 
Q 959 750 1161 570 
Q 1363 391 1709 391 
Q 2188 391 2477 730 
Q 2766 1069 2766 1631 
L 2766 1759 
L 2194 1759 
z
M 3341 1997 
L 3341 0 
L 2766 0 
L 2766 531 
Q 2569 213 2275 61 
Q 1981 -91 1556 -91 
Q 1019 -91 701 211 
Q 384 513 384 1019 
Q 384 1609 779 1909 
Q 1175 2209 1959 2209 
L 2766 2209 
L 2766 2266 
Q 2766 2663 2505 2880 
Q 2244 3097 1772 3097 
Q 1472 3097 1187 3025 
Q 903 2953 641 2809 
L 641 3341 
Q 956 3463 1253 3523 
Q 1550 3584 1831 3584 
Q 2591 3584 2966 3190 
Q 3341 2797 3341 1997 
z
" transform="scale(0.015625)"/>
       <path id="DejaVuSans-72" d="M 2631 2963 
Q 2534 3019 2420 3045 
Q 2306 3072 2169 3072 
Q 1681 3072 1420 2755 
Q 1159 2438 1159 1844 
L 1159 0 
L 581 0 
L 581 3500 
L 1159 3500 
L 1159 2956 
Q 1341 3275 1631 3429 
Q 1922 3584 2338 3584 
Q 2397 3584 2469 3576 
Q 2541 3569 2628 3553 
L 2631 2963 
z
" transform="scale(0.015625)"/>
       <path id="DejaVuSans-79" d="M 2059 -325 
Q 1816 -950 1584 -1140 
Q 1353 -1331 966 -1331 
L 506 -1331 
L 506 -850 
L 844 -850 
Q 1081 -850 1212 -737 
Q 1344 -625 1503 -206 
L 1606 56 
L 191 3500 
L 800 3500 
L 1894 763 
L 2988 3500 
L 3597 3500 
L 2059 -325 
z
" transform="scale(0.015625)"/>
       <path id="DejaVuSans-20" transform="scale(0.015625)"/>
       <path id="DejaVuSans-6d" d="M 3328 2828 
Q 3544 3216 3844 3400 
Q 4144 3584 4550 3584 
Q 5097 3584 5394 3201 
Q 5691 2819 5691 2113 
L 5691 0 
L 5113 0 
L 5113 2094 
Q 5113 2597 4934 2840 
Q 4756 3084 4391 3084 
Q 3944 3084 3684 2787 
Q 3425 2491 3425 1978 
L 3425 0 
L 2847 0 
L 2847 2094 
Q 2847 2600 2669 2842 
Q 2491 3084 2119 3084 
Q 1678 3084 1418 2786 
Q 1159 2488 1159 1978 
L 1159 0 
L 581 0 
L 581 3500 
L 1159 3500 
L 1159 2956 
Q 1356 3278 1631 3431 
Q 1906 3584 2284 3584 
Q 2666 3584 2933 3390 
Q 3200 3197 3328 2828 
z
" transform="scale(0.015625)"/>
       <path id="DejaVuSans-6c" d="M 603 4863 
L 1178 4863 
L 1178 0 
L 603 0 
L 603 4863 
z
" transform="scale(0.015625)"/>
       <path id="DejaVuSans-74" d="M 1172 4494 
L 1172 3500 
L 2356 3500 
L 2356 3053 
L 1172 3053 
L 1172 1153 
Q 1172 725 1289 603 
Q 1406 481 1766 481 
L 2356 481 
L 2356 0 
L 1766 0 
Q 1100 0 847 248 
Q 594 497 594 1153 
L 594 3053 
L 172 3053 
L 172 3500 
L 594 3500 
L 594 4494 
L 1172 4494 
z
" transform="scale(0.015625)"/>
       <path id="DejaVuSans-69" d="M 603 3500 
L 1178 3500 
L 1178 0 
L 603 0 
L 603 3500 
z
M 603 4863 
L 1178 4863 
L 1178 4134 
L 603 4134 
L 603 4863 
z
" transform="scale(0.015625)"/>
       <path id="DejaVuSans-70" d="M 1159 525 
L 1159 -1331 
L 581 -1331 
L 581 3500 
L 1159 3500 
L 1159 2969 
Q 1341 3281 1617 3432 
Q 1894 3584 2278 3584 
Q 2916 3584 3314 3078 
Q 3713 2572 3713 1747 
Q 3713 922 3314 415 
Q 2916 -91 2278 -91 
Q 1894 -91 1617 61 
Q 1341 213 1159 525 
z
M 3116 1747 
Q 3116 2381 2855 2742 
Q 2594 3103 2138 3103 
Q 1681 3103 1420 2742 
Q 1159 2381 1159 1747 
Q 1159 1113 1420 752 
Q 1681 391 2138 391 
Q 2594 391 2855 752 
Q 3116 1113 3116 1747 
z
" transform="scale(0.015625)"/>
       <path id="DejaVuSans-6f" d="M 1959 3097 
Q 1497 3097 1228 2736 
Q 959 2375 959 1747 
Q 959 1119 1226 758 
Q 1494 397 1959 397 
Q 2419 397 2687 759 
Q 2956 1122 2956 1747 
Q 2956 2369 2687 2733 
Q 2419 3097 1959 3097 
z
M 1959 3584 
Q 2709 3584 3137 3096 
Q 3566 2609 3566 1747 
Q 3566 888 3137 398 
Q 2709 -91 1959 -91 
Q 1206 -91 779 398 
Q 353 888 353 1747 
Q 353 2609 779 3096 
Q 1206 3584 1959 3584 
z
" transform="scale(0.015625)"/>
       <path id="DejaVuSans-67" d="M 2906 1791 
Q 2906 2416 2648 2759 
Q 2391 3103 1925 3103 
Q 1463 3103 1205 2759 
Q 947 2416 947 1791 
Q 947 1169 1205 825 
Q 1463 481 1925 481 
Q 2391 481 2648 825 
Q 2906 1169 2906 1791 
z
M 3481 434 
Q 3481 -459 3084 -895 
Q 2688 -1331 1869 -1331 
Q 1566 -1331 1297 -1286 
Q 1028 -1241 775 -1147 
L 775 -588 
Q 1028 -725 1275 -790 
Q 1522 -856 1778 -856 
Q 2344 -856 2625 -561 
Q 2906 -266 2906 331 
L 2906 616 
Q 2728 306 2450 153 
Q 2172 0 1784 0 
Q 1141 0 747 490 
Q 353 981 353 1791 
Q 353 2603 747 3093 
Q 1141 3584 1784 3584 
Q 2172 3584 2450 3431 
Q 2728 3278 2906 2969 
L 2906 3500 
L 3481 3500 
L 3481 434 
z
" transform="scale(0.015625)"/>
       <path id="DejaVuSans-64" d="M 2906 2969 
L 2906 4863 
L 3481 4863 
L 3481 0 
L 2906 0 
L 2906 525 
Q 2725 213 2448 61 
Q 2172 -91 1784 -91 
Q 1150 -91 751 415 
Q 353 922 353 1747 
Q 353 2572 751 3078 
Q 1150 3584 1784 3584 
Q 2172 3584 2448 3432 
Q 2725 3281 2906 2969 
z
M 947 1747 
Q 947 1113 1208 752 
Q 1469 391 1925 391 
Q 2381 391 2643 752 
Q 2906 1113 2906 1747 
Q 2906 2381 2643 2742 
Q 2381 3103 1925 3103 
Q 1469 3103 1208 2742 
Q 947 2381 947 1747 
z
" transform="scale(0.015625)"/>
       <path id="DejaVuSans-5b" d="M 550 4863 
L 1875 4863 
L 1875 4416 
L 1125 4416 
L 1125 -397 
L 1875 -397 
L 1875 -844 
L 550 -844 
L 550 4863 
z
" transform="scale(0.015625)"/>
       <path id="DejaVuSans-25" d="M 4653 2053 
Q 4381 2053 4226 1822 
Q 4072 1591 4072 1178 
Q 4072 772 4226 539 
Q 4381 306 4653 306 
Q 4919 306 5073 539 
Q 5228 772 5228 1178 
Q 5228 1588 5073 1820 
Q 4919 2053 4653 2053 
z
M 4653 2450 
Q 5147 2450 5437 2106 
Q 5728 1763 5728 1178 
Q 5728 594 5436 251 
Q 5144 -91 4653 -91 
Q 4153 -91 3862 251 
Q 3572 594 3572 1178 
Q 3572 1766 3864 2108 
Q 4156 2450 4653 2450 
z
M 1428 4353 
Q 1159 4353 1004 4120 
Q 850 3888 850 3481 
Q 850 3069 1003 2837 
Q 1156 2606 1428 2606 
Q 1700 2606 1854 2837 
Q 2009 3069 2009 3481 
Q 2009 3884 1853 4118 
Q 1697 4353 1428 4353 
z
M 4250 4750 
L 4750 4750 
L 1831 -91 
L 1331 -91 
L 4250 4750 
z
M 1428 4750 
Q 1922 4750 2215 4408 
Q 2509 4066 2509 3481 
Q 2509 2891 2217 2550 
Q 1925 2209 1428 2209 
Q 931 2209 642 2551 
Q 353 2894 353 3481 
Q 353 4063 643 4406 
Q 934 4750 1428 4750 
z
" transform="scale(0.015625)"/>
       <path id="DejaVuSans-5d" d="M 1947 4863 
L 1947 -844 
L 622 -844 
L 622 -397 
L 1369 -397 
L 1369 4416 
L 622 4416 
L 622 4863 
L 1947 4863 
z
" transform="scale(0.015625)"/>
      </defs>
      <use xlink:href="#DejaVuSans-75"/>
      <use xlink:href="#DejaVuSans-6e" x="63.378906"/>
      <use xlink:href="#DejaVuSans-6e" x="126.757812"/>
      <use xlink:href="#DejaVuSans-65" x="190.136719"/>
      <use xlink:href="#DejaVuSans-63" x="251.660156"/>
      <use xlink:href="#DejaVuSans-65" x="306.640625"/>
      <use xlink:href="#DejaVuSans-73" x="368.164062"/>
      <use xlink:href="#DejaVuSans-73" x="420.263672"/>
      <use xlink:href="#DejaVuSans-61" x="472.363281"/>
      <use xlink:href="#DejaVuSans-72" x="533.642578"/>
      <use xlink:href="#DejaVuSans-79" x="574.755859"/>
      <use xlink:href="#DejaVuSans-20" x="633.935547"/>
      <use xlink:href="#DejaVuSans-6d" x="665.722656"/>
      <use xlink:href="#DejaVuSans-75" x="763.134766"/>
      <use xlink:href="#DejaVuSans-6c" x="826.513672"/>
      <use xlink:href="#DejaVuSans-74" x="854.296875"/>
      <use xlink:href="#DejaVuSans-69" x="893.505859"/>
      <use xlink:href="#DejaVuSans-70" x="921.289062"/>
      <use xlink:href="#DejaVuSans-6f" x="984.765625"/>
      <use xlink:href="#DejaVuSans-6c" x="1045.947266"/>
      <use xlink:href="#DejaVuSans-79" x="1073.730469"/>
      <use xlink:href="#DejaVuSans-67" x="1132.910156"/>
      <use xlink:href="#DejaVuSans-6f" x="1196.386719"/>
      <use xlink:href="#DejaVuSans-6e" x="1257.568359"/>
      <use xlink:href="#DejaVuSans-73" x="1320.947266"/>
      <use xlink:href="#DejaVuSans-20" x="1373.046875"/>
      <use xlink:href="#DejaVuSans-70" x="1404.833984"/>
      <use xlink:href="#DejaVuSans-65" x="1468.310547"/>
      <use xlink:href="#DejaVuSans-72" x="1529.833984"/>
      <use xlink:href="#DejaVuSans-20" x="1570.947266"/>
      <use xlink:href="#DejaVuSans-6c" x="1602.734375"/>
      <use xlink:href="#DejaVuSans-61" x="1630.517578"/>
      <use xlink:href="#DejaVuSans-6e" x="1691.796875"/>
      <use xlink:href="#DejaVuSans-64" x="1755.175781"/>
      <use xlink:href="#DejaVuSans-75" x="1818.652344"/>
      <use xlink:href="#DejaVuSans-73" x="1882.03125"/>
      <use xlink:href="#DejaVuSans-65" x="1934.130859"/>
      <use xlink:href="#DejaVuSans-20" x="1995.654297"/>
      <use xlink:href="#DejaVuSans-70" x="2027.441406"/>
      <use xlink:href="#DejaVuSans-6f" x="2090.917969"/>
      <use xlink:href="#DejaVuSans-6c" x="2152.099609"/>
      <use xlink:href="#DejaVuSans-79" x="2179.882812"/>
      <use xlink:href="#DejaVuSans-67" x="2239.0625"/>
      <use xlink:href="#DejaVuSans-6f" x="2302.539062"/>
      <use xlink:href="#DejaVuSans-6e" x="2363.720703"/>
      <use xlink:href="#DejaVuSans-20" x="2427.099609"/>
      <use xlink:href="#DejaVuSans-5b" x="2458.886719"/>
      <use xlink:href="#DejaVuSans-25" x="2497.900391"/>
      <use xlink:href="#DejaVuSans-5d" x="2592.919922"/>
     </g>
    </g>
   </g>
   <g id="matplotlib.axis_2">
    <g id="ytick_1">
     <g id="line2d_7">
      <defs>
       <path id="m71868b3f55" d="M 0 0 
L -3.5 0 
" style="stroke: #000000; stroke-width: 0.8"/>
      </defs>
      <g>
       <use xlink:href="#m71868b3f55" x="76.5" y="276.48" style="stroke: #000000; stroke-width: 0.8"/>
      </g>
     </g>
     <g id="text_8">
      <!-- 0 -->
      <g transform="translate(58.0475 283.318594) scale(0.18 -0.18)">
       <use xlink:href="#DejaVuSans-30"/>
      </g>
     </g>
    </g>
    <g id="ytick_2">
     <g id="line2d_8">
      <g>
       <use xlink:href="#m71868b3f55" x="76.5" y="218.661053" style="stroke: #000000; stroke-width: 0.8"/>
      </g>
     </g>
     <g id="text_9">
      <!-- 10000 -->
      <g transform="translate(12.2375 225.499647) scale(0.18 -0.18)">
       <use xlink:href="#DejaVuSans-31"/>
       <use xlink:href="#DejaVuSans-30" x="63.623047"/>
       <use xlink:href="#DejaVuSans-30" x="127.246094"/>
       <use xlink:href="#DejaVuSans-30" x="190.869141"/>
       <use xlink:href="#DejaVuSans-30" x="254.492188"/>
      </g>
     </g>
    </g>
    <g id="ytick_3">
     <g id="line2d_9">
      <g>
       <use xlink:href="#m71868b3f55" x="76.5" y="160.842107" style="stroke: #000000; stroke-width: 0.8"/>
      </g>
     </g>
     <g id="text_10">
      <!-- 20000 -->
      <g transform="translate(12.2375 167.6807) scale(0.18 -0.18)">
       <use xlink:href="#DejaVuSans-32"/>
       <use xlink:href="#DejaVuSans-30" x="63.623047"/>
       <use xlink:href="#DejaVuSans-30" x="127.246094"/>
       <use xlink:href="#DejaVuSans-30" x="190.869141"/>
       <use xlink:href="#DejaVuSans-30" x="254.492188"/>
      </g>
     </g>
    </g>
    <g id="ytick_4">
     <g id="line2d_10">
      <g>
       <use xlink:href="#m71868b3f55" x="76.5" y="103.02316" style="stroke: #000000; stroke-width: 0.8"/>
      </g>
     </g>
     <g id="text_11">
      <!-- 30000 -->
      <g transform="translate(12.2375 109.861754) scale(0.18 -0.18)">
       <defs>
        <path id="DejaVuSans-33" d="M 2597 2516 
Q 3050 2419 3304 2112 
Q 3559 1806 3559 1356 
Q 3559 666 3084 287 
Q 2609 -91 1734 -91 
Q 1441 -91 1130 -33 
Q 819 25 488 141 
L 488 750 
Q 750 597 1062 519 
Q 1375 441 1716 441 
Q 2309 441 2620 675 
Q 2931 909 2931 1356 
Q 2931 1769 2642 2001 
Q 2353 2234 1838 2234 
L 1294 2234 
L 1294 2753 
L 1863 2753 
Q 2328 2753 2575 2939 
Q 2822 3125 2822 3475 
Q 2822 3834 2567 4026 
Q 2313 4219 1838 4219 
Q 1578 4219 1281 4162 
Q 984 4106 628 3988 
L 628 4550 
Q 988 4650 1302 4700 
Q 1616 4750 1894 4750 
Q 2613 4750 3031 4423 
Q 3450 4097 3450 3541 
Q 3450 3153 3228 2886 
Q 3006 2619 2597 2516 
z
" transform="scale(0.015625)"/>
       </defs>
       <use xlink:href="#DejaVuSans-33"/>
       <use xlink:href="#DejaVuSans-30" x="63.623047"/>
       <use xlink:href="#DejaVuSans-30" x="127.246094"/>
       <use xlink:href="#DejaVuSans-30" x="190.869141"/>
       <use xlink:href="#DejaVuSans-30" x="254.492188"/>
      </g>
     </g>
    </g>
    <g id="ytick_5">
     <g id="line2d_11">
      <g>
       <use xlink:href="#m71868b3f55" x="76.5" y="45.204213" style="stroke: #000000; stroke-width: 0.8"/>
      </g>
     </g>
     <g id="text_12">
      <!-- 40000 -->
      <g transform="translate(12.2375 52.042807) scale(0.18 -0.18)">
       <use xlink:href="#DejaVuSans-34"/>
       <use xlink:href="#DejaVuSans-30" x="63.623047"/>
       <use xlink:href="#DejaVuSans-30" x="127.246094"/>
       <use xlink:href="#DejaVuSans-30" x="190.869141"/>
       <use xlink:href="#DejaVuSans-30" x="254.492188"/>
      </g>
     </g>
    </g>
    <g id="text_13">
     <!-- number of cells -->
     <g transform="translate(4.494063 228.672562) rotate(-90) scale(0.18 -0.18)">
      <defs>
       <path id="DejaVuSans-62" d="M 3116 1747 
Q 3116 2381 2855 2742 
Q 2594 3103 2138 3103 
Q 1681 3103 1420 2742 
Q 1159 2381 1159 1747 
Q 1159 1113 1420 752 
Q 1681 391 2138 391 
Q 2594 391 2855 752 
Q 3116 1113 3116 1747 
z
M 1159 2969 
Q 1341 3281 1617 3432 
Q 1894 3584 2278 3584 
Q 2916 3584 3314 3078 
Q 3713 2572 3713 1747 
Q 3713 922 3314 415 
Q 2916 -91 2278 -91 
Q 1894 -91 1617 61 
Q 1341 213 1159 525 
L 1159 0 
L 581 0 
L 581 4863 
L 1159 4863 
L 1159 2969 
z
" transform="scale(0.015625)"/>
       <path id="DejaVuSans-66" d="M 2375 4863 
L 2375 4384 
L 1825 4384 
Q 1516 4384 1395 4259 
Q 1275 4134 1275 3809 
L 1275 3500 
L 2222 3500 
L 2222 3053 
L 1275 3053 
L 1275 0 
L 697 0 
L 697 3053 
L 147 3053 
L 147 3500 
L 697 3500 
L 697 3744 
Q 697 4328 969 4595 
Q 1241 4863 1831 4863 
L 2375 4863 
z
" transform="scale(0.015625)"/>
      </defs>
      <use xlink:href="#DejaVuSans-6e"/>
      <use xlink:href="#DejaVuSans-75" x="63.378906"/>
      <use xlink:href="#DejaVuSans-6d" x="126.757812"/>
      <use xlink:href="#DejaVuSans-62" x="224.169922"/>
      <use xlink:href="#DejaVuSans-65" x="287.646484"/>
      <use xlink:href="#DejaVuSans-72" x="349.169922"/>
      <use xlink:href="#DejaVuSans-20" x="390.283203"/>
      <use xlink:href="#DejaVuSans-6f" x="422.070312"/>
      <use xlink:href="#DejaVuSans-66" x="483.251953"/>
      <use xlink:href="#DejaVuSans-20" x="518.457031"/>
      <use xlink:href="#DejaVuSans-63" x="550.244141"/>
      <use xlink:href="#DejaVuSans-65" x="605.224609"/>
      <use xlink:href="#DejaVuSans-6c" x="666.748047"/>
      <use xlink:href="#DejaVuSans-6c" x="694.53125"/>
      <use xlink:href="#DejaVuSans-73" x="722.314453"/>
     </g>
    </g>
   </g>
   <g id="patch_83">
    <path d="M 76.5 276.48 
L 76.5 41.472 
" style="fill: none; stroke: #000000; stroke-width: 0.8; stroke-linejoin: miter; stroke-linecap: square"/>
   </g>
   <g id="patch_84">
    <path d="M 550.8 276.48 
L 550.8 41.472 
" style="fill: none; stroke: #000000; stroke-width: 0.8; stroke-linejoin: miter; stroke-linecap: square"/>
   </g>
   <g id="patch_85">
    <path d="M 76.5 276.48 
L 550.8 276.48 
" style="fill: none; stroke: #000000; stroke-width: 0.8; stroke-linejoin: miter; stroke-linecap: square"/>
   </g>
   <g id="patch_86">
    <path d="M 76.5 41.472 
L 550.8 41.472 
" style="fill: none; stroke: #000000; stroke-width: 0.8; stroke-linejoin: miter; stroke-linecap: square"/>
   </g>
  </g>
 </g>
 <defs>
  <clipPath id="p371fb25a19">
   <rect x="76.5" y="41.472" width="474.3" height="235.008"/>
  </clipPath>
 </defs>
</svg>
