<?xml version="1.0" encoding="utf-8" standalone="no"?>
<!DOCTYPE svg PUBLIC "-//W3C//DTD SVG 1.1//EN"
  "http://www.w3.org/Graphics/SVG/1.1/DTD/svg11.dtd">
<svg xmlns:xlink="http://www.w3.org/1999/xlink" width="612pt" height="345.6pt" viewBox="0 0 612 345.6" xmlns="http://www.w3.org/2000/svg" version="1.1">
 <metadata>
  <rdf:RDF xmlns:dc="http://purl.org/dc/elements/1.1/" xmlns:cc="http://creativecommons.org/ns#" xmlns:rdf="http://www.w3.org/1999/02/22-rdf-syntax-ns#">
   <cc:Work>
    <dc:type rdf:resource="http://purl.org/dc/dcmitype/StillImage"/>
    <dc:date>2024-03-19T18:14:50.950468</dc:date>
    <dc:format>image/svg+xml</dc:format>
    <dc:creator>
     <cc:Agent>
      <dc:title>Matplotlib v3.5.1, https://matplotlib.org/</dc:title>
     </cc:Agent>
    </dc:creator>
   </cc:Work>
  </rdf:RDF>
 </metadata>
 <defs>
  <style type="text/css">*{stroke-linejoin: round; stroke-linecap: butt}</style>
 </defs>
 <g id="figure_1">
  <g id="patch_1">
   <path d="M 0 345.6 
L 612 345.6 
L 612 0 
L 0 0 
z
" style="fill: #ffffff"/>
  </g>
  <g id="axes_1">
   <g id="patch_2">
    <path d="M 193.691455 100.773818 
C 193.691455 94.749748 192.544059 88.780438 190.31073 83.185649 
C 188.077401 77.59086 184.798742 72.472308 180.650383 68.10418 
C 176.502024 63.736053 171.559383 60.197764 166.087226 57.678852 
C 160.615069 55.159941 154.712881 53.7062 148.696829 53.395504 
C 142.680776 53.084808 136.660233 53.922805 130.957704 55.864606 
C 125.255176 57.806407 119.974337 60.816709 115.398068 64.734258 
C 110.821799 68.651807 107.0333 73.405379 104.23551 78.740339 
C 101.43772 84.075298 99.681504 89.894653 99.060939 95.886674 
C 98.440375 101.878696 98.966743 107.934446 100.611847 113.729535 
C 102.256951 119.524624 104.990884 124.953693 108.667194 129.725922 
C 112.343504 134.49815 116.895355 138.526777 122.078916 141.595997 
C 127.262477 144.665218 132.983509 146.719234 138.935549 147.648016 
C 144.88759 148.576798 150.962429 148.36346 156.834652 147.019432 
C 162.706875 145.675403 168.269724 143.225117 173.225209 139.799831 
C 178.180695 136.374545 182.438725 132.036531 185.771207 127.018167 
C 189.103689 121.999802 191.450037 116.392322 192.684564 110.496106 
L 146.25 100.773818 
L 193.691455 100.773818 
z
" style="fill: #1f77b4"/>
   </g>
   <g id="patch_3">
    <path d="M 192.684564 110.496106 
C 193.019076 108.898444 193.27091 107.284582 193.439061 105.660961 
C 193.607211 104.037339 193.691455 102.40612 193.691455 100.773815 
L 146.25 100.773818 
L 192.684564 110.496106 
z
" style="fill: #ff7f0e"/>
   </g>
   <g id="matplotlib.axis_1"/>
   <g id="matplotlib.axis_2"/>
   <g id="text_1">
    <!-- ja -->
    <g transform="translate(85.435783 98.157335)scale(0.1 -0.1)">
     <defs>
      <path id="DejaVuSans-6a" d="M 603 3500 
L 1178 3500 
L 1178 -63 
Q 1178 -731 923 -1031 
Q 669 -1331 103 -1331 
L -116 -1331 
L -116 -844 
L 38 -844 
Q 366 -844 484 -692 
Q 603 -541 603 -63 
L 603 3500 
z
M 603 4863 
L 1178 4863 
L 1178 4134 
L 603 4134 
L 603 4863 
z
" transform="scale(0.015625)"/>
      <path id="DejaVuSans-61" d="M 2194 1759 
Q 1497 1759 1228 1600 
Q 959 1441 959 1056 
Q 959 750 1161 570 
Q 1363 391 1709 391 
Q 2188 391 2477 730 
Q 2766 1069 2766 1631 
L 2766 1759 
L 2194 1759 
z
M 3341 1997 
L 3341 0 
L 2766 0 
L 2766 531 
Q 2569 213 2275 61 
Q 1981 -91 1556 -91 
Q 1019 -91 701 211 
Q 384 513 384 1019 
Q 384 1609 779 1909 
Q 1175 2209 1959 2209 
L 2766 2209 
L 2766 2266 
Q 2766 2663 2505 2880 
Q 2244 3097 1772 3097 
Q 1472 3097 1187 3025 
Q 903 2953 641 2809 
L 641 3341 
Q 956 3463 1253 3523 
Q 1550 3584 1831 3584 
Q 2591 3584 2966 3190 
Q 3341 2797 3341 1997 
z
" transform="scale(0.015625)"/>
     </defs>
     <use xlink:href="#DejaVuSans-6a"/>
     <use xlink:href="#DejaVuSans-61" x="27.783203"/>
    </g>
   </g>
   <g id="text_2">
    <!-- nein -->
    <g transform="translate(198.157967 108.90905)scale(0.1 -0.1)">
     <defs>
      <path id="DejaVuSans-6e" d="M 3513 2113 
L 3513 0 
L 2938 0 
L 2938 2094 
Q 2938 2591 2744 2837 
Q 2550 3084 2163 3084 
Q 1697 3084 1428 2787 
Q 1159 2491 1159 1978 
L 1159 0 
L 581 0 
L 581 3500 
L 1159 3500 
L 1159 2956 
Q 1366 3272 1645 3428 
Q 1925 3584 2291 3584 
Q 2894 3584 3203 3211 
Q 3513 2838 3513 2113 
z
" transform="scale(0.015625)"/>
      <path id="DejaVuSans-65" d="M 3597 1894 
L 3597 1613 
L 953 1613 
Q 991 1019 1311 708 
Q 1631 397 2203 397 
Q 2534 397 2845 478 
Q 3156 559 3463 722 
L 3463 178 
Q 3153 47 2828 -22 
Q 2503 -91 2169 -91 
Q 1331 -91 842 396 
Q 353 884 353 1716 
Q 353 2575 817 3079 
Q 1281 3584 2069 3584 
Q 2775 3584 3186 3129 
Q 3597 2675 3597 1894 
z
M 3022 2063 
Q 3016 2534 2758 2815 
Q 2500 3097 2075 3097 
Q 1594 3097 1305 2825 
Q 1016 2553 972 2059 
L 3022 2063 
z
" transform="scale(0.015625)"/>
      <path id="DejaVuSans-69" d="M 603 3500 
L 1178 3500 
L 1178 0 
L 603 0 
L 603 3500 
z
M 603 4863 
L 1178 4863 
L 1178 4134 
L 603 4134 
L 603 4863 
z
" transform="scale(0.015625)"/>
     </defs>
     <use xlink:href="#DejaVuSans-6e"/>
     <use xlink:href="#DejaVuSans-65" x="63.378906"/>
     <use xlink:href="#DejaVuSans-69" x="124.902344"/>
     <use xlink:href="#DejaVuSans-6e" x="152.685547"/>
    </g>
   </g>
   <g id="text_3">
    <!-- farmland -->
    <g transform="translate(119.299688 35.472)scale(0.12 -0.12)">
     <defs>
      <path id="DejaVuSans-66" d="M 2375 4863 
L 2375 4384 
L 1825 4384 
Q 1516 4384 1395 4259 
Q 1275 4134 1275 3809 
L 1275 3500 
L 2222 3500 
L 2222 3053 
L 1275 3053 
L 1275 0 
L 697 0 
L 697 3053 
L 147 3053 
L 147 3500 
L 697 3500 
L 697 3744 
Q 697 4328 969 4595 
Q 1241 4863 1831 4863 
L 2375 4863 
z
" transform="scale(0.015625)"/>
      <path id="DejaVuSans-72" d="M 2631 2963 
Q 2534 3019 2420 3045 
Q 2306 3072 2169 3072 
Q 1681 3072 1420 2755 
Q 1159 2438 1159 1844 
L 1159 0 
L 581 0 
L 581 3500 
L 1159 3500 
L 1159 2956 
Q 1341 3275 1631 3429 
Q 1922 3584 2338 3584 
Q 2397 3584 2469 3576 
Q 2541 3569 2628 3553 
L 2631 2963 
z
" transform="scale(0.015625)"/>
      <path id="DejaVuSans-6d" d="M 3328 2828 
Q 3544 3216 3844 3400 
Q 4144 3584 4550 3584 
Q 5097 3584 5394 3201 
Q 5691 2819 5691 2113 
L 5691 0 
L 5113 0 
L 5113 2094 
Q 5113 2597 4934 2840 
Q 4756 3084 4391 3084 
Q 3944 3084 3684 2787 
Q 3425 2491 3425 1978 
L 3425 0 
L 2847 0 
L 2847 2094 
Q 2847 2600 2669 2842 
Q 2491 3084 2119 3084 
Q 1678 3084 1418 2786 
Q 1159 2488 1159 1978 
L 1159 0 
L 581 0 
L 581 3500 
L 1159 3500 
L 1159 2956 
Q 1356 3278 1631 3431 
Q 1906 3584 2284 3584 
Q 2666 3584 2933 3390 
Q 3200 3197 3328 2828 
z
" transform="scale(0.015625)"/>
      <path id="DejaVuSans-6c" d="M 603 4863 
L 1178 4863 
L 1178 0 
L 603 0 
L 603 4863 
z
" transform="scale(0.015625)"/>
      <path id="DejaVuSans-64" d="M 2906 2969 
L 2906 4863 
L 3481 4863 
L 3481 0 
L 2906 0 
L 2906 525 
Q 2725 213 2448 61 
Q 2172 -91 1784 -91 
Q 1150 -91 751 415 
Q 353 922 353 1747 
Q 353 2572 751 3078 
Q 1150 3584 1784 3584 
Q 2172 3584 2448 3432 
Q 2725 3281 2906 2969 
z
M 947 1747 
Q 947 1113 1208 752 
Q 1469 391 1925 391 
Q 2381 391 2643 752 
Q 2906 1113 2906 1747 
Q 2906 2381 2643 2742 
Q 2381 3103 1925 3103 
Q 1469 3103 1208 2742 
Q 947 2381 947 1747 
z
" transform="scale(0.015625)"/>
     </defs>
     <use xlink:href="#DejaVuSans-66"/>
     <use xlink:href="#DejaVuSans-61" x="35.205078"/>
     <use xlink:href="#DejaVuSans-72" x="96.484375"/>
     <use xlink:href="#DejaVuSans-6d" x="135.847656"/>
     <use xlink:href="#DejaVuSans-6c" x="233.259766"/>
     <use xlink:href="#DejaVuSans-61" x="261.042969"/>
     <use xlink:href="#DejaVuSans-6e" x="322.322266"/>
     <use xlink:href="#DejaVuSans-64" x="385.701172"/>
    </g>
   </g>
  </g>
  <g id="axes_2">
   <g id="patch_4">
    <path d="M 361.091455 100.773818 
C 361.091455 95.062271 360.060022 89.397386 358.046903 84.052377 
C 356.033784 78.707368 353.071871 73.769569 349.304016 69.477129 
C 345.536162 65.18469 341.023929 61.607744 335.984942 58.918807 
C 330.945956 56.22987 325.462548 54.472878 319.799182 53.732569 
C 314.135817 52.992259 308.385028 53.28073 302.824176 54.584067 
C 297.263323 55.887404 291.983267 58.184312 287.238662 61.364012 
C 282.494057 64.543712 278.362427 68.55425 275.043039 73.202199 
C 271.723651 77.850149 269.270741 83.059565 267.802613 88.579199 
C 266.334485 94.098834 265.875126 99.838501 266.446692 105.521377 
C 267.018258 111.204253 268.611408 116.737485 271.149308 121.854206 
C 273.687207 126.970927 277.128387 131.587535 281.30688 135.481371 
C 285.485374 139.375207 290.332908 142.482649 295.615687 144.653827 
C 300.898466 146.825004 306.530174 148.024442 312.239195 148.194291 
C 317.948216 148.36414 323.641269 147.501625 329.043779 145.648345 
C 334.44629 143.795065 339.469986 140.981302 343.872575 137.342761 
C 348.275164 133.704221 351.984712 129.300354 354.822308 124.343559 
L 313.65 100.773818 
L 361.091455 100.773818 
z
" style="fill: #1f77b4"/>
   </g>
   <g id="patch_5">
    <path d="M 354.822308 124.343559 
C 356.867606 120.770773 358.439182 116.946909 359.497387 112.968436 
C 360.555593 108.989962 361.091455 104.890617 361.091455 100.773816 
L 313.65 100.773818 
L 354.822308 124.343559 
z
" style="fill: #ff7f0e"/>
   </g>
   <g id="matplotlib.axis_3"/>
   <g id="matplotlib.axis_4"/>
   <g id="text_4">
    <!-- ja -->
    <g transform="translate(254.311624 90.119113)scale(0.1 -0.1)">
     <use xlink:href="#DejaVuSans-6a"/>
     <use xlink:href="#DejaVuSans-61" x="27.783203"/>
    </g>
   </g>
   <g id="text_5">
    <!-- nein -->
    <g transform="translate(364.082126 116.947273)scale(0.1 -0.1)">
     <use xlink:href="#DejaVuSans-6e"/>
     <use xlink:href="#DejaVuSans-65" x="63.378906"/>
     <use xlink:href="#DejaVuSans-69" x="124.902344"/>
     <use xlink:href="#DejaVuSans-6e" x="152.685547"/>
    </g>
   </g>
   <g id="text_6">
    <!-- forest -->
    <g transform="translate(296.365312 35.472)scale(0.12 -0.12)">
     <defs>
      <path id="DejaVuSans-6f" d="M 1959 3097 
Q 1497 3097 1228 2736 
Q 959 2375 959 1747 
Q 959 1119 1226 758 
Q 1494 397 1959 397 
Q 2419 397 2687 759 
Q 2956 1122 2956 1747 
Q 2956 2369 2687 2733 
Q 2419 3097 1959 3097 
z
M 1959 3584 
Q 2709 3584 3137 3096 
Q 3566 2609 3566 1747 
Q 3566 888 3137 398 
Q 2709 -91 1959 -91 
Q 1206 -91 779 398 
Q 353 888 353 1747 
Q 353 2609 779 3096 
Q 1206 3584 1959 3584 
z
" transform="scale(0.015625)"/>
      <path id="DejaVuSans-73" d="M 2834 3397 
L 2834 2853 
Q 2591 2978 2328 3040 
Q 2066 3103 1784 3103 
Q 1356 3103 1142 2972 
Q 928 2841 928 2578 
Q 928 2378 1081 2264 
Q 1234 2150 1697 2047 
L 1894 2003 
Q 2506 1872 2764 1633 
Q 3022 1394 3022 966 
Q 3022 478 2636 193 
Q 2250 -91 1575 -91 
Q 1294 -91 989 -36 
Q 684 19 347 128 
L 347 722 
Q 666 556 975 473 
Q 1284 391 1588 391 
Q 1994 391 2212 530 
Q 2431 669 2431 922 
Q 2431 1156 2273 1281 
Q 2116 1406 1581 1522 
L 1381 1569 
Q 847 1681 609 1914 
Q 372 2147 372 2553 
Q 372 3047 722 3315 
Q 1072 3584 1716 3584 
Q 2034 3584 2315 3537 
Q 2597 3491 2834 3397 
z
" transform="scale(0.015625)"/>
      <path id="DejaVuSans-74" d="M 1172 4494 
L 1172 3500 
L 2356 3500 
L 2356 3053 
L 1172 3053 
L 1172 1153 
Q 1172 725 1289 603 
Q 1406 481 1766 481 
L 2356 481 
L 2356 0 
L 1766 0 
Q 1100 0 847 248 
Q 594 497 594 1153 
L 594 3053 
L 172 3053 
L 172 3500 
L 594 3500 
L 594 4494 
L 1172 4494 
z
" transform="scale(0.015625)"/>
     </defs>
     <use xlink:href="#DejaVuSans-66"/>
     <use xlink:href="#DejaVuSans-6f" x="35.205078"/>
     <use xlink:href="#DejaVuSans-72" x="96.386719"/>
     <use xlink:href="#DejaVuSans-65" x="135.25"/>
     <use xlink:href="#DejaVuSans-73" x="196.773438"/>
     <use xlink:href="#DejaVuSans-74" x="248.873047"/>
    </g>
   </g>
  </g>
  <g id="axes_3">
   <g id="patch_6">
    <path d="M 528.491455 100.773818 
C 528.491455 94.95016 527.419133 89.17597 525.328228 83.740612 
C 523.237324 78.305255 520.163356 73.301069 516.260375 68.978833 
C 512.357393 64.656596 507.691703 61.089737 502.497118 58.457004 
C 497.302534 55.824271 491.667303 54.17039 485.873827 53.578243 
C 480.080352 52.986096 474.227055 53.465743 468.607266 54.993146 
C 462.987476 56.520549 457.696666 59.069761 452.999978 62.513031 
C 448.303289 65.956301 444.280511 70.235133 441.13324 75.1351 
C 437.985969 80.035067 435.767671 85.472926 434.589515 91.176165 
C 433.411359 96.879404 433.293358 102.751136 434.241428 108.497104 
C 435.189497 114.243073 437.187529 119.765665 440.135396 124.788122 
C 443.083263 129.810579 446.930884 134.247577 451.485443 137.876763 
C 456.040001 141.50595 461.224121 144.265669 466.778007 146.017622 
C 472.331893 147.769576 478.161194 148.483999 483.973782 148.125092 
C 489.78637 147.766184 495.483498 146.340042 500.779662 143.918135 
C 506.075827 141.496227 510.881054 138.119699 514.954536 133.957761 
C 519.028019 129.795822 522.300554 124.919177 524.608144 119.572214 
L 481.05 100.773818 
L 528.491455 100.773818 
z
" style="fill: #1f77b4"/>
   </g>
   <g id="patch_7">
    <path d="M 524.608144 119.572214 
C 525.885729 116.611897 526.858206 113.529036 527.510485 110.371469 
C 528.162765 107.213903 528.491455 103.998049 528.491455 100.773814 
L 481.05 100.773818 
L 524.608144 119.572214 
z
" style="fill: #ff7f0e"/>
   </g>
   <g id="matplotlib.axis_5"/>
   <g id="matplotlib.axis_6"/>
   <g id="text_7">
    <!-- ja -->
    <g transform="translate(421.037217 92.975775)scale(0.1 -0.1)">
     <use xlink:href="#DejaVuSans-6a"/>
     <use xlink:href="#DejaVuSans-61" x="27.783203"/>
    </g>
   </g>
   <g id="text_8">
    <!-- nein -->
    <g transform="translate(532.156534 114.090609)scale(0.1 -0.1)">
     <use xlink:href="#DejaVuSans-6e"/>
     <use xlink:href="#DejaVuSans-65" x="63.378906"/>
     <use xlink:href="#DejaVuSans-69" x="124.902344"/>
     <use xlink:href="#DejaVuSans-6e" x="152.685547"/>
    </g>
   </g>
   <g id="text_9">
    <!-- residential -->
    <g transform="translate(449.567813 35.472)scale(0.12 -0.12)">
     <use xlink:href="#DejaVuSans-72"/>
     <use xlink:href="#DejaVuSans-65" x="38.863281"/>
     <use xlink:href="#DejaVuSans-73" x="100.386719"/>
     <use xlink:href="#DejaVuSans-69" x="152.486328"/>
     <use xlink:href="#DejaVuSans-64" x="180.269531"/>
     <use xlink:href="#DejaVuSans-65" x="243.746094"/>
     <use xlink:href="#DejaVuSans-6e" x="305.269531"/>
     <use xlink:href="#DejaVuSans-74" x="368.648438"/>
     <use xlink:href="#DejaVuSans-69" x="407.857422"/>
     <use xlink:href="#DejaVuSans-61" x="435.640625"/>
     <use xlink:href="#DejaVuSans-6c" x="496.919922"/>
    </g>
   </g>
  </g>
  <g id="axes_4">
   <g id="patch_8">
    <path d="M 193.691455 243.098182 
C 193.691455 237.085574 192.548421 231.127414 190.323354 225.541671 
C 188.098287 219.955928 184.831486 214.843766 180.697289 210.478005 
C 176.563092 206.112245 171.636374 202.571955 166.180061 200.046071 
C 160.723747 197.520186 154.836658 196.054454 148.832969 195.727095 
C 142.829279 195.399736 136.817724 196.21668 131.119121 198.134328 
C 125.420518 200.051977 120.138077 203.035599 115.553704 206.925969 
C 110.969331 210.816338 107.166055 215.542995 104.346846 220.853693 
C 101.527637 226.164391 99.743553 231.962946 99.089807 237.939907 
C 98.43606 243.916868 98.924491 249.963986 100.529033 255.758543 
C 102.133574 261.5531 104.825166 266.990152 108.460167 271.779537 
C 112.095168 276.568923 116.607744 280.623903 121.757072 283.728073 
C 126.906399 286.832244 132.599218 288.929385 138.531721 289.90758 
C 144.464223 290.885775 150.528964 290.727307 156.402287 289.440632 
C 162.275609 288.153957 167.851141 285.76238 172.831332 282.39353 
C 177.811523 279.024681 182.106176 274.739574 185.4861 269.766892 
C 188.866023 264.794209 191.270002 259.224014 192.569744 253.353569 
L 146.25 243.098182 
L 193.691455 243.098182 
z
" style="fill: #1f77b4"/>
   </g>
   <g id="patch_9">
    <path d="M 192.569744 253.353569 
C 192.942259 251.671057 193.222825 249.969497 193.410193 248.256457 
C 193.597562 246.543416 193.691455 244.821439 193.691455 243.098182 
L 146.25 243.098182 
L 192.569744 253.353569 
z
" style="fill: #ff7f0e"/>
   </g>
   <g id="matplotlib.axis_7"/>
   <g id="matplotlib.axis_8"/>
   <g id="text_10">
    <!-- ja -->
    <g transform="translate(85.467538 240.183454)scale(0.1 -0.1)">
     <use xlink:href="#DejaVuSans-6a"/>
     <use xlink:href="#DejaVuSans-61" x="27.783203"/>
    </g>
   </g>
   <g id="text_11">
    <!-- nein -->
    <g transform="translate(198.126212 251.531659)scale(0.1 -0.1)">
     <use xlink:href="#DejaVuSans-6e"/>
     <use xlink:href="#DejaVuSans-65" x="63.378906"/>
     <use xlink:href="#DejaVuSans-69" x="124.902344"/>
     <use xlink:href="#DejaVuSans-6e" x="152.685547"/>
    </g>
   </g>
   <g id="text_12">
    <!-- water -->
    <g transform="translate(129.155625 177.796364)scale(0.12 -0.12)">
     <defs>
      <path id="DejaVuSans-77" d="M 269 3500 
L 844 3500 
L 1563 769 
L 2278 3500 
L 2956 3500 
L 3675 769 
L 4391 3500 
L 4966 3500 
L 4050 0 
L 3372 0 
L 2619 2869 
L 1863 0 
L 1184 0 
L 269 3500 
z
" transform="scale(0.015625)"/>
     </defs>
     <use xlink:href="#DejaVuSans-77"/>
     <use xlink:href="#DejaVuSans-61" x="81.787109"/>
     <use xlink:href="#DejaVuSans-74" x="143.066406"/>
     <use xlink:href="#DejaVuSans-65" x="182.275391"/>
     <use xlink:href="#DejaVuSans-72" x="243.798828"/>
    </g>
   </g>
  </g>
  <g id="axes_5">
   <g id="patch_10">
    <path d="M 361.091455 243.098182 
C 361.091455 237.143808 359.970455 231.242313 357.787145 225.702663 
C 355.603835 220.163014 352.396992 215.0836 348.334508 210.73035 
C 344.272023 206.3771 339.426052 202.827333 334.0503 200.266892 
C 328.674548 197.706452 322.864495 196.180816 316.924321 195.769856 
C 310.984146 195.358896 305.019354 196.069912 299.342226 197.86568 
C 293.665098 199.661448 288.376467 202.510072 283.753212 206.262415 
C 279.129958 210.014759 275.254196 214.604176 272.328837 219.790392 
C 269.403478 224.976608 267.48048 230.66751 266.66052 236.565156 
C 265.840561 242.462803 266.138203 248.462443 267.537864 254.249974 
C 268.937524 260.037505 271.414344 265.510132 274.838651 270.381342 
C 278.262959 275.252551 282.573934 279.435825 287.54588 282.712151 
C 292.517827 285.988477 298.062436 288.299664 303.889427 289.524713 
C 309.716418 290.749762 315.722294 290.866914 321.592626 289.870035 
C 327.462958 288.873157 333.093481 286.779954 338.189414 283.700014 
C 343.285347 280.620074 347.75618 276.6081 351.367848 271.874136 
C 354.979516 267.140172 357.667871 261.768297 359.292166 256.039752 
L 313.65 243.098182 
L 361.091455 243.098182 
z
" style="fill: #1f77b4"/>
   </g>
   <g id="patch_11">
    <path d="M 359.292166 256.039752 
C 359.888346 253.937154 360.338523 251.795871 360.63948 249.631206 
C 360.940437 247.466542 361.091455 245.283665 361.091455 243.09818 
L 313.65 243.098182 
L 359.292166 256.039752 
z
" style="fill: #ff7f0e"/>
   </g>
   <g id="matplotlib.axis_9"/>
   <g id="matplotlib.axis_10"/>
   <g id="text_13">
    <!-- ja -->
    <g transform="translate(253.055323 238.671229)scale(0.1 -0.1)">
     <use xlink:href="#DejaVuSans-6a"/>
     <use xlink:href="#DejaVuSans-61" x="27.783203"/>
    </g>
   </g>
   <g id="text_14">
    <!-- nein -->
    <g transform="translate(365.338428 253.043884)scale(0.1 -0.1)">
     <use xlink:href="#DejaVuSans-6e"/>
     <use xlink:href="#DejaVuSans-65" x="63.378906"/>
     <use xlink:href="#DejaVuSans-69" x="124.902344"/>
     <use xlink:href="#DejaVuSans-6e" x="152.685547"/>
    </g>
   </g>
   <g id="text_15">
    <!-- meadow -->
    <g transform="translate(288.049688 177.796364)scale(0.12 -0.12)">
     <use xlink:href="#DejaVuSans-6d"/>
     <use xlink:href="#DejaVuSans-65" x="97.412109"/>
     <use xlink:href="#DejaVuSans-61" x="158.935547"/>
     <use xlink:href="#DejaVuSans-64" x="220.214844"/>
     <use xlink:href="#DejaVuSans-6f" x="283.691406"/>
     <use xlink:href="#DejaVuSans-77" x="344.873047"/>
    </g>
   </g>
  </g>
  <g id="axes_6">
   <g id="patch_12">
    <path d="M 528.491455 243.098182 
C 528.491455 237.091893 527.350822 231.13988 525.130303 225.559126 
C 522.909785 219.978373 519.649511 214.869741 515.523114 210.505299 
C 511.396717 206.140857 506.478773 202.599483 501.031195 200.069779 
C 495.583617 197.540075 489.704859 196.067761 483.708005 195.731246 
C 477.71115 195.394731 471.70458 196.200098 466.008183 198.104456 
C 460.311787 200.008814 455.028516 202.977745 450.439739 206.853133 
C 445.850963 210.728522 442.039613 215.440328 439.208671 220.737618 
C 436.377729 226.034907 434.578358 231.821942 433.906386 237.790523 
C 433.234414 243.759104 433.701985 249.801362 435.2842 255.595506 
C 436.866414 261.38965 439.534675 266.830963 443.146881 271.629659 
C 446.759087 276.428354 451.249953 280.497705 456.380313 283.620992 
C 461.510672 286.744279 467.187803 288.865054 473.109361 289.870373 
C 479.030918 290.875691 485.089882 290.747384 490.963572 289.492284 
C 496.837261 288.237184 502.419522 285.877974 507.413061 282.540299 
C 512.4066 279.202624 516.721169 274.946805 520.126989 269.999493 
C 523.532809 265.05218 525.968326 259.502787 527.303833 253.646856 
L 481.05 243.098182 
L 528.491455 243.098182 
z
" style="fill: #1f77b4"/>
   </g>
   <g id="patch_13">
    <path d="M 527.303833 253.646856 
C 527.69815 251.917854 527.995211 250.1681 528.193615 248.405837 
C 528.392019 246.643574 528.491455 244.871571 528.491455 243.098174 
L 481.05 243.098182 
L 527.303833 253.646856 
z
" style="fill: #ff7f0e"/>
   </g>
   <g id="matplotlib.axis_11"/>
   <g id="matplotlib.axis_12"/>
   <g id="text_16">
    <!-- ja -->
    <g transform="translate(420.285774 240.019132)scale(0.1 -0.1)">
     <use xlink:href="#DejaVuSans-6a"/>
     <use xlink:href="#DejaVuSans-61" x="27.783203"/>
    </g>
   </g>
   <g id="text_17">
    <!-- nein -->
    <g transform="translate(532.907976 251.695977)scale(0.1 -0.1)">
     <use xlink:href="#DejaVuSans-6e"/>
     <use xlink:href="#DejaVuSans-65" x="63.378906"/>
     <use xlink:href="#DejaVuSans-69" x="124.902344"/>
     <use xlink:href="#DejaVuSans-6e" x="152.685547"/>
    </g>
   </g>
   <g id="text_18">
    <!-- orchard -->
    <g transform="translate(458.098125 177.796364)scale(0.12 -0.12)">
     <defs>
      <path id="DejaVuSans-63" d="M 3122 3366 
L 3122 2828 
Q 2878 2963 2633 3030 
Q 2388 3097 2138 3097 
Q 1578 3097 1268 2742 
Q 959 2388 959 1747 
Q 959 1106 1268 751 
Q 1578 397 2138 397 
Q 2388 397 2633 464 
Q 2878 531 3122 666 
L 3122 134 
Q 2881 22 2623 -34 
Q 2366 -91 2075 -91 
Q 1284 -91 818 406 
Q 353 903 353 1747 
Q 353 2603 823 3093 
Q 1294 3584 2113 3584 
Q 2378 3584 2631 3529 
Q 2884 3475 3122 3366 
z
" transform="scale(0.015625)"/>
      <path id="DejaVuSans-68" d="M 3513 2113 
L 3513 0 
L 2938 0 
L 2938 2094 
Q 2938 2591 2744 2837 
Q 2550 3084 2163 3084 
Q 1697 3084 1428 2787 
Q 1159 2491 1159 1978 
L 1159 0 
L 581 0 
L 581 4863 
L 1159 4863 
L 1159 2956 
Q 1366 3272 1645 3428 
Q 1925 3584 2291 3584 
Q 2894 3584 3203 3211 
Q 3513 2838 3513 2113 
z
" transform="scale(0.015625)"/>
     </defs>
     <use xlink:href="#DejaVuSans-6f"/>
     <use xlink:href="#DejaVuSans-72" x="61.181641"/>
     <use xlink:href="#DejaVuSans-63" x="100.044922"/>
     <use xlink:href="#DejaVuSans-68" x="155.025391"/>
     <use xlink:href="#DejaVuSans-61" x="218.404297"/>
     <use xlink:href="#DejaVuSans-72" x="279.683594"/>
     <use xlink:href="#DejaVuSans-64" x="319.046875"/>
    </g>
   </g>
  </g>
 </g>
</svg>
