<?xml version="1.0" encoding="utf-8" standalone="no"?>
<!DOCTYPE svg PUBLIC "-//W3C//DTD SVG 1.1//EN"
  "http://www.w3.org/Graphics/SVG/1.1/DTD/svg11.dtd">
<svg xmlns:xlink="http://www.w3.org/1999/xlink" width="612pt" height="345.6pt" viewBox="0 0 612 345.6" xmlns="http://www.w3.org/2000/svg" version="1.1">
 <metadata>
  <rdf:RDF xmlns:dc="http://purl.org/dc/elements/1.1/" xmlns:cc="http://creativecommons.org/ns#" xmlns:rdf="http://www.w3.org/1999/02/22-rdf-syntax-ns#">
   <cc:Work>
    <dc:type rdf:resource="http://purl.org/dc/dcmitype/StillImage"/>
    <dc:date>2024-07-08T20:17:09.792324</dc:date>
    <dc:format>image/svg+xml</dc:format>
    <dc:creator>
     <cc:Agent>
      <dc:title>Matplotlib v3.7.5, https://matplotlib.org/</dc:title>
     </cc:Agent>
    </dc:creator>
   </cc:Work>
  </rdf:RDF>
 </metadata>
 <defs>
  <style type="text/css">*{stroke-linejoin: round; stroke-linecap: butt}</style>
 </defs>
 <g id="figure_1">
  <g id="patch_1">
   <path d="M 0 345.6 
L 612 345.6 
L 612 0 
L 0 0 
z
" style="fill: #ffffff"/>
  </g>
  <g id="axes_1">
   <g id="patch_2">
    <path d="M 76.5 307.584 
L 550.8 307.584 
L 550.8 41.472 
L 76.5 41.472 
z
" style="fill: #ffffff"/>
   </g>
   <g id="patch_3">
    <path d="M 76.5 307.584 
L 80.4525 307.584 
L 80.4525 306.76469 
L 76.5 306.76469 
z
" clip-path="url(#pd3b97d5087)" style="fill: #1f77b4"/>
   </g>
   <g id="patch_4">
    <path d="M 80.4525 307.584 
L 84.405 307.584 
L 84.405 307.584 
L 80.4525 307.584 
z
" clip-path="url(#pd3b97d5087)" style="fill: #1f77b4"/>
   </g>
   <g id="patch_5">
    <path d="M 84.405 307.584 
L 88.3575 307.584 
L 88.3575 307.584 
L 84.405 307.584 
z
" clip-path="url(#pd3b97d5087)" style="fill: #1f77b4"/>
   </g>
   <g id="patch_6">
    <path d="M 88.3575 307.584 
L 92.31 307.584 
L 92.31 306.901241 
L 88.3575 306.901241 
z
" clip-path="url(#pd3b97d5087)" style="fill: #1f77b4"/>
   </g>
   <g id="patch_7">
    <path d="M 92.31 307.584 
L 96.2625 307.584 
L 96.2625 307.310897 
L 92.31 307.310897 
z
" clip-path="url(#pd3b97d5087)" style="fill: #1f77b4"/>
   </g>
   <g id="patch_8">
    <path d="M 96.2625 307.584 
L 100.215 307.584 
L 100.215 306.901241 
L 96.2625 306.901241 
z
" clip-path="url(#pd3b97d5087)" style="fill: #1f77b4"/>
   </g>
   <g id="patch_9">
    <path d="M 100.215 307.584 
L 104.1675 307.584 
L 104.1675 307.037793 
L 100.215 307.037793 
z
" clip-path="url(#pd3b97d5087)" style="fill: #1f77b4"/>
   </g>
   <g id="patch_10">
    <path d="M 104.1675 307.584 
L 108.12 307.584 
L 108.12 301.848828 
L 104.1675 301.848828 
z
" clip-path="url(#pd3b97d5087)" style="fill: #1f77b4"/>
   </g>
   <g id="patch_11">
    <path d="M 108.12 307.584 
L 112.0725 307.584 
L 112.0725 304.579862 
L 108.12 304.579862 
z
" clip-path="url(#pd3b97d5087)" style="fill: #1f77b4"/>
   </g>
   <g id="patch_12">
    <path d="M 112.0725 307.584 
L 116.025 307.584 
L 116.025 306.081931 
L 112.0725 306.081931 
z
" clip-path="url(#pd3b97d5087)" style="fill: #1f77b4"/>
   </g>
   <g id="patch_13">
    <path d="M 116.025 307.584 
L 119.9775 307.584 
L 119.9775 300.210207 
L 116.025 300.210207 
z
" clip-path="url(#pd3b97d5087)" style="fill: #1f77b4"/>
   </g>
   <g id="patch_14">
    <path d="M 119.9775 307.584 
L 123.93 307.584 
L 123.93 301.166069 
L 119.9775 301.166069 
z
" clip-path="url(#pd3b97d5087)" style="fill: #1f77b4"/>
   </g>
   <g id="patch_15">
    <path d="M 123.93 307.584 
L 127.8825 307.584 
L 127.8825 292.836414 
L 123.93 292.836414 
z
" clip-path="url(#pd3b97d5087)" style="fill: #1f77b4"/>
   </g>
   <g id="patch_16">
    <path d="M 127.8825 307.584 
L 131.835 307.584 
L 131.835 306.218483 
L 127.8825 306.218483 
z
" clip-path="url(#pd3b97d5087)" style="fill: #1f77b4"/>
   </g>
   <g id="patch_17">
    <path d="M 131.835 307.584 
L 135.7875 307.584 
L 135.7875 297.752276 
L 131.835 297.752276 
z
" clip-path="url(#pd3b97d5087)" style="fill: #1f77b4"/>
   </g>
   <g id="patch_18">
    <path d="M 135.7875 307.584 
L 139.74 307.584 
L 139.74 307.037793 
L 135.7875 307.037793 
z
" clip-path="url(#pd3b97d5087)" style="fill: #1f77b4"/>
   </g>
   <g id="patch_19">
    <path d="M 139.74 307.584 
L 143.6925 307.584 
L 143.6925 296.659862 
L 139.74 296.659862 
z
" clip-path="url(#pd3b97d5087)" style="fill: #1f77b4"/>
   </g>
   <g id="patch_20">
    <path d="M 143.6925 307.584 
L 147.645 307.584 
L 147.645 276.586759 
L 143.6925 276.586759 
z
" clip-path="url(#pd3b97d5087)" style="fill: #1f77b4"/>
   </g>
   <g id="patch_21">
    <path d="M 147.645 307.584 
L 151.5975 307.584 
L 151.5975 265.252966 
L 147.645 265.252966 
z
" clip-path="url(#pd3b97d5087)" style="fill: #1f77b4"/>
   </g>
   <g id="patch_22">
    <path d="M 151.5975 307.584 
L 155.55 307.584 
L 155.55 303.760552 
L 151.5975 303.760552 
z
" clip-path="url(#pd3b97d5087)" style="fill: #1f77b4"/>
   </g>
   <g id="patch_23">
    <path d="M 155.55 307.584 
L 159.5025 307.584 
L 159.5025 291.607448 
L 155.55 291.607448 
z
" clip-path="url(#pd3b97d5087)" style="fill: #1f77b4"/>
   </g>
   <g id="patch_24">
    <path d="M 159.5025 307.584 
L 163.455 307.584 
L 163.455 297.615724 
L 159.5025 297.615724 
z
" clip-path="url(#pd3b97d5087)" style="fill: #1f77b4"/>
   </g>
   <g id="patch_25">
    <path d="M 163.455 307.584 
L 167.4075 307.584 
L 167.4075 298.708138 
L 163.455 298.708138 
z
" clip-path="url(#pd3b97d5087)" style="fill: #1f77b4"/>
   </g>
   <g id="patch_26">
    <path d="M 167.4075 307.584 
L 171.36 307.584 
L 171.36 290.92469 
L 167.4075 290.92469 
z
" clip-path="url(#pd3b97d5087)" style="fill: #1f77b4"/>
   </g>
   <g id="patch_27">
    <path d="M 171.36 307.584 
L 175.3125 307.584 
L 175.3125 153.280552 
L 171.36 153.280552 
z
" clip-path="url(#pd3b97d5087)" style="fill: #1f77b4"/>
   </g>
   <g id="patch_28">
    <path d="M 175.3125 307.584 
L 179.265 307.584 
L 179.265 54.144 
L 175.3125 54.144 
z
" clip-path="url(#pd3b97d5087)" style="fill: #1f77b4"/>
   </g>
   <g id="patch_29">
    <path d="M 179.265 307.584 
L 183.2175 307.584 
L 183.2175 268.80331 
L 179.265 268.80331 
z
" clip-path="url(#pd3b97d5087)" style="fill: #1f77b4"/>
   </g>
   <g id="patch_30">
    <path d="M 183.2175 307.584 
L 187.17 307.584 
L 187.17 266.618483 
L 183.2175 266.618483 
z
" clip-path="url(#pd3b97d5087)" style="fill: #1f77b4"/>
   </g>
   <g id="patch_31">
    <path d="M 187.17 307.584 
L 191.1225 307.584 
L 191.1225 290.378483 
L 187.17 290.378483 
z
" clip-path="url(#pd3b97d5087)" style="fill: #1f77b4"/>
   </g>
   <g id="patch_32">
    <path d="M 191.1225 307.584 
L 195.075 307.584 
L 195.075 285.735724 
L 191.1225 285.735724 
z
" clip-path="url(#pd3b97d5087)" style="fill: #1f77b4"/>
   </g>
   <g id="patch_33">
    <path d="M 195.075 307.584 
L 199.0275 307.584 
L 199.0275 288.193655 
L 195.075 288.193655 
z
" clip-path="url(#pd3b97d5087)" style="fill: #1f77b4"/>
   </g>
   <g id="patch_34">
    <path d="M 199.0275 307.584 
L 202.98 307.584 
L 202.98 262.658483 
L 199.0275 262.658483 
z
" clip-path="url(#pd3b97d5087)" style="fill: #1f77b4"/>
   </g>
   <g id="patch_35">
    <path d="M 202.98 307.584 
L 206.9325 307.584 
L 206.9325 276.859862 
L 202.98 276.859862 
z
" clip-path="url(#pd3b97d5087)" style="fill: #1f77b4"/>
   </g>
   <g id="patch_36">
    <path d="M 206.9325 307.584 
L 210.885 307.584 
L 210.885 265.252966 
L 206.9325 265.252966 
z
" clip-path="url(#pd3b97d5087)" style="fill: #1f77b4"/>
   </g>
   <g id="patch_37">
    <path d="M 210.885 307.584 
L 214.8375 307.584 
L 214.8375 271.261241 
L 210.885 271.261241 
z
" clip-path="url(#pd3b97d5087)" style="fill: #1f77b4"/>
   </g>
   <g id="patch_38">
    <path d="M 214.8375 307.584 
L 218.79 307.584 
L 218.79 279.04469 
L 214.8375 279.04469 
z
" clip-path="url(#pd3b97d5087)" style="fill: #1f77b4"/>
   </g>
   <g id="patch_39">
    <path d="M 218.79 307.584 
L 222.7425 307.584 
L 222.7425 274.948138 
L 218.79 274.948138 
z
" clip-path="url(#pd3b97d5087)" style="fill: #1f77b4"/>
   </g>
   <g id="patch_40">
    <path d="M 222.7425 307.584 
L 226.695 307.584 
L 226.695 249.959172 
L 222.7425 249.959172 
z
" clip-path="url(#pd3b97d5087)" style="fill: #1f77b4"/>
   </g>
   <g id="patch_41">
    <path d="M 226.695 307.584 
L 230.6475 307.584 
L 230.6475 250.778483 
L 226.695 250.778483 
z
" clip-path="url(#pd3b97d5087)" style="fill: #1f77b4"/>
   </g>
   <g id="patch_42">
    <path d="M 230.6475 307.584 
L 234.6 307.584 
L 234.6 259.108138 
L 230.6475 259.108138 
z
" clip-path="url(#pd3b97d5087)" style="fill: #1f77b4"/>
   </g>
   <g id="patch_43">
    <path d="M 234.6 307.584 
L 238.5525 307.584 
L 238.5525 255.967448 
L 234.6 255.967448 
z
" clip-path="url(#pd3b97d5087)" style="fill: #1f77b4"/>
   </g>
   <g id="patch_44">
    <path d="M 238.5525 307.584 
L 242.505 307.584 
L 242.505 247.228138 
L 238.5525 247.228138 
z
" clip-path="url(#pd3b97d5087)" style="fill: #1f77b4"/>
   </g>
   <g id="patch_45">
    <path d="M 242.505 307.584 
L 246.4575 307.584 
L 246.4575 237.12331 
L 242.505 237.12331 
z
" clip-path="url(#pd3b97d5087)" style="fill: #1f77b4"/>
   </g>
   <g id="patch_46">
    <path d="M 246.4575 307.584 
L 250.41 307.584 
L 250.41 249.822621 
L 246.4575 249.822621 
z
" clip-path="url(#pd3b97d5087)" style="fill: #1f77b4"/>
   </g>
   <g id="patch_47">
    <path d="M 250.41 307.584 
L 254.3625 307.584 
L 254.3625 254.328828 
L 250.41 254.328828 
z
" clip-path="url(#pd3b97d5087)" style="fill: #1f77b4"/>
   </g>
   <g id="patch_48">
    <path d="M 254.3625 307.584 
L 258.315 307.584 
L 258.315 244.360552 
L 254.3625 244.360552 
z
" clip-path="url(#pd3b97d5087)" style="fill: #1f77b4"/>
   </g>
   <g id="patch_49">
    <path d="M 258.315 307.584 
L 262.2675 307.584 
L 262.2675 231.52469 
L 258.315 231.52469 
z
" clip-path="url(#pd3b97d5087)" style="fill: #1f77b4"/>
   </g>
   <g id="patch_50">
    <path d="M 262.2675 307.584 
L 266.22 307.584 
L 266.22 230.705379 
L 262.2675 230.705379 
z
" clip-path="url(#pd3b97d5087)" style="fill: #1f77b4"/>
   </g>
   <g id="patch_51">
    <path d="M 266.22 307.584 
L 270.1725 307.584 
L 270.1725 183.048828 
L 266.22 183.048828 
z
" clip-path="url(#pd3b97d5087)" style="fill: #1f77b4"/>
   </g>
   <g id="patch_52">
    <path d="M 270.1725 307.584 
L 274.125 307.584 
L 274.125 211.178483 
L 270.1725 211.178483 
z
" clip-path="url(#pd3b97d5087)" style="fill: #1f77b4"/>
   </g>
   <g id="patch_53">
    <path d="M 274.125 307.584 
L 278.0775 307.584 
L 278.0775 227.56469 
L 274.125 227.56469 
z
" clip-path="url(#pd3b97d5087)" style="fill: #1f77b4"/>
   </g>
   <g id="patch_54">
    <path d="M 278.0775 307.584 
L 282.03 307.584 
L 282.03 215.001931 
L 278.0775 215.001931 
z
" clip-path="url(#pd3b97d5087)" style="fill: #1f77b4"/>
   </g>
   <g id="patch_55">
    <path d="M 282.03 307.584 
L 285.9825 307.584 
L 285.9825 215.138483 
L 282.03 215.138483 
z
" clip-path="url(#pd3b97d5087)" style="fill: #1f77b4"/>
   </g>
   <g id="patch_56">
    <path d="M 285.9825 307.584 
L 289.935 307.584 
L 289.935 199.435034 
L 285.9825 199.435034 
z
" clip-path="url(#pd3b97d5087)" style="fill: #1f77b4"/>
   </g>
   <g id="patch_57">
    <path d="M 289.935 307.584 
L 293.8875 307.584 
L 293.8875 195.065379 
L 289.935 195.065379 
z
" clip-path="url(#pd3b97d5087)" style="fill: #1f77b4"/>
   </g>
   <g id="patch_58">
    <path d="M 293.8875 307.584 
L 297.84 307.584 
L 297.84 189.466759 
L 293.8875 189.466759 
z
" clip-path="url(#pd3b97d5087)" style="fill: #1f77b4"/>
   </g>
   <g id="patch_59">
    <path d="M 297.84 307.584 
L 301.7925 307.584 
L 301.7925 164.068138 
L 297.84 164.068138 
z
" clip-path="url(#pd3b97d5087)" style="fill: #1f77b4"/>
   </g>
   <g id="patch_60">
    <path d="M 301.7925 307.584 
L 305.745 307.584 
L 305.745 219.371586 
L 301.7925 219.371586 
z
" clip-path="url(#pd3b97d5087)" style="fill: #1f77b4"/>
   </g>
   <g id="patch_61">
    <path d="M 305.745 307.584 
L 309.6975 307.584 
L 309.6975 211.178483 
L 305.745 211.178483 
z
" clip-path="url(#pd3b97d5087)" style="fill: #1f77b4"/>
   </g>
   <g id="patch_62">
    <path d="M 309.6975 307.584 
L 313.65 307.584 
L 313.65 187.145379 
L 309.6975 187.145379 
z
" clip-path="url(#pd3b97d5087)" style="fill: #1f77b4"/>
   </g>
   <g id="patch_63">
    <path d="M 313.65 307.584 
L 317.6025 307.584 
L 317.6025 194.109517 
L 313.65 194.109517 
z
" clip-path="url(#pd3b97d5087)" style="fill: #1f77b4"/>
   </g>
   <g id="patch_64">
    <path d="M 317.6025 307.584 
L 321.555 307.584 
L 321.555 192.470897 
L 317.6025 192.470897 
z
" clip-path="url(#pd3b97d5087)" style="fill: #1f77b4"/>
   </g>
   <g id="patch_65">
    <path d="M 321.555 307.584 
L 325.5075 307.584 
L 325.5075 201.48331 
L 321.555 201.48331 
z
" clip-path="url(#pd3b97d5087)" style="fill: #1f77b4"/>
   </g>
   <g id="patch_66">
    <path d="M 325.5075 307.584 
L 329.46 307.584 
L 329.46 204.350897 
L 325.5075 204.350897 
z
" clip-path="url(#pd3b97d5087)" style="fill: #1f77b4"/>
   </g>
   <g id="patch_67">
    <path d="M 329.46 307.584 
L 333.4125 307.584 
L 333.4125 219.508138 
L 329.46 219.508138 
z
" clip-path="url(#pd3b97d5087)" style="fill: #1f77b4"/>
   </g>
   <g id="patch_68">
    <path d="M 333.4125 307.584 
L 337.365 307.584 
L 337.365 200.390897 
L 333.4125 200.390897 
z
" clip-path="url(#pd3b97d5087)" style="fill: #1f77b4"/>
   </g>
   <g id="patch_69">
    <path d="M 337.365 307.584 
L 341.3175 307.584 
L 341.3175 220.737103 
L 337.365 220.737103 
z
" clip-path="url(#pd3b97d5087)" style="fill: #1f77b4"/>
   </g>
   <g id="patch_70">
    <path d="M 341.3175 307.584 
L 345.27 307.584 
L 345.27 215.138483 
L 341.3175 215.138483 
z
" clip-path="url(#pd3b97d5087)" style="fill: #1f77b4"/>
   </g>
   <g id="patch_71">
    <path d="M 345.27 307.584 
L 349.2225 307.584 
L 349.2225 211.997793 
L 345.27 211.997793 
z
" clip-path="url(#pd3b97d5087)" style="fill: #1f77b4"/>
   </g>
   <g id="patch_72">
    <path d="M 349.2225 307.584 
L 353.175 307.584 
L 353.175 190.559172 
L 349.2225 190.559172 
z
" clip-path="url(#pd3b97d5087)" style="fill: #1f77b4"/>
   </g>
   <g id="patch_73">
    <path d="M 353.175 307.584 
L 357.1275 307.584 
L 357.1275 149.184 
L 353.175 149.184 
z
" clip-path="url(#pd3b97d5087)" style="fill: #1f77b4"/>
   </g>
   <g id="patch_74">
    <path d="M 357.1275 307.584 
L 361.08 307.584 
L 361.08 189.330207 
L 357.1275 189.330207 
z
" clip-path="url(#pd3b97d5087)" style="fill: #1f77b4"/>
   </g>
   <g id="patch_75">
    <path d="M 361.08 307.584 
L 365.0325 307.584 
L 365.0325 190.422621 
L 361.08 190.422621 
z
" clip-path="url(#pd3b97d5087)" style="fill: #1f77b4"/>
   </g>
   <g id="patch_76">
    <path d="M 365.0325 307.584 
L 368.985 307.584 
L 368.985 171.441931 
L 365.0325 171.441931 
z
" clip-path="url(#pd3b97d5087)" style="fill: #1f77b4"/>
   </g>
   <g id="patch_77">
    <path d="M 368.985 307.584 
L 372.9375 307.584 
L 372.9375 151.915034 
L 368.985 151.915034 
z
" clip-path="url(#pd3b97d5087)" style="fill: #1f77b4"/>
   </g>
   <g id="patch_78">
    <path d="M 372.9375 307.584 
L 376.89 307.584 
L 376.89 153.826759 
L 372.9375 153.826759 
z
" clip-path="url(#pd3b97d5087)" style="fill: #1f77b4"/>
   </g>
   <g id="patch_79">
    <path d="M 376.89 307.584 
L 380.8425 307.584 
L 380.8425 191.788138 
L 376.89 191.788138 
z
" clip-path="url(#pd3b97d5087)" style="fill: #1f77b4"/>
   </g>
   <g id="patch_80">
    <path d="M 380.8425 307.584 
L 384.795 307.584 
L 384.795 182.502621 
L 380.8425 182.502621 
z
" clip-path="url(#pd3b97d5087)" style="fill: #1f77b4"/>
   </g>
   <g id="patch_81">
    <path d="M 384.795 307.584 
L 388.7475 307.584 
L 388.7475 194.655724 
L 384.795 194.655724 
z
" clip-path="url(#pd3b97d5087)" style="fill: #1f77b4"/>
   </g>
   <g id="patch_82">
    <path d="M 388.7475 307.584 
L 392.7 307.584 
L 392.7 159.288828 
L 388.7475 159.288828 
z
" clip-path="url(#pd3b97d5087)" style="fill: #1f77b4"/>
   </g>
   <g id="patch_83">
    <path d="M 392.7 307.584 
L 396.6525 307.584 
L 396.6525 149.320552 
L 392.7 149.320552 
z
" clip-path="url(#pd3b97d5087)" style="fill: #1f77b4"/>
   </g>
   <g id="patch_84">
    <path d="M 396.6525 307.584 
L 400.605 307.584 
L 400.605 153.96331 
L 396.6525 153.96331 
z
" clip-path="url(#pd3b97d5087)" style="fill: #1f77b4"/>
   </g>
   <g id="patch_85">
    <path d="M 400.605 307.584 
L 404.5575 307.584 
L 404.5575 173.080552 
L 400.605 173.080552 
z
" clip-path="url(#pd3b97d5087)" style="fill: #1f77b4"/>
   </g>
   <g id="patch_86">
    <path d="M 404.5575 307.584 
L 408.51 307.584 
L 408.51 154.646069 
L 404.5575 154.646069 
z
" clip-path="url(#pd3b97d5087)" style="fill: #1f77b4"/>
   </g>
   <g id="patch_87">
    <path d="M 408.51 307.584 
L 412.4625 307.584 
L 412.4625 160.927448 
L 408.51 160.927448 
z
" clip-path="url(#pd3b97d5087)" style="fill: #1f77b4"/>
   </g>
   <g id="patch_88">
    <path d="M 412.4625 307.584 
L 416.415 307.584 
L 416.415 142.492966 
L 412.4625 142.492966 
z
" clip-path="url(#pd3b97d5087)" style="fill: #1f77b4"/>
   </g>
   <g id="patch_89">
    <path d="M 416.415 307.584 
L 420.3675 307.584 
L 420.3675 202.166069 
L 416.415 202.166069 
z
" clip-path="url(#pd3b97d5087)" style="fill: #1f77b4"/>
   </g>
   <g id="patch_90">
    <path d="M 420.3675 307.584 
L 424.32 307.584 
L 424.32 200.527448 
L 420.3675 200.527448 
z
" clip-path="url(#pd3b97d5087)" style="fill: #1f77b4"/>
   </g>
   <g id="patch_91">
    <path d="M 424.32 307.584 
L 428.2725 307.584 
L 428.2725 168.984 
L 424.32 168.984 
z
" clip-path="url(#pd3b97d5087)" style="fill: #1f77b4"/>
   </g>
   <g id="patch_92">
    <path d="M 428.2725 307.584 
L 432.225 307.584 
L 432.225 164.477793 
L 428.2725 164.477793 
z
" clip-path="url(#pd3b97d5087)" style="fill: #1f77b4"/>
   </g>
   <g id="patch_93">
    <path d="M 432.225 307.584 
L 436.1775 307.584 
L 436.1775 149.593655 
L 432.225 149.593655 
z
" clip-path="url(#pd3b97d5087)" style="fill: #1f77b4"/>
   </g>
   <g id="patch_94">
    <path d="M 436.1775 307.584 
L 440.13 307.584 
L 440.13 182.639172 
L 436.1775 182.639172 
z
" clip-path="url(#pd3b97d5087)" style="fill: #1f77b4"/>
   </g>
   <g id="patch_95">
    <path d="M 440.13 307.584 
L 444.0825 307.584 
L 444.0825 187.281931 
L 440.13 187.281931 
z
" clip-path="url(#pd3b97d5087)" style="fill: #1f77b4"/>
   </g>
   <g id="patch_96">
    <path d="M 444.0825 307.584 
L 448.035 307.584 
L 448.035 110.40331 
L 444.0825 110.40331 
z
" clip-path="url(#pd3b97d5087)" style="fill: #1f77b4"/>
   </g>
   <g id="patch_97">
    <path d="M 448.035 307.584 
L 451.9875 307.584 
L 451.9875 125.287448 
L 448.035 125.287448 
z
" clip-path="url(#pd3b97d5087)" style="fill: #1f77b4"/>
   </g>
   <g id="patch_98">
    <path d="M 451.9875 307.584 
L 455.94 307.584 
L 455.94 149.047448 
L 451.9875 149.047448 
z
" clip-path="url(#pd3b97d5087)" style="fill: #1f77b4"/>
   </g>
   <g id="patch_99">
    <path d="M 455.94 307.584 
L 459.8925 307.584 
L 459.8925 177.177103 
L 455.94 177.177103 
z
" clip-path="url(#pd3b97d5087)" style="fill: #1f77b4"/>
   </g>
   <g id="patch_100">
    <path d="M 459.8925 307.584 
L 463.845 307.584 
L 463.845 151.505379 
L 459.8925 151.505379 
z
" clip-path="url(#pd3b97d5087)" style="fill: #1f77b4"/>
   </g>
   <g id="patch_101">
    <path d="M 463.845 307.584 
L 467.7975 307.584 
L 467.7975 196.294345 
L 463.845 196.294345 
z
" clip-path="url(#pd3b97d5087)" style="fill: #1f77b4"/>
   </g>
   <g id="patch_102">
    <path d="M 467.7975 307.584 
L 471.75 307.584 
L 471.75 199.025379 
L 467.7975 199.025379 
z
" clip-path="url(#pd3b97d5087)" style="fill: #1f77b4"/>
   </g>
   <g id="patch_103">
    <path d="M 471.75 307.584 
L 475.7025 307.584 
L 475.7025 221.28331 
L 471.75 221.28331 
z
" clip-path="url(#pd3b97d5087)" style="fill: #1f77b4"/>
   </g>
   <g id="patch_104">
    <path d="M 475.7025 307.584 
L 479.655 307.584 
L 479.655 202.166069 
L 475.7025 202.166069 
z
" clip-path="url(#pd3b97d5087)" style="fill: #1f77b4"/>
   </g>
   <g id="patch_105">
    <path d="M 479.655 307.584 
L 483.6075 307.584 
L 483.6075 187.145379 
L 479.655 187.145379 
z
" clip-path="url(#pd3b97d5087)" style="fill: #1f77b4"/>
   </g>
   <g id="patch_106">
    <path d="M 483.6075 307.584 
L 487.56 307.584 
L 487.56 204.077793 
L 483.6075 204.077793 
z
" clip-path="url(#pd3b97d5087)" style="fill: #1f77b4"/>
   </g>
   <g id="patch_107">
    <path d="M 487.56 307.584 
L 491.5125 307.584 
L 491.5125 215.001931 
L 487.56 215.001931 
z
" clip-path="url(#pd3b97d5087)" style="fill: #1f77b4"/>
   </g>
   <g id="patch_108">
    <path d="M 491.5125 307.584 
L 495.465 307.584 
L 495.465 224.150897 
L 491.5125 224.150897 
z
" clip-path="url(#pd3b97d5087)" style="fill: #1f77b4"/>
   </g>
   <g id="patch_109">
    <path d="M 495.465 307.584 
L 499.4175 307.584 
L 499.4175 239.854345 
L 495.465 239.854345 
z
" clip-path="url(#pd3b97d5087)" style="fill: #1f77b4"/>
   </g>
   <g id="patch_110">
    <path d="M 499.4175 307.584 
L 503.37 307.584 
L 503.37 245.452966 
L 499.4175 245.452966 
z
" clip-path="url(#pd3b97d5087)" style="fill: #1f77b4"/>
   </g>
   <g id="patch_111">
    <path d="M 503.37 307.584 
L 507.3225 307.584 
L 507.3225 208.310897 
L 503.37 208.310897 
z
" clip-path="url(#pd3b97d5087)" style="fill: #1f77b4"/>
   </g>
   <g id="patch_112">
    <path d="M 507.3225 307.584 
L 511.275 307.584 
L 511.275 212.817103 
L 507.3225 212.817103 
z
" clip-path="url(#pd3b97d5087)" style="fill: #1f77b4"/>
   </g>
   <g id="patch_113">
    <path d="M 511.275 307.584 
L 515.2275 307.584 
L 515.2275 216.913655 
L 511.275 216.913655 
z
" clip-path="url(#pd3b97d5087)" style="fill: #1f77b4"/>
   </g>
   <g id="patch_114">
    <path d="M 515.2275 307.584 
L 519.18 307.584 
L 519.18 219.371586 
L 515.2275 219.371586 
z
" clip-path="url(#pd3b97d5087)" style="fill: #1f77b4"/>
   </g>
   <g id="patch_115">
    <path d="M 519.18 307.584 
L 523.1325 307.584 
L 523.1325 246.681931 
L 519.18 246.681931 
z
" clip-path="url(#pd3b97d5087)" style="fill: #1f77b4"/>
   </g>
   <g id="patch_116">
    <path d="M 523.1325 307.584 
L 527.085 307.584 
L 527.085 233.846069 
L 523.1325 233.846069 
z
" clip-path="url(#pd3b97d5087)" style="fill: #1f77b4"/>
   </g>
   <g id="patch_117">
    <path d="M 527.085 307.584 
L 531.0375 307.584 
L 531.0375 221.829517 
L 527.085 221.829517 
z
" clip-path="url(#pd3b97d5087)" style="fill: #1f77b4"/>
   </g>
   <g id="patch_118">
    <path d="M 531.0375 307.584 
L 534.99 307.584 
L 534.99 226.881931 
L 531.0375 226.881931 
z
" clip-path="url(#pd3b97d5087)" style="fill: #1f77b4"/>
   </g>
   <g id="patch_119">
    <path d="M 534.99 307.584 
L 538.9425 307.584 
L 538.9425 216.913655 
L 534.99 216.913655 
z
" clip-path="url(#pd3b97d5087)" style="fill: #1f77b4"/>
   </g>
   <g id="patch_120">
    <path d="M 538.9425 307.584 
L 542.895 307.584 
L 542.895 208.584 
L 538.9425 208.584 
z
" clip-path="url(#pd3b97d5087)" style="fill: #1f77b4"/>
   </g>
   <g id="patch_121">
    <path d="M 542.895 307.584 
L 546.8475 307.584 
L 546.8475 241.08331 
L 542.895 241.08331 
z
" clip-path="url(#pd3b97d5087)" style="fill: #1f77b4"/>
   </g>
   <g id="patch_122">
    <path d="M 546.8475 307.584 
L 550.8 307.584 
L 550.8 263.068138 
L 546.8475 263.068138 
z
" clip-path="url(#pd3b97d5087)" style="fill: #1f77b4"/>
   </g>
   <g id="matplotlib.axis_1">
    <g id="xtick_1">
     <g id="line2d_1">
      <defs>
       <path id="m18f4cb2061" d="M 0 0 
L 0 3.5 
" style="stroke: #000000; stroke-width: 0.8"/>
      </defs>
      <g>
       <use xlink:href="#m18f4cb2061" x="94.855171" y="307.584" style="stroke: #000000; stroke-width: 0.8"/>
      </g>
     </g>
     <g id="text_1">
      <!-- 2008 -->
      <g transform="translate(71.950171 328.261187) scale(0.18 -0.18)">
       <defs>
        <path id="DejaVuSans-32" d="M 1228 531 
L 3431 531 
L 3431 0 
L 469 0 
L 469 531 
Q 828 903 1448 1529 
Q 2069 2156 2228 2338 
Q 2531 2678 2651 2914 
Q 2772 3150 2772 3378 
Q 2772 3750 2511 3984 
Q 2250 4219 1831 4219 
Q 1534 4219 1204 4116 
Q 875 4013 500 3803 
L 500 4441 
Q 881 4594 1212 4672 
Q 1544 4750 1819 4750 
Q 2544 4750 2975 4387 
Q 3406 4025 3406 3419 
Q 3406 3131 3298 2873 
Q 3191 2616 2906 2266 
Q 2828 2175 2409 1742 
Q 1991 1309 1228 531 
z
" transform="scale(0.015625)"/>
        <path id="DejaVuSans-30" d="M 2034 4250 
Q 1547 4250 1301 3770 
Q 1056 3291 1056 2328 
Q 1056 1369 1301 889 
Q 1547 409 2034 409 
Q 2525 409 2770 889 
Q 3016 1369 3016 2328 
Q 3016 3291 2770 3770 
Q 2525 4250 2034 4250 
z
M 2034 4750 
Q 2819 4750 3233 4129 
Q 3647 3509 3647 2328 
Q 3647 1150 3233 529 
Q 2819 -91 2034 -91 
Q 1250 -91 836 529 
Q 422 1150 422 2328 
Q 422 3509 836 4129 
Q 1250 4750 2034 4750 
z
" transform="scale(0.015625)"/>
        <path id="DejaVuSans-38" d="M 2034 2216 
Q 1584 2216 1326 1975 
Q 1069 1734 1069 1313 
Q 1069 891 1326 650 
Q 1584 409 2034 409 
Q 2484 409 2743 651 
Q 3003 894 3003 1313 
Q 3003 1734 2745 1975 
Q 2488 2216 2034 2216 
z
M 1403 2484 
Q 997 2584 770 2862 
Q 544 3141 544 3541 
Q 544 4100 942 4425 
Q 1341 4750 2034 4750 
Q 2731 4750 3128 4425 
Q 3525 4100 3525 3541 
Q 3525 3141 3298 2862 
Q 3072 2584 2669 2484 
Q 3125 2378 3379 2068 
Q 3634 1759 3634 1313 
Q 3634 634 3220 271 
Q 2806 -91 2034 -91 
Q 1263 -91 848 271 
Q 434 634 434 1313 
Q 434 1759 690 2068 
Q 947 2378 1403 2484 
z
M 1172 3481 
Q 1172 3119 1398 2916 
Q 1625 2713 2034 2713 
Q 2441 2713 2670 2916 
Q 2900 3119 2900 3481 
Q 2900 3844 2670 4047 
Q 2441 4250 2034 4250 
Q 1625 4250 1398 4047 
Q 1172 3844 1172 3481 
z
" transform="scale(0.015625)"/>
       </defs>
       <use xlink:href="#DejaVuSans-32"/>
       <use xlink:href="#DejaVuSans-30" x="63.623047"/>
       <use xlink:href="#DejaVuSans-30" x="127.246094"/>
       <use xlink:href="#DejaVuSans-38" x="190.869141"/>
      </g>
     </g>
    </g>
    <g id="xtick_2">
     <g id="line2d_2">
      <g>
       <use xlink:href="#m18f4cb2061" x="150.146657" y="307.584" style="stroke: #000000; stroke-width: 0.8"/>
      </g>
     </g>
     <g id="text_2">
      <!-- 2010 -->
      <g transform="translate(127.241657 328.261187) scale(0.18 -0.18)">
       <defs>
        <path id="DejaVuSans-31" d="M 794 531 
L 1825 531 
L 1825 4091 
L 703 3866 
L 703 4441 
L 1819 4666 
L 2450 4666 
L 2450 531 
L 3481 531 
L 3481 0 
L 794 0 
L 794 531 
z
" transform="scale(0.015625)"/>
       </defs>
       <use xlink:href="#DejaVuSans-32"/>
       <use xlink:href="#DejaVuSans-30" x="63.623047"/>
       <use xlink:href="#DejaVuSans-31" x="127.246094"/>
       <use xlink:href="#DejaVuSans-30" x="190.869141"/>
      </g>
     </g>
    </g>
    <g id="xtick_3">
     <g id="line2d_3">
      <g>
       <use xlink:href="#m18f4cb2061" x="205.362505" y="307.584" style="stroke: #000000; stroke-width: 0.8"/>
      </g>
     </g>
     <g id="text_3">
      <!-- 2012 -->
      <g transform="translate(182.457505 328.261187) scale(0.18 -0.18)">
       <use xlink:href="#DejaVuSans-32"/>
       <use xlink:href="#DejaVuSans-30" x="63.623047"/>
       <use xlink:href="#DejaVuSans-31" x="127.246094"/>
       <use xlink:href="#DejaVuSans-32" x="190.869141"/>
      </g>
     </g>
    </g>
    <g id="xtick_4">
     <g id="line2d_4">
      <g>
       <use xlink:href="#m18f4cb2061" x="260.653991" y="307.584" style="stroke: #000000; stroke-width: 0.8"/>
      </g>
     </g>
     <g id="text_4">
      <!-- 2014 -->
      <g transform="translate(237.748991 328.261187) scale(0.18 -0.18)">
       <defs>
        <path id="DejaVuSans-34" d="M 2419 4116 
L 825 1625 
L 2419 1625 
L 2419 4116 
z
M 2253 4666 
L 3047 4666 
L 3047 1625 
L 3713 1625 
L 3713 1100 
L 3047 1100 
L 3047 0 
L 2419 0 
L 2419 1100 
L 313 1100 
L 313 1709 
L 2253 4666 
z
" transform="scale(0.015625)"/>
       </defs>
       <use xlink:href="#DejaVuSans-32"/>
       <use xlink:href="#DejaVuSans-30" x="63.623047"/>
       <use xlink:href="#DejaVuSans-31" x="127.246094"/>
       <use xlink:href="#DejaVuSans-34" x="190.869141"/>
      </g>
     </g>
    </g>
    <g id="xtick_5">
     <g id="line2d_5">
      <g>
       <use xlink:href="#m18f4cb2061" x="315.869839" y="307.584" style="stroke: #000000; stroke-width: 0.8"/>
      </g>
     </g>
     <g id="text_5">
      <!-- 2016 -->
      <g transform="translate(292.964839 328.261187) scale(0.18 -0.18)">
       <defs>
        <path id="DejaVuSans-36" d="M 2113 2584 
Q 1688 2584 1439 2293 
Q 1191 2003 1191 1497 
Q 1191 994 1439 701 
Q 1688 409 2113 409 
Q 2538 409 2786 701 
Q 3034 994 3034 1497 
Q 3034 2003 2786 2293 
Q 2538 2584 2113 2584 
z
M 3366 4563 
L 3366 3988 
Q 3128 4100 2886 4159 
Q 2644 4219 2406 4219 
Q 1781 4219 1451 3797 
Q 1122 3375 1075 2522 
Q 1259 2794 1537 2939 
Q 1816 3084 2150 3084 
Q 2853 3084 3261 2657 
Q 3669 2231 3669 1497 
Q 3669 778 3244 343 
Q 2819 -91 2113 -91 
Q 1303 -91 875 529 
Q 447 1150 447 2328 
Q 447 3434 972 4092 
Q 1497 4750 2381 4750 
Q 2619 4750 2861 4703 
Q 3103 4656 3366 4563 
z
" transform="scale(0.015625)"/>
       </defs>
       <use xlink:href="#DejaVuSans-32"/>
       <use xlink:href="#DejaVuSans-30" x="63.623047"/>
       <use xlink:href="#DejaVuSans-31" x="127.246094"/>
       <use xlink:href="#DejaVuSans-36" x="190.869141"/>
      </g>
     </g>
    </g>
    <g id="xtick_6">
     <g id="line2d_6">
      <g>
       <use xlink:href="#m18f4cb2061" x="371.161325" y="307.584" style="stroke: #000000; stroke-width: 0.8"/>
      </g>
     </g>
     <g id="text_6">
      <!-- 2018 -->
      <g transform="translate(348.256325 328.261187) scale(0.18 -0.18)">
       <use xlink:href="#DejaVuSans-32"/>
       <use xlink:href="#DejaVuSans-30" x="63.623047"/>
       <use xlink:href="#DejaVuSans-31" x="127.246094"/>
       <use xlink:href="#DejaVuSans-38" x="190.869141"/>
      </g>
     </g>
    </g>
    <g id="xtick_7">
     <g id="line2d_7">
      <g>
       <use xlink:href="#m18f4cb2061" x="426.377172" y="307.584" style="stroke: #000000; stroke-width: 0.8"/>
      </g>
     </g>
     <g id="text_7">
      <!-- 2020 -->
      <g transform="translate(403.472172 328.261187) scale(0.18 -0.18)">
       <use xlink:href="#DejaVuSans-32"/>
       <use xlink:href="#DejaVuSans-30" x="63.623047"/>
       <use xlink:href="#DejaVuSans-32" x="127.246094"/>
       <use xlink:href="#DejaVuSans-30" x="190.869141"/>
      </g>
     </g>
    </g>
    <g id="xtick_8">
     <g id="line2d_8">
      <g>
       <use xlink:href="#m18f4cb2061" x="481.668658" y="307.584" style="stroke: #000000; stroke-width: 0.8"/>
      </g>
     </g>
     <g id="text_8">
      <!-- 2022 -->
      <g transform="translate(458.763658 328.261187) scale(0.18 -0.18)">
       <use xlink:href="#DejaVuSans-32"/>
       <use xlink:href="#DejaVuSans-30" x="63.623047"/>
       <use xlink:href="#DejaVuSans-32" x="127.246094"/>
       <use xlink:href="#DejaVuSans-32" x="190.869141"/>
      </g>
     </g>
    </g>
    <g id="xtick_9">
     <g id="line2d_9">
      <g>
       <use xlink:href="#m18f4cb2061" x="536.884506" y="307.584" style="stroke: #000000; stroke-width: 0.8"/>
      </g>
     </g>
     <g id="text_9">
      <!-- 2024 -->
      <g transform="translate(513.979506 328.261187) scale(0.18 -0.18)">
       <use xlink:href="#DejaVuSans-32"/>
       <use xlink:href="#DejaVuSans-30" x="63.623047"/>
       <use xlink:href="#DejaVuSans-32" x="127.246094"/>
       <use xlink:href="#DejaVuSans-34" x="190.869141"/>
      </g>
     </g>
    </g>
   </g>
   <g id="matplotlib.axis_2">
    <g id="ytick_1">
     <g id="line2d_10">
      <defs>
       <path id="me12e4eb8a3" d="M 0 0 
L -3.5 0 
" style="stroke: #000000; stroke-width: 0.8"/>
      </defs>
      <g>
       <use xlink:href="#me12e4eb8a3" x="76.5" y="307.584" style="stroke: #000000; stroke-width: 0.8"/>
      </g>
     </g>
     <g id="text_10">
      <!-- 0 -->
      <g transform="translate(58.0475 314.422594) scale(0.18 -0.18)">
       <use xlink:href="#DejaVuSans-30"/>
      </g>
     </g>
    </g>
    <g id="ytick_2">
     <g id="line2d_11">
      <g>
       <use xlink:href="#me12e4eb8a3" x="76.5" y="239.308138" style="stroke: #000000; stroke-width: 0.8"/>
      </g>
     </g>
     <g id="text_11">
      <!-- 500 -->
      <g transform="translate(35.1425 246.146732) scale(0.18 -0.18)">
       <defs>
        <path id="DejaVuSans-35" d="M 691 4666 
L 3169 4666 
L 3169 4134 
L 1269 4134 
L 1269 2991 
Q 1406 3038 1543 3061 
Q 1681 3084 1819 3084 
Q 2600 3084 3056 2656 
Q 3513 2228 3513 1497 
Q 3513 744 3044 326 
Q 2575 -91 1722 -91 
Q 1428 -91 1123 -41 
Q 819 9 494 109 
L 494 744 
Q 775 591 1075 516 
Q 1375 441 1709 441 
Q 2250 441 2565 725 
Q 2881 1009 2881 1497 
Q 2881 1984 2565 2268 
Q 2250 2553 1709 2553 
Q 1456 2553 1204 2497 
Q 953 2441 691 2322 
L 691 4666 
z
" transform="scale(0.015625)"/>
       </defs>
       <use xlink:href="#DejaVuSans-35"/>
       <use xlink:href="#DejaVuSans-30" x="63.623047"/>
       <use xlink:href="#DejaVuSans-30" x="127.246094"/>
      </g>
     </g>
    </g>
    <g id="ytick_3">
     <g id="line2d_12">
      <g>
       <use xlink:href="#me12e4eb8a3" x="76.5" y="171.032276" style="stroke: #000000; stroke-width: 0.8"/>
      </g>
     </g>
     <g id="text_12">
      <!-- 1000 -->
      <g transform="translate(23.69 177.87087) scale(0.18 -0.18)">
       <use xlink:href="#DejaVuSans-31"/>
       <use xlink:href="#DejaVuSans-30" x="63.623047"/>
       <use xlink:href="#DejaVuSans-30" x="127.246094"/>
       <use xlink:href="#DejaVuSans-30" x="190.869141"/>
      </g>
     </g>
    </g>
    <g id="ytick_4">
     <g id="line2d_13">
      <g>
       <use xlink:href="#me12e4eb8a3" x="76.5" y="102.756414" style="stroke: #000000; stroke-width: 0.8"/>
      </g>
     </g>
     <g id="text_13">
      <!-- 1500 -->
      <g transform="translate(23.69 109.595008) scale(0.18 -0.18)">
       <use xlink:href="#DejaVuSans-31"/>
       <use xlink:href="#DejaVuSans-35" x="63.623047"/>
       <use xlink:href="#DejaVuSans-30" x="127.246094"/>
       <use xlink:href="#DejaVuSans-30" x="190.869141"/>
      </g>
     </g>
    </g>
    <g id="text_14">
     <!-- number of cells -->
     <g transform="translate(15.946563 244.224562) rotate(-90) scale(0.18 -0.18)">
      <defs>
       <path id="DejaVuSans-6e" d="M 3513 2113 
L 3513 0 
L 2938 0 
L 2938 2094 
Q 2938 2591 2744 2837 
Q 2550 3084 2163 3084 
Q 1697 3084 1428 2787 
Q 1159 2491 1159 1978 
L 1159 0 
L 581 0 
L 581 3500 
L 1159 3500 
L 1159 2956 
Q 1366 3272 1645 3428 
Q 1925 3584 2291 3584 
Q 2894 3584 3203 3211 
Q 3513 2838 3513 2113 
z
" transform="scale(0.015625)"/>
       <path id="DejaVuSans-75" d="M 544 1381 
L 544 3500 
L 1119 3500 
L 1119 1403 
Q 1119 906 1312 657 
Q 1506 409 1894 409 
Q 2359 409 2629 706 
Q 2900 1003 2900 1516 
L 2900 3500 
L 3475 3500 
L 3475 0 
L 2900 0 
L 2900 538 
Q 2691 219 2414 64 
Q 2138 -91 1772 -91 
Q 1169 -91 856 284 
Q 544 659 544 1381 
z
M 1991 3584 
L 1991 3584 
z
" transform="scale(0.015625)"/>
       <path id="DejaVuSans-6d" d="M 3328 2828 
Q 3544 3216 3844 3400 
Q 4144 3584 4550 3584 
Q 5097 3584 5394 3201 
Q 5691 2819 5691 2113 
L 5691 0 
L 5113 0 
L 5113 2094 
Q 5113 2597 4934 2840 
Q 4756 3084 4391 3084 
Q 3944 3084 3684 2787 
Q 3425 2491 3425 1978 
L 3425 0 
L 2847 0 
L 2847 2094 
Q 2847 2600 2669 2842 
Q 2491 3084 2119 3084 
Q 1678 3084 1418 2786 
Q 1159 2488 1159 1978 
L 1159 0 
L 581 0 
L 581 3500 
L 1159 3500 
L 1159 2956 
Q 1356 3278 1631 3431 
Q 1906 3584 2284 3584 
Q 2666 3584 2933 3390 
Q 3200 3197 3328 2828 
z
" transform="scale(0.015625)"/>
       <path id="DejaVuSans-62" d="M 3116 1747 
Q 3116 2381 2855 2742 
Q 2594 3103 2138 3103 
Q 1681 3103 1420 2742 
Q 1159 2381 1159 1747 
Q 1159 1113 1420 752 
Q 1681 391 2138 391 
Q 2594 391 2855 752 
Q 3116 1113 3116 1747 
z
M 1159 2969 
Q 1341 3281 1617 3432 
Q 1894 3584 2278 3584 
Q 2916 3584 3314 3078 
Q 3713 2572 3713 1747 
Q 3713 922 3314 415 
Q 2916 -91 2278 -91 
Q 1894 -91 1617 61 
Q 1341 213 1159 525 
L 1159 0 
L 581 0 
L 581 4863 
L 1159 4863 
L 1159 2969 
z
" transform="scale(0.015625)"/>
       <path id="DejaVuSans-65" d="M 3597 1894 
L 3597 1613 
L 953 1613 
Q 991 1019 1311 708 
Q 1631 397 2203 397 
Q 2534 397 2845 478 
Q 3156 559 3463 722 
L 3463 178 
Q 3153 47 2828 -22 
Q 2503 -91 2169 -91 
Q 1331 -91 842 396 
Q 353 884 353 1716 
Q 353 2575 817 3079 
Q 1281 3584 2069 3584 
Q 2775 3584 3186 3129 
Q 3597 2675 3597 1894 
z
M 3022 2063 
Q 3016 2534 2758 2815 
Q 2500 3097 2075 3097 
Q 1594 3097 1305 2825 
Q 1016 2553 972 2059 
L 3022 2063 
z
" transform="scale(0.015625)"/>
       <path id="DejaVuSans-72" d="M 2631 2963 
Q 2534 3019 2420 3045 
Q 2306 3072 2169 3072 
Q 1681 3072 1420 2755 
Q 1159 2438 1159 1844 
L 1159 0 
L 581 0 
L 581 3500 
L 1159 3500 
L 1159 2956 
Q 1341 3275 1631 3429 
Q 1922 3584 2338 3584 
Q 2397 3584 2469 3576 
Q 2541 3569 2628 3553 
L 2631 2963 
z
" transform="scale(0.015625)"/>
       <path id="DejaVuSans-20" transform="scale(0.015625)"/>
       <path id="DejaVuSans-6f" d="M 1959 3097 
Q 1497 3097 1228 2736 
Q 959 2375 959 1747 
Q 959 1119 1226 758 
Q 1494 397 1959 397 
Q 2419 397 2687 759 
Q 2956 1122 2956 1747 
Q 2956 2369 2687 2733 
Q 2419 3097 1959 3097 
z
M 1959 3584 
Q 2709 3584 3137 3096 
Q 3566 2609 3566 1747 
Q 3566 888 3137 398 
Q 2709 -91 1959 -91 
Q 1206 -91 779 398 
Q 353 888 353 1747 
Q 353 2609 779 3096 
Q 1206 3584 1959 3584 
z
" transform="scale(0.015625)"/>
       <path id="DejaVuSans-66" d="M 2375 4863 
L 2375 4384 
L 1825 4384 
Q 1516 4384 1395 4259 
Q 1275 4134 1275 3809 
L 1275 3500 
L 2222 3500 
L 2222 3053 
L 1275 3053 
L 1275 0 
L 697 0 
L 697 3053 
L 147 3053 
L 147 3500 
L 697 3500 
L 697 3744 
Q 697 4328 969 4595 
Q 1241 4863 1831 4863 
L 2375 4863 
z
" transform="scale(0.015625)"/>
       <path id="DejaVuSans-63" d="M 3122 3366 
L 3122 2828 
Q 2878 2963 2633 3030 
Q 2388 3097 2138 3097 
Q 1578 3097 1268 2742 
Q 959 2388 959 1747 
Q 959 1106 1268 751 
Q 1578 397 2138 397 
Q 2388 397 2633 464 
Q 2878 531 3122 666 
L 3122 134 
Q 2881 22 2623 -34 
Q 2366 -91 2075 -91 
Q 1284 -91 818 406 
Q 353 903 353 1747 
Q 353 2603 823 3093 
Q 1294 3584 2113 3584 
Q 2378 3584 2631 3529 
Q 2884 3475 3122 3366 
z
" transform="scale(0.015625)"/>
       <path id="DejaVuSans-6c" d="M 603 4863 
L 1178 4863 
L 1178 0 
L 603 0 
L 603 4863 
z
" transform="scale(0.015625)"/>
       <path id="DejaVuSans-73" d="M 2834 3397 
L 2834 2853 
Q 2591 2978 2328 3040 
Q 2066 3103 1784 3103 
Q 1356 3103 1142 2972 
Q 928 2841 928 2578 
Q 928 2378 1081 2264 
Q 1234 2150 1697 2047 
L 1894 2003 
Q 2506 1872 2764 1633 
Q 3022 1394 3022 966 
Q 3022 478 2636 193 
Q 2250 -91 1575 -91 
Q 1294 -91 989 -36 
Q 684 19 347 128 
L 347 722 
Q 666 556 975 473 
Q 1284 391 1588 391 
Q 1994 391 2212 530 
Q 2431 669 2431 922 
Q 2431 1156 2273 1281 
Q 2116 1406 1581 1522 
L 1381 1569 
Q 847 1681 609 1914 
Q 372 2147 372 2553 
Q 372 3047 722 3315 
Q 1072 3584 1716 3584 
Q 2034 3584 2315 3537 
Q 2597 3491 2834 3397 
z
" transform="scale(0.015625)"/>
      </defs>
      <use xlink:href="#DejaVuSans-6e"/>
      <use xlink:href="#DejaVuSans-75" x="63.378906"/>
      <use xlink:href="#DejaVuSans-6d" x="126.757812"/>
      <use xlink:href="#DejaVuSans-62" x="224.169922"/>
      <use xlink:href="#DejaVuSans-65" x="287.646484"/>
      <use xlink:href="#DejaVuSans-72" x="349.169922"/>
      <use xlink:href="#DejaVuSans-20" x="390.283203"/>
      <use xlink:href="#DejaVuSans-6f" x="422.070312"/>
      <use xlink:href="#DejaVuSans-66" x="483.251953"/>
      <use xlink:href="#DejaVuSans-20" x="518.457031"/>
      <use xlink:href="#DejaVuSans-63" x="550.244141"/>
      <use xlink:href="#DejaVuSans-65" x="605.224609"/>
      <use xlink:href="#DejaVuSans-6c" x="666.748047"/>
      <use xlink:href="#DejaVuSans-6c" x="694.53125"/>
      <use xlink:href="#DejaVuSans-73" x="722.314453"/>
     </g>
    </g>
   </g>
   <g id="patch_123">
    <path d="M 76.5 307.584 
L 76.5 41.472 
" style="fill: none; stroke: #000000; stroke-width: 0.8; stroke-linejoin: miter; stroke-linecap: square"/>
   </g>
   <g id="patch_124">
    <path d="M 550.8 307.584 
L 550.8 41.472 
" style="fill: none; stroke: #000000; stroke-width: 0.8; stroke-linejoin: miter; stroke-linecap: square"/>
   </g>
   <g id="patch_125">
    <path d="M 76.5 307.584 
L 550.8 307.584 
" style="fill: none; stroke: #000000; stroke-width: 0.8; stroke-linejoin: miter; stroke-linecap: square"/>
   </g>
   <g id="patch_126">
    <path d="M 76.5 41.472 
L 550.8 41.472 
" style="fill: none; stroke: #000000; stroke-width: 0.8; stroke-linejoin: miter; stroke-linecap: square"/>
   </g>
  </g>
 </g>
 <defs>
  <clipPath id="pd3b97d5087">
   <rect x="76.5" y="41.472" width="474.3" height="266.112"/>
  </clipPath>
 </defs>
</svg>
