<?xml version="1.0" encoding="utf-8" standalone="no"?>
<!DOCTYPE svg PUBLIC "-//W3C//DTD SVG 1.1//EN"
  "http://www.w3.org/Graphics/SVG/1.1/DTD/svg11.dtd">
<svg xmlns:xlink="http://www.w3.org/1999/xlink" width="571.920131pt" height="304.932625pt" viewBox="0 0 571.920131 304.932625" xmlns="http://www.w3.org/2000/svg" version="1.1">
 <metadata>
  <rdf:RDF xmlns:dc="http://purl.org/dc/elements/1.1/" xmlns:cc="http://creativecommons.org/ns#" xmlns:rdf="http://www.w3.org/1999/02/22-rdf-syntax-ns#">
   <cc:Work>
    <dc:type rdf:resource="http://purl.org/dc/dcmitype/StillImage"/>
    <dc:date>2024-07-19T15:06:43.678631</dc:date>
    <dc:format>image/svg+xml</dc:format>
    <dc:creator>
     <cc:Agent>
      <dc:title>Matplotlib v3.7.5, https://matplotlib.org/</dc:title>
     </cc:Agent>
    </dc:creator>
   </cc:Work>
  </rdf:RDF>
 </metadata>
 <defs>
  <style type="text/css">*{stroke-linejoin: round; stroke-linecap: butt}</style>
 </defs>
 <g id="figure_1">
  <g id="patch_1">
   <path d="M 0 304.932625 
L 571.920131 304.932625 
L 571.920131 0 
L 0 0 
z
" style="fill: #ffffff"/>
  </g>
  <g id="axes_1">
   <g id="patch_2">
    <path d="M 81.430625 273.312 
L 555.730625 273.312 
L 555.730625 7.2 
L 81.430625 7.2 
z
" style="fill: #ffffff"/>
   </g>
   <g id="patch_3">
    <path d="M 81.430625 273.312 
L 85.383125 273.312 
L 85.383125 272.49269 
L 81.430625 272.49269 
z
" clip-path="url(#p2e15eefddc)" style="fill: #1f77b4"/>
   </g>
   <g id="patch_4">
    <path d="M 85.383125 273.312 
L 89.335625 273.312 
L 89.335625 273.312 
L 85.383125 273.312 
z
" clip-path="url(#p2e15eefddc)" style="fill: #1f77b4"/>
   </g>
   <g id="patch_5">
    <path d="M 89.335625 273.312 
L 93.288125 273.312 
L 93.288125 273.312 
L 89.335625 273.312 
z
" clip-path="url(#p2e15eefddc)" style="fill: #1f77b4"/>
   </g>
   <g id="patch_6">
    <path d="M 93.288125 273.312 
L 97.240625 273.312 
L 97.240625 272.629241 
L 93.288125 272.629241 
z
" clip-path="url(#p2e15eefddc)" style="fill: #1f77b4"/>
   </g>
   <g id="patch_7">
    <path d="M 97.240625 273.312 
L 101.193125 273.312 
L 101.193125 273.038897 
L 97.240625 273.038897 
z
" clip-path="url(#p2e15eefddc)" style="fill: #1f77b4"/>
   </g>
   <g id="patch_8">
    <path d="M 101.193125 273.312 
L 105.145625 273.312 
L 105.145625 272.629241 
L 101.193125 272.629241 
z
" clip-path="url(#p2e15eefddc)" style="fill: #1f77b4"/>
   </g>
   <g id="patch_9">
    <path d="M 105.145625 273.312 
L 109.098125 273.312 
L 109.098125 272.765793 
L 105.145625 272.765793 
z
" clip-path="url(#p2e15eefddc)" style="fill: #1f77b4"/>
   </g>
   <g id="patch_10">
    <path d="M 109.098125 273.312 
L 113.050625 273.312 
L 113.050625 267.576828 
L 109.098125 267.576828 
z
" clip-path="url(#p2e15eefddc)" style="fill: #1f77b4"/>
   </g>
   <g id="patch_11">
    <path d="M 113.050625 273.312 
L 117.003125 273.312 
L 117.003125 270.307862 
L 113.050625 270.307862 
z
" clip-path="url(#p2e15eefddc)" style="fill: #1f77b4"/>
   </g>
   <g id="patch_12">
    <path d="M 117.003125 273.312 
L 120.955625 273.312 
L 120.955625 271.809931 
L 117.003125 271.809931 
z
" clip-path="url(#p2e15eefddc)" style="fill: #1f77b4"/>
   </g>
   <g id="patch_13">
    <path d="M 120.955625 273.312 
L 124.908125 273.312 
L 124.908125 265.938207 
L 120.955625 265.938207 
z
" clip-path="url(#p2e15eefddc)" style="fill: #1f77b4"/>
   </g>
   <g id="patch_14">
    <path d="M 124.908125 273.312 
L 128.860625 273.312 
L 128.860625 266.894069 
L 124.908125 266.894069 
z
" clip-path="url(#p2e15eefddc)" style="fill: #1f77b4"/>
   </g>
   <g id="patch_15">
    <path d="M 128.860625 273.312 
L 132.813125 273.312 
L 132.813125 258.564414 
L 128.860625 258.564414 
z
" clip-path="url(#p2e15eefddc)" style="fill: #1f77b4"/>
   </g>
   <g id="patch_16">
    <path d="M 132.813125 273.312 
L 136.765625 273.312 
L 136.765625 271.946483 
L 132.813125 271.946483 
z
" clip-path="url(#p2e15eefddc)" style="fill: #1f77b4"/>
   </g>
   <g id="patch_17">
    <path d="M 136.765625 273.312 
L 140.718125 273.312 
L 140.718125 263.480276 
L 136.765625 263.480276 
z
" clip-path="url(#p2e15eefddc)" style="fill: #1f77b4"/>
   </g>
   <g id="patch_18">
    <path d="M 140.718125 273.312 
L 144.670625 273.312 
L 144.670625 272.765793 
L 140.718125 272.765793 
z
" clip-path="url(#p2e15eefddc)" style="fill: #1f77b4"/>
   </g>
   <g id="patch_19">
    <path d="M 144.670625 273.312 
L 148.623125 273.312 
L 148.623125 262.387862 
L 144.670625 262.387862 
z
" clip-path="url(#p2e15eefddc)" style="fill: #1f77b4"/>
   </g>
   <g id="patch_20">
    <path d="M 148.623125 273.312 
L 152.575625 273.312 
L 152.575625 242.314759 
L 148.623125 242.314759 
z
" clip-path="url(#p2e15eefddc)" style="fill: #1f77b4"/>
   </g>
   <g id="patch_21">
    <path d="M 152.575625 273.312 
L 156.528125 273.312 
L 156.528125 230.980966 
L 152.575625 230.980966 
z
" clip-path="url(#p2e15eefddc)" style="fill: #1f77b4"/>
   </g>
   <g id="patch_22">
    <path d="M 156.528125 273.312 
L 160.480625 273.312 
L 160.480625 269.488552 
L 156.528125 269.488552 
z
" clip-path="url(#p2e15eefddc)" style="fill: #1f77b4"/>
   </g>
   <g id="patch_23">
    <path d="M 160.480625 273.312 
L 164.433125 273.312 
L 164.433125 257.335448 
L 160.480625 257.335448 
z
" clip-path="url(#p2e15eefddc)" style="fill: #1f77b4"/>
   </g>
   <g id="patch_24">
    <path d="M 164.433125 273.312 
L 168.385625 273.312 
L 168.385625 263.343724 
L 164.433125 263.343724 
z
" clip-path="url(#p2e15eefddc)" style="fill: #1f77b4"/>
   </g>
   <g id="patch_25">
    <path d="M 168.385625 273.312 
L 172.338125 273.312 
L 172.338125 264.436138 
L 168.385625 264.436138 
z
" clip-path="url(#p2e15eefddc)" style="fill: #1f77b4"/>
   </g>
   <g id="patch_26">
    <path d="M 172.338125 273.312 
L 176.290625 273.312 
L 176.290625 256.65269 
L 172.338125 256.65269 
z
" clip-path="url(#p2e15eefddc)" style="fill: #1f77b4"/>
   </g>
   <g id="patch_27">
    <path d="M 176.290625 273.312 
L 180.243125 273.312 
L 180.243125 119.008552 
L 176.290625 119.008552 
z
" clip-path="url(#p2e15eefddc)" style="fill: #1f77b4"/>
   </g>
   <g id="patch_28">
    <path d="M 180.243125 273.312 
L 184.195625 273.312 
L 184.195625 19.872 
L 180.243125 19.872 
z
" clip-path="url(#p2e15eefddc)" style="fill: #1f77b4"/>
   </g>
   <g id="patch_29">
    <path d="M 184.195625 273.312 
L 188.148125 273.312 
L 188.148125 234.53131 
L 184.195625 234.53131 
z
" clip-path="url(#p2e15eefddc)" style="fill: #1f77b4"/>
   </g>
   <g id="patch_30">
    <path d="M 188.148125 273.312 
L 192.100625 273.312 
L 192.100625 232.346483 
L 188.148125 232.346483 
z
" clip-path="url(#p2e15eefddc)" style="fill: #1f77b4"/>
   </g>
   <g id="patch_31">
    <path d="M 192.100625 273.312 
L 196.053125 273.312 
L 196.053125 256.106483 
L 192.100625 256.106483 
z
" clip-path="url(#p2e15eefddc)" style="fill: #1f77b4"/>
   </g>
   <g id="patch_32">
    <path d="M 196.053125 273.312 
L 200.005625 273.312 
L 200.005625 251.463724 
L 196.053125 251.463724 
z
" clip-path="url(#p2e15eefddc)" style="fill: #1f77b4"/>
   </g>
   <g id="patch_33">
    <path d="M 200.005625 273.312 
L 203.958125 273.312 
L 203.958125 253.921655 
L 200.005625 253.921655 
z
" clip-path="url(#p2e15eefddc)" style="fill: #1f77b4"/>
   </g>
   <g id="patch_34">
    <path d="M 203.958125 273.312 
L 207.910625 273.312 
L 207.910625 228.386483 
L 203.958125 228.386483 
z
" clip-path="url(#p2e15eefddc)" style="fill: #1f77b4"/>
   </g>
   <g id="patch_35">
    <path d="M 207.910625 273.312 
L 211.863125 273.312 
L 211.863125 242.587862 
L 207.910625 242.587862 
z
" clip-path="url(#p2e15eefddc)" style="fill: #1f77b4"/>
   </g>
   <g id="patch_36">
    <path d="M 211.863125 273.312 
L 215.815625 273.312 
L 215.815625 230.980966 
L 211.863125 230.980966 
z
" clip-path="url(#p2e15eefddc)" style="fill: #1f77b4"/>
   </g>
   <g id="patch_37">
    <path d="M 215.815625 273.312 
L 219.768125 273.312 
L 219.768125 236.989241 
L 215.815625 236.989241 
z
" clip-path="url(#p2e15eefddc)" style="fill: #1f77b4"/>
   </g>
   <g id="patch_38">
    <path d="M 219.768125 273.312 
L 223.720625 273.312 
L 223.720625 244.77269 
L 219.768125 244.77269 
z
" clip-path="url(#p2e15eefddc)" style="fill: #1f77b4"/>
   </g>
   <g id="patch_39">
    <path d="M 223.720625 273.312 
L 227.673125 273.312 
L 227.673125 240.676138 
L 223.720625 240.676138 
z
" clip-path="url(#p2e15eefddc)" style="fill: #1f77b4"/>
   </g>
   <g id="patch_40">
    <path d="M 227.673125 273.312 
L 231.625625 273.312 
L 231.625625 215.687172 
L 227.673125 215.687172 
z
" clip-path="url(#p2e15eefddc)" style="fill: #1f77b4"/>
   </g>
   <g id="patch_41">
    <path d="M 231.625625 273.312 
L 235.578125 273.312 
L 235.578125 216.506483 
L 231.625625 216.506483 
z
" clip-path="url(#p2e15eefddc)" style="fill: #1f77b4"/>
   </g>
   <g id="patch_42">
    <path d="M 235.578125 273.312 
L 239.530625 273.312 
L 239.530625 224.836138 
L 235.578125 224.836138 
z
" clip-path="url(#p2e15eefddc)" style="fill: #1f77b4"/>
   </g>
   <g id="patch_43">
    <path d="M 239.530625 273.312 
L 243.483125 273.312 
L 243.483125 221.695448 
L 239.530625 221.695448 
z
" clip-path="url(#p2e15eefddc)" style="fill: #1f77b4"/>
   </g>
   <g id="patch_44">
    <path d="M 243.483125 273.312 
L 247.435625 273.312 
L 247.435625 212.956138 
L 243.483125 212.956138 
z
" clip-path="url(#p2e15eefddc)" style="fill: #1f77b4"/>
   </g>
   <g id="patch_45">
    <path d="M 247.435625 273.312 
L 251.388125 273.312 
L 251.388125 202.85131 
L 247.435625 202.85131 
z
" clip-path="url(#p2e15eefddc)" style="fill: #1f77b4"/>
   </g>
   <g id="patch_46">
    <path d="M 251.388125 273.312 
L 255.340625 273.312 
L 255.340625 215.550621 
L 251.388125 215.550621 
z
" clip-path="url(#p2e15eefddc)" style="fill: #1f77b4"/>
   </g>
   <g id="patch_47">
    <path d="M 255.340625 273.312 
L 259.293125 273.312 
L 259.293125 220.056828 
L 255.340625 220.056828 
z
" clip-path="url(#p2e15eefddc)" style="fill: #1f77b4"/>
   </g>
   <g id="patch_48">
    <path d="M 259.293125 273.312 
L 263.245625 273.312 
L 263.245625 210.088552 
L 259.293125 210.088552 
z
" clip-path="url(#p2e15eefddc)" style="fill: #1f77b4"/>
   </g>
   <g id="patch_49">
    <path d="M 263.245625 273.312 
L 267.198125 273.312 
L 267.198125 197.25269 
L 263.245625 197.25269 
z
" clip-path="url(#p2e15eefddc)" style="fill: #1f77b4"/>
   </g>
   <g id="patch_50">
    <path d="M 267.198125 273.312 
L 271.150625 273.312 
L 271.150625 196.433379 
L 267.198125 196.433379 
z
" clip-path="url(#p2e15eefddc)" style="fill: #1f77b4"/>
   </g>
   <g id="patch_51">
    <path d="M 271.150625 273.312 
L 275.103125 273.312 
L 275.103125 148.776828 
L 271.150625 148.776828 
z
" clip-path="url(#p2e15eefddc)" style="fill: #1f77b4"/>
   </g>
   <g id="patch_52">
    <path d="M 275.103125 273.312 
L 279.055625 273.312 
L 279.055625 176.906483 
L 275.103125 176.906483 
z
" clip-path="url(#p2e15eefddc)" style="fill: #1f77b4"/>
   </g>
   <g id="patch_53">
    <path d="M 279.055625 273.312 
L 283.008125 273.312 
L 283.008125 193.29269 
L 279.055625 193.29269 
z
" clip-path="url(#p2e15eefddc)" style="fill: #1f77b4"/>
   </g>
   <g id="patch_54">
    <path d="M 283.008125 273.312 
L 286.960625 273.312 
L 286.960625 180.729931 
L 283.008125 180.729931 
z
" clip-path="url(#p2e15eefddc)" style="fill: #1f77b4"/>
   </g>
   <g id="patch_55">
    <path d="M 286.960625 273.312 
L 290.913125 273.312 
L 290.913125 180.866483 
L 286.960625 180.866483 
z
" clip-path="url(#p2e15eefddc)" style="fill: #1f77b4"/>
   </g>
   <g id="patch_56">
    <path d="M 290.913125 273.312 
L 294.865625 273.312 
L 294.865625 165.163034 
L 290.913125 165.163034 
z
" clip-path="url(#p2e15eefddc)" style="fill: #1f77b4"/>
   </g>
   <g id="patch_57">
    <path d="M 294.865625 273.312 
L 298.818125 273.312 
L 298.818125 160.793379 
L 294.865625 160.793379 
z
" clip-path="url(#p2e15eefddc)" style="fill: #1f77b4"/>
   </g>
   <g id="patch_58">
    <path d="M 298.818125 273.312 
L 302.770625 273.312 
L 302.770625 155.194759 
L 298.818125 155.194759 
z
" clip-path="url(#p2e15eefddc)" style="fill: #1f77b4"/>
   </g>
   <g id="patch_59">
    <path d="M 302.770625 273.312 
L 306.723125 273.312 
L 306.723125 129.796138 
L 302.770625 129.796138 
z
" clip-path="url(#p2e15eefddc)" style="fill: #1f77b4"/>
   </g>
   <g id="patch_60">
    <path d="M 306.723125 273.312 
L 310.675625 273.312 
L 310.675625 185.099586 
L 306.723125 185.099586 
z
" clip-path="url(#p2e15eefddc)" style="fill: #1f77b4"/>
   </g>
   <g id="patch_61">
    <path d="M 310.675625 273.312 
L 314.628125 273.312 
L 314.628125 176.906483 
L 310.675625 176.906483 
z
" clip-path="url(#p2e15eefddc)" style="fill: #1f77b4"/>
   </g>
   <g id="patch_62">
    <path d="M 314.628125 273.312 
L 318.580625 273.312 
L 318.580625 152.873379 
L 314.628125 152.873379 
z
" clip-path="url(#p2e15eefddc)" style="fill: #1f77b4"/>
   </g>
   <g id="patch_63">
    <path d="M 318.580625 273.312 
L 322.533125 273.312 
L 322.533125 159.837517 
L 318.580625 159.837517 
z
" clip-path="url(#p2e15eefddc)" style="fill: #1f77b4"/>
   </g>
   <g id="patch_64">
    <path d="M 322.533125 273.312 
L 326.485625 273.312 
L 326.485625 158.198897 
L 322.533125 158.198897 
z
" clip-path="url(#p2e15eefddc)" style="fill: #1f77b4"/>
   </g>
   <g id="patch_65">
    <path d="M 326.485625 273.312 
L 330.438125 273.312 
L 330.438125 167.21131 
L 326.485625 167.21131 
z
" clip-path="url(#p2e15eefddc)" style="fill: #1f77b4"/>
   </g>
   <g id="patch_66">
    <path d="M 330.438125 273.312 
L 334.390625 273.312 
L 334.390625 170.078897 
L 330.438125 170.078897 
z
" clip-path="url(#p2e15eefddc)" style="fill: #1f77b4"/>
   </g>
   <g id="patch_67">
    <path d="M 334.390625 273.312 
L 338.343125 273.312 
L 338.343125 185.236138 
L 334.390625 185.236138 
z
" clip-path="url(#p2e15eefddc)" style="fill: #1f77b4"/>
   </g>
   <g id="patch_68">
    <path d="M 338.343125 273.312 
L 342.295625 273.312 
L 342.295625 166.118897 
L 338.343125 166.118897 
z
" clip-path="url(#p2e15eefddc)" style="fill: #1f77b4"/>
   </g>
   <g id="patch_69">
    <path d="M 342.295625 273.312 
L 346.248125 273.312 
L 346.248125 186.465103 
L 342.295625 186.465103 
z
" clip-path="url(#p2e15eefddc)" style="fill: #1f77b4"/>
   </g>
   <g id="patch_70">
    <path d="M 346.248125 273.312 
L 350.200625 273.312 
L 350.200625 180.866483 
L 346.248125 180.866483 
z
" clip-path="url(#p2e15eefddc)" style="fill: #1f77b4"/>
   </g>
   <g id="patch_71">
    <path d="M 350.200625 273.312 
L 354.153125 273.312 
L 354.153125 177.725793 
L 350.200625 177.725793 
z
" clip-path="url(#p2e15eefddc)" style="fill: #1f77b4"/>
   </g>
   <g id="patch_72">
    <path d="M 354.153125 273.312 
L 358.105625 273.312 
L 358.105625 156.287172 
L 354.153125 156.287172 
z
" clip-path="url(#p2e15eefddc)" style="fill: #1f77b4"/>
   </g>
   <g id="patch_73">
    <path d="M 358.105625 273.312 
L 362.058125 273.312 
L 362.058125 114.912 
L 358.105625 114.912 
z
" clip-path="url(#p2e15eefddc)" style="fill: #1f77b4"/>
   </g>
   <g id="patch_74">
    <path d="M 362.058125 273.312 
L 366.010625 273.312 
L 366.010625 155.058207 
L 362.058125 155.058207 
z
" clip-path="url(#p2e15eefddc)" style="fill: #1f77b4"/>
   </g>
   <g id="patch_75">
    <path d="M 366.010625 273.312 
L 369.963125 273.312 
L 369.963125 156.150621 
L 366.010625 156.150621 
z
" clip-path="url(#p2e15eefddc)" style="fill: #1f77b4"/>
   </g>
   <g id="patch_76">
    <path d="M 369.963125 273.312 
L 373.915625 273.312 
L 373.915625 137.169931 
L 369.963125 137.169931 
z
" clip-path="url(#p2e15eefddc)" style="fill: #1f77b4"/>
   </g>
   <g id="patch_77">
    <path d="M 373.915625 273.312 
L 377.868125 273.312 
L 377.868125 117.643034 
L 373.915625 117.643034 
z
" clip-path="url(#p2e15eefddc)" style="fill: #1f77b4"/>
   </g>
   <g id="patch_78">
    <path d="M 377.868125 273.312 
L 381.820625 273.312 
L 381.820625 119.554759 
L 377.868125 119.554759 
z
" clip-path="url(#p2e15eefddc)" style="fill: #1f77b4"/>
   </g>
   <g id="patch_79">
    <path d="M 381.820625 273.312 
L 385.773125 273.312 
L 385.773125 157.516138 
L 381.820625 157.516138 
z
" clip-path="url(#p2e15eefddc)" style="fill: #1f77b4"/>
   </g>
   <g id="patch_80">
    <path d="M 385.773125 273.312 
L 389.725625 273.312 
L 389.725625 148.230621 
L 385.773125 148.230621 
z
" clip-path="url(#p2e15eefddc)" style="fill: #1f77b4"/>
   </g>
   <g id="patch_81">
    <path d="M 389.725625 273.312 
L 393.678125 273.312 
L 393.678125 160.383724 
L 389.725625 160.383724 
z
" clip-path="url(#p2e15eefddc)" style="fill: #1f77b4"/>
   </g>
   <g id="patch_82">
    <path d="M 393.678125 273.312 
L 397.630625 273.312 
L 397.630625 125.016828 
L 393.678125 125.016828 
z
" clip-path="url(#p2e15eefddc)" style="fill: #1f77b4"/>
   </g>
   <g id="patch_83">
    <path d="M 397.630625 273.312 
L 401.583125 273.312 
L 401.583125 115.048552 
L 397.630625 115.048552 
z
" clip-path="url(#p2e15eefddc)" style="fill: #1f77b4"/>
   </g>
   <g id="patch_84">
    <path d="M 401.583125 273.312 
L 405.535625 273.312 
L 405.535625 119.69131 
L 401.583125 119.69131 
z
" clip-path="url(#p2e15eefddc)" style="fill: #1f77b4"/>
   </g>
   <g id="patch_85">
    <path d="M 405.535625 273.312 
L 409.488125 273.312 
L 409.488125 138.808552 
L 405.535625 138.808552 
z
" clip-path="url(#p2e15eefddc)" style="fill: #1f77b4"/>
   </g>
   <g id="patch_86">
    <path d="M 409.488125 273.312 
L 413.440625 273.312 
L 413.440625 120.374069 
L 409.488125 120.374069 
z
" clip-path="url(#p2e15eefddc)" style="fill: #1f77b4"/>
   </g>
   <g id="patch_87">
    <path d="M 413.440625 273.312 
L 417.393125 273.312 
L 417.393125 126.655448 
L 413.440625 126.655448 
z
" clip-path="url(#p2e15eefddc)" style="fill: #1f77b4"/>
   </g>
   <g id="patch_88">
    <path d="M 417.393125 273.312 
L 421.345625 273.312 
L 421.345625 108.220966 
L 417.393125 108.220966 
z
" clip-path="url(#p2e15eefddc)" style="fill: #1f77b4"/>
   </g>
   <g id="patch_89">
    <path d="M 421.345625 273.312 
L 425.298125 273.312 
L 425.298125 167.894069 
L 421.345625 167.894069 
z
" clip-path="url(#p2e15eefddc)" style="fill: #1f77b4"/>
   </g>
   <g id="patch_90">
    <path d="M 425.298125 273.312 
L 429.250625 273.312 
L 429.250625 166.255448 
L 425.298125 166.255448 
z
" clip-path="url(#p2e15eefddc)" style="fill: #1f77b4"/>
   </g>
   <g id="patch_91">
    <path d="M 429.250625 273.312 
L 433.203125 273.312 
L 433.203125 134.712 
L 429.250625 134.712 
z
" clip-path="url(#p2e15eefddc)" style="fill: #1f77b4"/>
   </g>
   <g id="patch_92">
    <path d="M 433.203125 273.312 
L 437.155625 273.312 
L 437.155625 130.205793 
L 433.203125 130.205793 
z
" clip-path="url(#p2e15eefddc)" style="fill: #1f77b4"/>
   </g>
   <g id="patch_93">
    <path d="M 437.155625 273.312 
L 441.108125 273.312 
L 441.108125 115.321655 
L 437.155625 115.321655 
z
" clip-path="url(#p2e15eefddc)" style="fill: #1f77b4"/>
   </g>
   <g id="patch_94">
    <path d="M 441.108125 273.312 
L 445.060625 273.312 
L 445.060625 148.367172 
L 441.108125 148.367172 
z
" clip-path="url(#p2e15eefddc)" style="fill: #1f77b4"/>
   </g>
   <g id="patch_95">
    <path d="M 445.060625 273.312 
L 449.013125 273.312 
L 449.013125 153.009931 
L 445.060625 153.009931 
z
" clip-path="url(#p2e15eefddc)" style="fill: #1f77b4"/>
   </g>
   <g id="patch_96">
    <path d="M 449.013125 273.312 
L 452.965625 273.312 
L 452.965625 76.13131 
L 449.013125 76.13131 
z
" clip-path="url(#p2e15eefddc)" style="fill: #1f77b4"/>
   </g>
   <g id="patch_97">
    <path d="M 452.965625 273.312 
L 456.918125 273.312 
L 456.918125 91.015448 
L 452.965625 91.015448 
z
" clip-path="url(#p2e15eefddc)" style="fill: #1f77b4"/>
   </g>
   <g id="patch_98">
    <path d="M 456.918125 273.312 
L 460.870625 273.312 
L 460.870625 114.775448 
L 456.918125 114.775448 
z
" clip-path="url(#p2e15eefddc)" style="fill: #1f77b4"/>
   </g>
   <g id="patch_99">
    <path d="M 460.870625 273.312 
L 464.823125 273.312 
L 464.823125 142.905103 
L 460.870625 142.905103 
z
" clip-path="url(#p2e15eefddc)" style="fill: #1f77b4"/>
   </g>
   <g id="patch_100">
    <path d="M 464.823125 273.312 
L 468.775625 273.312 
L 468.775625 117.233379 
L 464.823125 117.233379 
z
" clip-path="url(#p2e15eefddc)" style="fill: #1f77b4"/>
   </g>
   <g id="patch_101">
    <path d="M 468.775625 273.312 
L 472.728125 273.312 
L 472.728125 162.022345 
L 468.775625 162.022345 
z
" clip-path="url(#p2e15eefddc)" style="fill: #1f77b4"/>
   </g>
   <g id="patch_102">
    <path d="M 472.728125 273.312 
L 476.680625 273.312 
L 476.680625 164.753379 
L 472.728125 164.753379 
z
" clip-path="url(#p2e15eefddc)" style="fill: #1f77b4"/>
   </g>
   <g id="patch_103">
    <path d="M 476.680625 273.312 
L 480.633125 273.312 
L 480.633125 187.01131 
L 476.680625 187.01131 
z
" clip-path="url(#p2e15eefddc)" style="fill: #1f77b4"/>
   </g>
   <g id="patch_104">
    <path d="M 480.633125 273.312 
L 484.585625 273.312 
L 484.585625 167.894069 
L 480.633125 167.894069 
z
" clip-path="url(#p2e15eefddc)" style="fill: #1f77b4"/>
   </g>
   <g id="patch_105">
    <path d="M 484.585625 273.312 
L 488.538125 273.312 
L 488.538125 152.873379 
L 484.585625 152.873379 
z
" clip-path="url(#p2e15eefddc)" style="fill: #1f77b4"/>
   </g>
   <g id="patch_106">
    <path d="M 488.538125 273.312 
L 492.490625 273.312 
L 492.490625 169.805793 
L 488.538125 169.805793 
z
" clip-path="url(#p2e15eefddc)" style="fill: #1f77b4"/>
   </g>
   <g id="patch_107">
    <path d="M 492.490625 273.312 
L 496.443125 273.312 
L 496.443125 180.729931 
L 492.490625 180.729931 
z
" clip-path="url(#p2e15eefddc)" style="fill: #1f77b4"/>
   </g>
   <g id="patch_108">
    <path d="M 496.443125 273.312 
L 500.395625 273.312 
L 500.395625 189.878897 
L 496.443125 189.878897 
z
" clip-path="url(#p2e15eefddc)" style="fill: #1f77b4"/>
   </g>
   <g id="patch_109">
    <path d="M 500.395625 273.312 
L 504.348125 273.312 
L 504.348125 205.582345 
L 500.395625 205.582345 
z
" clip-path="url(#p2e15eefddc)" style="fill: #1f77b4"/>
   </g>
   <g id="patch_110">
    <path d="M 504.348125 273.312 
L 508.300625 273.312 
L 508.300625 211.180966 
L 504.348125 211.180966 
z
" clip-path="url(#p2e15eefddc)" style="fill: #1f77b4"/>
   </g>
   <g id="patch_111">
    <path d="M 508.300625 273.312 
L 512.253125 273.312 
L 512.253125 174.038897 
L 508.300625 174.038897 
z
" clip-path="url(#p2e15eefddc)" style="fill: #1f77b4"/>
   </g>
   <g id="patch_112">
    <path d="M 512.253125 273.312 
L 516.205625 273.312 
L 516.205625 178.545103 
L 512.253125 178.545103 
z
" clip-path="url(#p2e15eefddc)" style="fill: #1f77b4"/>
   </g>
   <g id="patch_113">
    <path d="M 516.205625 273.312 
L 520.158125 273.312 
L 520.158125 182.641655 
L 516.205625 182.641655 
z
" clip-path="url(#p2e15eefddc)" style="fill: #1f77b4"/>
   </g>
   <g id="patch_114">
    <path d="M 520.158125 273.312 
L 524.110625 273.312 
L 524.110625 185.099586 
L 520.158125 185.099586 
z
" clip-path="url(#p2e15eefddc)" style="fill: #1f77b4"/>
   </g>
   <g id="patch_115">
    <path d="M 524.110625 273.312 
L 528.063125 273.312 
L 528.063125 212.409931 
L 524.110625 212.409931 
z
" clip-path="url(#p2e15eefddc)" style="fill: #1f77b4"/>
   </g>
   <g id="patch_116">
    <path d="M 528.063125 273.312 
L 532.015625 273.312 
L 532.015625 199.574069 
L 528.063125 199.574069 
z
" clip-path="url(#p2e15eefddc)" style="fill: #1f77b4"/>
   </g>
   <g id="patch_117">
    <path d="M 532.015625 273.312 
L 535.968125 273.312 
L 535.968125 187.557517 
L 532.015625 187.557517 
z
" clip-path="url(#p2e15eefddc)" style="fill: #1f77b4"/>
   </g>
   <g id="patch_118">
    <path d="M 535.968125 273.312 
L 539.920625 273.312 
L 539.920625 192.609931 
L 535.968125 192.609931 
z
" clip-path="url(#p2e15eefddc)" style="fill: #1f77b4"/>
   </g>
   <g id="patch_119">
    <path d="M 539.920625 273.312 
L 543.873125 273.312 
L 543.873125 182.641655 
L 539.920625 182.641655 
z
" clip-path="url(#p2e15eefddc)" style="fill: #1f77b4"/>
   </g>
   <g id="patch_120">
    <path d="M 543.873125 273.312 
L 547.825625 273.312 
L 547.825625 174.312 
L 543.873125 174.312 
z
" clip-path="url(#p2e15eefddc)" style="fill: #1f77b4"/>
   </g>
   <g id="patch_121">
    <path d="M 547.825625 273.312 
L 551.778125 273.312 
L 551.778125 206.81131 
L 547.825625 206.81131 
z
" clip-path="url(#p2e15eefddc)" style="fill: #1f77b4"/>
   </g>
   <g id="patch_122">
    <path d="M 551.778125 273.312 
L 555.730625 273.312 
L 555.730625 228.796138 
L 551.778125 228.796138 
z
" clip-path="url(#p2e15eefddc)" style="fill: #1f77b4"/>
   </g>
   <g id="matplotlib.axis_1">
    <g id="xtick_1">
     <g id="line2d_1">
      <defs>
       <path id="mc3f17a4cbf" d="M 0 0 
L 0 3.5 
" style="stroke: #000000; stroke-width: 0.8"/>
      </defs>
      <g>
       <use xlink:href="#mc3f17a4cbf" x="99.785796" y="273.312" style="stroke: #000000; stroke-width: 0.8"/>
      </g>
     </g>
     <g id="text_1">
      <!-- 2008 -->
      <g transform="translate(76.880796 293.989187) scale(0.18 -0.18)">
       <defs>
        <path id="DejaVuSans-32" d="M 1228 531 
L 3431 531 
L 3431 0 
L 469 0 
L 469 531 
Q 828 903 1448 1529 
Q 2069 2156 2228 2338 
Q 2531 2678 2651 2914 
Q 2772 3150 2772 3378 
Q 2772 3750 2511 3984 
Q 2250 4219 1831 4219 
Q 1534 4219 1204 4116 
Q 875 4013 500 3803 
L 500 4441 
Q 881 4594 1212 4672 
Q 1544 4750 1819 4750 
Q 2544 4750 2975 4387 
Q 3406 4025 3406 3419 
Q 3406 3131 3298 2873 
Q 3191 2616 2906 2266 
Q 2828 2175 2409 1742 
Q 1991 1309 1228 531 
z
" transform="scale(0.015625)"/>
        <path id="DejaVuSans-30" d="M 2034 4250 
Q 1547 4250 1301 3770 
Q 1056 3291 1056 2328 
Q 1056 1369 1301 889 
Q 1547 409 2034 409 
Q 2525 409 2770 889 
Q 3016 1369 3016 2328 
Q 3016 3291 2770 3770 
Q 2525 4250 2034 4250 
z
M 2034 4750 
Q 2819 4750 3233 4129 
Q 3647 3509 3647 2328 
Q 3647 1150 3233 529 
Q 2819 -91 2034 -91 
Q 1250 -91 836 529 
Q 422 1150 422 2328 
Q 422 3509 836 4129 
Q 1250 4750 2034 4750 
z
" transform="scale(0.015625)"/>
        <path id="DejaVuSans-38" d="M 2034 2216 
Q 1584 2216 1326 1975 
Q 1069 1734 1069 1313 
Q 1069 891 1326 650 
Q 1584 409 2034 409 
Q 2484 409 2743 651 
Q 3003 894 3003 1313 
Q 3003 1734 2745 1975 
Q 2488 2216 2034 2216 
z
M 1403 2484 
Q 997 2584 770 2862 
Q 544 3141 544 3541 
Q 544 4100 942 4425 
Q 1341 4750 2034 4750 
Q 2731 4750 3128 4425 
Q 3525 4100 3525 3541 
Q 3525 3141 3298 2862 
Q 3072 2584 2669 2484 
Q 3125 2378 3379 2068 
Q 3634 1759 3634 1313 
Q 3634 634 3220 271 
Q 2806 -91 2034 -91 
Q 1263 -91 848 271 
Q 434 634 434 1313 
Q 434 1759 690 2068 
Q 947 2378 1403 2484 
z
M 1172 3481 
Q 1172 3119 1398 2916 
Q 1625 2713 2034 2713 
Q 2441 2713 2670 2916 
Q 2900 3119 2900 3481 
Q 2900 3844 2670 4047 
Q 2441 4250 2034 4250 
Q 1625 4250 1398 4047 
Q 1172 3844 1172 3481 
z
" transform="scale(0.015625)"/>
       </defs>
       <use xlink:href="#DejaVuSans-32"/>
       <use xlink:href="#DejaVuSans-30" x="63.623047"/>
       <use xlink:href="#DejaVuSans-30" x="127.246094"/>
       <use xlink:href="#DejaVuSans-38" x="190.869141"/>
      </g>
     </g>
    </g>
    <g id="xtick_2">
     <g id="line2d_2">
      <g>
       <use xlink:href="#mc3f17a4cbf" x="155.077282" y="273.312" style="stroke: #000000; stroke-width: 0.8"/>
      </g>
     </g>
     <g id="text_2">
      <!-- 2010 -->
      <g transform="translate(132.172282 293.989187) scale(0.18 -0.18)">
       <defs>
        <path id="DejaVuSans-31" d="M 794 531 
L 1825 531 
L 1825 4091 
L 703 3866 
L 703 4441 
L 1819 4666 
L 2450 4666 
L 2450 531 
L 3481 531 
L 3481 0 
L 794 0 
L 794 531 
z
" transform="scale(0.015625)"/>
       </defs>
       <use xlink:href="#DejaVuSans-32"/>
       <use xlink:href="#DejaVuSans-30" x="63.623047"/>
       <use xlink:href="#DejaVuSans-31" x="127.246094"/>
       <use xlink:href="#DejaVuSans-30" x="190.869141"/>
      </g>
     </g>
    </g>
    <g id="xtick_3">
     <g id="line2d_3">
      <g>
       <use xlink:href="#mc3f17a4cbf" x="210.29313" y="273.312" style="stroke: #000000; stroke-width: 0.8"/>
      </g>
     </g>
     <g id="text_3">
      <!-- 2012 -->
      <g transform="translate(187.38813 293.989187) scale(0.18 -0.18)">
       <use xlink:href="#DejaVuSans-32"/>
       <use xlink:href="#DejaVuSans-30" x="63.623047"/>
       <use xlink:href="#DejaVuSans-31" x="127.246094"/>
       <use xlink:href="#DejaVuSans-32" x="190.869141"/>
      </g>
     </g>
    </g>
    <g id="xtick_4">
     <g id="line2d_4">
      <g>
       <use xlink:href="#mc3f17a4cbf" x="265.584616" y="273.312" style="stroke: #000000; stroke-width: 0.8"/>
      </g>
     </g>
     <g id="text_4">
      <!-- 2014 -->
      <g transform="translate(242.679616 293.989187) scale(0.18 -0.18)">
       <defs>
        <path id="DejaVuSans-34" d="M 2419 4116 
L 825 1625 
L 2419 1625 
L 2419 4116 
z
M 2253 4666 
L 3047 4666 
L 3047 1625 
L 3713 1625 
L 3713 1100 
L 3047 1100 
L 3047 0 
L 2419 0 
L 2419 1100 
L 313 1100 
L 313 1709 
L 2253 4666 
z
" transform="scale(0.015625)"/>
       </defs>
       <use xlink:href="#DejaVuSans-32"/>
       <use xlink:href="#DejaVuSans-30" x="63.623047"/>
       <use xlink:href="#DejaVuSans-31" x="127.246094"/>
       <use xlink:href="#DejaVuSans-34" x="190.869141"/>
      </g>
     </g>
    </g>
    <g id="xtick_5">
     <g id="line2d_5">
      <g>
       <use xlink:href="#mc3f17a4cbf" x="320.800464" y="273.312" style="stroke: #000000; stroke-width: 0.8"/>
      </g>
     </g>
     <g id="text_5">
      <!-- 2016 -->
      <g transform="translate(297.895464 293.989187) scale(0.18 -0.18)">
       <defs>
        <path id="DejaVuSans-36" d="M 2113 2584 
Q 1688 2584 1439 2293 
Q 1191 2003 1191 1497 
Q 1191 994 1439 701 
Q 1688 409 2113 409 
Q 2538 409 2786 701 
Q 3034 994 3034 1497 
Q 3034 2003 2786 2293 
Q 2538 2584 2113 2584 
z
M 3366 4563 
L 3366 3988 
Q 3128 4100 2886 4159 
Q 2644 4219 2406 4219 
Q 1781 4219 1451 3797 
Q 1122 3375 1075 2522 
Q 1259 2794 1537 2939 
Q 1816 3084 2150 3084 
Q 2853 3084 3261 2657 
Q 3669 2231 3669 1497 
Q 3669 778 3244 343 
Q 2819 -91 2113 -91 
Q 1303 -91 875 529 
Q 447 1150 447 2328 
Q 447 3434 972 4092 
Q 1497 4750 2381 4750 
Q 2619 4750 2861 4703 
Q 3103 4656 3366 4563 
z
" transform="scale(0.015625)"/>
       </defs>
       <use xlink:href="#DejaVuSans-32"/>
       <use xlink:href="#DejaVuSans-30" x="63.623047"/>
       <use xlink:href="#DejaVuSans-31" x="127.246094"/>
       <use xlink:href="#DejaVuSans-36" x="190.869141"/>
      </g>
     </g>
    </g>
    <g id="xtick_6">
     <g id="line2d_6">
      <g>
       <use xlink:href="#mc3f17a4cbf" x="376.09195" y="273.312" style="stroke: #000000; stroke-width: 0.8"/>
      </g>
     </g>
     <g id="text_6">
      <!-- 2018 -->
      <g transform="translate(353.18695 293.989187) scale(0.18 -0.18)">
       <use xlink:href="#DejaVuSans-32"/>
       <use xlink:href="#DejaVuSans-30" x="63.623047"/>
       <use xlink:href="#DejaVuSans-31" x="127.246094"/>
       <use xlink:href="#DejaVuSans-38" x="190.869141"/>
      </g>
     </g>
    </g>
    <g id="xtick_7">
     <g id="line2d_7">
      <g>
       <use xlink:href="#mc3f17a4cbf" x="431.307797" y="273.312" style="stroke: #000000; stroke-width: 0.8"/>
      </g>
     </g>
     <g id="text_7">
      <!-- 2020 -->
      <g transform="translate(408.402797 293.989187) scale(0.18 -0.18)">
       <use xlink:href="#DejaVuSans-32"/>
       <use xlink:href="#DejaVuSans-30" x="63.623047"/>
       <use xlink:href="#DejaVuSans-32" x="127.246094"/>
       <use xlink:href="#DejaVuSans-30" x="190.869141"/>
      </g>
     </g>
    </g>
    <g id="xtick_8">
     <g id="line2d_8">
      <g>
       <use xlink:href="#mc3f17a4cbf" x="486.599283" y="273.312" style="stroke: #000000; stroke-width: 0.8"/>
      </g>
     </g>
     <g id="text_8">
      <!-- 2022 -->
      <g transform="translate(463.694283 293.989187) scale(0.18 -0.18)">
       <use xlink:href="#DejaVuSans-32"/>
       <use xlink:href="#DejaVuSans-30" x="63.623047"/>
       <use xlink:href="#DejaVuSans-32" x="127.246094"/>
       <use xlink:href="#DejaVuSans-32" x="190.869141"/>
      </g>
     </g>
    </g>
    <g id="xtick_9">
     <g id="line2d_9">
      <g>
       <use xlink:href="#mc3f17a4cbf" x="541.815131" y="273.312" style="stroke: #000000; stroke-width: 0.8"/>
      </g>
     </g>
     <g id="text_9">
      <!-- 2024 -->
      <g transform="translate(518.910131 293.989187) scale(0.18 -0.18)">
       <use xlink:href="#DejaVuSans-32"/>
       <use xlink:href="#DejaVuSans-30" x="63.623047"/>
       <use xlink:href="#DejaVuSans-32" x="127.246094"/>
       <use xlink:href="#DejaVuSans-34" x="190.869141"/>
      </g>
     </g>
    </g>
   </g>
   <g id="matplotlib.axis_2">
    <g id="ytick_1">
     <g id="line2d_10">
      <defs>
       <path id="m704f7ed80b" d="M 0 0 
L -3.5 0 
" style="stroke: #000000; stroke-width: 0.8"/>
      </defs>
      <g>
       <use xlink:href="#m704f7ed80b" x="81.430625" y="273.312" style="stroke: #000000; stroke-width: 0.8"/>
      </g>
     </g>
     <g id="text_10">
      <!-- 0 -->
      <g transform="translate(62.978125 280.150594) scale(0.18 -0.18)">
       <use xlink:href="#DejaVuSans-30"/>
      </g>
     </g>
    </g>
    <g id="ytick_2">
     <g id="line2d_11">
      <g>
       <use xlink:href="#m704f7ed80b" x="81.430625" y="205.036138" style="stroke: #000000; stroke-width: 0.8"/>
      </g>
     </g>
     <g id="text_11">
      <!-- 500 -->
      <g transform="translate(40.073125 211.874732) scale(0.18 -0.18)">
       <defs>
        <path id="DejaVuSans-35" d="M 691 4666 
L 3169 4666 
L 3169 4134 
L 1269 4134 
L 1269 2991 
Q 1406 3038 1543 3061 
Q 1681 3084 1819 3084 
Q 2600 3084 3056 2656 
Q 3513 2228 3513 1497 
Q 3513 744 3044 326 
Q 2575 -91 1722 -91 
Q 1428 -91 1123 -41 
Q 819 9 494 109 
L 494 744 
Q 775 591 1075 516 
Q 1375 441 1709 441 
Q 2250 441 2565 725 
Q 2881 1009 2881 1497 
Q 2881 1984 2565 2268 
Q 2250 2553 1709 2553 
Q 1456 2553 1204 2497 
Q 953 2441 691 2322 
L 691 4666 
z
" transform="scale(0.015625)"/>
       </defs>
       <use xlink:href="#DejaVuSans-35"/>
       <use xlink:href="#DejaVuSans-30" x="63.623047"/>
       <use xlink:href="#DejaVuSans-30" x="127.246094"/>
      </g>
     </g>
    </g>
    <g id="ytick_3">
     <g id="line2d_12">
      <g>
       <use xlink:href="#m704f7ed80b" x="81.430625" y="136.760276" style="stroke: #000000; stroke-width: 0.8"/>
      </g>
     </g>
     <g id="text_12">
      <!-- 1000 -->
      <g transform="translate(28.620625 143.59887) scale(0.18 -0.18)">
       <use xlink:href="#DejaVuSans-31"/>
       <use xlink:href="#DejaVuSans-30" x="63.623047"/>
       <use xlink:href="#DejaVuSans-30" x="127.246094"/>
       <use xlink:href="#DejaVuSans-30" x="190.869141"/>
      </g>
     </g>
    </g>
    <g id="ytick_4">
     <g id="line2d_13">
      <g>
       <use xlink:href="#m704f7ed80b" x="81.430625" y="68.484414" style="stroke: #000000; stroke-width: 0.8"/>
      </g>
     </g>
     <g id="text_13">
      <!-- 1500 -->
      <g transform="translate(28.620625 75.323008) scale(0.18 -0.18)">
       <use xlink:href="#DejaVuSans-31"/>
       <use xlink:href="#DejaVuSans-35" x="63.623047"/>
       <use xlink:href="#DejaVuSans-30" x="127.246094"/>
       <use xlink:href="#DejaVuSans-30" x="190.869141"/>
      </g>
     </g>
    </g>
    <g id="text_14">
     <!-- number of cells -->
     <g transform="translate(20.877187 209.952562) rotate(-90) scale(0.18 -0.18)">
      <defs>
       <path id="DejaVuSans-6e" d="M 3513 2113 
L 3513 0 
L 2938 0 
L 2938 2094 
Q 2938 2591 2744 2837 
Q 2550 3084 2163 3084 
Q 1697 3084 1428 2787 
Q 1159 2491 1159 1978 
L 1159 0 
L 581 0 
L 581 3500 
L 1159 3500 
L 1159 2956 
Q 1366 3272 1645 3428 
Q 1925 3584 2291 3584 
Q 2894 3584 3203 3211 
Q 3513 2838 3513 2113 
z
" transform="scale(0.015625)"/>
       <path id="DejaVuSans-75" d="M 544 1381 
L 544 3500 
L 1119 3500 
L 1119 1403 
Q 1119 906 1312 657 
Q 1506 409 1894 409 
Q 2359 409 2629 706 
Q 2900 1003 2900 1516 
L 2900 3500 
L 3475 3500 
L 3475 0 
L 2900 0 
L 2900 538 
Q 2691 219 2414 64 
Q 2138 -91 1772 -91 
Q 1169 -91 856 284 
Q 544 659 544 1381 
z
M 1991 3584 
L 1991 3584 
z
" transform="scale(0.015625)"/>
       <path id="DejaVuSans-6d" d="M 3328 2828 
Q 3544 3216 3844 3400 
Q 4144 3584 4550 3584 
Q 5097 3584 5394 3201 
Q 5691 2819 5691 2113 
L 5691 0 
L 5113 0 
L 5113 2094 
Q 5113 2597 4934 2840 
Q 4756 3084 4391 3084 
Q 3944 3084 3684 2787 
Q 3425 2491 3425 1978 
L 3425 0 
L 2847 0 
L 2847 2094 
Q 2847 2600 2669 2842 
Q 2491 3084 2119 3084 
Q 1678 3084 1418 2786 
Q 1159 2488 1159 1978 
L 1159 0 
L 581 0 
L 581 3500 
L 1159 3500 
L 1159 2956 
Q 1356 3278 1631 3431 
Q 1906 3584 2284 3584 
Q 2666 3584 2933 3390 
Q 3200 3197 3328 2828 
z
" transform="scale(0.015625)"/>
       <path id="DejaVuSans-62" d="M 3116 1747 
Q 3116 2381 2855 2742 
Q 2594 3103 2138 3103 
Q 1681 3103 1420 2742 
Q 1159 2381 1159 1747 
Q 1159 1113 1420 752 
Q 1681 391 2138 391 
Q 2594 391 2855 752 
Q 3116 1113 3116 1747 
z
M 1159 2969 
Q 1341 3281 1617 3432 
Q 1894 3584 2278 3584 
Q 2916 3584 3314 3078 
Q 3713 2572 3713 1747 
Q 3713 922 3314 415 
Q 2916 -91 2278 -91 
Q 1894 -91 1617 61 
Q 1341 213 1159 525 
L 1159 0 
L 581 0 
L 581 4863 
L 1159 4863 
L 1159 2969 
z
" transform="scale(0.015625)"/>
       <path id="DejaVuSans-65" d="M 3597 1894 
L 3597 1613 
L 953 1613 
Q 991 1019 1311 708 
Q 1631 397 2203 397 
Q 2534 397 2845 478 
Q 3156 559 3463 722 
L 3463 178 
Q 3153 47 2828 -22 
Q 2503 -91 2169 -91 
Q 1331 -91 842 396 
Q 353 884 353 1716 
Q 353 2575 817 3079 
Q 1281 3584 2069 3584 
Q 2775 3584 3186 3129 
Q 3597 2675 3597 1894 
z
M 3022 2063 
Q 3016 2534 2758 2815 
Q 2500 3097 2075 3097 
Q 1594 3097 1305 2825 
Q 1016 2553 972 2059 
L 3022 2063 
z
" transform="scale(0.015625)"/>
       <path id="DejaVuSans-72" d="M 2631 2963 
Q 2534 3019 2420 3045 
Q 2306 3072 2169 3072 
Q 1681 3072 1420 2755 
Q 1159 2438 1159 1844 
L 1159 0 
L 581 0 
L 581 3500 
L 1159 3500 
L 1159 2956 
Q 1341 3275 1631 3429 
Q 1922 3584 2338 3584 
Q 2397 3584 2469 3576 
Q 2541 3569 2628 3553 
L 2631 2963 
z
" transform="scale(0.015625)"/>
       <path id="DejaVuSans-20" transform="scale(0.015625)"/>
       <path id="DejaVuSans-6f" d="M 1959 3097 
Q 1497 3097 1228 2736 
Q 959 2375 959 1747 
Q 959 1119 1226 758 
Q 1494 397 1959 397 
Q 2419 397 2687 759 
Q 2956 1122 2956 1747 
Q 2956 2369 2687 2733 
Q 2419 3097 1959 3097 
z
M 1959 3584 
Q 2709 3584 3137 3096 
Q 3566 2609 3566 1747 
Q 3566 888 3137 398 
Q 2709 -91 1959 -91 
Q 1206 -91 779 398 
Q 353 888 353 1747 
Q 353 2609 779 3096 
Q 1206 3584 1959 3584 
z
" transform="scale(0.015625)"/>
       <path id="DejaVuSans-66" d="M 2375 4863 
L 2375 4384 
L 1825 4384 
Q 1516 4384 1395 4259 
Q 1275 4134 1275 3809 
L 1275 3500 
L 2222 3500 
L 2222 3053 
L 1275 3053 
L 1275 0 
L 697 0 
L 697 3053 
L 147 3053 
L 147 3500 
L 697 3500 
L 697 3744 
Q 697 4328 969 4595 
Q 1241 4863 1831 4863 
L 2375 4863 
z
" transform="scale(0.015625)"/>
       <path id="DejaVuSans-63" d="M 3122 3366 
L 3122 2828 
Q 2878 2963 2633 3030 
Q 2388 3097 2138 3097 
Q 1578 3097 1268 2742 
Q 959 2388 959 1747 
Q 959 1106 1268 751 
Q 1578 397 2138 397 
Q 2388 397 2633 464 
Q 2878 531 3122 666 
L 3122 134 
Q 2881 22 2623 -34 
Q 2366 -91 2075 -91 
Q 1284 -91 818 406 
Q 353 903 353 1747 
Q 353 2603 823 3093 
Q 1294 3584 2113 3584 
Q 2378 3584 2631 3529 
Q 2884 3475 3122 3366 
z
" transform="scale(0.015625)"/>
       <path id="DejaVuSans-6c" d="M 603 4863 
L 1178 4863 
L 1178 0 
L 603 0 
L 603 4863 
z
" transform="scale(0.015625)"/>
       <path id="DejaVuSans-73" d="M 2834 3397 
L 2834 2853 
Q 2591 2978 2328 3040 
Q 2066 3103 1784 3103 
Q 1356 3103 1142 2972 
Q 928 2841 928 2578 
Q 928 2378 1081 2264 
Q 1234 2150 1697 2047 
L 1894 2003 
Q 2506 1872 2764 1633 
Q 3022 1394 3022 966 
Q 3022 478 2636 193 
Q 2250 -91 1575 -91 
Q 1294 -91 989 -36 
Q 684 19 347 128 
L 347 722 
Q 666 556 975 473 
Q 1284 391 1588 391 
Q 1994 391 2212 530 
Q 2431 669 2431 922 
Q 2431 1156 2273 1281 
Q 2116 1406 1581 1522 
L 1381 1569 
Q 847 1681 609 1914 
Q 372 2147 372 2553 
Q 372 3047 722 3315 
Q 1072 3584 1716 3584 
Q 2034 3584 2315 3537 
Q 2597 3491 2834 3397 
z
" transform="scale(0.015625)"/>
      </defs>
      <use xlink:href="#DejaVuSans-6e"/>
      <use xlink:href="#DejaVuSans-75" x="63.378906"/>
      <use xlink:href="#DejaVuSans-6d" x="126.757812"/>
      <use xlink:href="#DejaVuSans-62" x="224.169922"/>
      <use xlink:href="#DejaVuSans-65" x="287.646484"/>
      <use xlink:href="#DejaVuSans-72" x="349.169922"/>
      <use xlink:href="#DejaVuSans-20" x="390.283203"/>
      <use xlink:href="#DejaVuSans-6f" x="422.070312"/>
      <use xlink:href="#DejaVuSans-66" x="483.251953"/>
      <use xlink:href="#DejaVuSans-20" x="518.457031"/>
      <use xlink:href="#DejaVuSans-63" x="550.244141"/>
      <use xlink:href="#DejaVuSans-65" x="605.224609"/>
      <use xlink:href="#DejaVuSans-6c" x="666.748047"/>
      <use xlink:href="#DejaVuSans-6c" x="694.53125"/>
      <use xlink:href="#DejaVuSans-73" x="722.314453"/>
     </g>
    </g>
   </g>
   <g id="patch_123">
    <path d="M 81.430625 273.312 
L 81.430625 7.2 
" style="fill: none; stroke: #000000; stroke-width: 0.8; stroke-linejoin: miter; stroke-linecap: square"/>
   </g>
   <g id="patch_124">
    <path d="M 555.730625 273.312 
L 555.730625 7.2 
" style="fill: none; stroke: #000000; stroke-width: 0.8; stroke-linejoin: miter; stroke-linecap: square"/>
   </g>
   <g id="patch_125">
    <path d="M 81.430625 273.312 
L 555.730625 273.312 
" style="fill: none; stroke: #000000; stroke-width: 0.8; stroke-linejoin: miter; stroke-linecap: square"/>
   </g>
   <g id="patch_126">
    <path d="M 81.430625 7.2 
L 555.730625 7.2 
" style="fill: none; stroke: #000000; stroke-width: 0.8; stroke-linejoin: miter; stroke-linecap: square"/>
   </g>
  </g>
 </g>
 <defs>
  <clipPath id="p2e15eefddc">
   <rect x="81.430625" y="7.2" width="474.3" height="266.112"/>
  </clipPath>
 </defs>
</svg>
