<?xml version="1.0" encoding="utf-8" standalone="no"?>
<!DOCTYPE svg PUBLIC "-//W3C//DTD SVG 1.1//EN"
  "http://www.w3.org/Graphics/SVG/1.1/DTD/svg11.dtd">
<svg xmlns:xlink="http://www.w3.org/1999/xlink" width="595.708477pt" height="304.932625pt" viewBox="0 0 595.708477 304.932625" xmlns="http://www.w3.org/2000/svg" version="1.1">
 <metadata>
  <rdf:RDF xmlns:dc="http://purl.org/dc/elements/1.1/" xmlns:cc="http://creativecommons.org/ns#" xmlns:rdf="http://www.w3.org/1999/02/22-rdf-syntax-ns#">
   <cc:Work>
    <dc:type rdf:resource="http://purl.org/dc/dcmitype/StillImage"/>
    <dc:date>2024-07-19T15:06:41.590867</dc:date>
    <dc:format>image/svg+xml</dc:format>
    <dc:creator>
     <cc:Agent>
      <dc:title>Matplotlib v3.7.5, https://matplotlib.org/</dc:title>
     </cc:Agent>
    </dc:creator>
   </cc:Work>
  </rdf:RDF>
 </metadata>
 <defs>
  <style type="text/css">*{stroke-linejoin: round; stroke-linecap: butt}</style>
 </defs>
 <g id="figure_1">
  <g id="patch_1">
   <path d="M 0 304.932625 
L 595.708477 304.932625 
L 595.708477 0 
L 0 0 
z
" style="fill: #ffffff"/>
  </g>
  <g id="axes_1">
   <g id="patch_2">
    <path d="M 104.335625 273.312 
L 578.635625 273.312 
L 578.635625 7.2 
L 104.335625 7.2 
z
" style="fill: #ffffff"/>
   </g>
   <g id="patch_3">
    <path d="M 104.335625 273.312 
L 108.288125 273.312 
L 108.288125 273.310776 
L 104.335625 273.310776 
z
" clip-path="url(#p73d64121a9)" style="fill: #1f77b4"/>
   </g>
   <g id="patch_4">
    <path d="M 108.288125 273.312 
L 112.240625 273.312 
L 112.240625 273.312 
L 108.288125 273.312 
z
" clip-path="url(#p73d64121a9)" style="fill: #1f77b4"/>
   </g>
   <g id="patch_5">
    <path d="M 112.240625 273.312 
L 116.193125 273.312 
L 116.193125 273.311592 
L 112.240625 273.311592 
z
" clip-path="url(#p73d64121a9)" style="fill: #1f77b4"/>
   </g>
   <g id="patch_6">
    <path d="M 116.193125 273.312 
L 120.145625 273.312 
L 120.145625 273.295682 
L 116.193125 273.295682 
z
" clip-path="url(#p73d64121a9)" style="fill: #1f77b4"/>
   </g>
   <g id="patch_7">
    <path d="M 120.145625 273.312 
L 124.098125 273.312 
L 124.098125 273.2402 
L 120.145625 273.2402 
z
" clip-path="url(#p73d64121a9)" style="fill: #1f77b4"/>
   </g>
   <g id="patch_8">
    <path d="M 124.098125 273.312 
L 128.050625 273.312 
L 128.050625 273.198996 
L 124.098125 273.198996 
z
" clip-path="url(#p73d64121a9)" style="fill: #1f77b4"/>
   </g>
   <g id="patch_9">
    <path d="M 128.050625 273.312 
L 132.003125 273.312 
L 132.003125 273.191653 
L 128.050625 273.191653 
z
" clip-path="url(#p73d64121a9)" style="fill: #1f77b4"/>
   </g>
   <g id="patch_10">
    <path d="M 132.003125 273.312 
L 135.955625 273.312 
L 135.955625 273.090888 
L 132.003125 273.090888 
z
" clip-path="url(#p73d64121a9)" style="fill: #1f77b4"/>
   </g>
   <g id="patch_11">
    <path d="M 135.955625 273.312 
L 139.908125 273.312 
L 139.908125 273.080689 
L 135.955625 273.080689 
z
" clip-path="url(#p73d64121a9)" style="fill: #1f77b4"/>
   </g>
   <g id="patch_12">
    <path d="M 139.908125 273.312 
L 143.860625 273.312 
L 143.860625 272.881606 
L 139.908125 272.881606 
z
" clip-path="url(#p73d64121a9)" style="fill: #1f77b4"/>
   </g>
   <g id="patch_13">
    <path d="M 143.860625 273.312 
L 147.813125 273.312 
L 147.813125 272.671509 
L 143.860625 272.671509 
z
" clip-path="url(#p73d64121a9)" style="fill: #1f77b4"/>
   </g>
   <g id="patch_14">
    <path d="M 147.813125 273.312 
L 151.765625 273.312 
L 151.765625 272.450804 
L 147.813125 272.450804 
z
" clip-path="url(#p73d64121a9)" style="fill: #1f77b4"/>
   </g>
   <g id="patch_15">
    <path d="M 151.765625 273.312 
L 155.718125 273.312 
L 155.718125 271.359929 
L 151.765625 271.359929 
z
" clip-path="url(#p73d64121a9)" style="fill: #1f77b4"/>
   </g>
   <g id="patch_16">
    <path d="M 155.718125 273.312 
L 159.670625 273.312 
L 159.670625 271.157175 
L 155.718125 271.157175 
z
" clip-path="url(#p73d64121a9)" style="fill: #1f77b4"/>
   </g>
   <g id="patch_17">
    <path d="M 159.670625 273.312 
L 163.623125 273.312 
L 163.623125 271.016838 
L 159.670625 271.016838 
z
" clip-path="url(#p73d64121a9)" style="fill: #1f77b4"/>
   </g>
   <g id="patch_18">
    <path d="M 163.623125 273.312 
L 167.575625 273.312 
L 167.575625 268.707805 
L 163.623125 268.707805 
z
" clip-path="url(#p73d64121a9)" style="fill: #1f77b4"/>
   </g>
   <g id="patch_19">
    <path d="M 167.575625 273.312 
L 171.528125 273.312 
L 171.528125 270.385729 
L 167.575625 270.385729 
z
" clip-path="url(#p73d64121a9)" style="fill: #1f77b4"/>
   </g>
   <g id="patch_20">
    <path d="M 171.528125 273.312 
L 175.480625 273.312 
L 175.480625 269.655488 
L 171.528125 269.655488 
z
" clip-path="url(#p73d64121a9)" style="fill: #1f77b4"/>
   </g>
   <g id="patch_21">
    <path d="M 175.480625 273.312 
L 179.433125 273.312 
L 179.433125 266.585208 
L 175.480625 266.585208 
z
" clip-path="url(#p73d64121a9)" style="fill: #1f77b4"/>
   </g>
   <g id="patch_22">
    <path d="M 179.433125 273.312 
L 183.385625 273.312 
L 183.385625 265.947573 
L 179.433125 265.947573 
z
" clip-path="url(#p73d64121a9)" style="fill: #1f77b4"/>
   </g>
   <g id="patch_23">
    <path d="M 183.385625 273.312 
L 187.338125 273.312 
L 187.338125 267.397042 
L 183.385625 267.397042 
z
" clip-path="url(#p73d64121a9)" style="fill: #1f77b4"/>
   </g>
   <g id="patch_24">
    <path d="M 187.338125 273.312 
L 191.290625 273.312 
L 191.290625 264.616411 
L 187.338125 264.616411 
z
" clip-path="url(#p73d64121a9)" style="fill: #1f77b4"/>
   </g>
   <g id="patch_25">
    <path d="M 191.290625 273.312 
L 195.243125 273.312 
L 195.243125 267.423967 
L 191.290625 267.423967 
z
" clip-path="url(#p73d64121a9)" style="fill: #1f77b4"/>
   </g>
   <g id="patch_26">
    <path d="M 195.243125 273.312 
L 199.195625 273.312 
L 199.195625 242.607169 
L 195.243125 242.607169 
z
" clip-path="url(#p73d64121a9)" style="fill: #1f77b4"/>
   </g>
   <g id="patch_27">
    <path d="M 199.195625 273.312 
L 203.148125 273.312 
L 203.148125 245.391062 
L 199.195625 245.391062 
z
" clip-path="url(#p73d64121a9)" style="fill: #1f77b4"/>
   </g>
   <g id="patch_28">
    <path d="M 203.148125 273.312 
L 207.100625 273.312 
L 207.100625 261.553475 
L 203.148125 261.553475 
z
" clip-path="url(#p73d64121a9)" style="fill: #1f77b4"/>
   </g>
   <g id="patch_29">
    <path d="M 207.100625 273.312 
L 211.053125 273.312 
L 211.053125 231.459355 
L 207.100625 231.459355 
z
" clip-path="url(#p73d64121a9)" style="fill: #1f77b4"/>
   </g>
   <g id="patch_30">
    <path d="M 211.053125 273.312 
L 215.005625 273.312 
L 215.005625 217.517448 
L 211.053125 217.517448 
z
" clip-path="url(#p73d64121a9)" style="fill: #1f77b4"/>
   </g>
   <g id="patch_31">
    <path d="M 215.005625 273.312 
L 218.958125 273.312 
L 218.958125 236.898636 
L 215.005625 236.898636 
z
" clip-path="url(#p73d64121a9)" style="fill: #1f77b4"/>
   </g>
   <g id="patch_32">
    <path d="M 218.958125 273.312 
L 222.910625 273.312 
L 222.910625 176.660216 
L 218.958125 176.660216 
z
" clip-path="url(#p73d64121a9)" style="fill: #1f77b4"/>
   </g>
   <g id="patch_33">
    <path d="M 222.910625 273.312 
L 226.863125 273.312 
L 226.863125 181.644626 
L 222.910625 181.644626 
z
" clip-path="url(#p73d64121a9)" style="fill: #1f77b4"/>
   </g>
   <g id="patch_34">
    <path d="M 226.863125 273.312 
L 230.815625 273.312 
L 230.815625 124.279034 
L 226.863125 124.279034 
z
" clip-path="url(#p73d64121a9)" style="fill: #1f77b4"/>
   </g>
   <g id="patch_35">
    <path d="M 230.815625 273.312 
L 234.768125 273.312 
L 234.768125 187.428222 
L 230.815625 187.428222 
z
" clip-path="url(#p73d64121a9)" style="fill: #1f77b4"/>
   </g>
   <g id="patch_36">
    <path d="M 234.768125 273.312 
L 238.720625 273.312 
L 238.720625 206.7217 
L 234.768125 206.7217 
z
" clip-path="url(#p73d64121a9)" style="fill: #1f77b4"/>
   </g>
   <g id="patch_37">
    <path d="M 238.720625 273.312 
L 242.673125 273.312 
L 242.673125 220.372734 
L 238.720625 220.372734 
z
" clip-path="url(#p73d64121a9)" style="fill: #1f77b4"/>
   </g>
   <g id="patch_38">
    <path d="M 242.673125 273.312 
L 246.625625 273.312 
L 246.625625 221.852799 
L 242.673125 221.852799 
z
" clip-path="url(#p73d64121a9)" style="fill: #1f77b4"/>
   </g>
   <g id="patch_39">
    <path d="M 246.625625 273.312 
L 250.578125 273.312 
L 250.578125 224.058211 
L 246.625625 224.058211 
z
" clip-path="url(#p73d64121a9)" style="fill: #1f77b4"/>
   </g>
   <g id="patch_40">
    <path d="M 250.578125 273.312 
L 254.530625 273.312 
L 254.530625 217.43708 
L 250.578125 217.43708 
z
" clip-path="url(#p73d64121a9)" style="fill: #1f77b4"/>
   </g>
   <g id="patch_41">
    <path d="M 254.530625 273.312 
L 258.483125 273.312 
L 258.483125 216.846768 
L 254.530625 216.846768 
z
" clip-path="url(#p73d64121a9)" style="fill: #1f77b4"/>
   </g>
   <g id="patch_42">
    <path d="M 258.483125 273.312 
L 262.435625 273.312 
L 262.435625 211.325487 
L 258.483125 211.325487 
z
" clip-path="url(#p73d64121a9)" style="fill: #1f77b4"/>
   </g>
   <g id="patch_43">
    <path d="M 262.435625 273.312 
L 266.388125 273.312 
L 266.388125 217.30735 
L 262.435625 217.30735 
z
" clip-path="url(#p73d64121a9)" style="fill: #1f77b4"/>
   </g>
   <g id="patch_44">
    <path d="M 266.388125 273.312 
L 270.340625 273.312 
L 270.340625 211.450322 
L 266.388125 211.450322 
z
" clip-path="url(#p73d64121a9)" style="fill: #1f77b4"/>
   </g>
   <g id="patch_45">
    <path d="M 270.340625 273.312 
L 274.293125 273.312 
L 274.293125 202.261514 
L 270.340625 202.261514 
z
" clip-path="url(#p73d64121a9)" style="fill: #1f77b4"/>
   </g>
   <g id="patch_46">
    <path d="M 274.293125 273.312 
L 278.245625 273.312 
L 278.245625 188.522361 
L 274.293125 188.522361 
z
" clip-path="url(#p73d64121a9)" style="fill: #1f77b4"/>
   </g>
   <g id="patch_47">
    <path d="M 278.245625 273.312 
L 282.198125 273.312 
L 282.198125 180.905001 
L 278.245625 180.905001 
z
" clip-path="url(#p73d64121a9)" style="fill: #1f77b4"/>
   </g>
   <g id="patch_48">
    <path d="M 282.198125 273.312 
L 286.150625 273.312 
L 286.150625 179.003517 
L 282.198125 179.003517 
z
" clip-path="url(#p73d64121a9)" style="fill: #1f77b4"/>
   </g>
   <g id="patch_49">
    <path d="M 286.150625 273.312 
L 290.103125 273.312 
L 290.103125 182.890932 
L 286.150625 182.890932 
z
" clip-path="url(#p73d64121a9)" style="fill: #1f77b4"/>
   </g>
   <g id="patch_50">
    <path d="M 290.103125 273.312 
L 294.055625 273.312 
L 294.055625 158.764804 
L 290.103125 158.764804 
z
" clip-path="url(#p73d64121a9)" style="fill: #1f77b4"/>
   </g>
   <g id="patch_51">
    <path d="M 294.055625 273.312 
L 298.008125 273.312 
L 298.008125 180.326927 
L 294.055625 180.326927 
z
" clip-path="url(#p73d64121a9)" style="fill: #1f77b4"/>
   </g>
   <g id="patch_52">
    <path d="M 298.008125 273.312 
L 301.960625 273.312 
L 301.960625 181.627084 
L 298.008125 181.627084 
z
" clip-path="url(#p73d64121a9)" style="fill: #1f77b4"/>
   </g>
   <g id="patch_53">
    <path d="M 301.960625 273.312 
L 305.913125 273.312 
L 305.913125 179.227893 
L 301.960625 179.227893 
z
" clip-path="url(#p73d64121a9)" style="fill: #1f77b4"/>
   </g>
   <g id="patch_54">
    <path d="M 305.913125 273.312 
L 309.865625 273.312 
L 309.865625 168.268962 
L 305.913125 168.268962 
z
" clip-path="url(#p73d64121a9)" style="fill: #1f77b4"/>
   </g>
   <g id="patch_55">
    <path d="M 309.865625 273.312 
L 313.818125 273.312 
L 313.818125 160.379495 
L 309.865625 160.379495 
z
" clip-path="url(#p73d64121a9)" style="fill: #1f77b4"/>
   </g>
   <g id="patch_56">
    <path d="M 313.818125 273.312 
L 317.770625 273.312 
L 317.770625 162.026415 
L 313.818125 162.026415 
z
" clip-path="url(#p73d64121a9)" style="fill: #1f77b4"/>
   </g>
   <g id="patch_57">
    <path d="M 317.770625 273.312 
L 321.723125 273.312 
L 321.723125 170.719148 
L 317.770625 170.719148 
z
" clip-path="url(#p73d64121a9)" style="fill: #1f77b4"/>
   </g>
   <g id="patch_58">
    <path d="M 321.723125 273.312 
L 325.675625 273.312 
L 325.675625 146.788023 
L 321.723125 146.788023 
z
" clip-path="url(#p73d64121a9)" style="fill: #1f77b4"/>
   </g>
   <g id="patch_59">
    <path d="M 325.675625 273.312 
L 329.628125 273.312 
L 329.628125 138.540778 
L 325.675625 138.540778 
z
" clip-path="url(#p73d64121a9)" style="fill: #1f77b4"/>
   </g>
   <g id="patch_60">
    <path d="M 329.628125 273.312 
L 333.580625 273.312 
L 333.580625 120.648223 
L 329.628125 120.648223 
z
" clip-path="url(#p73d64121a9)" style="fill: #1f77b4"/>
   </g>
   <g id="patch_61">
    <path d="M 333.580625 273.312 
L 337.533125 273.312 
L 337.533125 105.534665 
L 333.580625 105.534665 
z
" clip-path="url(#p73d64121a9)" style="fill: #1f77b4"/>
   </g>
   <g id="patch_62">
    <path d="M 337.533125 273.312 
L 341.485625 273.312 
L 341.485625 102.124559 
L 337.533125 102.124559 
z
" clip-path="url(#p73d64121a9)" style="fill: #1f77b4"/>
   </g>
   <g id="patch_63">
    <path d="M 341.485625 273.312 
L 345.438125 273.312 
L 345.438125 52.408963 
L 341.485625 52.408963 
z
" clip-path="url(#p73d64121a9)" style="fill: #1f77b4"/>
   </g>
   <g id="patch_64">
    <path d="M 345.438125 273.312 
L 349.390625 273.312 
L 349.390625 167.563198 
L 345.438125 167.563198 
z
" clip-path="url(#p73d64121a9)" style="fill: #1f77b4"/>
   </g>
   <g id="patch_65">
    <path d="M 349.390625 273.312 
L 353.343125 273.312 
L 353.343125 165.106077 
L 349.390625 165.106077 
z
" clip-path="url(#p73d64121a9)" style="fill: #1f77b4"/>
   </g>
   <g id="patch_66">
    <path d="M 353.343125 273.312 
L 357.295625 273.312 
L 357.295625 146.411071 
L 353.343125 146.411071 
z
" clip-path="url(#p73d64121a9)" style="fill: #1f77b4"/>
   </g>
   <g id="patch_67">
    <path d="M 357.295625 273.312 
L 361.248125 273.312 
L 361.248125 90.098007 
L 357.295625 90.098007 
z
" clip-path="url(#p73d64121a9)" style="fill: #1f77b4"/>
   </g>
   <g id="patch_68">
    <path d="M 361.248125 273.312 
L 365.200625 273.312 
L 365.200625 124.195403 
L 361.248125 124.195403 
z
" clip-path="url(#p73d64121a9)" style="fill: #1f77b4"/>
   </g>
   <g id="patch_69">
    <path d="M 365.200625 273.312 
L 369.153125 273.312 
L 369.153125 130.39797 
L 365.200625 130.39797 
z
" clip-path="url(#p73d64121a9)" style="fill: #1f77b4"/>
   </g>
   <g id="patch_70">
    <path d="M 369.153125 273.312 
L 373.105625 273.312 
L 373.105625 144.169759 
L 369.153125 144.169759 
z
" clip-path="url(#p73d64121a9)" style="fill: #1f77b4"/>
   </g>
   <g id="patch_71">
    <path d="M 373.105625 273.312 
L 377.058125 273.312 
L 377.058125 144.53692 
L 373.105625 144.53692 
z
" clip-path="url(#p73d64121a9)" style="fill: #1f77b4"/>
   </g>
   <g id="patch_72">
    <path d="M 377.058125 273.312 
L 381.010625 273.312 
L 381.010625 154.114918 
L 377.058125 154.114918 
z
" clip-path="url(#p73d64121a9)" style="fill: #1f77b4"/>
   </g>
   <g id="patch_73">
    <path d="M 381.010625 273.312 
L 384.963125 273.312 
L 384.963125 135.836436 
L 381.010625 135.836436 
z
" clip-path="url(#p73d64121a9)" style="fill: #1f77b4"/>
   </g>
   <g id="patch_74">
    <path d="M 384.963125 273.312 
L 388.915625 273.312 
L 388.915625 122.927475 
L 384.963125 122.927475 
z
" clip-path="url(#p73d64121a9)" style="fill: #1f77b4"/>
   </g>
   <g id="patch_75">
    <path d="M 388.915625 273.312 
L 392.868125 273.312 
L 392.868125 125.072509 
L 388.915625 125.072509 
z
" clip-path="url(#p73d64121a9)" style="fill: #1f77b4"/>
   </g>
   <g id="patch_76">
    <path d="M 392.868125 273.312 
L 396.820625 273.312 
L 396.820625 96.218575 
L 392.868125 96.218575 
z
" clip-path="url(#p73d64121a9)" style="fill: #1f77b4"/>
   </g>
   <g id="patch_77">
    <path d="M 396.820625 273.312 
L 400.773125 273.312 
L 400.773125 144.163232 
L 396.820625 144.163232 
z
" clip-path="url(#p73d64121a9)" style="fill: #1f77b4"/>
   </g>
   <g id="patch_78">
    <path d="M 400.773125 273.312 
L 404.725625 273.312 
L 404.725625 142.770469 
L 400.773125 142.770469 
z
" clip-path="url(#p73d64121a9)" style="fill: #1f77b4"/>
   </g>
   <g id="patch_79">
    <path d="M 404.725625 273.312 
L 408.678125 273.312 
L 408.678125 143.273887 
L 404.725625 143.273887 
z
" clip-path="url(#p73d64121a9)" style="fill: #1f77b4"/>
   </g>
   <g id="patch_80">
    <path d="M 408.678125 273.312 
L 412.630625 273.312 
L 412.630625 123.182855 
L 408.678125 123.182855 
z
" clip-path="url(#p73d64121a9)" style="fill: #1f77b4"/>
   </g>
   <g id="patch_81">
    <path d="M 412.630625 273.312 
L 416.583125 273.312 
L 416.583125 113.170791 
L 412.630625 113.170791 
z
" clip-path="url(#p73d64121a9)" style="fill: #1f77b4"/>
   </g>
   <g id="patch_82">
    <path d="M 416.583125 273.312 
L 420.535625 273.312 
L 420.535625 136.203189 
L 416.583125 136.203189 
z
" clip-path="url(#p73d64121a9)" style="fill: #1f77b4"/>
   </g>
   <g id="patch_83">
    <path d="M 420.535625 273.312 
L 424.488125 273.312 
L 424.488125 151.383243 
L 420.535625 151.383243 
z
" clip-path="url(#p73d64121a9)" style="fill: #1f77b4"/>
   </g>
   <g id="patch_84">
    <path d="M 424.488125 273.312 
L 428.440625 273.312 
L 428.440625 133.960653 
L 424.488125 133.960653 
z
" clip-path="url(#p73d64121a9)" style="fill: #1f77b4"/>
   </g>
   <g id="patch_85">
    <path d="M 428.440625 273.312 
L 432.393125 273.312 
L 432.393125 96.888031 
L 428.440625 96.888031 
z
" clip-path="url(#p73d64121a9)" style="fill: #1f77b4"/>
   </g>
   <g id="patch_86">
    <path d="M 432.393125 273.312 
L 436.345625 273.312 
L 436.345625 99.578503 
L 432.393125 99.578503 
z
" clip-path="url(#p73d64121a9)" style="fill: #1f77b4"/>
   </g>
   <g id="patch_87">
    <path d="M 436.345625 273.312 
L 440.298125 273.312 
L 440.298125 81.695331 
L 436.345625 81.695331 
z
" clip-path="url(#p73d64121a9)" style="fill: #1f77b4"/>
   </g>
   <g id="patch_88">
    <path d="M 440.298125 273.312 
L 444.250625 273.312 
L 444.250625 138.168722 
L 440.298125 138.168722 
z
" clip-path="url(#p73d64121a9)" style="fill: #1f77b4"/>
   </g>
   <g id="patch_89">
    <path d="M 444.250625 273.312 
L 448.203125 273.312 
L 448.203125 65.514968 
L 444.250625 65.514968 
z
" clip-path="url(#p73d64121a9)" style="fill: #1f77b4"/>
   </g>
   <g id="patch_90">
    <path d="M 448.203125 273.312 
L 452.155625 273.312 
L 452.155625 105.870413 
L 448.203125 105.870413 
z
" clip-path="url(#p73d64121a9)" style="fill: #1f77b4"/>
   </g>
   <g id="patch_91">
    <path d="M 452.155625 273.312 
L 456.108125 273.312 
L 456.108125 129.47191 
L 452.155625 129.47191 
z
" clip-path="url(#p73d64121a9)" style="fill: #1f77b4"/>
   </g>
   <g id="patch_92">
    <path d="M 456.108125 273.312 
L 460.060625 273.312 
L 460.060625 127.913517 
L 456.108125 127.913517 
z
" clip-path="url(#p73d64121a9)" style="fill: #1f77b4"/>
   </g>
   <g id="patch_93">
    <path d="M 460.060625 273.312 
L 464.013125 273.312 
L 464.013125 59.997766 
L 460.060625 59.997766 
z
" clip-path="url(#p73d64121a9)" style="fill: #1f77b4"/>
   </g>
   <g id="patch_94">
    <path d="M 464.013125 273.312 
L 467.965625 273.312 
L 467.965625 55.975317 
L 464.013125 55.975317 
z
" clip-path="url(#p73d64121a9)" style="fill: #1f77b4"/>
   </g>
   <g id="patch_95">
    <path d="M 467.965625 273.312 
L 471.918125 273.312 
L 471.918125 65.478659 
L 467.965625 65.478659 
z
" clip-path="url(#p73d64121a9)" style="fill: #1f77b4"/>
   </g>
   <g id="patch_96">
    <path d="M 471.918125 273.312 
L 475.870625 273.312 
L 475.870625 112.724487 
L 471.918125 112.724487 
z
" clip-path="url(#p73d64121a9)" style="fill: #1f77b4"/>
   </g>
   <g id="patch_97">
    <path d="M 475.870625 273.312 
L 479.823125 273.312 
L 479.823125 94.310971 
L 475.870625 94.310971 
z
" clip-path="url(#p73d64121a9)" style="fill: #1f77b4"/>
   </g>
   <g id="patch_98">
    <path d="M 479.823125 273.312 
L 483.775625 273.312 
L 483.775625 66.426342 
L 479.823125 66.426342 
z
" clip-path="url(#p73d64121a9)" style="fill: #1f77b4"/>
   </g>
   <g id="patch_99">
    <path d="M 483.775625 273.312 
L 487.728125 273.312 
L 487.728125 47.893295 
L 483.775625 47.893295 
z
" clip-path="url(#p73d64121a9)" style="fill: #1f77b4"/>
   </g>
   <g id="patch_100">
    <path d="M 487.728125 273.312 
L 491.680625 273.312 
L 491.680625 42.752229 
L 487.728125 42.752229 
z
" clip-path="url(#p73d64121a9)" style="fill: #1f77b4"/>
   </g>
   <g id="patch_101">
    <path d="M 491.680625 273.312 
L 495.633125 273.312 
L 495.633125 70.003303 
L 491.680625 70.003303 
z
" clip-path="url(#p73d64121a9)" style="fill: #1f77b4"/>
   </g>
   <g id="patch_102">
    <path d="M 495.633125 273.312 
L 499.585625 273.312 
L 499.585625 88.038235 
L 495.633125 88.038235 
z
" clip-path="url(#p73d64121a9)" style="fill: #1f77b4"/>
   </g>
   <g id="patch_103">
    <path d="M 499.585625 273.312 
L 503.538125 273.312 
L 503.538125 109.894494 
L 499.585625 109.894494 
z
" clip-path="url(#p73d64121a9)" style="fill: #1f77b4"/>
   </g>
   <g id="patch_104">
    <path d="M 503.538125 273.312 
L 507.490625 273.312 
L 507.490625 115.221996 
L 503.538125 115.221996 
z
" clip-path="url(#p73d64121a9)" style="fill: #1f77b4"/>
   </g>
   <g id="patch_105">
    <path d="M 507.490625 273.312 
L 511.443125 273.312 
L 511.443125 91.22519 
L 507.490625 91.22519 
z
" clip-path="url(#p73d64121a9)" style="fill: #1f77b4"/>
   </g>
   <g id="patch_106">
    <path d="M 511.443125 273.312 
L 515.395625 273.312 
L 515.395625 63.587374 
L 511.443125 63.587374 
z
" clip-path="url(#p73d64121a9)" style="fill: #1f77b4"/>
   </g>
   <g id="patch_107">
    <path d="M 515.395625 273.312 
L 519.348125 273.312 
L 519.348125 63.359326 
L 515.395625 63.359326 
z
" clip-path="url(#p73d64121a9)" style="fill: #1f77b4"/>
   </g>
   <g id="patch_108">
    <path d="M 519.348125 273.312 
L 523.300625 273.312 
L 523.300625 91.496073 
L 519.348125 91.496073 
z
" clip-path="url(#p73d64121a9)" style="fill: #1f77b4"/>
   </g>
   <g id="patch_109">
    <path d="M 523.300625 273.312 
L 527.253125 273.312 
L 527.253125 93.444064 
L 523.300625 93.444064 
z
" clip-path="url(#p73d64121a9)" style="fill: #1f77b4"/>
   </g>
   <g id="patch_110">
    <path d="M 527.253125 273.312 
L 531.205625 273.312 
L 531.205625 102.173105 
L 527.253125 102.173105 
z
" clip-path="url(#p73d64121a9)" style="fill: #1f77b4"/>
   </g>
   <g id="patch_111">
    <path d="M 531.205625 273.312 
L 535.158125 273.312 
L 535.158125 90.131867 
L 531.205625 90.131867 
z
" clip-path="url(#p73d64121a9)" style="fill: #1f77b4"/>
   </g>
   <g id="patch_112">
    <path d="M 535.158125 273.312 
L 539.110625 273.312 
L 539.110625 56.437532 
L 535.158125 56.437532 
z
" clip-path="url(#p73d64121a9)" style="fill: #1f77b4"/>
   </g>
   <g id="patch_113">
    <path d="M 539.110625 273.312 
L 543.063125 273.312 
L 543.063125 51.014977 
L 539.110625 51.014977 
z
" clip-path="url(#p73d64121a9)" style="fill: #1f77b4"/>
   </g>
   <g id="patch_114">
    <path d="M 543.063125 273.312 
L 547.015625 273.312 
L 547.015625 62.106493 
L 543.063125 62.106493 
z
" clip-path="url(#p73d64121a9)" style="fill: #1f77b4"/>
   </g>
   <g id="patch_115">
    <path d="M 547.015625 273.312 
L 550.968125 273.312 
L 550.968125 101.315173 
L 547.015625 101.315173 
z
" clip-path="url(#p73d64121a9)" style="fill: #1f77b4"/>
   </g>
   <g id="patch_116">
    <path d="M 550.968125 273.312 
L 554.920625 273.312 
L 554.920625 100.320576 
L 550.968125 100.320576 
z
" clip-path="url(#p73d64121a9)" style="fill: #1f77b4"/>
   </g>
   <g id="patch_117">
    <path d="M 554.920625 273.312 
L 558.873125 273.312 
L 558.873125 71.529059 
L 554.920625 71.529059 
z
" clip-path="url(#p73d64121a9)" style="fill: #1f77b4"/>
   </g>
   <g id="patch_118">
    <path d="M 558.873125 273.312 
L 562.825625 273.312 
L 562.825625 32.285702 
L 558.873125 32.285702 
z
" clip-path="url(#p73d64121a9)" style="fill: #1f77b4"/>
   </g>
   <g id="patch_119">
    <path d="M 562.825625 273.312 
L 566.778125 273.312 
L 566.778125 53.271791 
L 562.825625 53.271791 
z
" clip-path="url(#p73d64121a9)" style="fill: #1f77b4"/>
   </g>
   <g id="patch_120">
    <path d="M 566.778125 273.312 
L 570.730625 273.312 
L 570.730625 19.872 
L 566.778125 19.872 
z
" clip-path="url(#p73d64121a9)" style="fill: #1f77b4"/>
   </g>
   <g id="patch_121">
    <path d="M 570.730625 273.312 
L 574.683125 273.312 
L 574.683125 64.706398 
L 570.730625 64.706398 
z
" clip-path="url(#p73d64121a9)" style="fill: #1f77b4"/>
   </g>
   <g id="patch_122">
    <path d="M 574.683125 273.312 
L 578.635625 273.312 
L 578.635625 81.018939 
L 574.683125 81.018939 
z
" clip-path="url(#p73d64121a9)" style="fill: #1f77b4"/>
   </g>
   <g id="matplotlib.axis_1">
    <g id="xtick_1">
     <g id="line2d_1">
      <defs>
       <path id="mb8976ba5f2" d="M 0 0 
L 0 3.5 
" style="stroke: #000000; stroke-width: 0.8"/>
      </defs>
      <g>
       <use xlink:href="#mb8976ba5f2" x="151.783646" y="273.312" style="stroke: #000000; stroke-width: 0.8"/>
      </g>
     </g>
     <g id="text_1">
      <!-- 2008 -->
      <g transform="translate(128.878646 293.989187) scale(0.18 -0.18)">
       <defs>
        <path id="DejaVuSans-32" d="M 1228 531 
L 3431 531 
L 3431 0 
L 469 0 
L 469 531 
Q 828 903 1448 1529 
Q 2069 2156 2228 2338 
Q 2531 2678 2651 2914 
Q 2772 3150 2772 3378 
Q 2772 3750 2511 3984 
Q 2250 4219 1831 4219 
Q 1534 4219 1204 4116 
Q 875 4013 500 3803 
L 500 4441 
Q 881 4594 1212 4672 
Q 1544 4750 1819 4750 
Q 2544 4750 2975 4387 
Q 3406 4025 3406 3419 
Q 3406 3131 3298 2873 
Q 3191 2616 2906 2266 
Q 2828 2175 2409 1742 
Q 1991 1309 1228 531 
z
" transform="scale(0.015625)"/>
        <path id="DejaVuSans-30" d="M 2034 4250 
Q 1547 4250 1301 3770 
Q 1056 3291 1056 2328 
Q 1056 1369 1301 889 
Q 1547 409 2034 409 
Q 2525 409 2770 889 
Q 3016 1369 3016 2328 
Q 3016 3291 2770 3770 
Q 2525 4250 2034 4250 
z
M 2034 4750 
Q 2819 4750 3233 4129 
Q 3647 3509 3647 2328 
Q 3647 1150 3233 529 
Q 2819 -91 2034 -91 
Q 1250 -91 836 529 
Q 422 1150 422 2328 
Q 422 3509 836 4129 
Q 1250 4750 2034 4750 
z
" transform="scale(0.015625)"/>
        <path id="DejaVuSans-38" d="M 2034 2216 
Q 1584 2216 1326 1975 
Q 1069 1734 1069 1313 
Q 1069 891 1326 650 
Q 1584 409 2034 409 
Q 2484 409 2743 651 
Q 3003 894 3003 1313 
Q 3003 1734 2745 1975 
Q 2488 2216 2034 2216 
z
M 1403 2484 
Q 997 2584 770 2862 
Q 544 3141 544 3541 
Q 544 4100 942 4425 
Q 1341 4750 2034 4750 
Q 2731 4750 3128 4425 
Q 3525 4100 3525 3541 
Q 3525 3141 3298 2862 
Q 3072 2584 2669 2484 
Q 3125 2378 3379 2068 
Q 3634 1759 3634 1313 
Q 3634 634 3220 271 
Q 2806 -91 2034 -91 
Q 1263 -91 848 271 
Q 434 634 434 1313 
Q 434 1759 690 2068 
Q 947 2378 1403 2484 
z
M 1172 3481 
Q 1172 3119 1398 2916 
Q 1625 2713 2034 2713 
Q 2441 2713 2670 2916 
Q 2900 3119 2900 3481 
Q 2900 3844 2670 4047 
Q 2441 4250 2034 4250 
Q 1625 4250 1398 4047 
Q 1172 3844 1172 3481 
z
" transform="scale(0.015625)"/>
       </defs>
       <use xlink:href="#DejaVuSans-32"/>
       <use xlink:href="#DejaVuSans-30" x="63.623047"/>
       <use xlink:href="#DejaVuSans-30" x="127.246094"/>
       <use xlink:href="#DejaVuSans-38" x="190.869141"/>
      </g>
     </g>
    </g>
    <g id="xtick_2">
     <g id="line2d_2">
      <g>
       <use xlink:href="#mb8976ba5f2" x="203.546531" y="273.312" style="stroke: #000000; stroke-width: 0.8"/>
      </g>
     </g>
     <g id="text_2">
      <!-- 2010 -->
      <g transform="translate(180.641531 293.989187) scale(0.18 -0.18)">
       <defs>
        <path id="DejaVuSans-31" d="M 794 531 
L 1825 531 
L 1825 4091 
L 703 3866 
L 703 4441 
L 1819 4666 
L 2450 4666 
L 2450 531 
L 3481 531 
L 3481 0 
L 794 0 
L 794 531 
z
" transform="scale(0.015625)"/>
       </defs>
       <use xlink:href="#DejaVuSans-32"/>
       <use xlink:href="#DejaVuSans-30" x="63.623047"/>
       <use xlink:href="#DejaVuSans-31" x="127.246094"/>
       <use xlink:href="#DejaVuSans-30" x="190.869141"/>
      </g>
     </g>
    </g>
    <g id="xtick_3">
     <g id="line2d_3">
      <g>
       <use xlink:href="#mb8976ba5f2" x="255.238604" y="273.312" style="stroke: #000000; stroke-width: 0.8"/>
      </g>
     </g>
     <g id="text_3">
      <!-- 2012 -->
      <g transform="translate(232.333604 293.989187) scale(0.18 -0.18)">
       <use xlink:href="#DejaVuSans-32"/>
       <use xlink:href="#DejaVuSans-30" x="63.623047"/>
       <use xlink:href="#DejaVuSans-31" x="127.246094"/>
       <use xlink:href="#DejaVuSans-32" x="190.869141"/>
      </g>
     </g>
    </g>
    <g id="xtick_4">
     <g id="line2d_4">
      <g>
       <use xlink:href="#mb8976ba5f2" x="307.001488" y="273.312" style="stroke: #000000; stroke-width: 0.8"/>
      </g>
     </g>
     <g id="text_4">
      <!-- 2014 -->
      <g transform="translate(284.096488 293.989187) scale(0.18 -0.18)">
       <defs>
        <path id="DejaVuSans-34" d="M 2419 4116 
L 825 1625 
L 2419 1625 
L 2419 4116 
z
M 2253 4666 
L 3047 4666 
L 3047 1625 
L 3713 1625 
L 3713 1100 
L 3047 1100 
L 3047 0 
L 2419 0 
L 2419 1100 
L 313 1100 
L 313 1709 
L 2253 4666 
z
" transform="scale(0.015625)"/>
       </defs>
       <use xlink:href="#DejaVuSans-32"/>
       <use xlink:href="#DejaVuSans-30" x="63.623047"/>
       <use xlink:href="#DejaVuSans-31" x="127.246094"/>
       <use xlink:href="#DejaVuSans-34" x="190.869141"/>
      </g>
     </g>
    </g>
    <g id="xtick_5">
     <g id="line2d_5">
      <g>
       <use xlink:href="#mb8976ba5f2" x="358.693561" y="273.312" style="stroke: #000000; stroke-width: 0.8"/>
      </g>
     </g>
     <g id="text_5">
      <!-- 2016 -->
      <g transform="translate(335.788561 293.989187) scale(0.18 -0.18)">
       <defs>
        <path id="DejaVuSans-36" d="M 2113 2584 
Q 1688 2584 1439 2293 
Q 1191 2003 1191 1497 
Q 1191 994 1439 701 
Q 1688 409 2113 409 
Q 2538 409 2786 701 
Q 3034 994 3034 1497 
Q 3034 2003 2786 2293 
Q 2538 2584 2113 2584 
z
M 3366 4563 
L 3366 3988 
Q 3128 4100 2886 4159 
Q 2644 4219 2406 4219 
Q 1781 4219 1451 3797 
Q 1122 3375 1075 2522 
Q 1259 2794 1537 2939 
Q 1816 3084 2150 3084 
Q 2853 3084 3261 2657 
Q 3669 2231 3669 1497 
Q 3669 778 3244 343 
Q 2819 -91 2113 -91 
Q 1303 -91 875 529 
Q 447 1150 447 2328 
Q 447 3434 972 4092 
Q 1497 4750 2381 4750 
Q 2619 4750 2861 4703 
Q 3103 4656 3366 4563 
z
" transform="scale(0.015625)"/>
       </defs>
       <use xlink:href="#DejaVuSans-32"/>
       <use xlink:href="#DejaVuSans-30" x="63.623047"/>
       <use xlink:href="#DejaVuSans-31" x="127.246094"/>
       <use xlink:href="#DejaVuSans-36" x="190.869141"/>
      </g>
     </g>
    </g>
    <g id="xtick_6">
     <g id="line2d_6">
      <g>
       <use xlink:href="#mb8976ba5f2" x="410.456446" y="273.312" style="stroke: #000000; stroke-width: 0.8"/>
      </g>
     </g>
     <g id="text_6">
      <!-- 2018 -->
      <g transform="translate(387.551446 293.989187) scale(0.18 -0.18)">
       <use xlink:href="#DejaVuSans-32"/>
       <use xlink:href="#DejaVuSans-30" x="63.623047"/>
       <use xlink:href="#DejaVuSans-31" x="127.246094"/>
       <use xlink:href="#DejaVuSans-38" x="190.869141"/>
      </g>
     </g>
    </g>
    <g id="xtick_7">
     <g id="line2d_7">
      <g>
       <use xlink:href="#mb8976ba5f2" x="462.148519" y="273.312" style="stroke: #000000; stroke-width: 0.8"/>
      </g>
     </g>
     <g id="text_7">
      <!-- 2020 -->
      <g transform="translate(439.243519 293.989187) scale(0.18 -0.18)">
       <use xlink:href="#DejaVuSans-32"/>
       <use xlink:href="#DejaVuSans-30" x="63.623047"/>
       <use xlink:href="#DejaVuSans-32" x="127.246094"/>
       <use xlink:href="#DejaVuSans-30" x="190.869141"/>
      </g>
     </g>
    </g>
    <g id="xtick_8">
     <g id="line2d_8">
      <g>
       <use xlink:href="#mb8976ba5f2" x="513.911403" y="273.312" style="stroke: #000000; stroke-width: 0.8"/>
      </g>
     </g>
     <g id="text_8">
      <!-- 2022 -->
      <g transform="translate(491.006403 293.989187) scale(0.18 -0.18)">
       <use xlink:href="#DejaVuSans-32"/>
       <use xlink:href="#DejaVuSans-30" x="63.623047"/>
       <use xlink:href="#DejaVuSans-32" x="127.246094"/>
       <use xlink:href="#DejaVuSans-32" x="190.869141"/>
      </g>
     </g>
    </g>
    <g id="xtick_9">
     <g id="line2d_9">
      <g>
       <use xlink:href="#mb8976ba5f2" x="565.603477" y="273.312" style="stroke: #000000; stroke-width: 0.8"/>
      </g>
     </g>
     <g id="text_9">
      <!-- 2024 -->
      <g transform="translate(542.698477 293.989187) scale(0.18 -0.18)">
       <use xlink:href="#DejaVuSans-32"/>
       <use xlink:href="#DejaVuSans-30" x="63.623047"/>
       <use xlink:href="#DejaVuSans-32" x="127.246094"/>
       <use xlink:href="#DejaVuSans-34" x="190.869141"/>
      </g>
     </g>
    </g>
   </g>
   <g id="matplotlib.axis_2">
    <g id="ytick_1">
     <g id="line2d_10">
      <defs>
       <path id="m44c32c96cb" d="M 0 0 
L -3.5 0 
" style="stroke: #000000; stroke-width: 0.8"/>
      </defs>
      <g>
       <use xlink:href="#m44c32c96cb" x="104.335625" y="273.312" style="stroke: #000000; stroke-width: 0.8"/>
      </g>
     </g>
     <g id="text_10">
      <!-- 0 -->
      <g transform="translate(85.883125 280.150594) scale(0.18 -0.18)">
       <use xlink:href="#DejaVuSans-30"/>
      </g>
     </g>
    </g>
    <g id="ytick_2">
     <g id="line2d_11">
      <g>
       <use xlink:href="#m44c32c96cb" x="104.335625" y="232.516369" style="stroke: #000000; stroke-width: 0.8"/>
      </g>
     </g>
     <g id="text_11">
      <!-- 100000 -->
      <g transform="translate(28.620625 239.354963) scale(0.18 -0.18)">
       <use xlink:href="#DejaVuSans-31"/>
       <use xlink:href="#DejaVuSans-30" x="63.623047"/>
       <use xlink:href="#DejaVuSans-30" x="127.246094"/>
       <use xlink:href="#DejaVuSans-30" x="190.869141"/>
       <use xlink:href="#DejaVuSans-30" x="254.492188"/>
       <use xlink:href="#DejaVuSans-30" x="318.115234"/>
      </g>
     </g>
    </g>
    <g id="ytick_3">
     <g id="line2d_12">
      <g>
       <use xlink:href="#m44c32c96cb" x="104.335625" y="191.720739" style="stroke: #000000; stroke-width: 0.8"/>
      </g>
     </g>
     <g id="text_12">
      <!-- 200000 -->
      <g transform="translate(28.620625 198.559332) scale(0.18 -0.18)">
       <use xlink:href="#DejaVuSans-32"/>
       <use xlink:href="#DejaVuSans-30" x="63.623047"/>
       <use xlink:href="#DejaVuSans-30" x="127.246094"/>
       <use xlink:href="#DejaVuSans-30" x="190.869141"/>
       <use xlink:href="#DejaVuSans-30" x="254.492188"/>
       <use xlink:href="#DejaVuSans-30" x="318.115234"/>
      </g>
     </g>
    </g>
    <g id="ytick_4">
     <g id="line2d_13">
      <g>
       <use xlink:href="#m44c32c96cb" x="104.335625" y="150.925108" style="stroke: #000000; stroke-width: 0.8"/>
      </g>
     </g>
     <g id="text_13">
      <!-- 300000 -->
      <g transform="translate(28.620625 157.763702) scale(0.18 -0.18)">
       <defs>
        <path id="DejaVuSans-33" d="M 2597 2516 
Q 3050 2419 3304 2112 
Q 3559 1806 3559 1356 
Q 3559 666 3084 287 
Q 2609 -91 1734 -91 
Q 1441 -91 1130 -33 
Q 819 25 488 141 
L 488 750 
Q 750 597 1062 519 
Q 1375 441 1716 441 
Q 2309 441 2620 675 
Q 2931 909 2931 1356 
Q 2931 1769 2642 2001 
Q 2353 2234 1838 2234 
L 1294 2234 
L 1294 2753 
L 1863 2753 
Q 2328 2753 2575 2939 
Q 2822 3125 2822 3475 
Q 2822 3834 2567 4026 
Q 2313 4219 1838 4219 
Q 1578 4219 1281 4162 
Q 984 4106 628 3988 
L 628 4550 
Q 988 4650 1302 4700 
Q 1616 4750 1894 4750 
Q 2613 4750 3031 4423 
Q 3450 4097 3450 3541 
Q 3450 3153 3228 2886 
Q 3006 2619 2597 2516 
z
" transform="scale(0.015625)"/>
       </defs>
       <use xlink:href="#DejaVuSans-33"/>
       <use xlink:href="#DejaVuSans-30" x="63.623047"/>
       <use xlink:href="#DejaVuSans-30" x="127.246094"/>
       <use xlink:href="#DejaVuSans-30" x="190.869141"/>
       <use xlink:href="#DejaVuSans-30" x="254.492188"/>
       <use xlink:href="#DejaVuSans-30" x="318.115234"/>
      </g>
     </g>
    </g>
    <g id="ytick_5">
     <g id="line2d_14">
      <g>
       <use xlink:href="#m44c32c96cb" x="104.335625" y="110.129477" style="stroke: #000000; stroke-width: 0.8"/>
      </g>
     </g>
     <g id="text_14">
      <!-- 400000 -->
      <g transform="translate(28.620625 116.968071) scale(0.18 -0.18)">
       <use xlink:href="#DejaVuSans-34"/>
       <use xlink:href="#DejaVuSans-30" x="63.623047"/>
       <use xlink:href="#DejaVuSans-30" x="127.246094"/>
       <use xlink:href="#DejaVuSans-30" x="190.869141"/>
       <use xlink:href="#DejaVuSans-30" x="254.492188"/>
       <use xlink:href="#DejaVuSans-30" x="318.115234"/>
      </g>
     </g>
    </g>
    <g id="ytick_6">
     <g id="line2d_15">
      <g>
       <use xlink:href="#m44c32c96cb" x="104.335625" y="69.333847" style="stroke: #000000; stroke-width: 0.8"/>
      </g>
     </g>
     <g id="text_15">
      <!-- 500000 -->
      <g transform="translate(28.620625 76.17244) scale(0.18 -0.18)">
       <defs>
        <path id="DejaVuSans-35" d="M 691 4666 
L 3169 4666 
L 3169 4134 
L 1269 4134 
L 1269 2991 
Q 1406 3038 1543 3061 
Q 1681 3084 1819 3084 
Q 2600 3084 3056 2656 
Q 3513 2228 3513 1497 
Q 3513 744 3044 326 
Q 2575 -91 1722 -91 
Q 1428 -91 1123 -41 
Q 819 9 494 109 
L 494 744 
Q 775 591 1075 516 
Q 1375 441 1709 441 
Q 2250 441 2565 725 
Q 2881 1009 2881 1497 
Q 2881 1984 2565 2268 
Q 2250 2553 1709 2553 
Q 1456 2553 1204 2497 
Q 953 2441 691 2322 
L 691 4666 
z
" transform="scale(0.015625)"/>
       </defs>
       <use xlink:href="#DejaVuSans-35"/>
       <use xlink:href="#DejaVuSans-30" x="63.623047"/>
       <use xlink:href="#DejaVuSans-30" x="127.246094"/>
       <use xlink:href="#DejaVuSans-30" x="190.869141"/>
       <use xlink:href="#DejaVuSans-30" x="254.492188"/>
       <use xlink:href="#DejaVuSans-30" x="318.115234"/>
      </g>
     </g>
    </g>
    <g id="ytick_7">
     <g id="line2d_16">
      <g>
       <use xlink:href="#m44c32c96cb" x="104.335625" y="28.538216" style="stroke: #000000; stroke-width: 0.8"/>
      </g>
     </g>
     <g id="text_16">
      <!-- 600000 -->
      <g transform="translate(28.620625 35.37681) scale(0.18 -0.18)">
       <use xlink:href="#DejaVuSans-36"/>
       <use xlink:href="#DejaVuSans-30" x="63.623047"/>
       <use xlink:href="#DejaVuSans-30" x="127.246094"/>
       <use xlink:href="#DejaVuSans-30" x="190.869141"/>
       <use xlink:href="#DejaVuSans-30" x="254.492188"/>
       <use xlink:href="#DejaVuSans-30" x="318.115234"/>
      </g>
     </g>
    </g>
    <g id="text_17">
     <!-- number of polygons -->
     <g transform="translate(20.877187 230.437406) rotate(-90) scale(0.18 -0.18)">
      <defs>
       <path id="DejaVuSans-6e" d="M 3513 2113 
L 3513 0 
L 2938 0 
L 2938 2094 
Q 2938 2591 2744 2837 
Q 2550 3084 2163 3084 
Q 1697 3084 1428 2787 
Q 1159 2491 1159 1978 
L 1159 0 
L 581 0 
L 581 3500 
L 1159 3500 
L 1159 2956 
Q 1366 3272 1645 3428 
Q 1925 3584 2291 3584 
Q 2894 3584 3203 3211 
Q 3513 2838 3513 2113 
z
" transform="scale(0.015625)"/>
       <path id="DejaVuSans-75" d="M 544 1381 
L 544 3500 
L 1119 3500 
L 1119 1403 
Q 1119 906 1312 657 
Q 1506 409 1894 409 
Q 2359 409 2629 706 
Q 2900 1003 2900 1516 
L 2900 3500 
L 3475 3500 
L 3475 0 
L 2900 0 
L 2900 538 
Q 2691 219 2414 64 
Q 2138 -91 1772 -91 
Q 1169 -91 856 284 
Q 544 659 544 1381 
z
M 1991 3584 
L 1991 3584 
z
" transform="scale(0.015625)"/>
       <path id="DejaVuSans-6d" d="M 3328 2828 
Q 3544 3216 3844 3400 
Q 4144 3584 4550 3584 
Q 5097 3584 5394 3201 
Q 5691 2819 5691 2113 
L 5691 0 
L 5113 0 
L 5113 2094 
Q 5113 2597 4934 2840 
Q 4756 3084 4391 3084 
Q 3944 3084 3684 2787 
Q 3425 2491 3425 1978 
L 3425 0 
L 2847 0 
L 2847 2094 
Q 2847 2600 2669 2842 
Q 2491 3084 2119 3084 
Q 1678 3084 1418 2786 
Q 1159 2488 1159 1978 
L 1159 0 
L 581 0 
L 581 3500 
L 1159 3500 
L 1159 2956 
Q 1356 3278 1631 3431 
Q 1906 3584 2284 3584 
Q 2666 3584 2933 3390 
Q 3200 3197 3328 2828 
z
" transform="scale(0.015625)"/>
       <path id="DejaVuSans-62" d="M 3116 1747 
Q 3116 2381 2855 2742 
Q 2594 3103 2138 3103 
Q 1681 3103 1420 2742 
Q 1159 2381 1159 1747 
Q 1159 1113 1420 752 
Q 1681 391 2138 391 
Q 2594 391 2855 752 
Q 3116 1113 3116 1747 
z
M 1159 2969 
Q 1341 3281 1617 3432 
Q 1894 3584 2278 3584 
Q 2916 3584 3314 3078 
Q 3713 2572 3713 1747 
Q 3713 922 3314 415 
Q 2916 -91 2278 -91 
Q 1894 -91 1617 61 
Q 1341 213 1159 525 
L 1159 0 
L 581 0 
L 581 4863 
L 1159 4863 
L 1159 2969 
z
" transform="scale(0.015625)"/>
       <path id="DejaVuSans-65" d="M 3597 1894 
L 3597 1613 
L 953 1613 
Q 991 1019 1311 708 
Q 1631 397 2203 397 
Q 2534 397 2845 478 
Q 3156 559 3463 722 
L 3463 178 
Q 3153 47 2828 -22 
Q 2503 -91 2169 -91 
Q 1331 -91 842 396 
Q 353 884 353 1716 
Q 353 2575 817 3079 
Q 1281 3584 2069 3584 
Q 2775 3584 3186 3129 
Q 3597 2675 3597 1894 
z
M 3022 2063 
Q 3016 2534 2758 2815 
Q 2500 3097 2075 3097 
Q 1594 3097 1305 2825 
Q 1016 2553 972 2059 
L 3022 2063 
z
" transform="scale(0.015625)"/>
       <path id="DejaVuSans-72" d="M 2631 2963 
Q 2534 3019 2420 3045 
Q 2306 3072 2169 3072 
Q 1681 3072 1420 2755 
Q 1159 2438 1159 1844 
L 1159 0 
L 581 0 
L 581 3500 
L 1159 3500 
L 1159 2956 
Q 1341 3275 1631 3429 
Q 1922 3584 2338 3584 
Q 2397 3584 2469 3576 
Q 2541 3569 2628 3553 
L 2631 2963 
z
" transform="scale(0.015625)"/>
       <path id="DejaVuSans-20" transform="scale(0.015625)"/>
       <path id="DejaVuSans-6f" d="M 1959 3097 
Q 1497 3097 1228 2736 
Q 959 2375 959 1747 
Q 959 1119 1226 758 
Q 1494 397 1959 397 
Q 2419 397 2687 759 
Q 2956 1122 2956 1747 
Q 2956 2369 2687 2733 
Q 2419 3097 1959 3097 
z
M 1959 3584 
Q 2709 3584 3137 3096 
Q 3566 2609 3566 1747 
Q 3566 888 3137 398 
Q 2709 -91 1959 -91 
Q 1206 -91 779 398 
Q 353 888 353 1747 
Q 353 2609 779 3096 
Q 1206 3584 1959 3584 
z
" transform="scale(0.015625)"/>
       <path id="DejaVuSans-66" d="M 2375 4863 
L 2375 4384 
L 1825 4384 
Q 1516 4384 1395 4259 
Q 1275 4134 1275 3809 
L 1275 3500 
L 2222 3500 
L 2222 3053 
L 1275 3053 
L 1275 0 
L 697 0 
L 697 3053 
L 147 3053 
L 147 3500 
L 697 3500 
L 697 3744 
Q 697 4328 969 4595 
Q 1241 4863 1831 4863 
L 2375 4863 
z
" transform="scale(0.015625)"/>
       <path id="DejaVuSans-70" d="M 1159 525 
L 1159 -1331 
L 581 -1331 
L 581 3500 
L 1159 3500 
L 1159 2969 
Q 1341 3281 1617 3432 
Q 1894 3584 2278 3584 
Q 2916 3584 3314 3078 
Q 3713 2572 3713 1747 
Q 3713 922 3314 415 
Q 2916 -91 2278 -91 
Q 1894 -91 1617 61 
Q 1341 213 1159 525 
z
M 3116 1747 
Q 3116 2381 2855 2742 
Q 2594 3103 2138 3103 
Q 1681 3103 1420 2742 
Q 1159 2381 1159 1747 
Q 1159 1113 1420 752 
Q 1681 391 2138 391 
Q 2594 391 2855 752 
Q 3116 1113 3116 1747 
z
" transform="scale(0.015625)"/>
       <path id="DejaVuSans-6c" d="M 603 4863 
L 1178 4863 
L 1178 0 
L 603 0 
L 603 4863 
z
" transform="scale(0.015625)"/>
       <path id="DejaVuSans-79" d="M 2059 -325 
Q 1816 -950 1584 -1140 
Q 1353 -1331 966 -1331 
L 506 -1331 
L 506 -850 
L 844 -850 
Q 1081 -850 1212 -737 
Q 1344 -625 1503 -206 
L 1606 56 
L 191 3500 
L 800 3500 
L 1894 763 
L 2988 3500 
L 3597 3500 
L 2059 -325 
z
" transform="scale(0.015625)"/>
       <path id="DejaVuSans-67" d="M 2906 1791 
Q 2906 2416 2648 2759 
Q 2391 3103 1925 3103 
Q 1463 3103 1205 2759 
Q 947 2416 947 1791 
Q 947 1169 1205 825 
Q 1463 481 1925 481 
Q 2391 481 2648 825 
Q 2906 1169 2906 1791 
z
M 3481 434 
Q 3481 -459 3084 -895 
Q 2688 -1331 1869 -1331 
Q 1566 -1331 1297 -1286 
Q 1028 -1241 775 -1147 
L 775 -588 
Q 1028 -725 1275 -790 
Q 1522 -856 1778 -856 
Q 2344 -856 2625 -561 
Q 2906 -266 2906 331 
L 2906 616 
Q 2728 306 2450 153 
Q 2172 0 1784 0 
Q 1141 0 747 490 
Q 353 981 353 1791 
Q 353 2603 747 3093 
Q 1141 3584 1784 3584 
Q 2172 3584 2450 3431 
Q 2728 3278 2906 2969 
L 2906 3500 
L 3481 3500 
L 3481 434 
z
" transform="scale(0.015625)"/>
       <path id="DejaVuSans-73" d="M 2834 3397 
L 2834 2853 
Q 2591 2978 2328 3040 
Q 2066 3103 1784 3103 
Q 1356 3103 1142 2972 
Q 928 2841 928 2578 
Q 928 2378 1081 2264 
Q 1234 2150 1697 2047 
L 1894 2003 
Q 2506 1872 2764 1633 
Q 3022 1394 3022 966 
Q 3022 478 2636 193 
Q 2250 -91 1575 -91 
Q 1294 -91 989 -36 
Q 684 19 347 128 
L 347 722 
Q 666 556 975 473 
Q 1284 391 1588 391 
Q 1994 391 2212 530 
Q 2431 669 2431 922 
Q 2431 1156 2273 1281 
Q 2116 1406 1581 1522 
L 1381 1569 
Q 847 1681 609 1914 
Q 372 2147 372 2553 
Q 372 3047 722 3315 
Q 1072 3584 1716 3584 
Q 2034 3584 2315 3537 
Q 2597 3491 2834 3397 
z
" transform="scale(0.015625)"/>
      </defs>
      <use xlink:href="#DejaVuSans-6e"/>
      <use xlink:href="#DejaVuSans-75" x="63.378906"/>
      <use xlink:href="#DejaVuSans-6d" x="126.757812"/>
      <use xlink:href="#DejaVuSans-62" x="224.169922"/>
      <use xlink:href="#DejaVuSans-65" x="287.646484"/>
      <use xlink:href="#DejaVuSans-72" x="349.169922"/>
      <use xlink:href="#DejaVuSans-20" x="390.283203"/>
      <use xlink:href="#DejaVuSans-6f" x="422.070312"/>
      <use xlink:href="#DejaVuSans-66" x="483.251953"/>
      <use xlink:href="#DejaVuSans-20" x="518.457031"/>
      <use xlink:href="#DejaVuSans-70" x="550.244141"/>
      <use xlink:href="#DejaVuSans-6f" x="613.720703"/>
      <use xlink:href="#DejaVuSans-6c" x="674.902344"/>
      <use xlink:href="#DejaVuSans-79" x="702.685547"/>
      <use xlink:href="#DejaVuSans-67" x="761.865234"/>
      <use xlink:href="#DejaVuSans-6f" x="825.341797"/>
      <use xlink:href="#DejaVuSans-6e" x="886.523438"/>
      <use xlink:href="#DejaVuSans-73" x="949.902344"/>
     </g>
    </g>
   </g>
   <g id="patch_123">
    <path d="M 104.335625 273.312 
L 104.335625 7.2 
" style="fill: none; stroke: #000000; stroke-width: 0.8; stroke-linejoin: miter; stroke-linecap: square"/>
   </g>
   <g id="patch_124">
    <path d="M 578.635625 273.312 
L 578.635625 7.2 
" style="fill: none; stroke: #000000; stroke-width: 0.8; stroke-linejoin: miter; stroke-linecap: square"/>
   </g>
   <g id="patch_125">
    <path d="M 104.335625 273.312 
L 578.635625 273.312 
" style="fill: none; stroke: #000000; stroke-width: 0.8; stroke-linejoin: miter; stroke-linecap: square"/>
   </g>
   <g id="patch_126">
    <path d="M 104.335625 7.2 
L 578.635625 7.2 
" style="fill: none; stroke: #000000; stroke-width: 0.8; stroke-linejoin: miter; stroke-linecap: square"/>
   </g>
  </g>
 </g>
 <defs>
  <clipPath id="p73d64121a9">
   <rect x="104.335625" y="7.2" width="474.3" height="266.112"/>
  </clipPath>
 </defs>
</svg>
