<?xml version="1.0" encoding="utf-8" standalone="no"?>
<!DOCTYPE svg PUBLIC "-//W3C//DTD SVG 1.1//EN"
  "http://www.w3.org/Graphics/SVG/1.1/DTD/svg11.dtd">
<svg xmlns:xlink="http://www.w3.org/1999/xlink" width="612pt" height="345.6pt" viewBox="0 0 612 345.6" xmlns="http://www.w3.org/2000/svg" version="1.1">
 <metadata>
  <rdf:RDF xmlns:dc="http://purl.org/dc/elements/1.1/" xmlns:cc="http://creativecommons.org/ns#" xmlns:rdf="http://www.w3.org/1999/02/22-rdf-syntax-ns#">
   <cc:Work>
    <dc:type rdf:resource="http://purl.org/dc/dcmitype/StillImage"/>
    <dc:date>2024-03-21T16:21:15.399664</dc:date>
    <dc:format>image/svg+xml</dc:format>
    <dc:creator>
     <cc:Agent>
      <dc:title>Matplotlib v3.5.1, https://matplotlib.org/</dc:title>
     </cc:Agent>
    </dc:creator>
   </cc:Work>
  </rdf:RDF>
 </metadata>
 <defs>
  <style type="text/css">*{stroke-linejoin: round; stroke-linecap: butt}</style>
 </defs>
 <g id="figure_1">
  <g id="patch_1">
   <path d="M 0 345.6 
L 612 345.6 
L 612 0 
L 0 0 
z
" style="fill: #ffffff"/>
  </g>
  <g id="axes_1">
   <g id="patch_2">
    <path d="M 76.5 302.4 
L 550.8 302.4 
L 550.8 41.472 
L 76.5 41.472 
z
" style="fill: #ffffff"/>
   </g>
   <g id="patch_3">
    <path d="M 76.5 302.4 
L 80.4525 302.4 
L 80.4525 302.393253 
L 76.5 302.393253 
z
" clip-path="url(#p04fd06f823)" style="fill: #1f77b4"/>
   </g>
   <g id="patch_4">
    <path d="M 80.4525 302.4 
L 84.405 302.4 
L 84.405 302.4 
L 80.4525 302.4 
z
" clip-path="url(#p04fd06f823)" style="fill: #1f77b4"/>
   </g>
   <g id="patch_5">
    <path d="M 84.405 302.4 
L 88.3575 302.4 
L 88.3575 302.395502 
L 84.405 302.395502 
z
" clip-path="url(#p04fd06f823)" style="fill: #1f77b4"/>
   </g>
   <g id="patch_6">
    <path d="M 88.3575 302.4 
L 92.31 302.4 
L 92.31 302.316791 
L 88.3575 302.316791 
z
" clip-path="url(#p04fd06f823)" style="fill: #1f77b4"/>
   </g>
   <g id="patch_7">
    <path d="M 92.31 302.4 
L 96.2625 302.4 
L 96.2625 302.334782 
L 92.31 302.334782 
z
" clip-path="url(#p04fd06f823)" style="fill: #1f77b4"/>
   </g>
   <g id="patch_8">
    <path d="M 96.2625 302.4 
L 100.215 302.4 
L 100.215 302.276311 
L 96.2625 302.276311 
z
" clip-path="url(#p04fd06f823)" style="fill: #1f77b4"/>
   </g>
   <g id="patch_9">
    <path d="M 100.215 302.4 
L 104.1675 302.4 
L 104.1675 302.008692 
L 100.215 302.008692 
z
" clip-path="url(#p04fd06f823)" style="fill: #1f77b4"/>
   </g>
   <g id="patch_10">
    <path d="M 104.1675 302.4 
L 108.12 302.4 
L 108.12 301.797296 
L 104.1675 301.797296 
z
" clip-path="url(#p04fd06f823)" style="fill: #1f77b4"/>
   </g>
   <g id="patch_11">
    <path d="M 108.12 302.4 
L 112.0725 302.4 
L 112.0725 301.675856 
L 108.12 301.675856 
z
" clip-path="url(#p04fd06f823)" style="fill: #1f77b4"/>
   </g>
   <g id="patch_12">
    <path d="M 112.0725 302.4 
L 116.025 302.4 
L 116.025 301.17885 
L 112.0725 301.17885 
z
" clip-path="url(#p04fd06f823)" style="fill: #1f77b4"/>
   </g>
   <g id="patch_13">
    <path d="M 116.025 302.4 
L 119.9775 302.4 
L 119.9775 298.902969 
L 116.025 298.902969 
z
" clip-path="url(#p04fd06f823)" style="fill: #1f77b4"/>
   </g>
   <g id="patch_14">
    <path d="M 119.9775 302.4 
L 123.93 302.4 
L 123.93 297.09036 
L 119.9775 297.09036 
z
" clip-path="url(#p04fd06f823)" style="fill: #1f77b4"/>
   </g>
   <g id="patch_15">
    <path d="M 123.93 302.4 
L 127.8825 302.4 
L 127.8825 298.516159 
L 123.93 298.516159 
z
" clip-path="url(#p04fd06f823)" style="fill: #1f77b4"/>
   </g>
   <g id="patch_16">
    <path d="M 127.8825 302.4 
L 131.835 302.4 
L 131.835 297.038635 
L 127.8825 297.038635 
z
" clip-path="url(#p04fd06f823)" style="fill: #1f77b4"/>
   </g>
   <g id="patch_17">
    <path d="M 131.835 302.4 
L 135.7875 302.4 
L 135.7875 294.097081 
L 131.835 294.097081 
z
" clip-path="url(#p04fd06f823)" style="fill: #1f77b4"/>
   </g>
   <g id="patch_18">
    <path d="M 135.7875 302.4 
L 139.74 302.4 
L 139.74 281.201919 
L 135.7875 281.201919 
z
" clip-path="url(#p04fd06f823)" style="fill: #1f77b4"/>
   </g>
   <g id="patch_19">
    <path d="M 139.74 302.4 
L 143.6925 302.4 
L 143.6925 284.017535 
L 139.74 284.017535 
z
" clip-path="url(#p04fd06f823)" style="fill: #1f77b4"/>
   </g>
   <g id="patch_20">
    <path d="M 143.6925 302.4 
L 147.645 302.4 
L 147.645 288.74921 
L 143.6925 288.74921 
z
" clip-path="url(#p04fd06f823)" style="fill: #1f77b4"/>
   </g>
   <g id="patch_21">
    <path d="M 147.645 302.4 
L 151.5975 302.4 
L 151.5975 290.921642 
L 147.645 290.921642 
z
" clip-path="url(#p04fd06f823)" style="fill: #1f77b4"/>
   </g>
   <g id="patch_22">
    <path d="M 151.5975 302.4 
L 155.55 302.4 
L 155.55 287.926114 
L 151.5975 287.926114 
z
" clip-path="url(#p04fd06f823)" style="fill: #1f77b4"/>
   </g>
   <g id="patch_23">
    <path d="M 155.55 302.4 
L 159.5025 302.4 
L 159.5025 286.801667 
L 155.55 286.801667 
z
" clip-path="url(#p04fd06f823)" style="fill: #1f77b4"/>
   </g>
   <g id="patch_24">
    <path d="M 159.5025 302.4 
L 163.455 302.4 
L 163.455 284.750675 
L 159.5025 284.750675 
z
" clip-path="url(#p04fd06f823)" style="fill: #1f77b4"/>
   </g>
   <g id="patch_25">
    <path d="M 163.455 302.4 
L 167.4075 302.4 
L 167.4075 280.374326 
L 163.455 280.374326 
z
" clip-path="url(#p04fd06f823)" style="fill: #1f77b4"/>
   </g>
   <g id="patch_26">
    <path d="M 167.4075 302.4 
L 171.36 302.4 
L 171.36 283.590245 
L 167.4075 283.590245 
z
" clip-path="url(#p04fd06f823)" style="fill: #1f77b4"/>
   </g>
   <g id="patch_27">
    <path d="M 171.36 302.4 
L 175.3125 302.4 
L 175.3125 265.873453 
L 171.36 265.873453 
z
" clip-path="url(#p04fd06f823)" style="fill: #1f77b4"/>
   </g>
   <g id="patch_28">
    <path d="M 175.3125 302.4 
L 179.265 302.4 
L 179.265 282.88859 
L 175.3125 282.88859 
z
" clip-path="url(#p04fd06f823)" style="fill: #1f77b4"/>
   </g>
   <g id="patch_29">
    <path d="M 179.265 302.4 
L 183.2175 302.4 
L 183.2175 281.930561 
L 179.265 281.930561 
z
" clip-path="url(#p04fd06f823)" style="fill: #1f77b4"/>
   </g>
   <g id="patch_30">
    <path d="M 183.2175 302.4 
L 187.17 302.4 
L 187.17 275.635905 
L 183.2175 275.635905 
z
" clip-path="url(#p04fd06f823)" style="fill: #1f77b4"/>
   </g>
   <g id="patch_31">
    <path d="M 187.17 302.4 
L 191.1225 302.4 
L 191.1225 219.901549 
L 187.17 219.901549 
z
" clip-path="url(#p04fd06f823)" style="fill: #1f77b4"/>
   </g>
   <g id="patch_32">
    <path d="M 191.1225 302.4 
L 195.075 302.4 
L 195.075 134.297375 
L 191.1225 134.297375 
z
" clip-path="url(#p04fd06f823)" style="fill: #1f77b4"/>
   </g>
   <g id="patch_33">
    <path d="M 195.075 302.4 
L 199.0275 302.4 
L 199.0275 182.248306 
L 195.075 182.248306 
z
" clip-path="url(#p04fd06f823)" style="fill: #1f77b4"/>
   </g>
   <g id="patch_34">
    <path d="M 199.0275 302.4 
L 202.98 302.4 
L 202.98 201.195244 
L 199.0275 201.195244 
z
" clip-path="url(#p04fd06f823)" style="fill: #1f77b4"/>
   </g>
   <g id="patch_35">
    <path d="M 202.98 302.4 
L 206.9325 302.4 
L 206.9325 201.968863 
L 202.98 201.968863 
z
" clip-path="url(#p04fd06f823)" style="fill: #1f77b4"/>
   </g>
   <g id="patch_36">
    <path d="M 206.9325 302.4 
L 210.885 302.4 
L 210.885 199.715471 
L 206.9325 199.715471 
z
" clip-path="url(#p04fd06f823)" style="fill: #1f77b4"/>
   </g>
   <g id="patch_37">
    <path d="M 210.885 302.4 
L 214.8375 302.4 
L 214.8375 216.68563 
L 210.885 216.68563 
z
" clip-path="url(#p04fd06f823)" style="fill: #1f77b4"/>
   </g>
   <g id="patch_38">
    <path d="M 214.8375 302.4 
L 218.79 302.4 
L 218.79 216.337051 
L 214.8375 216.337051 
z
" clip-path="url(#p04fd06f823)" style="fill: #1f77b4"/>
   </g>
   <g id="patch_39">
    <path d="M 218.79 302.4 
L 222.7425 302.4 
L 222.7425 201.728232 
L 218.79 201.728232 
z
" clip-path="url(#p04fd06f823)" style="fill: #1f77b4"/>
   </g>
   <g id="patch_40">
    <path d="M 222.7425 302.4 
L 226.695 302.4 
L 226.695 209.387967 
L 222.7425 209.387967 
z
" clip-path="url(#p04fd06f823)" style="fill: #1f77b4"/>
   </g>
   <g id="patch_41">
    <path d="M 226.695 302.4 
L 230.6475 302.4 
L 230.6475 200.282192 
L 226.695 200.282192 
z
" clip-path="url(#p04fd06f823)" style="fill: #1f77b4"/>
   </g>
   <g id="patch_42">
    <path d="M 230.6475 302.4 
L 234.6 302.4 
L 234.6 206.477897 
L 230.6475 206.477897 
z
" clip-path="url(#p04fd06f823)" style="fill: #1f77b4"/>
   </g>
   <g id="patch_43">
    <path d="M 234.6 302.4 
L 238.5525 302.4 
L 238.5525 197.995067 
L 234.6 197.995067 
z
" clip-path="url(#p04fd06f823)" style="fill: #1f77b4"/>
   </g>
   <g id="patch_44">
    <path d="M 238.5525 302.4 
L 242.505 302.4 
L 242.505 185.916253 
L 238.5525 185.916253 
z
" clip-path="url(#p04fd06f823)" style="fill: #1f77b4"/>
   </g>
   <g id="patch_45">
    <path d="M 242.505 302.4 
L 246.4575 302.4 
L 246.4575 88.152306 
L 242.505 88.152306 
z
" clip-path="url(#p04fd06f823)" style="fill: #1f77b4"/>
   </g>
   <g id="patch_46">
    <path d="M 246.4575 302.4 
L 250.41 302.4 
L 250.41 88.5706 
L 246.4575 88.5706 
z
" clip-path="url(#p04fd06f823)" style="fill: #1f77b4"/>
   </g>
   <g id="patch_47">
    <path d="M 250.41 302.4 
L 254.3625 302.4 
L 254.3625 123.792788 
L 250.41 123.792788 
z
" clip-path="url(#p04fd06f823)" style="fill: #1f77b4"/>
   </g>
   <g id="patch_48">
    <path d="M 254.3625 302.4 
L 258.315 302.4 
L 258.315 157.024704 
L 254.3625 157.024704 
z
" clip-path="url(#p04fd06f823)" style="fill: #1f77b4"/>
   </g>
   <g id="patch_49">
    <path d="M 258.315 302.4 
L 262.2675 302.4 
L 262.2675 160.215886 
L 258.315 160.215886 
z
" clip-path="url(#p04fd06f823)" style="fill: #1f77b4"/>
   </g>
   <g id="patch_50">
    <path d="M 262.2675 302.4 
L 266.22 302.4 
L 266.22 140.405373 
L 262.2675 140.405373 
z
" clip-path="url(#p04fd06f823)" style="fill: #1f77b4"/>
   </g>
   <g id="patch_51">
    <path d="M 266.22 302.4 
L 270.1725 302.4 
L 270.1725 141.023819 
L 266.22 141.023819 
z
" clip-path="url(#p04fd06f823)" style="fill: #1f77b4"/>
   </g>
   <g id="patch_52">
    <path d="M 270.1725 302.4 
L 274.125 302.4 
L 274.125 139.802669 
L 270.1725 139.802669 
z
" clip-path="url(#p04fd06f823)" style="fill: #1f77b4"/>
   </g>
   <g id="patch_53">
    <path d="M 274.125 302.4 
L 278.0775 302.4 
L 278.0775 124.476452 
L 274.125 124.476452 
z
" clip-path="url(#p04fd06f823)" style="fill: #1f77b4"/>
   </g>
   <g id="patch_54">
    <path d="M 278.0775 302.4 
L 282.03 302.4 
L 282.03 142.980357 
L 278.0775 142.980357 
z
" clip-path="url(#p04fd06f823)" style="fill: #1f77b4"/>
   </g>
   <g id="patch_55">
    <path d="M 282.03 302.4 
L 285.9825 302.4 
L 285.9825 144.122796 
L 282.03 144.122796 
z
" clip-path="url(#p04fd06f823)" style="fill: #1f77b4"/>
   </g>
   <g id="patch_56">
    <path d="M 285.9825 302.4 
L 289.935 302.4 
L 289.935 162.941546 
L 285.9825 162.941546 
z
" clip-path="url(#p04fd06f823)" style="fill: #1f77b4"/>
   </g>
   <g id="patch_57">
    <path d="M 289.935 302.4 
L 293.8875 302.4 
L 293.8875 136.544021 
L 289.935 136.544021 
z
" clip-path="url(#p04fd06f823)" style="fill: #1f77b4"/>
   </g>
   <g id="patch_58">
    <path d="M 293.8875 302.4 
L 297.84 302.4 
L 297.84 123.882744 
L 293.8875 123.882744 
z
" clip-path="url(#p04fd06f823)" style="fill: #1f77b4"/>
   </g>
   <g id="patch_59">
    <path d="M 297.84 302.4 
L 301.7925 302.4 
L 301.7925 106.705687 
L 297.84 106.705687 
z
" clip-path="url(#p04fd06f823)" style="fill: #1f77b4"/>
   </g>
   <g id="patch_60">
    <path d="M 301.7925 302.4 
L 305.745 302.4 
L 305.745 121.130097 
L 301.7925 121.130097 
z
" clip-path="url(#p04fd06f823)" style="fill: #1f77b4"/>
   </g>
   <g id="patch_61">
    <path d="M 305.745 302.4 
L 309.6975 302.4 
L 309.6975 131.488506 
L 305.745 131.488506 
z
" clip-path="url(#p04fd06f823)" style="fill: #1f77b4"/>
   </g>
   <g id="patch_62">
    <path d="M 309.6975 302.4 
L 313.65 302.4 
L 313.65 125.155618 
L 309.6975 125.155618 
z
" clip-path="url(#p04fd06f823)" style="fill: #1f77b4"/>
   </g>
   <g id="patch_63">
    <path d="M 313.65 302.4 
L 317.6025 302.4 
L 317.6025 117.113571 
L 313.65 117.113571 
z
" clip-path="url(#p04fd06f823)" style="fill: #1f77b4"/>
   </g>
   <g id="patch_64">
    <path d="M 317.6025 302.4 
L 321.555 302.4 
L 321.555 147.095834 
L 317.6025 147.095834 
z
" clip-path="url(#p04fd06f823)" style="fill: #1f77b4"/>
   </g>
   <g id="patch_65">
    <path d="M 321.555 302.4 
L 325.5075 302.4 
L 325.5075 105.153949 
L 321.555 105.153949 
z
" clip-path="url(#p04fd06f823)" style="fill: #1f77b4"/>
   </g>
   <g id="patch_66">
    <path d="M 325.5075 302.4 
L 329.46 302.4 
L 329.46 111.558801 
L 325.5075 111.558801 
z
" clip-path="url(#p04fd06f823)" style="fill: #1f77b4"/>
   </g>
   <g id="patch_67">
    <path d="M 329.46 302.4 
L 333.4125 302.4 
L 333.4125 109.476325 
L 329.46 109.476325 
z
" clip-path="url(#p04fd06f823)" style="fill: #1f77b4"/>
   </g>
   <g id="patch_68">
    <path d="M 333.4125 302.4 
L 337.365 302.4 
L 337.365 141.658007 
L 333.4125 141.658007 
z
" clip-path="url(#p04fd06f823)" style="fill: #1f77b4"/>
   </g>
   <g id="patch_69">
    <path d="M 337.365 302.4 
L 341.3175 302.4 
L 341.3175 178.33523 
L 337.365 178.33523 
z
" clip-path="url(#p04fd06f823)" style="fill: #1f77b4"/>
   </g>
   <g id="patch_70">
    <path d="M 341.3175 302.4 
L 345.27 302.4 
L 345.27 190.029482 
L 341.3175 190.029482 
z
" clip-path="url(#p04fd06f823)" style="fill: #1f77b4"/>
   </g>
   <g id="patch_71">
    <path d="M 345.27 302.4 
L 349.2225 302.4 
L 349.2225 181.841256 
L 345.27 181.841256 
z
" clip-path="url(#p04fd06f823)" style="fill: #1f77b4"/>
   </g>
   <g id="patch_72">
    <path d="M 349.2225 302.4 
L 353.175 302.4 
L 353.175 154.119132 
L 349.2225 154.119132 
z
" clip-path="url(#p04fd06f823)" style="fill: #1f77b4"/>
   </g>
   <g id="patch_73">
    <path d="M 353.175 302.4 
L 357.1275 302.4 
L 357.1275 127.276326 
L 353.175 127.276326 
z
" clip-path="url(#p04fd06f823)" style="fill: #1f77b4"/>
   </g>
   <g id="patch_74">
    <path d="M 357.1275 302.4 
L 361.08 302.4 
L 361.08 130.919535 
L 357.1275 130.919535 
z
" clip-path="url(#p04fd06f823)" style="fill: #1f77b4"/>
   </g>
   <g id="patch_75">
    <path d="M 361.08 302.4 
L 365.0325 302.4 
L 365.0325 144.671526 
L 361.08 144.671526 
z
" clip-path="url(#p04fd06f823)" style="fill: #1f77b4"/>
   </g>
   <g id="patch_76">
    <path d="M 365.0325 302.4 
L 368.985 302.4 
L 368.985 165.057756 
L 365.0325 165.057756 
z
" clip-path="url(#p04fd06f823)" style="fill: #1f77b4"/>
   </g>
   <g id="patch_77">
    <path d="M 368.985 302.4 
L 372.9375 302.4 
L 372.9375 173.218994 
L 368.985 173.218994 
z
" clip-path="url(#p04fd06f823)" style="fill: #1f77b4"/>
   </g>
   <g id="patch_78">
    <path d="M 372.9375 302.4 
L 376.89 302.4 
L 376.89 148.114584 
L 372.9375 148.114584 
z
" clip-path="url(#p04fd06f823)" style="fill: #1f77b4"/>
   </g>
   <g id="patch_79">
    <path d="M 376.89 302.4 
L 380.8425 302.4 
L 380.8425 167.194206 
L 376.89 167.194206 
z
" clip-path="url(#p04fd06f823)" style="fill: #1f77b4"/>
   </g>
   <g id="patch_80">
    <path d="M 380.8425 302.4 
L 384.795 302.4 
L 384.795 156.858286 
L 380.8425 156.858286 
z
" clip-path="url(#p04fd06f823)" style="fill: #1f77b4"/>
   </g>
   <g id="patch_81">
    <path d="M 384.795 302.4 
L 388.7475 302.4 
L 388.7475 164.556252 
L 384.795 164.556252 
z
" clip-path="url(#p04fd06f823)" style="fill: #1f77b4"/>
   </g>
   <g id="patch_82">
    <path d="M 388.7475 302.4 
L 392.7 302.4 
L 392.7 170.450605 
L 388.7475 170.450605 
z
" clip-path="url(#p04fd06f823)" style="fill: #1f77b4"/>
   </g>
   <g id="patch_83">
    <path d="M 392.7 302.4 
L 396.6525 302.4 
L 396.6525 167.538287 
L 392.7 167.538287 
z
" clip-path="url(#p04fd06f823)" style="fill: #1f77b4"/>
   </g>
   <g id="patch_84">
    <path d="M 396.6525 302.4 
L 400.605 302.4 
L 400.605 145.501368 
L 396.6525 145.501368 
z
" clip-path="url(#p04fd06f823)" style="fill: #1f77b4"/>
   </g>
   <g id="patch_85">
    <path d="M 400.605 302.4 
L 404.5575 302.4 
L 404.5575 147.293737 
L 400.605 147.293737 
z
" clip-path="url(#p04fd06f823)" style="fill: #1f77b4"/>
   </g>
   <g id="patch_86">
    <path d="M 404.5575 302.4 
L 408.51 302.4 
L 408.51 132.016996 
L 404.5575 132.016996 
z
" clip-path="url(#p04fd06f823)" style="fill: #1f77b4"/>
   </g>
   <g id="patch_87">
    <path d="M 408.51 302.4 
L 412.4625 302.4 
L 412.4625 90.358472 
L 408.51 90.358472 
z
" clip-path="url(#p04fd06f823)" style="fill: #1f77b4"/>
   </g>
   <g id="patch_88">
    <path d="M 412.4625 302.4 
L 416.415 302.4 
L 416.415 138.370123 
L 412.4625 138.370123 
z
" clip-path="url(#p04fd06f823)" style="fill: #1f77b4"/>
   </g>
   <g id="patch_89">
    <path d="M 416.415 302.4 
L 420.3675 302.4 
L 420.3675 148.670061 
L 416.415 148.670061 
z
" clip-path="url(#p04fd06f823)" style="fill: #1f77b4"/>
   </g>
   <g id="patch_90">
    <path d="M 420.3675 302.4 
L 424.32 302.4 
L 424.32 172.197996 
L 420.3675 172.197996 
z
" clip-path="url(#p04fd06f823)" style="fill: #1f77b4"/>
   </g>
   <g id="patch_91">
    <path d="M 424.32 302.4 
L 428.2725 302.4 
L 428.2725 177.145564 
L 424.32 177.145564 
z
" clip-path="url(#p04fd06f823)" style="fill: #1f77b4"/>
   </g>
   <g id="patch_92">
    <path d="M 428.2725 302.4 
L 432.225 302.4 
L 432.225 166.206941 
L 428.2725 166.206941 
z
" clip-path="url(#p04fd06f823)" style="fill: #1f77b4"/>
   </g>
   <g id="patch_93">
    <path d="M 432.225 302.4 
L 436.1775 302.4 
L 436.1775 171.943871 
L 432.225 171.943871 
z
" clip-path="url(#p04fd06f823)" style="fill: #1f77b4"/>
   </g>
   <g id="patch_94">
    <path d="M 436.1775 302.4 
L 440.13 302.4 
L 440.13 142.321431 
L 436.1775 142.321431 
z
" clip-path="url(#p04fd06f823)" style="fill: #1f77b4"/>
   </g>
   <g id="patch_95">
    <path d="M 440.13 302.4 
L 444.0825 302.4 
L 444.0825 111.273192 
L 440.13 111.273192 
z
" clip-path="url(#p04fd06f823)" style="fill: #1f77b4"/>
   </g>
   <g id="patch_96">
    <path d="M 444.0825 302.4 
L 448.035 302.4 
L 448.035 102.198902 
L 444.0825 102.198902 
z
" clip-path="url(#p04fd06f823)" style="fill: #1f77b4"/>
   </g>
   <g id="patch_97">
    <path d="M 448.035 302.4 
L 451.9875 302.4 
L 451.9875 133.053736 
L 448.035 133.053736 
z
" clip-path="url(#p04fd06f823)" style="fill: #1f77b4"/>
   </g>
   <g id="patch_98">
    <path d="M 451.9875 302.4 
L 455.94 302.4 
L 455.94 163.391325 
L 451.9875 163.391325 
z
" clip-path="url(#p04fd06f823)" style="fill: #1f77b4"/>
   </g>
   <g id="patch_99">
    <path d="M 455.94 302.4 
L 459.8925 302.4 
L 459.8925 136.640723 
L 455.94 136.640723 
z
" clip-path="url(#p04fd06f823)" style="fill: #1f77b4"/>
   </g>
   <g id="patch_100">
    <path d="M 459.8925 302.4 
L 463.845 302.4 
L 463.845 73.694162 
L 459.8925 73.694162 
z
" clip-path="url(#p04fd06f823)" style="fill: #1f77b4"/>
   </g>
   <g id="patch_101">
    <path d="M 463.845 302.4 
L 467.7975 302.4 
L 467.7975 53.897143 
L 463.845 53.897143 
z
" clip-path="url(#p04fd06f823)" style="fill: #1f77b4"/>
   </g>
   <g id="patch_102">
    <path d="M 467.7975 302.4 
L 471.75 302.4 
L 471.75 66.17161 
L 467.7975 66.17161 
z
" clip-path="url(#p04fd06f823)" style="fill: #1f77b4"/>
   </g>
   <g id="patch_103">
    <path d="M 471.75 302.4 
L 475.7025 302.4 
L 475.7025 106.867607 
L 471.75 106.867607 
z
" clip-path="url(#p04fd06f823)" style="fill: #1f77b4"/>
   </g>
   <g id="patch_104">
    <path d="M 475.7025 302.4 
L 479.655 302.4 
L 479.655 163.771388 
L 475.7025 163.771388 
z
" clip-path="url(#p04fd06f823)" style="fill: #1f77b4"/>
   </g>
   <g id="patch_105">
    <path d="M 479.655 302.4 
L 483.6075 302.4 
L 483.6075 165.296139 
L 479.655 165.296139 
z
" clip-path="url(#p04fd06f823)" style="fill: #1f77b4"/>
   </g>
   <g id="patch_106">
    <path d="M 483.6075 302.4 
L 487.56 302.4 
L 487.56 85.213001 
L 483.6075 85.213001 
z
" clip-path="url(#p04fd06f823)" style="fill: #1f77b4"/>
   </g>
   <g id="patch_107">
    <path d="M 487.56 302.4 
L 491.5125 302.4 
L 491.5125 78.254921 
L 487.56 78.254921 
z
" clip-path="url(#p04fd06f823)" style="fill: #1f77b4"/>
   </g>
   <g id="patch_108">
    <path d="M 491.5125 302.4 
L 495.465 302.4 
L 495.465 61.543385 
L 491.5125 61.543385 
z
" clip-path="url(#p04fd06f823)" style="fill: #1f77b4"/>
   </g>
   <g id="patch_109">
    <path d="M 495.465 302.4 
L 499.4175 302.4 
L 499.4175 92.638851 
L 495.465 92.638851 
z
" clip-path="url(#p04fd06f823)" style="fill: #1f77b4"/>
   </g>
   <g id="patch_110">
    <path d="M 499.4175 302.4 
L 503.37 302.4 
L 503.37 117.266496 
L 499.4175 117.266496 
z
" clip-path="url(#p04fd06f823)" style="fill: #1f77b4"/>
   </g>
   <g id="patch_111">
    <path d="M 503.37 302.4 
L 507.3225 302.4 
L 507.3225 119.452421 
L 503.37 119.452421 
z
" clip-path="url(#p04fd06f823)" style="fill: #1f77b4"/>
   </g>
   <g id="patch_112">
    <path d="M 507.3225 302.4 
L 511.275 302.4 
L 511.275 119.256768 
L 507.3225 119.256768 
z
" clip-path="url(#p04fd06f823)" style="fill: #1f77b4"/>
   </g>
   <g id="patch_113">
    <path d="M 511.275 302.4 
L 515.2275 302.4 
L 515.2275 114.520596 
L 511.275 114.520596 
z
" clip-path="url(#p04fd06f823)" style="fill: #1f77b4"/>
   </g>
   <g id="patch_114">
    <path d="M 515.2275 302.4 
L 519.18 302.4 
L 519.18 115.788972 
L 515.2275 115.788972 
z
" clip-path="url(#p04fd06f823)" style="fill: #1f77b4"/>
   </g>
   <g id="patch_115">
    <path d="M 519.18 302.4 
L 523.1325 302.4 
L 523.1325 94.062401 
L 519.18 94.062401 
z
" clip-path="url(#p04fd06f823)" style="fill: #1f77b4"/>
   </g>
   <g id="patch_116">
    <path d="M 523.1325 302.4 
L 527.085 302.4 
L 527.085 117.486888 
L 523.1325 117.486888 
z
" clip-path="url(#p04fd06f823)" style="fill: #1f77b4"/>
   </g>
   <g id="patch_117">
    <path d="M 527.085 302.4 
L 531.0375 302.4 
L 531.0375 163.602721 
L 527.085 163.602721 
z
" clip-path="url(#p04fd06f823)" style="fill: #1f77b4"/>
   </g>
   <g id="patch_118">
    <path d="M 531.0375 302.4 
L 534.99 302.4 
L 534.99 138.523048 
L 531.0375 138.523048 
z
" clip-path="url(#p04fd06f823)" style="fill: #1f77b4"/>
   </g>
   <g id="patch_119">
    <path d="M 534.99 302.4 
L 538.9425 302.4 
L 538.9425 150.345487 
L 534.99 150.345487 
z
" clip-path="url(#p04fd06f823)" style="fill: #1f77b4"/>
   </g>
   <g id="patch_120">
    <path d="M 538.9425 302.4 
L 542.895 302.4 
L 542.895 121.375226 
L 538.9425 121.375226 
z
" clip-path="url(#p04fd06f823)" style="fill: #1f77b4"/>
   </g>
   <g id="patch_121">
    <path d="M 542.895 302.4 
L 546.8475 302.4 
L 546.8475 122.911221 
L 542.895 122.911221 
z
" clip-path="url(#p04fd06f823)" style="fill: #1f77b4"/>
   </g>
   <g id="patch_122">
    <path d="M 546.8475 302.4 
L 550.8 302.4 
L 550.8 145.550844 
L 546.8475 145.550844 
z
" clip-path="url(#p04fd06f823)" style="fill: #1f77b4"/>
   </g>
   <g id="matplotlib.axis_1">
    <g id="xtick_1">
     <g id="line2d_1">
      <defs>
       <path id="macfa8c0b20" d="M 0 0 
L 0 3.5 
" style="stroke: #000000; stroke-width: 0.8"/>
      </defs>
      <g>
       <use xlink:href="#macfa8c0b20" x="110.620362" y="302.4" style="stroke: #000000; stroke-width: 0.8"/>
      </g>
     </g>
     <g id="text_1">
      <!-- 2008 -->
      <g transform="translate(87.715362 323.077187)scale(0.18 -0.18)">
       <defs>
        <path id="DejaVuSans-32" d="M 1228 531 
L 3431 531 
L 3431 0 
L 469 0 
L 469 531 
Q 828 903 1448 1529 
Q 2069 2156 2228 2338 
Q 2531 2678 2651 2914 
Q 2772 3150 2772 3378 
Q 2772 3750 2511 3984 
Q 2250 4219 1831 4219 
Q 1534 4219 1204 4116 
Q 875 4013 500 3803 
L 500 4441 
Q 881 4594 1212 4672 
Q 1544 4750 1819 4750 
Q 2544 4750 2975 4387 
Q 3406 4025 3406 3419 
Q 3406 3131 3298 2873 
Q 3191 2616 2906 2266 
Q 2828 2175 2409 1742 
Q 1991 1309 1228 531 
z
" transform="scale(0.015625)"/>
        <path id="DejaVuSans-30" d="M 2034 4250 
Q 1547 4250 1301 3770 
Q 1056 3291 1056 2328 
Q 1056 1369 1301 889 
Q 1547 409 2034 409 
Q 2525 409 2770 889 
Q 3016 1369 3016 2328 
Q 3016 3291 2770 3770 
Q 2525 4250 2034 4250 
z
M 2034 4750 
Q 2819 4750 3233 4129 
Q 3647 3509 3647 2328 
Q 3647 1150 3233 529 
Q 2819 -91 2034 -91 
Q 1250 -91 836 529 
Q 422 1150 422 2328 
Q 422 3509 836 4129 
Q 1250 4750 2034 4750 
z
" transform="scale(0.015625)"/>
        <path id="DejaVuSans-38" d="M 2034 2216 
Q 1584 2216 1326 1975 
Q 1069 1734 1069 1313 
Q 1069 891 1326 650 
Q 1584 409 2034 409 
Q 2484 409 2743 651 
Q 3003 894 3003 1313 
Q 3003 1734 2745 1975 
Q 2488 2216 2034 2216 
z
M 1403 2484 
Q 997 2584 770 2862 
Q 544 3141 544 3541 
Q 544 4100 942 4425 
Q 1341 4750 2034 4750 
Q 2731 4750 3128 4425 
Q 3525 4100 3525 3541 
Q 3525 3141 3298 2862 
Q 3072 2584 2669 2484 
Q 3125 2378 3379 2068 
Q 3634 1759 3634 1313 
Q 3634 634 3220 271 
Q 2806 -91 2034 -91 
Q 1263 -91 848 271 
Q 434 634 434 1313 
Q 434 1759 690 2068 
Q 947 2378 1403 2484 
z
M 1172 3481 
Q 1172 3119 1398 2916 
Q 1625 2713 2034 2713 
Q 2441 2713 2670 2916 
Q 2900 3119 2900 3481 
Q 2900 3844 2670 4047 
Q 2441 4250 2034 4250 
Q 1625 4250 1398 4047 
Q 1172 3844 1172 3481 
z
" transform="scale(0.015625)"/>
       </defs>
       <use xlink:href="#DejaVuSans-32"/>
       <use xlink:href="#DejaVuSans-30" x="63.623047"/>
       <use xlink:href="#DejaVuSans-30" x="127.246094"/>
       <use xlink:href="#DejaVuSans-38" x="190.869141"/>
      </g>
     </g>
    </g>
    <g id="xtick_2">
     <g id="line2d_2">
      <g>
       <use xlink:href="#macfa8c0b20" x="164.945787" y="302.4" style="stroke: #000000; stroke-width: 0.8"/>
      </g>
     </g>
     <g id="text_2">
      <!-- 2010 -->
      <g transform="translate(142.040787 323.077187)scale(0.18 -0.18)">
       <defs>
        <path id="DejaVuSans-31" d="M 794 531 
L 1825 531 
L 1825 4091 
L 703 3866 
L 703 4441 
L 1819 4666 
L 2450 4666 
L 2450 531 
L 3481 531 
L 3481 0 
L 794 0 
L 794 531 
z
" transform="scale(0.015625)"/>
       </defs>
       <use xlink:href="#DejaVuSans-32"/>
       <use xlink:href="#DejaVuSans-30" x="63.623047"/>
       <use xlink:href="#DejaVuSans-31" x="127.246094"/>
       <use xlink:href="#DejaVuSans-30" x="190.869141"/>
      </g>
     </g>
    </g>
    <g id="xtick_3">
     <g id="line2d_3">
      <g>
       <use xlink:href="#macfa8c0b20" x="219.196895" y="302.4" style="stroke: #000000; stroke-width: 0.8"/>
      </g>
     </g>
     <g id="text_3">
      <!-- 2012 -->
      <g transform="translate(196.291895 323.077187)scale(0.18 -0.18)">
       <use xlink:href="#DejaVuSans-32"/>
       <use xlink:href="#DejaVuSans-30" x="63.623047"/>
       <use xlink:href="#DejaVuSans-31" x="127.246094"/>
       <use xlink:href="#DejaVuSans-32" x="190.869141"/>
      </g>
     </g>
    </g>
    <g id="xtick_4">
     <g id="line2d_4">
      <g>
       <use xlink:href="#macfa8c0b20" x="273.52232" y="302.4" style="stroke: #000000; stroke-width: 0.8"/>
      </g>
     </g>
     <g id="text_4">
      <!-- 2014 -->
      <g transform="translate(250.61732 323.077187)scale(0.18 -0.18)">
       <defs>
        <path id="DejaVuSans-34" d="M 2419 4116 
L 825 1625 
L 2419 1625 
L 2419 4116 
z
M 2253 4666 
L 3047 4666 
L 3047 1625 
L 3713 1625 
L 3713 1100 
L 3047 1100 
L 3047 0 
L 2419 0 
L 2419 1100 
L 313 1100 
L 313 1709 
L 2253 4666 
z
" transform="scale(0.015625)"/>
       </defs>
       <use xlink:href="#DejaVuSans-32"/>
       <use xlink:href="#DejaVuSans-30" x="63.623047"/>
       <use xlink:href="#DejaVuSans-31" x="127.246094"/>
       <use xlink:href="#DejaVuSans-34" x="190.869141"/>
      </g>
     </g>
    </g>
    <g id="xtick_5">
     <g id="line2d_5">
      <g>
       <use xlink:href="#macfa8c0b20" x="327.773429" y="302.4" style="stroke: #000000; stroke-width: 0.8"/>
      </g>
     </g>
     <g id="text_5">
      <!-- 2016 -->
      <g transform="translate(304.868429 323.077187)scale(0.18 -0.18)">
       <defs>
        <path id="DejaVuSans-36" d="M 2113 2584 
Q 1688 2584 1439 2293 
Q 1191 2003 1191 1497 
Q 1191 994 1439 701 
Q 1688 409 2113 409 
Q 2538 409 2786 701 
Q 3034 994 3034 1497 
Q 3034 2003 2786 2293 
Q 2538 2584 2113 2584 
z
M 3366 4563 
L 3366 3988 
Q 3128 4100 2886 4159 
Q 2644 4219 2406 4219 
Q 1781 4219 1451 3797 
Q 1122 3375 1075 2522 
Q 1259 2794 1537 2939 
Q 1816 3084 2150 3084 
Q 2853 3084 3261 2657 
Q 3669 2231 3669 1497 
Q 3669 778 3244 343 
Q 2819 -91 2113 -91 
Q 1303 -91 875 529 
Q 447 1150 447 2328 
Q 447 3434 972 4092 
Q 1497 4750 2381 4750 
Q 2619 4750 2861 4703 
Q 3103 4656 3366 4563 
z
" transform="scale(0.015625)"/>
       </defs>
       <use xlink:href="#DejaVuSans-32"/>
       <use xlink:href="#DejaVuSans-30" x="63.623047"/>
       <use xlink:href="#DejaVuSans-31" x="127.246094"/>
       <use xlink:href="#DejaVuSans-36" x="190.869141"/>
      </g>
     </g>
    </g>
    <g id="xtick_6">
     <g id="line2d_6">
      <g>
       <use xlink:href="#macfa8c0b20" x="382.098854" y="302.4" style="stroke: #000000; stroke-width: 0.8"/>
      </g>
     </g>
     <g id="text_6">
      <!-- 2018 -->
      <g transform="translate(359.193854 323.077187)scale(0.18 -0.18)">
       <use xlink:href="#DejaVuSans-32"/>
       <use xlink:href="#DejaVuSans-30" x="63.623047"/>
       <use xlink:href="#DejaVuSans-31" x="127.246094"/>
       <use xlink:href="#DejaVuSans-38" x="190.869141"/>
      </g>
     </g>
    </g>
    <g id="xtick_7">
     <g id="line2d_7">
      <g>
       <use xlink:href="#macfa8c0b20" x="436.349962" y="302.4" style="stroke: #000000; stroke-width: 0.8"/>
      </g>
     </g>
     <g id="text_7">
      <!-- 2020 -->
      <g transform="translate(413.444962 323.077187)scale(0.18 -0.18)">
       <use xlink:href="#DejaVuSans-32"/>
       <use xlink:href="#DejaVuSans-30" x="63.623047"/>
       <use xlink:href="#DejaVuSans-32" x="127.246094"/>
       <use xlink:href="#DejaVuSans-30" x="190.869141"/>
      </g>
     </g>
    </g>
    <g id="xtick_8">
     <g id="line2d_8">
      <g>
       <use xlink:href="#macfa8c0b20" x="490.675387" y="302.4" style="stroke: #000000; stroke-width: 0.8"/>
      </g>
     </g>
     <g id="text_8">
      <!-- 2022 -->
      <g transform="translate(467.770387 323.077187)scale(0.18 -0.18)">
       <use xlink:href="#DejaVuSans-32"/>
       <use xlink:href="#DejaVuSans-30" x="63.623047"/>
       <use xlink:href="#DejaVuSans-32" x="127.246094"/>
       <use xlink:href="#DejaVuSans-32" x="190.869141"/>
      </g>
     </g>
    </g>
    <g id="xtick_9">
     <g id="line2d_9">
      <g>
       <use xlink:href="#macfa8c0b20" x="544.926495" y="302.4" style="stroke: #000000; stroke-width: 0.8"/>
      </g>
     </g>
     <g id="text_9">
      <!-- 2024 -->
      <g transform="translate(522.021495 323.077187)scale(0.18 -0.18)">
       <use xlink:href="#DejaVuSans-32"/>
       <use xlink:href="#DejaVuSans-30" x="63.623047"/>
       <use xlink:href="#DejaVuSans-32" x="127.246094"/>
       <use xlink:href="#DejaVuSans-34" x="190.869141"/>
      </g>
     </g>
    </g>
   </g>
   <g id="matplotlib.axis_2">
    <g id="ytick_1">
     <g id="line2d_10">
      <defs>
       <path id="mbc3823ac93" d="M 0 0 
L -3.5 0 
" style="stroke: #000000; stroke-width: 0.8"/>
      </defs>
      <g>
       <use xlink:href="#mbc3823ac93" x="76.5" y="302.4" style="stroke: #000000; stroke-width: 0.8"/>
      </g>
     </g>
     <g id="text_10">
      <!-- 0 -->
      <g transform="translate(58.0475 309.238594)scale(0.18 -0.18)">
       <use xlink:href="#DejaVuSans-30"/>
      </g>
     </g>
    </g>
    <g id="ytick_2">
     <g id="line2d_11">
      <g>
       <use xlink:href="#mbc3823ac93" x="76.5" y="257.422107" style="stroke: #000000; stroke-width: 0.8"/>
      </g>
     </g>
     <g id="text_11">
      <!-- 20000 -->
      <g transform="translate(12.2375 264.260701)scale(0.18 -0.18)">
       <use xlink:href="#DejaVuSans-32"/>
       <use xlink:href="#DejaVuSans-30" x="63.623047"/>
       <use xlink:href="#DejaVuSans-30" x="127.246094"/>
       <use xlink:href="#DejaVuSans-30" x="190.869141"/>
       <use xlink:href="#DejaVuSans-30" x="254.492188"/>
      </g>
     </g>
    </g>
    <g id="ytick_3">
     <g id="line2d_12">
      <g>
       <use xlink:href="#mbc3823ac93" x="76.5" y="212.444215" style="stroke: #000000; stroke-width: 0.8"/>
      </g>
     </g>
     <g id="text_12">
      <!-- 40000 -->
      <g transform="translate(12.2375 219.282808)scale(0.18 -0.18)">
       <use xlink:href="#DejaVuSans-34"/>
       <use xlink:href="#DejaVuSans-30" x="63.623047"/>
       <use xlink:href="#DejaVuSans-30" x="127.246094"/>
       <use xlink:href="#DejaVuSans-30" x="190.869141"/>
       <use xlink:href="#DejaVuSans-30" x="254.492188"/>
      </g>
     </g>
    </g>
    <g id="ytick_4">
     <g id="line2d_13">
      <g>
       <use xlink:href="#mbc3823ac93" x="76.5" y="167.466322" style="stroke: #000000; stroke-width: 0.8"/>
      </g>
     </g>
     <g id="text_13">
      <!-- 60000 -->
      <g transform="translate(12.2375 174.304916)scale(0.18 -0.18)">
       <use xlink:href="#DejaVuSans-36"/>
       <use xlink:href="#DejaVuSans-30" x="63.623047"/>
       <use xlink:href="#DejaVuSans-30" x="127.246094"/>
       <use xlink:href="#DejaVuSans-30" x="190.869141"/>
       <use xlink:href="#DejaVuSans-30" x="254.492188"/>
      </g>
     </g>
    </g>
    <g id="ytick_5">
     <g id="line2d_14">
      <g>
       <use xlink:href="#mbc3823ac93" x="76.5" y="122.488429" style="stroke: #000000; stroke-width: 0.8"/>
      </g>
     </g>
     <g id="text_14">
      <!-- 80000 -->
      <g transform="translate(12.2375 129.327023)scale(0.18 -0.18)">
       <use xlink:href="#DejaVuSans-38"/>
       <use xlink:href="#DejaVuSans-30" x="63.623047"/>
       <use xlink:href="#DejaVuSans-30" x="127.246094"/>
       <use xlink:href="#DejaVuSans-30" x="190.869141"/>
       <use xlink:href="#DejaVuSans-30" x="254.492188"/>
      </g>
     </g>
    </g>
    <g id="ytick_6">
     <g id="line2d_15">
      <g>
       <use xlink:href="#mbc3823ac93" x="76.5" y="77.510537" style="stroke: #000000; stroke-width: 0.8"/>
      </g>
     </g>
     <g id="text_15">
      <!-- 100000 -->
      <g transform="translate(0.785 84.34913)scale(0.18 -0.18)">
       <use xlink:href="#DejaVuSans-31"/>
       <use xlink:href="#DejaVuSans-30" x="63.623047"/>
       <use xlink:href="#DejaVuSans-30" x="127.246094"/>
       <use xlink:href="#DejaVuSans-30" x="190.869141"/>
       <use xlink:href="#DejaVuSans-30" x="254.492188"/>
       <use xlink:href="#DejaVuSans-30" x="318.115234"/>
      </g>
     </g>
    </g>
    <g id="text_16">
     <!-- Anzahl Polygone -->
     <g transform="translate(-6.958438 245.996156)rotate(-90)scale(0.18 -0.18)">
      <defs>
       <path id="DejaVuSans-41" d="M 2188 4044 
L 1331 1722 
L 3047 1722 
L 2188 4044 
z
M 1831 4666 
L 2547 4666 
L 4325 0 
L 3669 0 
L 3244 1197 
L 1141 1197 
L 716 0 
L 50 0 
L 1831 4666 
z
" transform="scale(0.015625)"/>
       <path id="DejaVuSans-6e" d="M 3513 2113 
L 3513 0 
L 2938 0 
L 2938 2094 
Q 2938 2591 2744 2837 
Q 2550 3084 2163 3084 
Q 1697 3084 1428 2787 
Q 1159 2491 1159 1978 
L 1159 0 
L 581 0 
L 581 3500 
L 1159 3500 
L 1159 2956 
Q 1366 3272 1645 3428 
Q 1925 3584 2291 3584 
Q 2894 3584 3203 3211 
Q 3513 2838 3513 2113 
z
" transform="scale(0.015625)"/>
       <path id="DejaVuSans-7a" d="M 353 3500 
L 3084 3500 
L 3084 2975 
L 922 459 
L 3084 459 
L 3084 0 
L 275 0 
L 275 525 
L 2438 3041 
L 353 3041 
L 353 3500 
z
" transform="scale(0.015625)"/>
       <path id="DejaVuSans-61" d="M 2194 1759 
Q 1497 1759 1228 1600 
Q 959 1441 959 1056 
Q 959 750 1161 570 
Q 1363 391 1709 391 
Q 2188 391 2477 730 
Q 2766 1069 2766 1631 
L 2766 1759 
L 2194 1759 
z
M 3341 1997 
L 3341 0 
L 2766 0 
L 2766 531 
Q 2569 213 2275 61 
Q 1981 -91 1556 -91 
Q 1019 -91 701 211 
Q 384 513 384 1019 
Q 384 1609 779 1909 
Q 1175 2209 1959 2209 
L 2766 2209 
L 2766 2266 
Q 2766 2663 2505 2880 
Q 2244 3097 1772 3097 
Q 1472 3097 1187 3025 
Q 903 2953 641 2809 
L 641 3341 
Q 956 3463 1253 3523 
Q 1550 3584 1831 3584 
Q 2591 3584 2966 3190 
Q 3341 2797 3341 1997 
z
" transform="scale(0.015625)"/>
       <path id="DejaVuSans-68" d="M 3513 2113 
L 3513 0 
L 2938 0 
L 2938 2094 
Q 2938 2591 2744 2837 
Q 2550 3084 2163 3084 
Q 1697 3084 1428 2787 
Q 1159 2491 1159 1978 
L 1159 0 
L 581 0 
L 581 4863 
L 1159 4863 
L 1159 2956 
Q 1366 3272 1645 3428 
Q 1925 3584 2291 3584 
Q 2894 3584 3203 3211 
Q 3513 2838 3513 2113 
z
" transform="scale(0.015625)"/>
       <path id="DejaVuSans-6c" d="M 603 4863 
L 1178 4863 
L 1178 0 
L 603 0 
L 603 4863 
z
" transform="scale(0.015625)"/>
       <path id="DejaVuSans-20" transform="scale(0.015625)"/>
       <path id="DejaVuSans-50" d="M 1259 4147 
L 1259 2394 
L 2053 2394 
Q 2494 2394 2734 2622 
Q 2975 2850 2975 3272 
Q 2975 3691 2734 3919 
Q 2494 4147 2053 4147 
L 1259 4147 
z
M 628 4666 
L 2053 4666 
Q 2838 4666 3239 4311 
Q 3641 3956 3641 3272 
Q 3641 2581 3239 2228 
Q 2838 1875 2053 1875 
L 1259 1875 
L 1259 0 
L 628 0 
L 628 4666 
z
" transform="scale(0.015625)"/>
       <path id="DejaVuSans-6f" d="M 1959 3097 
Q 1497 3097 1228 2736 
Q 959 2375 959 1747 
Q 959 1119 1226 758 
Q 1494 397 1959 397 
Q 2419 397 2687 759 
Q 2956 1122 2956 1747 
Q 2956 2369 2687 2733 
Q 2419 3097 1959 3097 
z
M 1959 3584 
Q 2709 3584 3137 3096 
Q 3566 2609 3566 1747 
Q 3566 888 3137 398 
Q 2709 -91 1959 -91 
Q 1206 -91 779 398 
Q 353 888 353 1747 
Q 353 2609 779 3096 
Q 1206 3584 1959 3584 
z
" transform="scale(0.015625)"/>
       <path id="DejaVuSans-79" d="M 2059 -325 
Q 1816 -950 1584 -1140 
Q 1353 -1331 966 -1331 
L 506 -1331 
L 506 -850 
L 844 -850 
Q 1081 -850 1212 -737 
Q 1344 -625 1503 -206 
L 1606 56 
L 191 3500 
L 800 3500 
L 1894 763 
L 2988 3500 
L 3597 3500 
L 2059 -325 
z
" transform="scale(0.015625)"/>
       <path id="DejaVuSans-67" d="M 2906 1791 
Q 2906 2416 2648 2759 
Q 2391 3103 1925 3103 
Q 1463 3103 1205 2759 
Q 947 2416 947 1791 
Q 947 1169 1205 825 
Q 1463 481 1925 481 
Q 2391 481 2648 825 
Q 2906 1169 2906 1791 
z
M 3481 434 
Q 3481 -459 3084 -895 
Q 2688 -1331 1869 -1331 
Q 1566 -1331 1297 -1286 
Q 1028 -1241 775 -1147 
L 775 -588 
Q 1028 -725 1275 -790 
Q 1522 -856 1778 -856 
Q 2344 -856 2625 -561 
Q 2906 -266 2906 331 
L 2906 616 
Q 2728 306 2450 153 
Q 2172 0 1784 0 
Q 1141 0 747 490 
Q 353 981 353 1791 
Q 353 2603 747 3093 
Q 1141 3584 1784 3584 
Q 2172 3584 2450 3431 
Q 2728 3278 2906 2969 
L 2906 3500 
L 3481 3500 
L 3481 434 
z
" transform="scale(0.015625)"/>
       <path id="DejaVuSans-65" d="M 3597 1894 
L 3597 1613 
L 953 1613 
Q 991 1019 1311 708 
Q 1631 397 2203 397 
Q 2534 397 2845 478 
Q 3156 559 3463 722 
L 3463 178 
Q 3153 47 2828 -22 
Q 2503 -91 2169 -91 
Q 1331 -91 842 396 
Q 353 884 353 1716 
Q 353 2575 817 3079 
Q 1281 3584 2069 3584 
Q 2775 3584 3186 3129 
Q 3597 2675 3597 1894 
z
M 3022 2063 
Q 3016 2534 2758 2815 
Q 2500 3097 2075 3097 
Q 1594 3097 1305 2825 
Q 1016 2553 972 2059 
L 3022 2063 
z
" transform="scale(0.015625)"/>
      </defs>
      <use xlink:href="#DejaVuSans-41"/>
      <use xlink:href="#DejaVuSans-6e" x="68.408203"/>
      <use xlink:href="#DejaVuSans-7a" x="131.787109"/>
      <use xlink:href="#DejaVuSans-61" x="184.277344"/>
      <use xlink:href="#DejaVuSans-68" x="245.556641"/>
      <use xlink:href="#DejaVuSans-6c" x="308.935547"/>
      <use xlink:href="#DejaVuSans-20" x="336.71875"/>
      <use xlink:href="#DejaVuSans-50" x="368.505859"/>
      <use xlink:href="#DejaVuSans-6f" x="425.183594"/>
      <use xlink:href="#DejaVuSans-6c" x="486.365234"/>
      <use xlink:href="#DejaVuSans-79" x="514.148438"/>
      <use xlink:href="#DejaVuSans-67" x="573.328125"/>
      <use xlink:href="#DejaVuSans-6f" x="636.804688"/>
      <use xlink:href="#DejaVuSans-6e" x="697.986328"/>
      <use xlink:href="#DejaVuSans-65" x="761.365234"/>
     </g>
    </g>
   </g>
   <g id="patch_123">
    <path d="M 76.5 302.4 
L 76.5 41.472 
" style="fill: none; stroke: #000000; stroke-width: 0.8; stroke-linejoin: miter; stroke-linecap: square"/>
   </g>
   <g id="patch_124">
    <path d="M 550.8 302.4 
L 550.8 41.472 
" style="fill: none; stroke: #000000; stroke-width: 0.8; stroke-linejoin: miter; stroke-linecap: square"/>
   </g>
   <g id="patch_125">
    <path d="M 76.5 302.4 
L 550.8 302.4 
" style="fill: none; stroke: #000000; stroke-width: 0.8; stroke-linejoin: miter; stroke-linecap: square"/>
   </g>
   <g id="patch_126">
    <path d="M 76.5 41.472 
L 550.8 41.472 
" style="fill: none; stroke: #000000; stroke-width: 0.8; stroke-linejoin: miter; stroke-linecap: square"/>
   </g>
  </g>
 </g>
 <defs>
  <clipPath id="p04fd06f823">
   <rect x="76.5" y="41.472" width="474.3" height="260.928"/>
  </clipPath>
 </defs>
</svg>
