<?xml version="1.0" encoding="utf-8" standalone="no"?>
<!DOCTYPE svg PUBLIC "-//W3C//DTD SVG 1.1//EN"
  "http://www.w3.org/Graphics/SVG/1.1/DTD/svg11.dtd">
<svg xmlns:xlink="http://www.w3.org/1999/xlink" width="612pt" height="345.6pt" viewBox="0 0 612 345.6" xmlns="http://www.w3.org/2000/svg" version="1.1">
 <metadata>
  <rdf:RDF xmlns:dc="http://purl.org/dc/elements/1.1/" xmlns:cc="http://creativecommons.org/ns#" xmlns:rdf="http://www.w3.org/1999/02/22-rdf-syntax-ns#">
   <cc:Work>
    <dc:type rdf:resource="http://purl.org/dc/dcmitype/StillImage"/>
    <dc:date>2024-07-08T20:17:06.856176</dc:date>
    <dc:format>image/svg+xml</dc:format>
    <dc:creator>
     <cc:Agent>
      <dc:title>Matplotlib v3.7.5, https://matplotlib.org/</dc:title>
     </cc:Agent>
    </dc:creator>
   </cc:Work>
  </rdf:RDF>
 </metadata>
 <defs>
  <style type="text/css">*{stroke-linejoin: round; stroke-linecap: butt}</style>
 </defs>
 <g id="figure_1">
  <g id="patch_1">
   <path d="M 0 345.6 
L 612 345.6 
L 612 0 
L 0 0 
z
" style="fill: #ffffff"/>
  </g>
  <g id="axes_1">
   <g id="patch_2">
    <path d="M 76.5 307.584 
L 550.8 307.584 
L 550.8 41.472 
L 76.5 41.472 
z
" style="fill: #ffffff"/>
   </g>
   <g id="patch_3">
    <path d="M 76.5 307.584 
L 80.4525 307.584 
L 80.4525 307.582776 
L 76.5 307.582776 
z
" clip-path="url(#p1af6ed42ee)" style="fill: #1f77b4"/>
   </g>
   <g id="patch_4">
    <path d="M 80.4525 307.584 
L 84.405 307.584 
L 84.405 307.584 
L 80.4525 307.584 
z
" clip-path="url(#p1af6ed42ee)" style="fill: #1f77b4"/>
   </g>
   <g id="patch_5">
    <path d="M 84.405 307.584 
L 88.3575 307.584 
L 88.3575 307.583592 
L 84.405 307.583592 
z
" clip-path="url(#p1af6ed42ee)" style="fill: #1f77b4"/>
   </g>
   <g id="patch_6">
    <path d="M 88.3575 307.584 
L 92.31 307.584 
L 92.31 307.567682 
L 88.3575 307.567682 
z
" clip-path="url(#p1af6ed42ee)" style="fill: #1f77b4"/>
   </g>
   <g id="patch_7">
    <path d="M 92.31 307.584 
L 96.2625 307.584 
L 96.2625 307.5122 
L 92.31 307.5122 
z
" clip-path="url(#p1af6ed42ee)" style="fill: #1f77b4"/>
   </g>
   <g id="patch_8">
    <path d="M 96.2625 307.584 
L 100.215 307.584 
L 100.215 307.470996 
L 96.2625 307.470996 
z
" clip-path="url(#p1af6ed42ee)" style="fill: #1f77b4"/>
   </g>
   <g id="patch_9">
    <path d="M 100.215 307.584 
L 104.1675 307.584 
L 104.1675 307.463653 
L 100.215 307.463653 
z
" clip-path="url(#p1af6ed42ee)" style="fill: #1f77b4"/>
   </g>
   <g id="patch_10">
    <path d="M 104.1675 307.584 
L 108.12 307.584 
L 108.12 307.362888 
L 104.1675 307.362888 
z
" clip-path="url(#p1af6ed42ee)" style="fill: #1f77b4"/>
   </g>
   <g id="patch_11">
    <path d="M 108.12 307.584 
L 112.0725 307.584 
L 112.0725 307.352689 
L 108.12 307.352689 
z
" clip-path="url(#p1af6ed42ee)" style="fill: #1f77b4"/>
   </g>
   <g id="patch_12">
    <path d="M 112.0725 307.584 
L 116.025 307.584 
L 116.025 307.153606 
L 112.0725 307.153606 
z
" clip-path="url(#p1af6ed42ee)" style="fill: #1f77b4"/>
   </g>
   <g id="patch_13">
    <path d="M 116.025 307.584 
L 119.9775 307.584 
L 119.9775 306.943509 
L 116.025 306.943509 
z
" clip-path="url(#p1af6ed42ee)" style="fill: #1f77b4"/>
   </g>
   <g id="patch_14">
    <path d="M 119.9775 307.584 
L 123.93 307.584 
L 123.93 306.722804 
L 119.9775 306.722804 
z
" clip-path="url(#p1af6ed42ee)" style="fill: #1f77b4"/>
   </g>
   <g id="patch_15">
    <path d="M 123.93 307.584 
L 127.8825 307.584 
L 127.8825 305.631929 
L 123.93 305.631929 
z
" clip-path="url(#p1af6ed42ee)" style="fill: #1f77b4"/>
   </g>
   <g id="patch_16">
    <path d="M 127.8825 307.584 
L 131.835 307.584 
L 131.835 305.429175 
L 127.8825 305.429175 
z
" clip-path="url(#p1af6ed42ee)" style="fill: #1f77b4"/>
   </g>
   <g id="patch_17">
    <path d="M 131.835 307.584 
L 135.7875 307.584 
L 135.7875 305.288838 
L 131.835 305.288838 
z
" clip-path="url(#p1af6ed42ee)" style="fill: #1f77b4"/>
   </g>
   <g id="patch_18">
    <path d="M 135.7875 307.584 
L 139.74 307.584 
L 139.74 302.979805 
L 135.7875 302.979805 
z
" clip-path="url(#p1af6ed42ee)" style="fill: #1f77b4"/>
   </g>
   <g id="patch_19">
    <path d="M 139.74 307.584 
L 143.6925 307.584 
L 143.6925 304.657729 
L 139.74 304.657729 
z
" clip-path="url(#p1af6ed42ee)" style="fill: #1f77b4"/>
   </g>
   <g id="patch_20">
    <path d="M 143.6925 307.584 
L 147.645 307.584 
L 147.645 303.927488 
L 143.6925 303.927488 
z
" clip-path="url(#p1af6ed42ee)" style="fill: #1f77b4"/>
   </g>
   <g id="patch_21">
    <path d="M 147.645 307.584 
L 151.5975 307.584 
L 151.5975 300.857208 
L 147.645 300.857208 
z
" clip-path="url(#p1af6ed42ee)" style="fill: #1f77b4"/>
   </g>
   <g id="patch_22">
    <path d="M 151.5975 307.584 
L 155.55 307.584 
L 155.55 300.219573 
L 151.5975 300.219573 
z
" clip-path="url(#p1af6ed42ee)" style="fill: #1f77b4"/>
   </g>
   <g id="patch_23">
    <path d="M 155.55 307.584 
L 159.5025 307.584 
L 159.5025 301.669042 
L 155.55 301.669042 
z
" clip-path="url(#p1af6ed42ee)" style="fill: #1f77b4"/>
   </g>
   <g id="patch_24">
    <path d="M 159.5025 307.584 
L 163.455 307.584 
L 163.455 298.888411 
L 159.5025 298.888411 
z
" clip-path="url(#p1af6ed42ee)" style="fill: #1f77b4"/>
   </g>
   <g id="patch_25">
    <path d="M 163.455 307.584 
L 167.4075 307.584 
L 167.4075 301.695967 
L 163.455 301.695967 
z
" clip-path="url(#p1af6ed42ee)" style="fill: #1f77b4"/>
   </g>
   <g id="patch_26">
    <path d="M 167.4075 307.584 
L 171.36 307.584 
L 171.36 276.879169 
L 167.4075 276.879169 
z
" clip-path="url(#p1af6ed42ee)" style="fill: #1f77b4"/>
   </g>
   <g id="patch_27">
    <path d="M 171.36 307.584 
L 175.3125 307.584 
L 175.3125 279.663062 
L 171.36 279.663062 
z
" clip-path="url(#p1af6ed42ee)" style="fill: #1f77b4"/>
   </g>
   <g id="patch_28">
    <path d="M 175.3125 307.584 
L 179.265 307.584 
L 179.265 295.825475 
L 175.3125 295.825475 
z
" clip-path="url(#p1af6ed42ee)" style="fill: #1f77b4"/>
   </g>
   <g id="patch_29">
    <path d="M 179.265 307.584 
L 183.2175 307.584 
L 183.2175 265.731355 
L 179.265 265.731355 
z
" clip-path="url(#p1af6ed42ee)" style="fill: #1f77b4"/>
   </g>
   <g id="patch_30">
    <path d="M 183.2175 307.584 
L 187.17 307.584 
L 187.17 251.789448 
L 183.2175 251.789448 
z
" clip-path="url(#p1af6ed42ee)" style="fill: #1f77b4"/>
   </g>
   <g id="patch_31">
    <path d="M 187.17 307.584 
L 191.1225 307.584 
L 191.1225 271.170636 
L 187.17 271.170636 
z
" clip-path="url(#p1af6ed42ee)" style="fill: #1f77b4"/>
   </g>
   <g id="patch_32">
    <path d="M 191.1225 307.584 
L 195.075 307.584 
L 195.075 210.932216 
L 191.1225 210.932216 
z
" clip-path="url(#p1af6ed42ee)" style="fill: #1f77b4"/>
   </g>
   <g id="patch_33">
    <path d="M 195.075 307.584 
L 199.0275 307.584 
L 199.0275 215.916626 
L 195.075 215.916626 
z
" clip-path="url(#p1af6ed42ee)" style="fill: #1f77b4"/>
   </g>
   <g id="patch_34">
    <path d="M 199.0275 307.584 
L 202.98 307.584 
L 202.98 158.551034 
L 199.0275 158.551034 
z
" clip-path="url(#p1af6ed42ee)" style="fill: #1f77b4"/>
   </g>
   <g id="patch_35">
    <path d="M 202.98 307.584 
L 206.9325 307.584 
L 206.9325 221.700222 
L 202.98 221.700222 
z
" clip-path="url(#p1af6ed42ee)" style="fill: #1f77b4"/>
   </g>
   <g id="patch_36">
    <path d="M 206.9325 307.584 
L 210.885 307.584 
L 210.885 240.9937 
L 206.9325 240.9937 
z
" clip-path="url(#p1af6ed42ee)" style="fill: #1f77b4"/>
   </g>
   <g id="patch_37">
    <path d="M 210.885 307.584 
L 214.8375 307.584 
L 214.8375 254.644734 
L 210.885 254.644734 
z
" clip-path="url(#p1af6ed42ee)" style="fill: #1f77b4"/>
   </g>
   <g id="patch_38">
    <path d="M 214.8375 307.584 
L 218.79 307.584 
L 218.79 256.124799 
L 214.8375 256.124799 
z
" clip-path="url(#p1af6ed42ee)" style="fill: #1f77b4"/>
   </g>
   <g id="patch_39">
    <path d="M 218.79 307.584 
L 222.7425 307.584 
L 222.7425 258.330211 
L 218.79 258.330211 
z
" clip-path="url(#p1af6ed42ee)" style="fill: #1f77b4"/>
   </g>
   <g id="patch_40">
    <path d="M 222.7425 307.584 
L 226.695 307.584 
L 226.695 251.70908 
L 222.7425 251.70908 
z
" clip-path="url(#p1af6ed42ee)" style="fill: #1f77b4"/>
   </g>
   <g id="patch_41">
    <path d="M 226.695 307.584 
L 230.6475 307.584 
L 230.6475 251.118768 
L 226.695 251.118768 
z
" clip-path="url(#p1af6ed42ee)" style="fill: #1f77b4"/>
   </g>
   <g id="patch_42">
    <path d="M 230.6475 307.584 
L 234.6 307.584 
L 234.6 245.597487 
L 230.6475 245.597487 
z
" clip-path="url(#p1af6ed42ee)" style="fill: #1f77b4"/>
   </g>
   <g id="patch_43">
    <path d="M 234.6 307.584 
L 238.5525 307.584 
L 238.5525 251.57935 
L 234.6 251.57935 
z
" clip-path="url(#p1af6ed42ee)" style="fill: #1f77b4"/>
   </g>
   <g id="patch_44">
    <path d="M 238.5525 307.584 
L 242.505 307.584 
L 242.505 245.722322 
L 238.5525 245.722322 
z
" clip-path="url(#p1af6ed42ee)" style="fill: #1f77b4"/>
   </g>
   <g id="patch_45">
    <path d="M 242.505 307.584 
L 246.4575 307.584 
L 246.4575 236.533514 
L 242.505 236.533514 
z
" clip-path="url(#p1af6ed42ee)" style="fill: #1f77b4"/>
   </g>
   <g id="patch_46">
    <path d="M 246.4575 307.584 
L 250.41 307.584 
L 250.41 222.794361 
L 246.4575 222.794361 
z
" clip-path="url(#p1af6ed42ee)" style="fill: #1f77b4"/>
   </g>
   <g id="patch_47">
    <path d="M 250.41 307.584 
L 254.3625 307.584 
L 254.3625 215.177001 
L 250.41 215.177001 
z
" clip-path="url(#p1af6ed42ee)" style="fill: #1f77b4"/>
   </g>
   <g id="patch_48">
    <path d="M 254.3625 307.584 
L 258.315 307.584 
L 258.315 213.275517 
L 254.3625 213.275517 
z
" clip-path="url(#p1af6ed42ee)" style="fill: #1f77b4"/>
   </g>
   <g id="patch_49">
    <path d="M 258.315 307.584 
L 262.2675 307.584 
L 262.2675 217.162932 
L 258.315 217.162932 
z
" clip-path="url(#p1af6ed42ee)" style="fill: #1f77b4"/>
   </g>
   <g id="patch_50">
    <path d="M 262.2675 307.584 
L 266.22 307.584 
L 266.22 193.036804 
L 262.2675 193.036804 
z
" clip-path="url(#p1af6ed42ee)" style="fill: #1f77b4"/>
   </g>
   <g id="patch_51">
    <path d="M 266.22 307.584 
L 270.1725 307.584 
L 270.1725 214.598927 
L 266.22 214.598927 
z
" clip-path="url(#p1af6ed42ee)" style="fill: #1f77b4"/>
   </g>
   <g id="patch_52">
    <path d="M 270.1725 307.584 
L 274.125 307.584 
L 274.125 215.899084 
L 270.1725 215.899084 
z
" clip-path="url(#p1af6ed42ee)" style="fill: #1f77b4"/>
   </g>
   <g id="patch_53">
    <path d="M 274.125 307.584 
L 278.0775 307.584 
L 278.0775 213.499893 
L 274.125 213.499893 
z
" clip-path="url(#p1af6ed42ee)" style="fill: #1f77b4"/>
   </g>
   <g id="patch_54">
    <path d="M 278.0775 307.584 
L 282.03 307.584 
L 282.03 202.540962 
L 278.0775 202.540962 
z
" clip-path="url(#p1af6ed42ee)" style="fill: #1f77b4"/>
   </g>
   <g id="patch_55">
    <path d="M 282.03 307.584 
L 285.9825 307.584 
L 285.9825 194.651495 
L 282.03 194.651495 
z
" clip-path="url(#p1af6ed42ee)" style="fill: #1f77b4"/>
   </g>
   <g id="patch_56">
    <path d="M 285.9825 307.584 
L 289.935 307.584 
L 289.935 196.298415 
L 285.9825 196.298415 
z
" clip-path="url(#p1af6ed42ee)" style="fill: #1f77b4"/>
   </g>
   <g id="patch_57">
    <path d="M 289.935 307.584 
L 293.8875 307.584 
L 293.8875 204.991148 
L 289.935 204.991148 
z
" clip-path="url(#p1af6ed42ee)" style="fill: #1f77b4"/>
   </g>
   <g id="patch_58">
    <path d="M 293.8875 307.584 
L 297.84 307.584 
L 297.84 181.060023 
L 293.8875 181.060023 
z
" clip-path="url(#p1af6ed42ee)" style="fill: #1f77b4"/>
   </g>
   <g id="patch_59">
    <path d="M 297.84 307.584 
L 301.7925 307.584 
L 301.7925 172.812778 
L 297.84 172.812778 
z
" clip-path="url(#p1af6ed42ee)" style="fill: #1f77b4"/>
   </g>
   <g id="patch_60">
    <path d="M 301.7925 307.584 
L 305.745 307.584 
L 305.745 154.920223 
L 301.7925 154.920223 
z
" clip-path="url(#p1af6ed42ee)" style="fill: #1f77b4"/>
   </g>
   <g id="patch_61">
    <path d="M 305.745 307.584 
L 309.6975 307.584 
L 309.6975 139.806665 
L 305.745 139.806665 
z
" clip-path="url(#p1af6ed42ee)" style="fill: #1f77b4"/>
   </g>
   <g id="patch_62">
    <path d="M 309.6975 307.584 
L 313.65 307.584 
L 313.65 136.396559 
L 309.6975 136.396559 
z
" clip-path="url(#p1af6ed42ee)" style="fill: #1f77b4"/>
   </g>
   <g id="patch_63">
    <path d="M 313.65 307.584 
L 317.6025 307.584 
L 317.6025 86.680963 
L 313.65 86.680963 
z
" clip-path="url(#p1af6ed42ee)" style="fill: #1f77b4"/>
   </g>
   <g id="patch_64">
    <path d="M 317.6025 307.584 
L 321.555 307.584 
L 321.555 201.835198 
L 317.6025 201.835198 
z
" clip-path="url(#p1af6ed42ee)" style="fill: #1f77b4"/>
   </g>
   <g id="patch_65">
    <path d="M 321.555 307.584 
L 325.5075 307.584 
L 325.5075 199.378077 
L 321.555 199.378077 
z
" clip-path="url(#p1af6ed42ee)" style="fill: #1f77b4"/>
   </g>
   <g id="patch_66">
    <path d="M 325.5075 307.584 
L 329.46 307.584 
L 329.46 180.683071 
L 325.5075 180.683071 
z
" clip-path="url(#p1af6ed42ee)" style="fill: #1f77b4"/>
   </g>
   <g id="patch_67">
    <path d="M 329.46 307.584 
L 333.4125 307.584 
L 333.4125 124.370007 
L 329.46 124.370007 
z
" clip-path="url(#p1af6ed42ee)" style="fill: #1f77b4"/>
   </g>
   <g id="patch_68">
    <path d="M 333.4125 307.584 
L 337.365 307.584 
L 337.365 158.467403 
L 333.4125 158.467403 
z
" clip-path="url(#p1af6ed42ee)" style="fill: #1f77b4"/>
   </g>
   <g id="patch_69">
    <path d="M 337.365 307.584 
L 341.3175 307.584 
L 341.3175 164.66997 
L 337.365 164.66997 
z
" clip-path="url(#p1af6ed42ee)" style="fill: #1f77b4"/>
   </g>
   <g id="patch_70">
    <path d="M 341.3175 307.584 
L 345.27 307.584 
L 345.27 178.441759 
L 341.3175 178.441759 
z
" clip-path="url(#p1af6ed42ee)" style="fill: #1f77b4"/>
   </g>
   <g id="patch_71">
    <path d="M 345.27 307.584 
L 349.2225 307.584 
L 349.2225 178.80892 
L 345.27 178.80892 
z
" clip-path="url(#p1af6ed42ee)" style="fill: #1f77b4"/>
   </g>
   <g id="patch_72">
    <path d="M 349.2225 307.584 
L 353.175 307.584 
L 353.175 188.386918 
L 349.2225 188.386918 
z
" clip-path="url(#p1af6ed42ee)" style="fill: #1f77b4"/>
   </g>
   <g id="patch_73">
    <path d="M 353.175 307.584 
L 357.1275 307.584 
L 357.1275 170.108436 
L 353.175 170.108436 
z
" clip-path="url(#p1af6ed42ee)" style="fill: #1f77b4"/>
   </g>
   <g id="patch_74">
    <path d="M 357.1275 307.584 
L 361.08 307.584 
L 361.08 157.199475 
L 357.1275 157.199475 
z
" clip-path="url(#p1af6ed42ee)" style="fill: #1f77b4"/>
   </g>
   <g id="patch_75">
    <path d="M 361.08 307.584 
L 365.0325 307.584 
L 365.0325 159.344509 
L 361.08 159.344509 
z
" clip-path="url(#p1af6ed42ee)" style="fill: #1f77b4"/>
   </g>
   <g id="patch_76">
    <path d="M 365.0325 307.584 
L 368.985 307.584 
L 368.985 130.490575 
L 365.0325 130.490575 
z
" clip-path="url(#p1af6ed42ee)" style="fill: #1f77b4"/>
   </g>
   <g id="patch_77">
    <path d="M 368.985 307.584 
L 372.9375 307.584 
L 372.9375 178.435232 
L 368.985 178.435232 
z
" clip-path="url(#p1af6ed42ee)" style="fill: #1f77b4"/>
   </g>
   <g id="patch_78">
    <path d="M 372.9375 307.584 
L 376.89 307.584 
L 376.89 177.042469 
L 372.9375 177.042469 
z
" clip-path="url(#p1af6ed42ee)" style="fill: #1f77b4"/>
   </g>
   <g id="patch_79">
    <path d="M 376.89 307.584 
L 380.8425 307.584 
L 380.8425 177.545887 
L 376.89 177.545887 
z
" clip-path="url(#p1af6ed42ee)" style="fill: #1f77b4"/>
   </g>
   <g id="patch_80">
    <path d="M 380.8425 307.584 
L 384.795 307.584 
L 384.795 157.454855 
L 380.8425 157.454855 
z
" clip-path="url(#p1af6ed42ee)" style="fill: #1f77b4"/>
   </g>
   <g id="patch_81">
    <path d="M 384.795 307.584 
L 388.7475 307.584 
L 388.7475 147.442791 
L 384.795 147.442791 
z
" clip-path="url(#p1af6ed42ee)" style="fill: #1f77b4"/>
   </g>
   <g id="patch_82">
    <path d="M 388.7475 307.584 
L 392.7 307.584 
L 392.7 170.475189 
L 388.7475 170.475189 
z
" clip-path="url(#p1af6ed42ee)" style="fill: #1f77b4"/>
   </g>
   <g id="patch_83">
    <path d="M 392.7 307.584 
L 396.6525 307.584 
L 396.6525 185.655243 
L 392.7 185.655243 
z
" clip-path="url(#p1af6ed42ee)" style="fill: #1f77b4"/>
   </g>
   <g id="patch_84">
    <path d="M 396.6525 307.584 
L 400.605 307.584 
L 400.605 168.232653 
L 396.6525 168.232653 
z
" clip-path="url(#p1af6ed42ee)" style="fill: #1f77b4"/>
   </g>
   <g id="patch_85">
    <path d="M 400.605 307.584 
L 404.5575 307.584 
L 404.5575 131.160031 
L 400.605 131.160031 
z
" clip-path="url(#p1af6ed42ee)" style="fill: #1f77b4"/>
   </g>
   <g id="patch_86">
    <path d="M 404.5575 307.584 
L 408.51 307.584 
L 408.51 133.850503 
L 404.5575 133.850503 
z
" clip-path="url(#p1af6ed42ee)" style="fill: #1f77b4"/>
   </g>
   <g id="patch_87">
    <path d="M 408.51 307.584 
L 412.4625 307.584 
L 412.4625 115.967331 
L 408.51 115.967331 
z
" clip-path="url(#p1af6ed42ee)" style="fill: #1f77b4"/>
   </g>
   <g id="patch_88">
    <path d="M 412.4625 307.584 
L 416.415 307.584 
L 416.415 172.440722 
L 412.4625 172.440722 
z
" clip-path="url(#p1af6ed42ee)" style="fill: #1f77b4"/>
   </g>
   <g id="patch_89">
    <path d="M 416.415 307.584 
L 420.3675 307.584 
L 420.3675 99.786968 
L 416.415 99.786968 
z
" clip-path="url(#p1af6ed42ee)" style="fill: #1f77b4"/>
   </g>
   <g id="patch_90">
    <path d="M 420.3675 307.584 
L 424.32 307.584 
L 424.32 140.142413 
L 420.3675 140.142413 
z
" clip-path="url(#p1af6ed42ee)" style="fill: #1f77b4"/>
   </g>
   <g id="patch_91">
    <path d="M 424.32 307.584 
L 428.2725 307.584 
L 428.2725 163.74391 
L 424.32 163.74391 
z
" clip-path="url(#p1af6ed42ee)" style="fill: #1f77b4"/>
   </g>
   <g id="patch_92">
    <path d="M 428.2725 307.584 
L 432.225 307.584 
L 432.225 162.185517 
L 428.2725 162.185517 
z
" clip-path="url(#p1af6ed42ee)" style="fill: #1f77b4"/>
   </g>
   <g id="patch_93">
    <path d="M 432.225 307.584 
L 436.1775 307.584 
L 436.1775 94.269766 
L 432.225 94.269766 
z
" clip-path="url(#p1af6ed42ee)" style="fill: #1f77b4"/>
   </g>
   <g id="patch_94">
    <path d="M 436.1775 307.584 
L 440.13 307.584 
L 440.13 90.247317 
L 436.1775 90.247317 
z
" clip-path="url(#p1af6ed42ee)" style="fill: #1f77b4"/>
   </g>
   <g id="patch_95">
    <path d="M 440.13 307.584 
L 444.0825 307.584 
L 444.0825 99.750659 
L 440.13 99.750659 
z
" clip-path="url(#p1af6ed42ee)" style="fill: #1f77b4"/>
   </g>
   <g id="patch_96">
    <path d="M 444.0825 307.584 
L 448.035 307.584 
L 448.035 146.996487 
L 444.0825 146.996487 
z
" clip-path="url(#p1af6ed42ee)" style="fill: #1f77b4"/>
   </g>
   <g id="patch_97">
    <path d="M 448.035 307.584 
L 451.9875 307.584 
L 451.9875 128.582971 
L 448.035 128.582971 
z
" clip-path="url(#p1af6ed42ee)" style="fill: #1f77b4"/>
   </g>
   <g id="patch_98">
    <path d="M 451.9875 307.584 
L 455.94 307.584 
L 455.94 100.698342 
L 451.9875 100.698342 
z
" clip-path="url(#p1af6ed42ee)" style="fill: #1f77b4"/>
   </g>
   <g id="patch_99">
    <path d="M 455.94 307.584 
L 459.8925 307.584 
L 459.8925 82.165295 
L 455.94 82.165295 
z
" clip-path="url(#p1af6ed42ee)" style="fill: #1f77b4"/>
   </g>
   <g id="patch_100">
    <path d="M 459.8925 307.584 
L 463.845 307.584 
L 463.845 77.024229 
L 459.8925 77.024229 
z
" clip-path="url(#p1af6ed42ee)" style="fill: #1f77b4"/>
   </g>
   <g id="patch_101">
    <path d="M 463.845 307.584 
L 467.7975 307.584 
L 467.7975 104.275303 
L 463.845 104.275303 
z
" clip-path="url(#p1af6ed42ee)" style="fill: #1f77b4"/>
   </g>
   <g id="patch_102">
    <path d="M 467.7975 307.584 
L 471.75 307.584 
L 471.75 122.310235 
L 467.7975 122.310235 
z
" clip-path="url(#p1af6ed42ee)" style="fill: #1f77b4"/>
   </g>
   <g id="patch_103">
    <path d="M 471.75 307.584 
L 475.7025 307.584 
L 475.7025 144.166494 
L 471.75 144.166494 
z
" clip-path="url(#p1af6ed42ee)" style="fill: #1f77b4"/>
   </g>
   <g id="patch_104">
    <path d="M 475.7025 307.584 
L 479.655 307.584 
L 479.655 149.493996 
L 475.7025 149.493996 
z
" clip-path="url(#p1af6ed42ee)" style="fill: #1f77b4"/>
   </g>
   <g id="patch_105">
    <path d="M 479.655 307.584 
L 483.6075 307.584 
L 483.6075 125.49719 
L 479.655 125.49719 
z
" clip-path="url(#p1af6ed42ee)" style="fill: #1f77b4"/>
   </g>
   <g id="patch_106">
    <path d="M 483.6075 307.584 
L 487.56 307.584 
L 487.56 97.859374 
L 483.6075 97.859374 
z
" clip-path="url(#p1af6ed42ee)" style="fill: #1f77b4"/>
   </g>
   <g id="patch_107">
    <path d="M 487.56 307.584 
L 491.5125 307.584 
L 491.5125 97.631326 
L 487.56 97.631326 
z
" clip-path="url(#p1af6ed42ee)" style="fill: #1f77b4"/>
   </g>
   <g id="patch_108">
    <path d="M 491.5125 307.584 
L 495.465 307.584 
L 495.465 125.768073 
L 491.5125 125.768073 
z
" clip-path="url(#p1af6ed42ee)" style="fill: #1f77b4"/>
   </g>
   <g id="patch_109">
    <path d="M 495.465 307.584 
L 499.4175 307.584 
L 499.4175 127.716064 
L 495.465 127.716064 
z
" clip-path="url(#p1af6ed42ee)" style="fill: #1f77b4"/>
   </g>
   <g id="patch_110">
    <path d="M 499.4175 307.584 
L 503.37 307.584 
L 503.37 136.445105 
L 499.4175 136.445105 
z
" clip-path="url(#p1af6ed42ee)" style="fill: #1f77b4"/>
   </g>
   <g id="patch_111">
    <path d="M 503.37 307.584 
L 507.3225 307.584 
L 507.3225 124.403867 
L 503.37 124.403867 
z
" clip-path="url(#p1af6ed42ee)" style="fill: #1f77b4"/>
   </g>
   <g id="patch_112">
    <path d="M 507.3225 307.584 
L 511.275 307.584 
L 511.275 90.709532 
L 507.3225 90.709532 
z
" clip-path="url(#p1af6ed42ee)" style="fill: #1f77b4"/>
   </g>
   <g id="patch_113">
    <path d="M 511.275 307.584 
L 515.2275 307.584 
L 515.2275 85.286977 
L 511.275 85.286977 
z
" clip-path="url(#p1af6ed42ee)" style="fill: #1f77b4"/>
   </g>
   <g id="patch_114">
    <path d="M 515.2275 307.584 
L 519.18 307.584 
L 519.18 96.378493 
L 515.2275 96.378493 
z
" clip-path="url(#p1af6ed42ee)" style="fill: #1f77b4"/>
   </g>
   <g id="patch_115">
    <path d="M 519.18 307.584 
L 523.1325 307.584 
L 523.1325 135.587173 
L 519.18 135.587173 
z
" clip-path="url(#p1af6ed42ee)" style="fill: #1f77b4"/>
   </g>
   <g id="patch_116">
    <path d="M 523.1325 307.584 
L 527.085 307.584 
L 527.085 134.592576 
L 523.1325 134.592576 
z
" clip-path="url(#p1af6ed42ee)" style="fill: #1f77b4"/>
   </g>
   <g id="patch_117">
    <path d="M 527.085 307.584 
L 531.0375 307.584 
L 531.0375 105.801059 
L 527.085 105.801059 
z
" clip-path="url(#p1af6ed42ee)" style="fill: #1f77b4"/>
   </g>
   <g id="patch_118">
    <path d="M 531.0375 307.584 
L 534.99 307.584 
L 534.99 66.557702 
L 531.0375 66.557702 
z
" clip-path="url(#p1af6ed42ee)" style="fill: #1f77b4"/>
   </g>
   <g id="patch_119">
    <path d="M 534.99 307.584 
L 538.9425 307.584 
L 538.9425 87.543791 
L 534.99 87.543791 
z
" clip-path="url(#p1af6ed42ee)" style="fill: #1f77b4"/>
   </g>
   <g id="patch_120">
    <path d="M 538.9425 307.584 
L 542.895 307.584 
L 542.895 54.144 
L 538.9425 54.144 
z
" clip-path="url(#p1af6ed42ee)" style="fill: #1f77b4"/>
   </g>
   <g id="patch_121">
    <path d="M 542.895 307.584 
L 546.8475 307.584 
L 546.8475 98.978398 
L 542.895 98.978398 
z
" clip-path="url(#p1af6ed42ee)" style="fill: #1f77b4"/>
   </g>
   <g id="patch_122">
    <path d="M 546.8475 307.584 
L 550.8 307.584 
L 550.8 115.290939 
L 546.8475 115.290939 
z
" clip-path="url(#p1af6ed42ee)" style="fill: #1f77b4"/>
   </g>
   <g id="matplotlib.axis_1">
    <g id="xtick_1">
     <g id="line2d_1">
      <defs>
       <path id="me668a84f26" d="M 0 0 
L 0 3.5 
" style="stroke: #000000; stroke-width: 0.8"/>
      </defs>
      <g>
       <use xlink:href="#me668a84f26" x="123.948021" y="307.584" style="stroke: #000000; stroke-width: 0.8"/>
      </g>
     </g>
     <g id="text_1">
      <!-- 2008 -->
      <g transform="translate(101.043021 328.261187) scale(0.18 -0.18)">
       <defs>
        <path id="DejaVuSans-32" d="M 1228 531 
L 3431 531 
L 3431 0 
L 469 0 
L 469 531 
Q 828 903 1448 1529 
Q 2069 2156 2228 2338 
Q 2531 2678 2651 2914 
Q 2772 3150 2772 3378 
Q 2772 3750 2511 3984 
Q 2250 4219 1831 4219 
Q 1534 4219 1204 4116 
Q 875 4013 500 3803 
L 500 4441 
Q 881 4594 1212 4672 
Q 1544 4750 1819 4750 
Q 2544 4750 2975 4387 
Q 3406 4025 3406 3419 
Q 3406 3131 3298 2873 
Q 3191 2616 2906 2266 
Q 2828 2175 2409 1742 
Q 1991 1309 1228 531 
z
" transform="scale(0.015625)"/>
        <path id="DejaVuSans-30" d="M 2034 4250 
Q 1547 4250 1301 3770 
Q 1056 3291 1056 2328 
Q 1056 1369 1301 889 
Q 1547 409 2034 409 
Q 2525 409 2770 889 
Q 3016 1369 3016 2328 
Q 3016 3291 2770 3770 
Q 2525 4250 2034 4250 
z
M 2034 4750 
Q 2819 4750 3233 4129 
Q 3647 3509 3647 2328 
Q 3647 1150 3233 529 
Q 2819 -91 2034 -91 
Q 1250 -91 836 529 
Q 422 1150 422 2328 
Q 422 3509 836 4129 
Q 1250 4750 2034 4750 
z
" transform="scale(0.015625)"/>
        <path id="DejaVuSans-38" d="M 2034 2216 
Q 1584 2216 1326 1975 
Q 1069 1734 1069 1313 
Q 1069 891 1326 650 
Q 1584 409 2034 409 
Q 2484 409 2743 651 
Q 3003 894 3003 1313 
Q 3003 1734 2745 1975 
Q 2488 2216 2034 2216 
z
M 1403 2484 
Q 997 2584 770 2862 
Q 544 3141 544 3541 
Q 544 4100 942 4425 
Q 1341 4750 2034 4750 
Q 2731 4750 3128 4425 
Q 3525 4100 3525 3541 
Q 3525 3141 3298 2862 
Q 3072 2584 2669 2484 
Q 3125 2378 3379 2068 
Q 3634 1759 3634 1313 
Q 3634 634 3220 271 
Q 2806 -91 2034 -91 
Q 1263 -91 848 271 
Q 434 634 434 1313 
Q 434 1759 690 2068 
Q 947 2378 1403 2484 
z
M 1172 3481 
Q 1172 3119 1398 2916 
Q 1625 2713 2034 2713 
Q 2441 2713 2670 2916 
Q 2900 3119 2900 3481 
Q 2900 3844 2670 4047 
Q 2441 4250 2034 4250 
Q 1625 4250 1398 4047 
Q 1172 3844 1172 3481 
z
" transform="scale(0.015625)"/>
       </defs>
       <use xlink:href="#DejaVuSans-32"/>
       <use xlink:href="#DejaVuSans-30" x="63.623047"/>
       <use xlink:href="#DejaVuSans-30" x="127.246094"/>
       <use xlink:href="#DejaVuSans-38" x="190.869141"/>
      </g>
     </g>
    </g>
    <g id="xtick_2">
     <g id="line2d_2">
      <g>
       <use xlink:href="#me668a84f26" x="175.710906" y="307.584" style="stroke: #000000; stroke-width: 0.8"/>
      </g>
     </g>
     <g id="text_2">
      <!-- 2010 -->
      <g transform="translate(152.805906 328.261187) scale(0.18 -0.18)">
       <defs>
        <path id="DejaVuSans-31" d="M 794 531 
L 1825 531 
L 1825 4091 
L 703 3866 
L 703 4441 
L 1819 4666 
L 2450 4666 
L 2450 531 
L 3481 531 
L 3481 0 
L 794 0 
L 794 531 
z
" transform="scale(0.015625)"/>
       </defs>
       <use xlink:href="#DejaVuSans-32"/>
       <use xlink:href="#DejaVuSans-30" x="63.623047"/>
       <use xlink:href="#DejaVuSans-31" x="127.246094"/>
       <use xlink:href="#DejaVuSans-30" x="190.869141"/>
      </g>
     </g>
    </g>
    <g id="xtick_3">
     <g id="line2d_3">
      <g>
       <use xlink:href="#me668a84f26" x="227.402979" y="307.584" style="stroke: #000000; stroke-width: 0.8"/>
      </g>
     </g>
     <g id="text_3">
      <!-- 2012 -->
      <g transform="translate(204.497979 328.261187) scale(0.18 -0.18)">
       <use xlink:href="#DejaVuSans-32"/>
       <use xlink:href="#DejaVuSans-30" x="63.623047"/>
       <use xlink:href="#DejaVuSans-31" x="127.246094"/>
       <use xlink:href="#DejaVuSans-32" x="190.869141"/>
      </g>
     </g>
    </g>
    <g id="xtick_4">
     <g id="line2d_4">
      <g>
       <use xlink:href="#me668a84f26" x="279.165863" y="307.584" style="stroke: #000000; stroke-width: 0.8"/>
      </g>
     </g>
     <g id="text_4">
      <!-- 2014 -->
      <g transform="translate(256.260863 328.261187) scale(0.18 -0.18)">
       <defs>
        <path id="DejaVuSans-34" d="M 2419 4116 
L 825 1625 
L 2419 1625 
L 2419 4116 
z
M 2253 4666 
L 3047 4666 
L 3047 1625 
L 3713 1625 
L 3713 1100 
L 3047 1100 
L 3047 0 
L 2419 0 
L 2419 1100 
L 313 1100 
L 313 1709 
L 2253 4666 
z
" transform="scale(0.015625)"/>
       </defs>
       <use xlink:href="#DejaVuSans-32"/>
       <use xlink:href="#DejaVuSans-30" x="63.623047"/>
       <use xlink:href="#DejaVuSans-31" x="127.246094"/>
       <use xlink:href="#DejaVuSans-34" x="190.869141"/>
      </g>
     </g>
    </g>
    <g id="xtick_5">
     <g id="line2d_5">
      <g>
       <use xlink:href="#me668a84f26" x="330.857936" y="307.584" style="stroke: #000000; stroke-width: 0.8"/>
      </g>
     </g>
     <g id="text_5">
      <!-- 2016 -->
      <g transform="translate(307.952936 328.261187) scale(0.18 -0.18)">
       <defs>
        <path id="DejaVuSans-36" d="M 2113 2584 
Q 1688 2584 1439 2293 
Q 1191 2003 1191 1497 
Q 1191 994 1439 701 
Q 1688 409 2113 409 
Q 2538 409 2786 701 
Q 3034 994 3034 1497 
Q 3034 2003 2786 2293 
Q 2538 2584 2113 2584 
z
M 3366 4563 
L 3366 3988 
Q 3128 4100 2886 4159 
Q 2644 4219 2406 4219 
Q 1781 4219 1451 3797 
Q 1122 3375 1075 2522 
Q 1259 2794 1537 2939 
Q 1816 3084 2150 3084 
Q 2853 3084 3261 2657 
Q 3669 2231 3669 1497 
Q 3669 778 3244 343 
Q 2819 -91 2113 -91 
Q 1303 -91 875 529 
Q 447 1150 447 2328 
Q 447 3434 972 4092 
Q 1497 4750 2381 4750 
Q 2619 4750 2861 4703 
Q 3103 4656 3366 4563 
z
" transform="scale(0.015625)"/>
       </defs>
       <use xlink:href="#DejaVuSans-32"/>
       <use xlink:href="#DejaVuSans-30" x="63.623047"/>
       <use xlink:href="#DejaVuSans-31" x="127.246094"/>
       <use xlink:href="#DejaVuSans-36" x="190.869141"/>
      </g>
     </g>
    </g>
    <g id="xtick_6">
     <g id="line2d_6">
      <g>
       <use xlink:href="#me668a84f26" x="382.620821" y="307.584" style="stroke: #000000; stroke-width: 0.8"/>
      </g>
     </g>
     <g id="text_6">
      <!-- 2018 -->
      <g transform="translate(359.715821 328.261187) scale(0.18 -0.18)">
       <use xlink:href="#DejaVuSans-32"/>
       <use xlink:href="#DejaVuSans-30" x="63.623047"/>
       <use xlink:href="#DejaVuSans-31" x="127.246094"/>
       <use xlink:href="#DejaVuSans-38" x="190.869141"/>
      </g>
     </g>
    </g>
    <g id="xtick_7">
     <g id="line2d_7">
      <g>
       <use xlink:href="#me668a84f26" x="434.312894" y="307.584" style="stroke: #000000; stroke-width: 0.8"/>
      </g>
     </g>
     <g id="text_7">
      <!-- 2020 -->
      <g transform="translate(411.407894 328.261187) scale(0.18 -0.18)">
       <use xlink:href="#DejaVuSans-32"/>
       <use xlink:href="#DejaVuSans-30" x="63.623047"/>
       <use xlink:href="#DejaVuSans-32" x="127.246094"/>
       <use xlink:href="#DejaVuSans-30" x="190.869141"/>
      </g>
     </g>
    </g>
    <g id="xtick_8">
     <g id="line2d_8">
      <g>
       <use xlink:href="#me668a84f26" x="486.075778" y="307.584" style="stroke: #000000; stroke-width: 0.8"/>
      </g>
     </g>
     <g id="text_8">
      <!-- 2022 -->
      <g transform="translate(463.170778 328.261187) scale(0.18 -0.18)">
       <use xlink:href="#DejaVuSans-32"/>
       <use xlink:href="#DejaVuSans-30" x="63.623047"/>
       <use xlink:href="#DejaVuSans-32" x="127.246094"/>
       <use xlink:href="#DejaVuSans-32" x="190.869141"/>
      </g>
     </g>
    </g>
    <g id="xtick_9">
     <g id="line2d_9">
      <g>
       <use xlink:href="#me668a84f26" x="537.767852" y="307.584" style="stroke: #000000; stroke-width: 0.8"/>
      </g>
     </g>
     <g id="text_9">
      <!-- 2024 -->
      <g transform="translate(514.862852 328.261187) scale(0.18 -0.18)">
       <use xlink:href="#DejaVuSans-32"/>
       <use xlink:href="#DejaVuSans-30" x="63.623047"/>
       <use xlink:href="#DejaVuSans-32" x="127.246094"/>
       <use xlink:href="#DejaVuSans-34" x="190.869141"/>
      </g>
     </g>
    </g>
   </g>
   <g id="matplotlib.axis_2">
    <g id="ytick_1">
     <g id="line2d_10">
      <defs>
       <path id="m4050f10af8" d="M 0 0 
L -3.5 0 
" style="stroke: #000000; stroke-width: 0.8"/>
      </defs>
      <g>
       <use xlink:href="#m4050f10af8" x="76.5" y="307.584" style="stroke: #000000; stroke-width: 0.8"/>
      </g>
     </g>
     <g id="text_10">
      <!-- 0 -->
      <g transform="translate(58.0475 314.422594) scale(0.18 -0.18)">
       <use xlink:href="#DejaVuSans-30"/>
      </g>
     </g>
    </g>
    <g id="ytick_2">
     <g id="line2d_11">
      <g>
       <use xlink:href="#m4050f10af8" x="76.5" y="266.788369" style="stroke: #000000; stroke-width: 0.8"/>
      </g>
     </g>
     <g id="text_11">
      <!-- 100000 -->
      <g transform="translate(0.785 273.626963) scale(0.18 -0.18)">
       <use xlink:href="#DejaVuSans-31"/>
       <use xlink:href="#DejaVuSans-30" x="63.623047"/>
       <use xlink:href="#DejaVuSans-30" x="127.246094"/>
       <use xlink:href="#DejaVuSans-30" x="190.869141"/>
       <use xlink:href="#DejaVuSans-30" x="254.492188"/>
       <use xlink:href="#DejaVuSans-30" x="318.115234"/>
      </g>
     </g>
    </g>
    <g id="ytick_3">
     <g id="line2d_12">
      <g>
       <use xlink:href="#m4050f10af8" x="76.5" y="225.992739" style="stroke: #000000; stroke-width: 0.8"/>
      </g>
     </g>
     <g id="text_12">
      <!-- 200000 -->
      <g transform="translate(0.785 232.831332) scale(0.18 -0.18)">
       <use xlink:href="#DejaVuSans-32"/>
       <use xlink:href="#DejaVuSans-30" x="63.623047"/>
       <use xlink:href="#DejaVuSans-30" x="127.246094"/>
       <use xlink:href="#DejaVuSans-30" x="190.869141"/>
       <use xlink:href="#DejaVuSans-30" x="254.492188"/>
       <use xlink:href="#DejaVuSans-30" x="318.115234"/>
      </g>
     </g>
    </g>
    <g id="ytick_4">
     <g id="line2d_13">
      <g>
       <use xlink:href="#m4050f10af8" x="76.5" y="185.197108" style="stroke: #000000; stroke-width: 0.8"/>
      </g>
     </g>
     <g id="text_13">
      <!-- 300000 -->
      <g transform="translate(0.785 192.035702) scale(0.18 -0.18)">
       <defs>
        <path id="DejaVuSans-33" d="M 2597 2516 
Q 3050 2419 3304 2112 
Q 3559 1806 3559 1356 
Q 3559 666 3084 287 
Q 2609 -91 1734 -91 
Q 1441 -91 1130 -33 
Q 819 25 488 141 
L 488 750 
Q 750 597 1062 519 
Q 1375 441 1716 441 
Q 2309 441 2620 675 
Q 2931 909 2931 1356 
Q 2931 1769 2642 2001 
Q 2353 2234 1838 2234 
L 1294 2234 
L 1294 2753 
L 1863 2753 
Q 2328 2753 2575 2939 
Q 2822 3125 2822 3475 
Q 2822 3834 2567 4026 
Q 2313 4219 1838 4219 
Q 1578 4219 1281 4162 
Q 984 4106 628 3988 
L 628 4550 
Q 988 4650 1302 4700 
Q 1616 4750 1894 4750 
Q 2613 4750 3031 4423 
Q 3450 4097 3450 3541 
Q 3450 3153 3228 2886 
Q 3006 2619 2597 2516 
z
" transform="scale(0.015625)"/>
       </defs>
       <use xlink:href="#DejaVuSans-33"/>
       <use xlink:href="#DejaVuSans-30" x="63.623047"/>
       <use xlink:href="#DejaVuSans-30" x="127.246094"/>
       <use xlink:href="#DejaVuSans-30" x="190.869141"/>
       <use xlink:href="#DejaVuSans-30" x="254.492188"/>
       <use xlink:href="#DejaVuSans-30" x="318.115234"/>
      </g>
     </g>
    </g>
    <g id="ytick_5">
     <g id="line2d_14">
      <g>
       <use xlink:href="#m4050f10af8" x="76.5" y="144.401477" style="stroke: #000000; stroke-width: 0.8"/>
      </g>
     </g>
     <g id="text_14">
      <!-- 400000 -->
      <g transform="translate(0.785 151.240071) scale(0.18 -0.18)">
       <use xlink:href="#DejaVuSans-34"/>
       <use xlink:href="#DejaVuSans-30" x="63.623047"/>
       <use xlink:href="#DejaVuSans-30" x="127.246094"/>
       <use xlink:href="#DejaVuSans-30" x="190.869141"/>
       <use xlink:href="#DejaVuSans-30" x="254.492188"/>
       <use xlink:href="#DejaVuSans-30" x="318.115234"/>
      </g>
     </g>
    </g>
    <g id="ytick_6">
     <g id="line2d_15">
      <g>
       <use xlink:href="#m4050f10af8" x="76.5" y="103.605847" style="stroke: #000000; stroke-width: 0.8"/>
      </g>
     </g>
     <g id="text_15">
      <!-- 500000 -->
      <g transform="translate(0.785 110.44444) scale(0.18 -0.18)">
       <defs>
        <path id="DejaVuSans-35" d="M 691 4666 
L 3169 4666 
L 3169 4134 
L 1269 4134 
L 1269 2991 
Q 1406 3038 1543 3061 
Q 1681 3084 1819 3084 
Q 2600 3084 3056 2656 
Q 3513 2228 3513 1497 
Q 3513 744 3044 326 
Q 2575 -91 1722 -91 
Q 1428 -91 1123 -41 
Q 819 9 494 109 
L 494 744 
Q 775 591 1075 516 
Q 1375 441 1709 441 
Q 2250 441 2565 725 
Q 2881 1009 2881 1497 
Q 2881 1984 2565 2268 
Q 2250 2553 1709 2553 
Q 1456 2553 1204 2497 
Q 953 2441 691 2322 
L 691 4666 
z
" transform="scale(0.015625)"/>
       </defs>
       <use xlink:href="#DejaVuSans-35"/>
       <use xlink:href="#DejaVuSans-30" x="63.623047"/>
       <use xlink:href="#DejaVuSans-30" x="127.246094"/>
       <use xlink:href="#DejaVuSans-30" x="190.869141"/>
       <use xlink:href="#DejaVuSans-30" x="254.492188"/>
       <use xlink:href="#DejaVuSans-30" x="318.115234"/>
      </g>
     </g>
    </g>
    <g id="ytick_7">
     <g id="line2d_16">
      <g>
       <use xlink:href="#m4050f10af8" x="76.5" y="62.810216" style="stroke: #000000; stroke-width: 0.8"/>
      </g>
     </g>
     <g id="text_16">
      <!-- 600000 -->
      <g transform="translate(0.785 69.64881) scale(0.18 -0.18)">
       <use xlink:href="#DejaVuSans-36"/>
       <use xlink:href="#DejaVuSans-30" x="63.623047"/>
       <use xlink:href="#DejaVuSans-30" x="127.246094"/>
       <use xlink:href="#DejaVuSans-30" x="190.869141"/>
       <use xlink:href="#DejaVuSans-30" x="254.492188"/>
       <use xlink:href="#DejaVuSans-30" x="318.115234"/>
      </g>
     </g>
    </g>
    <g id="text_17">
     <!-- number of polygons -->
     <g transform="translate(-6.958438 264.709406) rotate(-90) scale(0.18 -0.18)">
      <defs>
       <path id="DejaVuSans-6e" d="M 3513 2113 
L 3513 0 
L 2938 0 
L 2938 2094 
Q 2938 2591 2744 2837 
Q 2550 3084 2163 3084 
Q 1697 3084 1428 2787 
Q 1159 2491 1159 1978 
L 1159 0 
L 581 0 
L 581 3500 
L 1159 3500 
L 1159 2956 
Q 1366 3272 1645 3428 
Q 1925 3584 2291 3584 
Q 2894 3584 3203 3211 
Q 3513 2838 3513 2113 
z
" transform="scale(0.015625)"/>
       <path id="DejaVuSans-75" d="M 544 1381 
L 544 3500 
L 1119 3500 
L 1119 1403 
Q 1119 906 1312 657 
Q 1506 409 1894 409 
Q 2359 409 2629 706 
Q 2900 1003 2900 1516 
L 2900 3500 
L 3475 3500 
L 3475 0 
L 2900 0 
L 2900 538 
Q 2691 219 2414 64 
Q 2138 -91 1772 -91 
Q 1169 -91 856 284 
Q 544 659 544 1381 
z
M 1991 3584 
L 1991 3584 
z
" transform="scale(0.015625)"/>
       <path id="DejaVuSans-6d" d="M 3328 2828 
Q 3544 3216 3844 3400 
Q 4144 3584 4550 3584 
Q 5097 3584 5394 3201 
Q 5691 2819 5691 2113 
L 5691 0 
L 5113 0 
L 5113 2094 
Q 5113 2597 4934 2840 
Q 4756 3084 4391 3084 
Q 3944 3084 3684 2787 
Q 3425 2491 3425 1978 
L 3425 0 
L 2847 0 
L 2847 2094 
Q 2847 2600 2669 2842 
Q 2491 3084 2119 3084 
Q 1678 3084 1418 2786 
Q 1159 2488 1159 1978 
L 1159 0 
L 581 0 
L 581 3500 
L 1159 3500 
L 1159 2956 
Q 1356 3278 1631 3431 
Q 1906 3584 2284 3584 
Q 2666 3584 2933 3390 
Q 3200 3197 3328 2828 
z
" transform="scale(0.015625)"/>
       <path id="DejaVuSans-62" d="M 3116 1747 
Q 3116 2381 2855 2742 
Q 2594 3103 2138 3103 
Q 1681 3103 1420 2742 
Q 1159 2381 1159 1747 
Q 1159 1113 1420 752 
Q 1681 391 2138 391 
Q 2594 391 2855 752 
Q 3116 1113 3116 1747 
z
M 1159 2969 
Q 1341 3281 1617 3432 
Q 1894 3584 2278 3584 
Q 2916 3584 3314 3078 
Q 3713 2572 3713 1747 
Q 3713 922 3314 415 
Q 2916 -91 2278 -91 
Q 1894 -91 1617 61 
Q 1341 213 1159 525 
L 1159 0 
L 581 0 
L 581 4863 
L 1159 4863 
L 1159 2969 
z
" transform="scale(0.015625)"/>
       <path id="DejaVuSans-65" d="M 3597 1894 
L 3597 1613 
L 953 1613 
Q 991 1019 1311 708 
Q 1631 397 2203 397 
Q 2534 397 2845 478 
Q 3156 559 3463 722 
L 3463 178 
Q 3153 47 2828 -22 
Q 2503 -91 2169 -91 
Q 1331 -91 842 396 
Q 353 884 353 1716 
Q 353 2575 817 3079 
Q 1281 3584 2069 3584 
Q 2775 3584 3186 3129 
Q 3597 2675 3597 1894 
z
M 3022 2063 
Q 3016 2534 2758 2815 
Q 2500 3097 2075 3097 
Q 1594 3097 1305 2825 
Q 1016 2553 972 2059 
L 3022 2063 
z
" transform="scale(0.015625)"/>
       <path id="DejaVuSans-72" d="M 2631 2963 
Q 2534 3019 2420 3045 
Q 2306 3072 2169 3072 
Q 1681 3072 1420 2755 
Q 1159 2438 1159 1844 
L 1159 0 
L 581 0 
L 581 3500 
L 1159 3500 
L 1159 2956 
Q 1341 3275 1631 3429 
Q 1922 3584 2338 3584 
Q 2397 3584 2469 3576 
Q 2541 3569 2628 3553 
L 2631 2963 
z
" transform="scale(0.015625)"/>
       <path id="DejaVuSans-20" transform="scale(0.015625)"/>
       <path id="DejaVuSans-6f" d="M 1959 3097 
Q 1497 3097 1228 2736 
Q 959 2375 959 1747 
Q 959 1119 1226 758 
Q 1494 397 1959 397 
Q 2419 397 2687 759 
Q 2956 1122 2956 1747 
Q 2956 2369 2687 2733 
Q 2419 3097 1959 3097 
z
M 1959 3584 
Q 2709 3584 3137 3096 
Q 3566 2609 3566 1747 
Q 3566 888 3137 398 
Q 2709 -91 1959 -91 
Q 1206 -91 779 398 
Q 353 888 353 1747 
Q 353 2609 779 3096 
Q 1206 3584 1959 3584 
z
" transform="scale(0.015625)"/>
       <path id="DejaVuSans-66" d="M 2375 4863 
L 2375 4384 
L 1825 4384 
Q 1516 4384 1395 4259 
Q 1275 4134 1275 3809 
L 1275 3500 
L 2222 3500 
L 2222 3053 
L 1275 3053 
L 1275 0 
L 697 0 
L 697 3053 
L 147 3053 
L 147 3500 
L 697 3500 
L 697 3744 
Q 697 4328 969 4595 
Q 1241 4863 1831 4863 
L 2375 4863 
z
" transform="scale(0.015625)"/>
       <path id="DejaVuSans-70" d="M 1159 525 
L 1159 -1331 
L 581 -1331 
L 581 3500 
L 1159 3500 
L 1159 2969 
Q 1341 3281 1617 3432 
Q 1894 3584 2278 3584 
Q 2916 3584 3314 3078 
Q 3713 2572 3713 1747 
Q 3713 922 3314 415 
Q 2916 -91 2278 -91 
Q 1894 -91 1617 61 
Q 1341 213 1159 525 
z
M 3116 1747 
Q 3116 2381 2855 2742 
Q 2594 3103 2138 3103 
Q 1681 3103 1420 2742 
Q 1159 2381 1159 1747 
Q 1159 1113 1420 752 
Q 1681 391 2138 391 
Q 2594 391 2855 752 
Q 3116 1113 3116 1747 
z
" transform="scale(0.015625)"/>
       <path id="DejaVuSans-6c" d="M 603 4863 
L 1178 4863 
L 1178 0 
L 603 0 
L 603 4863 
z
" transform="scale(0.015625)"/>
       <path id="DejaVuSans-79" d="M 2059 -325 
Q 1816 -950 1584 -1140 
Q 1353 -1331 966 -1331 
L 506 -1331 
L 506 -850 
L 844 -850 
Q 1081 -850 1212 -737 
Q 1344 -625 1503 -206 
L 1606 56 
L 191 3500 
L 800 3500 
L 1894 763 
L 2988 3500 
L 3597 3500 
L 2059 -325 
z
" transform="scale(0.015625)"/>
       <path id="DejaVuSans-67" d="M 2906 1791 
Q 2906 2416 2648 2759 
Q 2391 3103 1925 3103 
Q 1463 3103 1205 2759 
Q 947 2416 947 1791 
Q 947 1169 1205 825 
Q 1463 481 1925 481 
Q 2391 481 2648 825 
Q 2906 1169 2906 1791 
z
M 3481 434 
Q 3481 -459 3084 -895 
Q 2688 -1331 1869 -1331 
Q 1566 -1331 1297 -1286 
Q 1028 -1241 775 -1147 
L 775 -588 
Q 1028 -725 1275 -790 
Q 1522 -856 1778 -856 
Q 2344 -856 2625 -561 
Q 2906 -266 2906 331 
L 2906 616 
Q 2728 306 2450 153 
Q 2172 0 1784 0 
Q 1141 0 747 490 
Q 353 981 353 1791 
Q 353 2603 747 3093 
Q 1141 3584 1784 3584 
Q 2172 3584 2450 3431 
Q 2728 3278 2906 2969 
L 2906 3500 
L 3481 3500 
L 3481 434 
z
" transform="scale(0.015625)"/>
       <path id="DejaVuSans-73" d="M 2834 3397 
L 2834 2853 
Q 2591 2978 2328 3040 
Q 2066 3103 1784 3103 
Q 1356 3103 1142 2972 
Q 928 2841 928 2578 
Q 928 2378 1081 2264 
Q 1234 2150 1697 2047 
L 1894 2003 
Q 2506 1872 2764 1633 
Q 3022 1394 3022 966 
Q 3022 478 2636 193 
Q 2250 -91 1575 -91 
Q 1294 -91 989 -36 
Q 684 19 347 128 
L 347 722 
Q 666 556 975 473 
Q 1284 391 1588 391 
Q 1994 391 2212 530 
Q 2431 669 2431 922 
Q 2431 1156 2273 1281 
Q 2116 1406 1581 1522 
L 1381 1569 
Q 847 1681 609 1914 
Q 372 2147 372 2553 
Q 372 3047 722 3315 
Q 1072 3584 1716 3584 
Q 2034 3584 2315 3537 
Q 2597 3491 2834 3397 
z
" transform="scale(0.015625)"/>
      </defs>
      <use xlink:href="#DejaVuSans-6e"/>
      <use xlink:href="#DejaVuSans-75" x="63.378906"/>
      <use xlink:href="#DejaVuSans-6d" x="126.757812"/>
      <use xlink:href="#DejaVuSans-62" x="224.169922"/>
      <use xlink:href="#DejaVuSans-65" x="287.646484"/>
      <use xlink:href="#DejaVuSans-72" x="349.169922"/>
      <use xlink:href="#DejaVuSans-20" x="390.283203"/>
      <use xlink:href="#DejaVuSans-6f" x="422.070312"/>
      <use xlink:href="#DejaVuSans-66" x="483.251953"/>
      <use xlink:href="#DejaVuSans-20" x="518.457031"/>
      <use xlink:href="#DejaVuSans-70" x="550.244141"/>
      <use xlink:href="#DejaVuSans-6f" x="613.720703"/>
      <use xlink:href="#DejaVuSans-6c" x="674.902344"/>
      <use xlink:href="#DejaVuSans-79" x="702.685547"/>
      <use xlink:href="#DejaVuSans-67" x="761.865234"/>
      <use xlink:href="#DejaVuSans-6f" x="825.341797"/>
      <use xlink:href="#DejaVuSans-6e" x="886.523438"/>
      <use xlink:href="#DejaVuSans-73" x="949.902344"/>
     </g>
    </g>
   </g>
   <g id="patch_123">
    <path d="M 76.5 307.584 
L 76.5 41.472 
" style="fill: none; stroke: #000000; stroke-width: 0.8; stroke-linejoin: miter; stroke-linecap: square"/>
   </g>
   <g id="patch_124">
    <path d="M 550.8 307.584 
L 550.8 41.472 
" style="fill: none; stroke: #000000; stroke-width: 0.8; stroke-linejoin: miter; stroke-linecap: square"/>
   </g>
   <g id="patch_125">
    <path d="M 76.5 307.584 
L 550.8 307.584 
" style="fill: none; stroke: #000000; stroke-width: 0.8; stroke-linejoin: miter; stroke-linecap: square"/>
   </g>
   <g id="patch_126">
    <path d="M 76.5 41.472 
L 550.8 41.472 
" style="fill: none; stroke: #000000; stroke-width: 0.8; stroke-linejoin: miter; stroke-linecap: square"/>
   </g>
  </g>
 </g>
 <defs>
  <clipPath id="p1af6ed42ee">
   <rect x="76.5" y="41.472" width="474.3" height="266.112"/>
  </clipPath>
 </defs>
</svg>
