<?xml version="1.0" encoding="utf-8" standalone="no"?>
<!DOCTYPE svg PUBLIC "-//W3C//DTD SVG 1.1//EN"
  "http://www.w3.org/Graphics/SVG/1.1/DTD/svg11.dtd">
<svg xmlns:xlink="http://www.w3.org/1999/xlink" width="612pt" height="345.6pt" viewBox="0 0 612 345.6" xmlns="http://www.w3.org/2000/svg" version="1.1">
 <metadata>
  <rdf:RDF xmlns:dc="http://purl.org/dc/elements/1.1/" xmlns:cc="http://creativecommons.org/ns#" xmlns:rdf="http://www.w3.org/1999/02/22-rdf-syntax-ns#">
   <cc:Work>
    <dc:type rdf:resource="http://purl.org/dc/dcmitype/StillImage"/>
    <dc:date>2024-03-20T18:13:10.165462</dc:date>
    <dc:format>image/svg+xml</dc:format>
    <dc:creator>
     <cc:Agent>
      <dc:title>Matplotlib v3.5.1, https://matplotlib.org/</dc:title>
     </cc:Agent>
    </dc:creator>
   </cc:Work>
  </rdf:RDF>
 </metadata>
 <defs>
  <style type="text/css">*{stroke-linejoin: round; stroke-linecap: butt}</style>
 </defs>
 <g id="figure_1">
  <g id="patch_1">
   <path d="M 0 345.6 
L 612 345.6 
L 612 0 
L 0 0 
z
" style="fill: #ffffff"/>
  </g>
  <g id="axes_1">
   <g id="patch_2">
    <path d="M 76.5 302.4 
L 550.8 302.4 
L 550.8 41.472 
L 76.5 41.472 
z
" style="fill: #ffffff"/>
   </g>
   <g id="patch_3">
    <path d="M 76.5 302.4 
L 82.42875 302.4 
L 82.42875 53.897143 
L 76.5 53.897143 
z
" clip-path="url(#p6958c0f33e)" style="fill: #1f77b4"/>
   </g>
   <g id="patch_4">
    <path d="M 82.42875 302.4 
L 88.3575 302.4 
L 88.3575 240.127416 
L 82.42875 240.127416 
z
" clip-path="url(#p6958c0f33e)" style="fill: #1f77b4"/>
   </g>
   <g id="patch_5">
    <path d="M 88.3575 302.4 
L 94.28625 302.4 
L 94.28625 266.563891 
L 88.3575 266.563891 
z
" clip-path="url(#p6958c0f33e)" style="fill: #1f77b4"/>
   </g>
   <g id="patch_6">
    <path d="M 94.28625 302.4 
L 100.215 302.4 
L 100.215 266.563891 
L 94.28625 266.563891 
z
" clip-path="url(#p6958c0f33e)" style="fill: #1f77b4"/>
   </g>
   <g id="patch_7">
    <path d="M 100.215 302.4 
L 106.14375 302.4 
L 106.14375 269.501277 
L 100.215 269.501277 
z
" clip-path="url(#p6958c0f33e)" style="fill: #1f77b4"/>
   </g>
   <g id="patch_8">
    <path d="M 106.14375 302.4 
L 112.0725 302.4 
L 112.0725 284.188207 
L 106.14375 284.188207 
z
" clip-path="url(#p6958c0f33e)" style="fill: #1f77b4"/>
   </g>
   <g id="patch_9">
    <path d="M 112.0725 302.4 
L 118.00125 302.4 
L 118.00125 285.950638 
L 112.0725 285.950638 
z
" clip-path="url(#p6958c0f33e)" style="fill: #1f77b4"/>
   </g>
   <g id="patch_10">
    <path d="M 118.00125 302.4 
L 123.93 302.4 
L 123.93 280.663343 
L 118.00125 280.663343 
z
" clip-path="url(#p6958c0f33e)" style="fill: #1f77b4"/>
   </g>
   <g id="patch_11">
    <path d="M 123.93 302.4 
L 129.85875 302.4 
L 129.85875 285.950638 
L 123.93 285.950638 
z
" clip-path="url(#p6958c0f33e)" style="fill: #1f77b4"/>
   </g>
   <g id="patch_12">
    <path d="M 129.85875 302.4 
L 135.7875 302.4 
L 135.7875 292.412888 
L 129.85875 292.412888 
z
" clip-path="url(#p6958c0f33e)" style="fill: #1f77b4"/>
   </g>
   <g id="patch_13">
    <path d="M 135.7875 302.4 
L 141.71625 302.4 
L 141.71625 293.000365 
L 135.7875 293.000365 
z
" clip-path="url(#p6958c0f33e)" style="fill: #1f77b4"/>
   </g>
   <g id="patch_14">
    <path d="M 141.71625 302.4 
L 147.645 302.4 
L 147.645 295.350274 
L 141.71625 295.350274 
z
" clip-path="url(#p6958c0f33e)" style="fill: #1f77b4"/>
   </g>
   <g id="patch_15">
    <path d="M 147.645 302.4 
L 153.57375 302.4 
L 153.57375 292.412888 
L 147.645 292.412888 
z
" clip-path="url(#p6958c0f33e)" style="fill: #1f77b4"/>
   </g>
   <g id="patch_16">
    <path d="M 153.57375 302.4 
L 159.5025 302.4 
L 159.5025 296.525228 
L 153.57375 296.525228 
z
" clip-path="url(#p6958c0f33e)" style="fill: #1f77b4"/>
   </g>
   <g id="patch_17">
    <path d="M 159.5025 302.4 
L 165.43125 302.4 
L 165.43125 298.28766 
L 159.5025 298.28766 
z
" clip-path="url(#p6958c0f33e)" style="fill: #1f77b4"/>
   </g>
   <g id="patch_18">
    <path d="M 165.43125 302.4 
L 171.36 302.4 
L 171.36 295.937751 
L 165.43125 295.937751 
z
" clip-path="url(#p6958c0f33e)" style="fill: #1f77b4"/>
   </g>
   <g id="patch_19">
    <path d="M 171.36 302.4 
L 177.28875 302.4 
L 177.28875 298.875137 
L 171.36 298.875137 
z
" clip-path="url(#p6958c0f33e)" style="fill: #1f77b4"/>
   </g>
   <g id="patch_20">
    <path d="M 177.28875 302.4 
L 183.2175 302.4 
L 183.2175 297.700182 
L 177.28875 297.700182 
z
" clip-path="url(#p6958c0f33e)" style="fill: #1f77b4"/>
   </g>
   <g id="patch_21">
    <path d="M 183.2175 302.4 
L 189.14625 302.4 
L 189.14625 294.762796 
L 183.2175 294.762796 
z
" clip-path="url(#p6958c0f33e)" style="fill: #1f77b4"/>
   </g>
   <g id="patch_22">
    <path d="M 189.14625 302.4 
L 195.075 302.4 
L 195.075 297.112705 
L 189.14625 297.112705 
z
" clip-path="url(#p6958c0f33e)" style="fill: #1f77b4"/>
   </g>
   <g id="patch_23">
    <path d="M 195.075 302.4 
L 201.00375 302.4 
L 201.00375 299.462614 
L 195.075 299.462614 
z
" clip-path="url(#p6958c0f33e)" style="fill: #1f77b4"/>
   </g>
   <g id="patch_24">
    <path d="M 201.00375 302.4 
L 206.9325 302.4 
L 206.9325 299.462614 
L 201.00375 299.462614 
z
" clip-path="url(#p6958c0f33e)" style="fill: #1f77b4"/>
   </g>
   <g id="patch_25">
    <path d="M 206.9325 302.4 
L 212.86125 302.4 
L 212.86125 297.700182 
L 206.9325 297.700182 
z
" clip-path="url(#p6958c0f33e)" style="fill: #1f77b4"/>
   </g>
   <g id="patch_26">
    <path d="M 212.86125 302.4 
L 218.79 302.4 
L 218.79 300.637568 
L 212.86125 300.637568 
z
" clip-path="url(#p6958c0f33e)" style="fill: #1f77b4"/>
   </g>
   <g id="patch_27">
    <path d="M 218.79 302.4 
L 224.71875 302.4 
L 224.71875 301.225046 
L 218.79 301.225046 
z
" clip-path="url(#p6958c0f33e)" style="fill: #1f77b4"/>
   </g>
   <g id="patch_28">
    <path d="M 224.71875 302.4 
L 230.6475 302.4 
L 230.6475 300.050091 
L 224.71875 300.050091 
z
" clip-path="url(#p6958c0f33e)" style="fill: #1f77b4"/>
   </g>
   <g id="patch_29">
    <path d="M 230.6475 302.4 
L 236.57625 302.4 
L 236.57625 300.050091 
L 230.6475 300.050091 
z
" clip-path="url(#p6958c0f33e)" style="fill: #1f77b4"/>
   </g>
   <g id="patch_30">
    <path d="M 236.57625 302.4 
L 242.505 302.4 
L 242.505 300.050091 
L 236.57625 300.050091 
z
" clip-path="url(#p6958c0f33e)" style="fill: #1f77b4"/>
   </g>
   <g id="patch_31">
    <path d="M 242.505 302.4 
L 248.43375 302.4 
L 248.43375 301.225046 
L 242.505 301.225046 
z
" clip-path="url(#p6958c0f33e)" style="fill: #1f77b4"/>
   </g>
   <g id="patch_32">
    <path d="M 248.43375 302.4 
L 254.3625 302.4 
L 254.3625 299.462614 
L 248.43375 299.462614 
z
" clip-path="url(#p6958c0f33e)" style="fill: #1f77b4"/>
   </g>
   <g id="patch_33">
    <path d="M 254.3625 302.4 
L 260.29125 302.4 
L 260.29125 298.875137 
L 254.3625 298.875137 
z
" clip-path="url(#p6958c0f33e)" style="fill: #1f77b4"/>
   </g>
   <g id="patch_34">
    <path d="M 260.29125 302.4 
L 266.22 302.4 
L 266.22 297.112705 
L 260.29125 297.112705 
z
" clip-path="url(#p6958c0f33e)" style="fill: #1f77b4"/>
   </g>
   <g id="patch_35">
    <path d="M 266.22 302.4 
L 272.14875 302.4 
L 272.14875 301.225046 
L 266.22 301.225046 
z
" clip-path="url(#p6958c0f33e)" style="fill: #1f77b4"/>
   </g>
   <g id="patch_36">
    <path d="M 272.14875 302.4 
L 278.0775 302.4 
L 278.0775 301.225046 
L 272.14875 301.225046 
z
" clip-path="url(#p6958c0f33e)" style="fill: #1f77b4"/>
   </g>
   <g id="patch_37">
    <path d="M 278.0775 302.4 
L 284.00625 302.4 
L 284.00625 301.225046 
L 278.0775 301.225046 
z
" clip-path="url(#p6958c0f33e)" style="fill: #1f77b4"/>
   </g>
   <g id="patch_38">
    <path d="M 284.00625 302.4 
L 289.935 302.4 
L 289.935 299.462614 
L 284.00625 299.462614 
z
" clip-path="url(#p6958c0f33e)" style="fill: #1f77b4"/>
   </g>
   <g id="patch_39">
    <path d="M 289.935 302.4 
L 295.86375 302.4 
L 295.86375 300.637568 
L 289.935 300.637568 
z
" clip-path="url(#p6958c0f33e)" style="fill: #1f77b4"/>
   </g>
   <g id="patch_40">
    <path d="M 295.86375 302.4 
L 301.7925 302.4 
L 301.7925 301.225046 
L 295.86375 301.225046 
z
" clip-path="url(#p6958c0f33e)" style="fill: #1f77b4"/>
   </g>
   <g id="patch_41">
    <path d="M 301.7925 302.4 
L 307.72125 302.4 
L 307.72125 301.225046 
L 301.7925 301.225046 
z
" clip-path="url(#p6958c0f33e)" style="fill: #1f77b4"/>
   </g>
   <g id="patch_42">
    <path d="M 307.72125 302.4 
L 313.65 302.4 
L 313.65 301.225046 
L 307.72125 301.225046 
z
" clip-path="url(#p6958c0f33e)" style="fill: #1f77b4"/>
   </g>
   <g id="patch_43">
    <path d="M 313.65 302.4 
L 319.57875 302.4 
L 319.57875 297.700182 
L 313.65 297.700182 
z
" clip-path="url(#p6958c0f33e)" style="fill: #1f77b4"/>
   </g>
   <g id="patch_44">
    <path d="M 319.57875 302.4 
L 325.5075 302.4 
L 325.5075 300.637568 
L 319.57875 300.637568 
z
" clip-path="url(#p6958c0f33e)" style="fill: #1f77b4"/>
   </g>
   <g id="patch_45">
    <path d="M 325.5075 302.4 
L 331.43625 302.4 
L 331.43625 297.700182 
L 325.5075 297.700182 
z
" clip-path="url(#p6958c0f33e)" style="fill: #1f77b4"/>
   </g>
   <g id="patch_46">
    <path d="M 331.43625 302.4 
L 337.365 302.4 
L 337.365 301.812523 
L 331.43625 301.812523 
z
" clip-path="url(#p6958c0f33e)" style="fill: #1f77b4"/>
   </g>
   <g id="patch_47">
    <path d="M 337.365 302.4 
L 343.29375 302.4 
L 343.29375 300.637568 
L 337.365 300.637568 
z
" clip-path="url(#p6958c0f33e)" style="fill: #1f77b4"/>
   </g>
   <g id="patch_48">
    <path d="M 343.29375 302.4 
L 349.2225 302.4 
L 349.2225 299.462614 
L 343.29375 299.462614 
z
" clip-path="url(#p6958c0f33e)" style="fill: #1f77b4"/>
   </g>
   <g id="patch_49">
    <path d="M 349.2225 302.4 
L 355.15125 302.4 
L 355.15125 301.225046 
L 349.2225 301.225046 
z
" clip-path="url(#p6958c0f33e)" style="fill: #1f77b4"/>
   </g>
   <g id="patch_50">
    <path d="M 355.15125 302.4 
L 361.08 302.4 
L 361.08 301.812523 
L 355.15125 301.812523 
z
" clip-path="url(#p6958c0f33e)" style="fill: #1f77b4"/>
   </g>
   <g id="patch_51">
    <path d="M 361.08 302.4 
L 367.00875 302.4 
L 367.00875 298.28766 
L 361.08 298.28766 
z
" clip-path="url(#p6958c0f33e)" style="fill: #1f77b4"/>
   </g>
   <g id="patch_52">
    <path d="M 367.00875 302.4 
L 372.9375 302.4 
L 372.9375 302.4 
L 367.00875 302.4 
z
" clip-path="url(#p6958c0f33e)" style="fill: #1f77b4"/>
   </g>
   <g id="patch_53">
    <path d="M 372.9375 302.4 
L 378.86625 302.4 
L 378.86625 298.875137 
L 372.9375 298.875137 
z
" clip-path="url(#p6958c0f33e)" style="fill: #1f77b4"/>
   </g>
   <g id="patch_54">
    <path d="M 378.86625 302.4 
L 384.795 302.4 
L 384.795 301.812523 
L 378.86625 301.812523 
z
" clip-path="url(#p6958c0f33e)" style="fill: #1f77b4"/>
   </g>
   <g id="patch_55">
    <path d="M 384.795 302.4 
L 390.72375 302.4 
L 390.72375 300.637568 
L 384.795 300.637568 
z
" clip-path="url(#p6958c0f33e)" style="fill: #1f77b4"/>
   </g>
   <g id="patch_56">
    <path d="M 390.72375 302.4 
L 396.6525 302.4 
L 396.6525 301.225046 
L 390.72375 301.225046 
z
" clip-path="url(#p6958c0f33e)" style="fill: #1f77b4"/>
   </g>
   <g id="patch_57">
    <path d="M 396.6525 302.4 
L 402.58125 302.4 
L 402.58125 300.050091 
L 396.6525 300.050091 
z
" clip-path="url(#p6958c0f33e)" style="fill: #1f77b4"/>
   </g>
   <g id="patch_58">
    <path d="M 402.58125 302.4 
L 408.51 302.4 
L 408.51 300.637568 
L 402.58125 300.637568 
z
" clip-path="url(#p6958c0f33e)" style="fill: #1f77b4"/>
   </g>
   <g id="patch_59">
    <path d="M 408.51 302.4 
L 414.43875 302.4 
L 414.43875 302.4 
L 408.51 302.4 
z
" clip-path="url(#p6958c0f33e)" style="fill: #1f77b4"/>
   </g>
   <g id="patch_60">
    <path d="M 414.43875 302.4 
L 420.3675 302.4 
L 420.3675 301.812523 
L 414.43875 301.812523 
z
" clip-path="url(#p6958c0f33e)" style="fill: #1f77b4"/>
   </g>
   <g id="patch_61">
    <path d="M 420.3675 302.4 
L 426.29625 302.4 
L 426.29625 302.4 
L 420.3675 302.4 
z
" clip-path="url(#p6958c0f33e)" style="fill: #1f77b4"/>
   </g>
   <g id="patch_62">
    <path d="M 426.29625 302.4 
L 432.225 302.4 
L 432.225 301.225046 
L 426.29625 301.225046 
z
" clip-path="url(#p6958c0f33e)" style="fill: #1f77b4"/>
   </g>
   <g id="patch_63">
    <path d="M 432.225 302.4 
L 438.15375 302.4 
L 438.15375 301.812523 
L 432.225 301.812523 
z
" clip-path="url(#p6958c0f33e)" style="fill: #1f77b4"/>
   </g>
   <g id="patch_64">
    <path d="M 438.15375 302.4 
L 444.0825 302.4 
L 444.0825 301.812523 
L 438.15375 301.812523 
z
" clip-path="url(#p6958c0f33e)" style="fill: #1f77b4"/>
   </g>
   <g id="patch_65">
    <path d="M 444.0825 302.4 
L 450.01125 302.4 
L 450.01125 302.4 
L 444.0825 302.4 
z
" clip-path="url(#p6958c0f33e)" style="fill: #1f77b4"/>
   </g>
   <g id="patch_66">
    <path d="M 450.01125 302.4 
L 455.94 302.4 
L 455.94 302.4 
L 450.01125 302.4 
z
" clip-path="url(#p6958c0f33e)" style="fill: #1f77b4"/>
   </g>
   <g id="patch_67">
    <path d="M 455.94 302.4 
L 461.86875 302.4 
L 461.86875 301.225046 
L 455.94 301.225046 
z
" clip-path="url(#p6958c0f33e)" style="fill: #1f77b4"/>
   </g>
   <g id="patch_68">
    <path d="M 461.86875 302.4 
L 467.7975 302.4 
L 467.7975 302.4 
L 461.86875 302.4 
z
" clip-path="url(#p6958c0f33e)" style="fill: #1f77b4"/>
   </g>
   <g id="patch_69">
    <path d="M 467.7975 302.4 
L 473.72625 302.4 
L 473.72625 301.812523 
L 467.7975 301.812523 
z
" clip-path="url(#p6958c0f33e)" style="fill: #1f77b4"/>
   </g>
   <g id="patch_70">
    <path d="M 473.72625 302.4 
L 479.655 302.4 
L 479.655 302.4 
L 473.72625 302.4 
z
" clip-path="url(#p6958c0f33e)" style="fill: #1f77b4"/>
   </g>
   <g id="patch_71">
    <path d="M 479.655 302.4 
L 485.58375 302.4 
L 485.58375 301.812523 
L 479.655 301.812523 
z
" clip-path="url(#p6958c0f33e)" style="fill: #1f77b4"/>
   </g>
   <g id="patch_72">
    <path d="M 485.58375 302.4 
L 491.5125 302.4 
L 491.5125 301.812523 
L 485.58375 301.812523 
z
" clip-path="url(#p6958c0f33e)" style="fill: #1f77b4"/>
   </g>
   <g id="patch_73">
    <path d="M 491.5125 302.4 
L 497.44125 302.4 
L 497.44125 302.4 
L 491.5125 302.4 
z
" clip-path="url(#p6958c0f33e)" style="fill: #1f77b4"/>
   </g>
   <g id="patch_74">
    <path d="M 497.44125 302.4 
L 503.37 302.4 
L 503.37 302.4 
L 497.44125 302.4 
z
" clip-path="url(#p6958c0f33e)" style="fill: #1f77b4"/>
   </g>
   <g id="patch_75">
    <path d="M 503.37 302.4 
L 509.29875 302.4 
L 509.29875 302.4 
L 503.37 302.4 
z
" clip-path="url(#p6958c0f33e)" style="fill: #1f77b4"/>
   </g>
   <g id="patch_76">
    <path d="M 509.29875 302.4 
L 515.2275 302.4 
L 515.2275 301.812523 
L 509.29875 301.812523 
z
" clip-path="url(#p6958c0f33e)" style="fill: #1f77b4"/>
   </g>
   <g id="patch_77">
    <path d="M 515.2275 302.4 
L 521.15625 302.4 
L 521.15625 302.4 
L 515.2275 302.4 
z
" clip-path="url(#p6958c0f33e)" style="fill: #1f77b4"/>
   </g>
   <g id="patch_78">
    <path d="M 521.15625 302.4 
L 527.085 302.4 
L 527.085 301.812523 
L 521.15625 301.812523 
z
" clip-path="url(#p6958c0f33e)" style="fill: #1f77b4"/>
   </g>
   <g id="patch_79">
    <path d="M 527.085 302.4 
L 533.01375 302.4 
L 533.01375 302.4 
L 527.085 302.4 
z
" clip-path="url(#p6958c0f33e)" style="fill: #1f77b4"/>
   </g>
   <g id="patch_80">
    <path d="M 533.01375 302.4 
L 538.9425 302.4 
L 538.9425 302.4 
L 533.01375 302.4 
z
" clip-path="url(#p6958c0f33e)" style="fill: #1f77b4"/>
   </g>
   <g id="patch_81">
    <path d="M 538.9425 302.4 
L 544.87125 302.4 
L 544.87125 302.4 
L 538.9425 302.4 
z
" clip-path="url(#p6958c0f33e)" style="fill: #1f77b4"/>
   </g>
   <g id="patch_82">
    <path d="M 544.87125 302.4 
L 550.8 302.4 
L 550.8 301.812523 
L 544.87125 301.812523 
z
" clip-path="url(#p6958c0f33e)" style="fill: #1f77b4"/>
   </g>
   <g id="matplotlib.axis_1">
    <g id="xtick_1">
     <g id="line2d_1">
      <defs>
       <path id="me57bac103c" d="M 0 0 
L 0 3.5 
" style="stroke: #000000; stroke-width: 0.8"/>
      </defs>
      <g>
       <use xlink:href="#me57bac103c" x="76.5" y="302.4" style="stroke: #000000; stroke-width: 0.8"/>
      </g>
     </g>
     <g id="text_1">
      <!-- 0 -->
      <g transform="translate(73.31875 316.998437)scale(0.1 -0.1)">
       <defs>
        <path id="DejaVuSans-30" d="M 2034 4250 
Q 1547 4250 1301 3770 
Q 1056 3291 1056 2328 
Q 1056 1369 1301 889 
Q 1547 409 2034 409 
Q 2525 409 2770 889 
Q 3016 1369 3016 2328 
Q 3016 3291 2770 3770 
Q 2525 4250 2034 4250 
z
M 2034 4750 
Q 2819 4750 3233 4129 
Q 3647 3509 3647 2328 
Q 3647 1150 3233 529 
Q 2819 -91 2034 -91 
Q 1250 -91 836 529 
Q 422 1150 422 2328 
Q 422 3509 836 4129 
Q 1250 4750 2034 4750 
z
" transform="scale(0.015625)"/>
       </defs>
       <use xlink:href="#DejaVuSans-30"/>
      </g>
     </g>
    </g>
    <g id="xtick_2">
     <g id="line2d_2">
      <g>
       <use xlink:href="#me57bac103c" x="181.492056" y="302.4" style="stroke: #000000; stroke-width: 0.8"/>
      </g>
     </g>
     <g id="text_2">
      <!-- 10 -->
      <g transform="translate(175.129556 316.998437)scale(0.1 -0.1)">
       <defs>
        <path id="DejaVuSans-31" d="M 794 531 
L 1825 531 
L 1825 4091 
L 703 3866 
L 703 4441 
L 1819 4666 
L 2450 4666 
L 2450 531 
L 3481 531 
L 3481 0 
L 794 0 
L 794 531 
z
" transform="scale(0.015625)"/>
       </defs>
       <use xlink:href="#DejaVuSans-31"/>
       <use xlink:href="#DejaVuSans-30" x="63.623047"/>
      </g>
     </g>
    </g>
    <g id="xtick_3">
     <g id="line2d_3">
      <g>
       <use xlink:href="#me57bac103c" x="286.484112" y="302.4" style="stroke: #000000; stroke-width: 0.8"/>
      </g>
     </g>
     <g id="text_3">
      <!-- 20 -->
      <g transform="translate(280.121612 316.998437)scale(0.1 -0.1)">
       <defs>
        <path id="DejaVuSans-32" d="M 1228 531 
L 3431 531 
L 3431 0 
L 469 0 
L 469 531 
Q 828 903 1448 1529 
Q 2069 2156 2228 2338 
Q 2531 2678 2651 2914 
Q 2772 3150 2772 3378 
Q 2772 3750 2511 3984 
Q 2250 4219 1831 4219 
Q 1534 4219 1204 4116 
Q 875 4013 500 3803 
L 500 4441 
Q 881 4594 1212 4672 
Q 1544 4750 1819 4750 
Q 2544 4750 2975 4387 
Q 3406 4025 3406 3419 
Q 3406 3131 3298 2873 
Q 3191 2616 2906 2266 
Q 2828 2175 2409 1742 
Q 1991 1309 1228 531 
z
" transform="scale(0.015625)"/>
       </defs>
       <use xlink:href="#DejaVuSans-32"/>
       <use xlink:href="#DejaVuSans-30" x="63.623047"/>
      </g>
     </g>
    </g>
    <g id="xtick_4">
     <g id="line2d_4">
      <g>
       <use xlink:href="#me57bac103c" x="391.476168" y="302.4" style="stroke: #000000; stroke-width: 0.8"/>
      </g>
     </g>
     <g id="text_4">
      <!-- 30 -->
      <g transform="translate(385.113668 316.998437)scale(0.1 -0.1)">
       <defs>
        <path id="DejaVuSans-33" d="M 2597 2516 
Q 3050 2419 3304 2112 
Q 3559 1806 3559 1356 
Q 3559 666 3084 287 
Q 2609 -91 1734 -91 
Q 1441 -91 1130 -33 
Q 819 25 488 141 
L 488 750 
Q 750 597 1062 519 
Q 1375 441 1716 441 
Q 2309 441 2620 675 
Q 2931 909 2931 1356 
Q 2931 1769 2642 2001 
Q 2353 2234 1838 2234 
L 1294 2234 
L 1294 2753 
L 1863 2753 
Q 2328 2753 2575 2939 
Q 2822 3125 2822 3475 
Q 2822 3834 2567 4026 
Q 2313 4219 1838 4219 
Q 1578 4219 1281 4162 
Q 984 4106 628 3988 
L 628 4550 
Q 988 4650 1302 4700 
Q 1616 4750 1894 4750 
Q 2613 4750 3031 4423 
Q 3450 4097 3450 3541 
Q 3450 3153 3228 2886 
Q 3006 2619 2597 2516 
z
" transform="scale(0.015625)"/>
       </defs>
       <use xlink:href="#DejaVuSans-33"/>
       <use xlink:href="#DejaVuSans-30" x="63.623047"/>
      </g>
     </g>
    </g>
    <g id="xtick_5">
     <g id="line2d_5">
      <g>
       <use xlink:href="#me57bac103c" x="496.468224" y="302.4" style="stroke: #000000; stroke-width: 0.8"/>
      </g>
     </g>
     <g id="text_5">
      <!-- 40 -->
      <g transform="translate(490.105724 316.998437)scale(0.1 -0.1)">
       <defs>
        <path id="DejaVuSans-34" d="M 2419 4116 
L 825 1625 
L 2419 1625 
L 2419 4116 
z
M 2253 4666 
L 3047 4666 
L 3047 1625 
L 3713 1625 
L 3713 1100 
L 3047 1100 
L 3047 0 
L 2419 0 
L 2419 1100 
L 313 1100 
L 313 1709 
L 2253 4666 
z
" transform="scale(0.015625)"/>
       </defs>
       <use xlink:href="#DejaVuSans-34"/>
       <use xlink:href="#DejaVuSans-30" x="63.623047"/>
      </g>
     </g>
    </g>
    <g id="text_6">
     <!-- Anteil verklebter Grenzlänge [%] -->
     <g transform="translate(231.548438 330.676562)scale(0.1 -0.1)">
      <defs>
       <path id="DejaVuSans-41" d="M 2188 4044 
L 1331 1722 
L 3047 1722 
L 2188 4044 
z
M 1831 4666 
L 2547 4666 
L 4325 0 
L 3669 0 
L 3244 1197 
L 1141 1197 
L 716 0 
L 50 0 
L 1831 4666 
z
" transform="scale(0.015625)"/>
       <path id="DejaVuSans-6e" d="M 3513 2113 
L 3513 0 
L 2938 0 
L 2938 2094 
Q 2938 2591 2744 2837 
Q 2550 3084 2163 3084 
Q 1697 3084 1428 2787 
Q 1159 2491 1159 1978 
L 1159 0 
L 581 0 
L 581 3500 
L 1159 3500 
L 1159 2956 
Q 1366 3272 1645 3428 
Q 1925 3584 2291 3584 
Q 2894 3584 3203 3211 
Q 3513 2838 3513 2113 
z
" transform="scale(0.015625)"/>
       <path id="DejaVuSans-74" d="M 1172 4494 
L 1172 3500 
L 2356 3500 
L 2356 3053 
L 1172 3053 
L 1172 1153 
Q 1172 725 1289 603 
Q 1406 481 1766 481 
L 2356 481 
L 2356 0 
L 1766 0 
Q 1100 0 847 248 
Q 594 497 594 1153 
L 594 3053 
L 172 3053 
L 172 3500 
L 594 3500 
L 594 4494 
L 1172 4494 
z
" transform="scale(0.015625)"/>
       <path id="DejaVuSans-65" d="M 3597 1894 
L 3597 1613 
L 953 1613 
Q 991 1019 1311 708 
Q 1631 397 2203 397 
Q 2534 397 2845 478 
Q 3156 559 3463 722 
L 3463 178 
Q 3153 47 2828 -22 
Q 2503 -91 2169 -91 
Q 1331 -91 842 396 
Q 353 884 353 1716 
Q 353 2575 817 3079 
Q 1281 3584 2069 3584 
Q 2775 3584 3186 3129 
Q 3597 2675 3597 1894 
z
M 3022 2063 
Q 3016 2534 2758 2815 
Q 2500 3097 2075 3097 
Q 1594 3097 1305 2825 
Q 1016 2553 972 2059 
L 3022 2063 
z
" transform="scale(0.015625)"/>
       <path id="DejaVuSans-69" d="M 603 3500 
L 1178 3500 
L 1178 0 
L 603 0 
L 603 3500 
z
M 603 4863 
L 1178 4863 
L 1178 4134 
L 603 4134 
L 603 4863 
z
" transform="scale(0.015625)"/>
       <path id="DejaVuSans-6c" d="M 603 4863 
L 1178 4863 
L 1178 0 
L 603 0 
L 603 4863 
z
" transform="scale(0.015625)"/>
       <path id="DejaVuSans-20" transform="scale(0.015625)"/>
       <path id="DejaVuSans-76" d="M 191 3500 
L 800 3500 
L 1894 563 
L 2988 3500 
L 3597 3500 
L 2284 0 
L 1503 0 
L 191 3500 
z
" transform="scale(0.015625)"/>
       <path id="DejaVuSans-72" d="M 2631 2963 
Q 2534 3019 2420 3045 
Q 2306 3072 2169 3072 
Q 1681 3072 1420 2755 
Q 1159 2438 1159 1844 
L 1159 0 
L 581 0 
L 581 3500 
L 1159 3500 
L 1159 2956 
Q 1341 3275 1631 3429 
Q 1922 3584 2338 3584 
Q 2397 3584 2469 3576 
Q 2541 3569 2628 3553 
L 2631 2963 
z
" transform="scale(0.015625)"/>
       <path id="DejaVuSans-6b" d="M 581 4863 
L 1159 4863 
L 1159 1991 
L 2875 3500 
L 3609 3500 
L 1753 1863 
L 3688 0 
L 2938 0 
L 1159 1709 
L 1159 0 
L 581 0 
L 581 4863 
z
" transform="scale(0.015625)"/>
       <path id="DejaVuSans-62" d="M 3116 1747 
Q 3116 2381 2855 2742 
Q 2594 3103 2138 3103 
Q 1681 3103 1420 2742 
Q 1159 2381 1159 1747 
Q 1159 1113 1420 752 
Q 1681 391 2138 391 
Q 2594 391 2855 752 
Q 3116 1113 3116 1747 
z
M 1159 2969 
Q 1341 3281 1617 3432 
Q 1894 3584 2278 3584 
Q 2916 3584 3314 3078 
Q 3713 2572 3713 1747 
Q 3713 922 3314 415 
Q 2916 -91 2278 -91 
Q 1894 -91 1617 61 
Q 1341 213 1159 525 
L 1159 0 
L 581 0 
L 581 4863 
L 1159 4863 
L 1159 2969 
z
" transform="scale(0.015625)"/>
       <path id="DejaVuSans-47" d="M 3809 666 
L 3809 1919 
L 2778 1919 
L 2778 2438 
L 4434 2438 
L 4434 434 
Q 4069 175 3628 42 
Q 3188 -91 2688 -91 
Q 1594 -91 976 548 
Q 359 1188 359 2328 
Q 359 3472 976 4111 
Q 1594 4750 2688 4750 
Q 3144 4750 3555 4637 
Q 3966 4525 4313 4306 
L 4313 3634 
Q 3963 3931 3569 4081 
Q 3175 4231 2741 4231 
Q 1884 4231 1454 3753 
Q 1025 3275 1025 2328 
Q 1025 1384 1454 906 
Q 1884 428 2741 428 
Q 3075 428 3337 486 
Q 3600 544 3809 666 
z
" transform="scale(0.015625)"/>
       <path id="DejaVuSans-7a" d="M 353 3500 
L 3084 3500 
L 3084 2975 
L 922 459 
L 3084 459 
L 3084 0 
L 275 0 
L 275 525 
L 2438 3041 
L 353 3041 
L 353 3500 
z
" transform="scale(0.015625)"/>
       <path id="DejaVuSans-e4" d="M 2194 1759 
Q 1497 1759 1228 1600 
Q 959 1441 959 1056 
Q 959 750 1161 570 
Q 1363 391 1709 391 
Q 2188 391 2477 730 
Q 2766 1069 2766 1631 
L 2766 1759 
L 2194 1759 
z
M 3341 1997 
L 3341 0 
L 2766 0 
L 2766 531 
Q 2569 213 2275 61 
Q 1981 -91 1556 -91 
Q 1019 -91 701 211 
Q 384 513 384 1019 
Q 384 1609 779 1909 
Q 1175 2209 1959 2209 
L 2766 2209 
L 2766 2266 
Q 2766 2663 2505 2880 
Q 2244 3097 1772 3097 
Q 1472 3097 1187 3025 
Q 903 2953 641 2809 
L 641 3341 
Q 956 3463 1253 3523 
Q 1550 3584 1831 3584 
Q 2591 3584 2966 3190 
Q 3341 2797 3341 1997 
z
M 2150 4850 
L 2784 4850 
L 2784 4219 
L 2150 4219 
L 2150 4850 
z
M 928 4850 
L 1563 4850 
L 1563 4219 
L 928 4219 
L 928 4850 
z
" transform="scale(0.015625)"/>
       <path id="DejaVuSans-67" d="M 2906 1791 
Q 2906 2416 2648 2759 
Q 2391 3103 1925 3103 
Q 1463 3103 1205 2759 
Q 947 2416 947 1791 
Q 947 1169 1205 825 
Q 1463 481 1925 481 
Q 2391 481 2648 825 
Q 2906 1169 2906 1791 
z
M 3481 434 
Q 3481 -459 3084 -895 
Q 2688 -1331 1869 -1331 
Q 1566 -1331 1297 -1286 
Q 1028 -1241 775 -1147 
L 775 -588 
Q 1028 -725 1275 -790 
Q 1522 -856 1778 -856 
Q 2344 -856 2625 -561 
Q 2906 -266 2906 331 
L 2906 616 
Q 2728 306 2450 153 
Q 2172 0 1784 0 
Q 1141 0 747 490 
Q 353 981 353 1791 
Q 353 2603 747 3093 
Q 1141 3584 1784 3584 
Q 2172 3584 2450 3431 
Q 2728 3278 2906 2969 
L 2906 3500 
L 3481 3500 
L 3481 434 
z
" transform="scale(0.015625)"/>
       <path id="DejaVuSans-5b" d="M 550 4863 
L 1875 4863 
L 1875 4416 
L 1125 4416 
L 1125 -397 
L 1875 -397 
L 1875 -844 
L 550 -844 
L 550 4863 
z
" transform="scale(0.015625)"/>
       <path id="DejaVuSans-25" d="M 4653 2053 
Q 4381 2053 4226 1822 
Q 4072 1591 4072 1178 
Q 4072 772 4226 539 
Q 4381 306 4653 306 
Q 4919 306 5073 539 
Q 5228 772 5228 1178 
Q 5228 1588 5073 1820 
Q 4919 2053 4653 2053 
z
M 4653 2450 
Q 5147 2450 5437 2106 
Q 5728 1763 5728 1178 
Q 5728 594 5436 251 
Q 5144 -91 4653 -91 
Q 4153 -91 3862 251 
Q 3572 594 3572 1178 
Q 3572 1766 3864 2108 
Q 4156 2450 4653 2450 
z
M 1428 4353 
Q 1159 4353 1004 4120 
Q 850 3888 850 3481 
Q 850 3069 1003 2837 
Q 1156 2606 1428 2606 
Q 1700 2606 1854 2837 
Q 2009 3069 2009 3481 
Q 2009 3884 1853 4118 
Q 1697 4353 1428 4353 
z
M 4250 4750 
L 4750 4750 
L 1831 -91 
L 1331 -91 
L 4250 4750 
z
M 1428 4750 
Q 1922 4750 2215 4408 
Q 2509 4066 2509 3481 
Q 2509 2891 2217 2550 
Q 1925 2209 1428 2209 
Q 931 2209 642 2551 
Q 353 2894 353 3481 
Q 353 4063 643 4406 
Q 934 4750 1428 4750 
z
" transform="scale(0.015625)"/>
       <path id="DejaVuSans-5d" d="M 1947 4863 
L 1947 -844 
L 622 -844 
L 622 -397 
L 1369 -397 
L 1369 4416 
L 622 4416 
L 622 4863 
L 1947 4863 
z
" transform="scale(0.015625)"/>
      </defs>
      <use xlink:href="#DejaVuSans-41"/>
      <use xlink:href="#DejaVuSans-6e" x="68.408203"/>
      <use xlink:href="#DejaVuSans-74" x="131.787109"/>
      <use xlink:href="#DejaVuSans-65" x="170.996094"/>
      <use xlink:href="#DejaVuSans-69" x="232.519531"/>
      <use xlink:href="#DejaVuSans-6c" x="260.302734"/>
      <use xlink:href="#DejaVuSans-20" x="288.085938"/>
      <use xlink:href="#DejaVuSans-76" x="319.873047"/>
      <use xlink:href="#DejaVuSans-65" x="379.052734"/>
      <use xlink:href="#DejaVuSans-72" x="440.576172"/>
      <use xlink:href="#DejaVuSans-6b" x="481.689453"/>
      <use xlink:href="#DejaVuSans-6c" x="539.599609"/>
      <use xlink:href="#DejaVuSans-65" x="567.382812"/>
      <use xlink:href="#DejaVuSans-62" x="628.90625"/>
      <use xlink:href="#DejaVuSans-74" x="692.382812"/>
      <use xlink:href="#DejaVuSans-65" x="731.591797"/>
      <use xlink:href="#DejaVuSans-72" x="793.115234"/>
      <use xlink:href="#DejaVuSans-20" x="834.228516"/>
      <use xlink:href="#DejaVuSans-47" x="866.015625"/>
      <use xlink:href="#DejaVuSans-72" x="943.505859"/>
      <use xlink:href="#DejaVuSans-65" x="982.369141"/>
      <use xlink:href="#DejaVuSans-6e" x="1043.892578"/>
      <use xlink:href="#DejaVuSans-7a" x="1107.271484"/>
      <use xlink:href="#DejaVuSans-6c" x="1159.761719"/>
      <use xlink:href="#DejaVuSans-e4" x="1187.544922"/>
      <use xlink:href="#DejaVuSans-6e" x="1248.824219"/>
      <use xlink:href="#DejaVuSans-67" x="1312.203125"/>
      <use xlink:href="#DejaVuSans-65" x="1375.679688"/>
      <use xlink:href="#DejaVuSans-20" x="1437.203125"/>
      <use xlink:href="#DejaVuSans-5b" x="1468.990234"/>
      <use xlink:href="#DejaVuSans-25" x="1508.003906"/>
      <use xlink:href="#DejaVuSans-5d" x="1603.023438"/>
     </g>
    </g>
   </g>
   <g id="matplotlib.axis_2">
    <g id="ytick_1">
     <g id="line2d_6">
      <defs>
       <path id="m75a19a1d12" d="M 0 0 
L -3.5 0 
" style="stroke: #000000; stroke-width: 0.8"/>
      </defs>
      <g>
       <use xlink:href="#m75a19a1d12" x="76.5" y="302.4" style="stroke: #000000; stroke-width: 0.8"/>
      </g>
     </g>
     <g id="text_7">
      <!-- 0 -->
      <g transform="translate(63.1375 306.199219)scale(0.1 -0.1)">
       <use xlink:href="#DejaVuSans-30"/>
      </g>
     </g>
    </g>
    <g id="ytick_2">
     <g id="line2d_7">
      <g>
       <use xlink:href="#m75a19a1d12" x="76.5" y="273.02614" style="stroke: #000000; stroke-width: 0.8"/>
      </g>
     </g>
     <g id="text_8">
      <!-- 50 -->
      <g transform="translate(56.775 276.825359)scale(0.1 -0.1)">
       <defs>
        <path id="DejaVuSans-35" d="M 691 4666 
L 3169 4666 
L 3169 4134 
L 1269 4134 
L 1269 2991 
Q 1406 3038 1543 3061 
Q 1681 3084 1819 3084 
Q 2600 3084 3056 2656 
Q 3513 2228 3513 1497 
Q 3513 744 3044 326 
Q 2575 -91 1722 -91 
Q 1428 -91 1123 -41 
Q 819 9 494 109 
L 494 744 
Q 775 591 1075 516 
Q 1375 441 1709 441 
Q 2250 441 2565 725 
Q 2881 1009 2881 1497 
Q 2881 1984 2565 2268 
Q 2250 2553 1709 2553 
Q 1456 2553 1204 2497 
Q 953 2441 691 2322 
L 691 4666 
z
" transform="scale(0.015625)"/>
       </defs>
       <use xlink:href="#DejaVuSans-35"/>
       <use xlink:href="#DejaVuSans-30" x="63.623047"/>
      </g>
     </g>
    </g>
    <g id="ytick_3">
     <g id="line2d_8">
      <g>
       <use xlink:href="#m75a19a1d12" x="76.5" y="243.65228" style="stroke: #000000; stroke-width: 0.8"/>
      </g>
     </g>
     <g id="text_9">
      <!-- 100 -->
      <g transform="translate(50.4125 247.451498)scale(0.1 -0.1)">
       <use xlink:href="#DejaVuSans-31"/>
       <use xlink:href="#DejaVuSans-30" x="63.623047"/>
       <use xlink:href="#DejaVuSans-30" x="127.246094"/>
      </g>
     </g>
    </g>
    <g id="ytick_4">
     <g id="line2d_9">
      <g>
       <use xlink:href="#m75a19a1d12" x="76.5" y="214.278419" style="stroke: #000000; stroke-width: 0.8"/>
      </g>
     </g>
     <g id="text_10">
      <!-- 150 -->
      <g transform="translate(50.4125 218.077638)scale(0.1 -0.1)">
       <use xlink:href="#DejaVuSans-31"/>
       <use xlink:href="#DejaVuSans-35" x="63.623047"/>
       <use xlink:href="#DejaVuSans-30" x="127.246094"/>
      </g>
     </g>
    </g>
    <g id="ytick_5">
     <g id="line2d_10">
      <g>
       <use xlink:href="#m75a19a1d12" x="76.5" y="184.904559" style="stroke: #000000; stroke-width: 0.8"/>
      </g>
     </g>
     <g id="text_11">
      <!-- 200 -->
      <g transform="translate(50.4125 188.703778)scale(0.1 -0.1)">
       <use xlink:href="#DejaVuSans-32"/>
       <use xlink:href="#DejaVuSans-30" x="63.623047"/>
       <use xlink:href="#DejaVuSans-30" x="127.246094"/>
      </g>
     </g>
    </g>
    <g id="ytick_6">
     <g id="line2d_11">
      <g>
       <use xlink:href="#m75a19a1d12" x="76.5" y="155.530699" style="stroke: #000000; stroke-width: 0.8"/>
      </g>
     </g>
     <g id="text_12">
      <!-- 250 -->
      <g transform="translate(50.4125 159.329918)scale(0.1 -0.1)">
       <use xlink:href="#DejaVuSans-32"/>
       <use xlink:href="#DejaVuSans-35" x="63.623047"/>
       <use xlink:href="#DejaVuSans-30" x="127.246094"/>
      </g>
     </g>
    </g>
    <g id="ytick_7">
     <g id="line2d_12">
      <g>
       <use xlink:href="#m75a19a1d12" x="76.5" y="126.156839" style="stroke: #000000; stroke-width: 0.8"/>
      </g>
     </g>
     <g id="text_13">
      <!-- 300 -->
      <g transform="translate(50.4125 129.956058)scale(0.1 -0.1)">
       <use xlink:href="#DejaVuSans-33"/>
       <use xlink:href="#DejaVuSans-30" x="63.623047"/>
       <use xlink:href="#DejaVuSans-30" x="127.246094"/>
      </g>
     </g>
    </g>
    <g id="ytick_8">
     <g id="line2d_13">
      <g>
       <use xlink:href="#m75a19a1d12" x="76.5" y="96.782979" style="stroke: #000000; stroke-width: 0.8"/>
      </g>
     </g>
     <g id="text_14">
      <!-- 350 -->
      <g transform="translate(50.4125 100.582197)scale(0.1 -0.1)">
       <use xlink:href="#DejaVuSans-33"/>
       <use xlink:href="#DejaVuSans-35" x="63.623047"/>
       <use xlink:href="#DejaVuSans-30" x="127.246094"/>
      </g>
     </g>
    </g>
    <g id="ytick_9">
     <g id="line2d_14">
      <g>
       <use xlink:href="#m75a19a1d12" x="76.5" y="67.409119" style="stroke: #000000; stroke-width: 0.8"/>
      </g>
     </g>
     <g id="text_15">
      <!-- 400 -->
      <g transform="translate(50.4125 71.208337)scale(0.1 -0.1)">
       <use xlink:href="#DejaVuSans-34"/>
       <use xlink:href="#DejaVuSans-30" x="63.623047"/>
       <use xlink:href="#DejaVuSans-30" x="127.246094"/>
      </g>
     </g>
    </g>
    <g id="text_16">
     <!-- Anzahl Gemeinden -->
     <g transform="translate(44.332812 219.235219)rotate(-90)scale(0.1 -0.1)">
      <defs>
       <path id="DejaVuSans-61" d="M 2194 1759 
Q 1497 1759 1228 1600 
Q 959 1441 959 1056 
Q 959 750 1161 570 
Q 1363 391 1709 391 
Q 2188 391 2477 730 
Q 2766 1069 2766 1631 
L 2766 1759 
L 2194 1759 
z
M 3341 1997 
L 3341 0 
L 2766 0 
L 2766 531 
Q 2569 213 2275 61 
Q 1981 -91 1556 -91 
Q 1019 -91 701 211 
Q 384 513 384 1019 
Q 384 1609 779 1909 
Q 1175 2209 1959 2209 
L 2766 2209 
L 2766 2266 
Q 2766 2663 2505 2880 
Q 2244 3097 1772 3097 
Q 1472 3097 1187 3025 
Q 903 2953 641 2809 
L 641 3341 
Q 956 3463 1253 3523 
Q 1550 3584 1831 3584 
Q 2591 3584 2966 3190 
Q 3341 2797 3341 1997 
z
" transform="scale(0.015625)"/>
       <path id="DejaVuSans-68" d="M 3513 2113 
L 3513 0 
L 2938 0 
L 2938 2094 
Q 2938 2591 2744 2837 
Q 2550 3084 2163 3084 
Q 1697 3084 1428 2787 
Q 1159 2491 1159 1978 
L 1159 0 
L 581 0 
L 581 4863 
L 1159 4863 
L 1159 2956 
Q 1366 3272 1645 3428 
Q 1925 3584 2291 3584 
Q 2894 3584 3203 3211 
Q 3513 2838 3513 2113 
z
" transform="scale(0.015625)"/>
       <path id="DejaVuSans-6d" d="M 3328 2828 
Q 3544 3216 3844 3400 
Q 4144 3584 4550 3584 
Q 5097 3584 5394 3201 
Q 5691 2819 5691 2113 
L 5691 0 
L 5113 0 
L 5113 2094 
Q 5113 2597 4934 2840 
Q 4756 3084 4391 3084 
Q 3944 3084 3684 2787 
Q 3425 2491 3425 1978 
L 3425 0 
L 2847 0 
L 2847 2094 
Q 2847 2600 2669 2842 
Q 2491 3084 2119 3084 
Q 1678 3084 1418 2786 
Q 1159 2488 1159 1978 
L 1159 0 
L 581 0 
L 581 3500 
L 1159 3500 
L 1159 2956 
Q 1356 3278 1631 3431 
Q 1906 3584 2284 3584 
Q 2666 3584 2933 3390 
Q 3200 3197 3328 2828 
z
" transform="scale(0.015625)"/>
       <path id="DejaVuSans-64" d="M 2906 2969 
L 2906 4863 
L 3481 4863 
L 3481 0 
L 2906 0 
L 2906 525 
Q 2725 213 2448 61 
Q 2172 -91 1784 -91 
Q 1150 -91 751 415 
Q 353 922 353 1747 
Q 353 2572 751 3078 
Q 1150 3584 1784 3584 
Q 2172 3584 2448 3432 
Q 2725 3281 2906 2969 
z
M 947 1747 
Q 947 1113 1208 752 
Q 1469 391 1925 391 
Q 2381 391 2643 752 
Q 2906 1113 2906 1747 
Q 2906 2381 2643 2742 
Q 2381 3103 1925 3103 
Q 1469 3103 1208 2742 
Q 947 2381 947 1747 
z
" transform="scale(0.015625)"/>
      </defs>
      <use xlink:href="#DejaVuSans-41"/>
      <use xlink:href="#DejaVuSans-6e" x="68.408203"/>
      <use xlink:href="#DejaVuSans-7a" x="131.787109"/>
      <use xlink:href="#DejaVuSans-61" x="184.277344"/>
      <use xlink:href="#DejaVuSans-68" x="245.556641"/>
      <use xlink:href="#DejaVuSans-6c" x="308.935547"/>
      <use xlink:href="#DejaVuSans-20" x="336.71875"/>
      <use xlink:href="#DejaVuSans-47" x="368.505859"/>
      <use xlink:href="#DejaVuSans-65" x="445.996094"/>
      <use xlink:href="#DejaVuSans-6d" x="507.519531"/>
      <use xlink:href="#DejaVuSans-65" x="604.931641"/>
      <use xlink:href="#DejaVuSans-69" x="666.455078"/>
      <use xlink:href="#DejaVuSans-6e" x="694.238281"/>
      <use xlink:href="#DejaVuSans-64" x="757.617188"/>
      <use xlink:href="#DejaVuSans-65" x="821.09375"/>
      <use xlink:href="#DejaVuSans-6e" x="882.617188"/>
     </g>
    </g>
   </g>
   <g id="patch_83">
    <path d="M 76.5 302.4 
L 76.5 41.472 
" style="fill: none; stroke: #000000; stroke-width: 0.8; stroke-linejoin: miter; stroke-linecap: square"/>
   </g>
   <g id="patch_84">
    <path d="M 550.8 302.4 
L 550.8 41.472 
" style="fill: none; stroke: #000000; stroke-width: 0.8; stroke-linejoin: miter; stroke-linecap: square"/>
   </g>
   <g id="patch_85">
    <path d="M 76.5 302.4 
L 550.8 302.4 
" style="fill: none; stroke: #000000; stroke-width: 0.8; stroke-linejoin: miter; stroke-linecap: square"/>
   </g>
   <g id="patch_86">
    <path d="M 76.5 41.472 
L 550.8 41.472 
" style="fill: none; stroke: #000000; stroke-width: 0.8; stroke-linejoin: miter; stroke-linecap: square"/>
   </g>
   <g id="text_17">
    <!-- Mit Verkehrswegen verklebte Landnutzungsgrenzen -->
    <g transform="translate(157.738125 35.472)scale(0.12 -0.12)">
     <defs>
      <path id="DejaVuSans-4d" d="M 628 4666 
L 1569 4666 
L 2759 1491 
L 3956 4666 
L 4897 4666 
L 4897 0 
L 4281 0 
L 4281 4097 
L 3078 897 
L 2444 897 
L 1241 4097 
L 1241 0 
L 628 0 
L 628 4666 
z
" transform="scale(0.015625)"/>
      <path id="DejaVuSans-56" d="M 1831 0 
L 50 4666 
L 709 4666 
L 2188 738 
L 3669 4666 
L 4325 4666 
L 2547 0 
L 1831 0 
z
" transform="scale(0.015625)"/>
      <path id="DejaVuSans-73" d="M 2834 3397 
L 2834 2853 
Q 2591 2978 2328 3040 
Q 2066 3103 1784 3103 
Q 1356 3103 1142 2972 
Q 928 2841 928 2578 
Q 928 2378 1081 2264 
Q 1234 2150 1697 2047 
L 1894 2003 
Q 2506 1872 2764 1633 
Q 3022 1394 3022 966 
Q 3022 478 2636 193 
Q 2250 -91 1575 -91 
Q 1294 -91 989 -36 
Q 684 19 347 128 
L 347 722 
Q 666 556 975 473 
Q 1284 391 1588 391 
Q 1994 391 2212 530 
Q 2431 669 2431 922 
Q 2431 1156 2273 1281 
Q 2116 1406 1581 1522 
L 1381 1569 
Q 847 1681 609 1914 
Q 372 2147 372 2553 
Q 372 3047 722 3315 
Q 1072 3584 1716 3584 
Q 2034 3584 2315 3537 
Q 2597 3491 2834 3397 
z
" transform="scale(0.015625)"/>
      <path id="DejaVuSans-77" d="M 269 3500 
L 844 3500 
L 1563 769 
L 2278 3500 
L 2956 3500 
L 3675 769 
L 4391 3500 
L 4966 3500 
L 4050 0 
L 3372 0 
L 2619 2869 
L 1863 0 
L 1184 0 
L 269 3500 
z
" transform="scale(0.015625)"/>
      <path id="DejaVuSans-4c" d="M 628 4666 
L 1259 4666 
L 1259 531 
L 3531 531 
L 3531 0 
L 628 0 
L 628 4666 
z
" transform="scale(0.015625)"/>
      <path id="DejaVuSans-75" d="M 544 1381 
L 544 3500 
L 1119 3500 
L 1119 1403 
Q 1119 906 1312 657 
Q 1506 409 1894 409 
Q 2359 409 2629 706 
Q 2900 1003 2900 1516 
L 2900 3500 
L 3475 3500 
L 3475 0 
L 2900 0 
L 2900 538 
Q 2691 219 2414 64 
Q 2138 -91 1772 -91 
Q 1169 -91 856 284 
Q 544 659 544 1381 
z
M 1991 3584 
L 1991 3584 
z
" transform="scale(0.015625)"/>
     </defs>
     <use xlink:href="#DejaVuSans-4d"/>
     <use xlink:href="#DejaVuSans-69" x="86.279297"/>
     <use xlink:href="#DejaVuSans-74" x="114.0625"/>
     <use xlink:href="#DejaVuSans-20" x="153.271484"/>
     <use xlink:href="#DejaVuSans-56" x="185.058594"/>
     <use xlink:href="#DejaVuSans-65" x="245.716797"/>
     <use xlink:href="#DejaVuSans-72" x="307.240234"/>
     <use xlink:href="#DejaVuSans-6b" x="348.353516"/>
     <use xlink:href="#DejaVuSans-65" x="402.638672"/>
     <use xlink:href="#DejaVuSans-68" x="464.162109"/>
     <use xlink:href="#DejaVuSans-72" x="527.541016"/>
     <use xlink:href="#DejaVuSans-73" x="568.654297"/>
     <use xlink:href="#DejaVuSans-77" x="620.753906"/>
     <use xlink:href="#DejaVuSans-65" x="702.541016"/>
     <use xlink:href="#DejaVuSans-67" x="764.064453"/>
     <use xlink:href="#DejaVuSans-65" x="827.541016"/>
     <use xlink:href="#DejaVuSans-6e" x="889.064453"/>
     <use xlink:href="#DejaVuSans-20" x="952.443359"/>
     <use xlink:href="#DejaVuSans-76" x="984.230469"/>
     <use xlink:href="#DejaVuSans-65" x="1043.410156"/>
     <use xlink:href="#DejaVuSans-72" x="1104.933594"/>
     <use xlink:href="#DejaVuSans-6b" x="1146.046875"/>
     <use xlink:href="#DejaVuSans-6c" x="1203.957031"/>
     <use xlink:href="#DejaVuSans-65" x="1231.740234"/>
     <use xlink:href="#DejaVuSans-62" x="1293.263672"/>
     <use xlink:href="#DejaVuSans-74" x="1356.740234"/>
     <use xlink:href="#DejaVuSans-65" x="1395.949219"/>
     <use xlink:href="#DejaVuSans-20" x="1457.472656"/>
     <use xlink:href="#DejaVuSans-4c" x="1489.259766"/>
     <use xlink:href="#DejaVuSans-61" x="1544.972656"/>
     <use xlink:href="#DejaVuSans-6e" x="1606.251953"/>
     <use xlink:href="#DejaVuSans-64" x="1669.630859"/>
     <use xlink:href="#DejaVuSans-6e" x="1733.107422"/>
     <use xlink:href="#DejaVuSans-75" x="1796.486328"/>
     <use xlink:href="#DejaVuSans-74" x="1859.865234"/>
     <use xlink:href="#DejaVuSans-7a" x="1899.074219"/>
     <use xlink:href="#DejaVuSans-75" x="1951.564453"/>
     <use xlink:href="#DejaVuSans-6e" x="2014.943359"/>
     <use xlink:href="#DejaVuSans-67" x="2078.322266"/>
     <use xlink:href="#DejaVuSans-73" x="2141.798828"/>
     <use xlink:href="#DejaVuSans-67" x="2193.898438"/>
     <use xlink:href="#DejaVuSans-72" x="2257.375"/>
     <use xlink:href="#DejaVuSans-65" x="2296.238281"/>
     <use xlink:href="#DejaVuSans-6e" x="2357.761719"/>
     <use xlink:href="#DejaVuSans-7a" x="2421.140625"/>
     <use xlink:href="#DejaVuSans-65" x="2473.630859"/>
     <use xlink:href="#DejaVuSans-6e" x="2535.154297"/>
    </g>
   </g>
  </g>
 </g>
 <defs>
  <clipPath id="p6958c0f33e">
   <rect x="76.5" y="41.472" width="474.3" height="260.928"/>
  </clipPath>
 </defs>
</svg>
